<?xml version="1.0" encoding="utf-8"?>
<!-- Generator: Adobe Illustrator 22.0.1, SVG Export Plug-In . SVG Version: 6.00 Build 0)  -->
<svg version="1.1" id="Layer_1" xmlns="http://www.w3.org/2000/svg" xmlns:xlink="http://www.w3.org/1999/xlink" x="0px" y="0px"
	 viewBox="0 0 283.5 61.1" style="enable-background:new 0 0 283.5 61.1;" xml:space="preserve">
<path d="M149,31.4v-6.5h45.5v-9.8h-56.2v16.7c0,1.7,0.3,3.2,0.9,4.6c0.6,1.3,1.4,2.5,2.4,3.4c1,1,2.1,1.7,3.3,2.2
	c1.3,0.5,2.5,0.8,3.8,0.8h47.5v-9.8H151C149.9,33.2,149,32.6,149,31.4"/>
<path d="M138.4,6.4V10h57.9V0.2H145C141,0.2,138.4,2.7,138.4,6.4"/>
<path d="M84.1,31.4v-6.5h45.5v-9.8H73.4v16.7c0,1.7,0.3,3.2,0.9,4.6c0.6,1.3,1.4,2.5,2.3,3.4c1,1,2.1,1.7,3.3,2.2
	c1.3,0.5,2.5,0.8,3.8,0.8h47.5v-9.8H86C84.9,33.2,84.1,32.6,84.1,31.4"/>
<path d="M73.4,6.4V10h57.9V0.2H80C76,0.2,73.4,2.7,73.4,6.4"/>
<path d="M252.7,0.2v30.1L217.1,1.9c-1.6-1.2-3.8-1.9-6-1.9c-3.8,0-8,2.2-8,8.4V43h10.8V12.8l35.7,28.5c1.6,1.2,3.8,1.9,6,1.9
	c2.2,0,4.1-0.7,5.5-2c1.2-1,2.5-3,2.5-6.5V0.2H252.7z"/>
<path d="M26,17.2c1.9,0.8,3.8,1.3,5.5,1.5c1.7,0.2,3.6,0.3,5.7,0.3H39h0c1.8-0.1,3.5-0.2,5-0.4c1.6-0.3,3.3-0.8,5.2-1.7
	c1.8-0.9,3.8-2.1,6.1-3.8L71.4,0.2H55.2l-7.3,6c-1.4,1-2.6,1.8-3.7,2.3c-1,0.5-2,0.8-2.8,1c-0.9,0.1-1.9,0.2-3,0.3h-1.1
	c-1.3,0-2.5-0.1-3.5-0.2c-0.9-0.1-2-0.4-3.1-0.9c-1.1-0.5-2.4-1.3-3.8-2.3l-7.7-6.2H2.8l16.7,13.3C21.9,15.2,24.1,16.4,26,17.2"/>
<path d="M49.1,24c-1.8-0.9-3.5-1.4-5.2-1.7c-1.5-0.2-3.2-0.4-5-0.4h-1.8c-2.1,0-4,0.1-5.7,0.3c-1.7,0.2-3.6,0.7-5.5,1.5
	c-1.9,0.8-4,2.1-6.4,3.7L0,43h16.3l10.5-8.5c1.4-1,2.7-1.8,3.8-2.3c1.1-0.5,2.1-0.8,3.1-0.9c1-0.1,2.2-0.2,3.5-0.2h1.1
	c1.1,0,2.1,0.1,3,0.3c0.9,0.1,1.8,0.5,2.8,1c1.1,0.5,2.3,1.3,3.6,2.3L58,43h16.2l-19-15.2C53,26.2,50.9,24.9,49.1,24"/>
<polygon points="270.1,0.2 275.4,0.2 275.4,1.2 273.3,1.2 273.3,6.8 272.2,6.8 272.2,1.2 270.1,1.2 "/>
<polygon points="276.7,0.2 278.3,0.2 280.1,5.3 280.1,5.3 281.9,0.2 283.5,0.2 283.5,6.8 282.4,6.8 282.4,1.7 282.4,1.7 280.5,6.8 
	279.6,6.8 277.8,1.7 277.8,1.7 277.8,6.8 276.7,6.8 "/>
<polygon points="48.8,53.4 50.3,53.4 52,56.1 53.8,53.4 55.3,53.4 52.8,57.1 55.5,61 53.9,61 52,58.1 50.1,61 48.6,61 51.2,57.1 "/>
<rect x="62.8" y="57.1" width="3.1" height="1.1"/>
<polygon points="74.1,53.4 79.5,53.4 79.5,54.6 75.4,54.6 75.4,56.5 79.2,56.5 79.2,57.6 75.4,57.6 75.4,59.8 79.6,59.8 79.6,61 
	74.1,61 "/>
<polygon points="86.9,53.4 88.5,53.4 90.2,56.1 92,53.4 93.5,53.4 91,57.1 93.7,61 92.1,61 90.2,58.1 88.3,61 86.8,61 89.4,57.1 "/>
<path d="M101.3,53.4h3.3c2.2,0,2.6,1.4,2.6,2.3c0,0.9-0.4,2.3-2.6,2.3h-2V61h-1.3V53.4z M102.6,57h1.9c0.6,0,1.3-0.3,1.3-1.2
	c0-1-0.6-1.2-1.3-1.2h-2V57z"/>
<polygon points="115.2,53.4 120.6,53.4 120.6,54.6 116.5,54.6 116.5,56.5 120.3,56.5 120.3,57.6 116.5,57.6 116.5,59.8 120.7,59.8 
	120.7,61 115.2,61 "/>
<path d="M128.7,53.4h3.6c1.6,0,2.5,0.8,2.5,2c0,1.4-1,1.8-1.2,1.9v0c0.5,0.1,1.1,0.4,1.1,1.6c0,0.9,0.1,1.7,0.4,2h-1.4
	c-0.2-0.3-0.2-0.7-0.2-1.1c0-1.4-0.3-2-1.5-2H130V61h-1.3V53.4z M130,56.8h2.2c0.8,0,1.3-0.4,1.3-1.2c0-1-0.6-1.2-1.3-1.2H130V56.8z
	"/>
<rect x="143" y="53.4" width="1.3" height="7.5"/>
<polygon points="152.8,53.4 158.2,53.4 158.2,54.6 154.1,54.6 154.1,56.5 157.9,56.5 157.9,57.6 154.1,57.6 154.1,59.8 158.3,59.8 
	158.3,61 152.8,61 "/>
<polygon points="166.3,53.4 167.7,53.4 171.1,59 171.1,59 171.1,53.4 172.4,53.4 172.4,61 171,61 167.5,55.4 167.5,55.4 167.5,61 
	166.3,61 "/>
<path d="M185.9,55.8c-0.2-0.9-0.8-1.5-1.9-1.5c-1.6,0-2.3,1.4-2.3,2.9c0,1.4,0.7,2.9,2.3,2.9c1.2,0,1.8-0.9,1.9-2h1.3
	c-0.1,1.8-1.4,3.1-3.2,3.1c-2.3,0-3.6-1.8-3.6-3.9c0-2.2,1.4-3.9,3.6-3.9c1.7,0,3,1,3.2,2.6H185.9z"/>
<polygon points="195.3,53.4 200.7,53.4 200.7,54.6 196.6,54.6 196.6,56.5 200.4,56.5 200.4,57.6 196.6,57.6 196.6,59.8 200.8,59.8 
	200.8,61 195.3,61 "/>
<path d="M209.7,58.4c0,1.2,0.9,1.6,1.9,1.6c1.2,0,1.6-0.6,1.6-1.1c0-0.6-0.3-0.8-0.6-0.9c-0.5-0.2-1.2-0.3-2.2-0.6
	c-1.3-0.3-1.7-1.1-1.7-1.9c0-1.5,1.4-2.2,2.8-2.2c1.6,0,2.9,0.8,2.9,2.4h-1.3c-0.1-1-0.7-1.3-1.6-1.3c-0.6,0-1.4,0.2-1.4,1
	c0,0.5,0.4,0.8,0.9,1c0.1,0,1.8,0.5,2.2,0.6c1,0.3,1.5,1.1,1.5,1.9c0,1.7-1.5,2.4-3,2.4c-1.7,0-3.1-0.8-3.1-2.7H209.7z"/>
</svg>
