<?xml version="1.0" encoding="utf-8"?>
<!-- Generator: Adobe Illustrator 22.1.0, SVG Export Plug-In . SVG Version: 6.00 Build 0)  -->
<svg version="1.1" id="Layer_1" xmlns="http://www.w3.org/2000/svg" xmlns:xlink="http://www.w3.org/1999/xlink" x="0px" y="0px"
	 viewBox="0 0 157.8 157.8" style="enable-background:new 0 0 157.8 157.8;" xml:space="preserve">
<path d="M78.9,0C35.3,0,0,35.3,0,78.9c0,43.6,35.3,78.9,78.9,78.9c43.6,0,78.9-35.3,78.9-78.9C157.8,35.3,122.5,0,78.9,0z
	 M78.9,148.1c-38.2,0-69.2-31-69.2-69.2c0-38.2,31-69.2,69.2-69.2c38.2,0,69.2,31,69.2,69.2C148.1,117.1,117.1,148.1,78.9,148.1z"/>
<g>
	<path d="M60.2,65.3c-7.8,0-14.1-6.3-14.1-14.1c0-8.8,4.3-17.9,12.3-26.1c0.5-0.5,1.1-0.8,1.8-0.8l0,0c0.7,0,1.3,0.3,1.8,0.8
		c8.1,8.2,12.3,17.2,12.3,26.1C74.4,59,68,65.3,60.2,65.3z M60.2,30.5c-6,6.7-9.1,13.8-9.1,20.7c0,5,4.1,9.1,9.1,9.1
		c5,0,9.1-4.1,9.1-9.1C69.3,44.2,66.3,37.3,60.2,30.5z"/>
</g>
<g>
	<path d="M100.1,83.3c-7.8,0-14.1-6.3-14.1-14.1c0-8.9,4.3-17.9,12.4-26.1c0.5-0.5,1.1-0.7,1.8-0.7l0,0c0.7,0,1.3,0.3,1.8,0.7
		c8.2,8.4,12.3,17.1,12.3,26.1C114.2,76.9,107.9,83.3,100.1,83.3z M100.1,48.5c-6,6.7-9.1,13.8-9.1,20.7c0,5,4.1,9.1,9.1,9.1
		c5,0,9.1-4.1,9.1-9.1C109.2,62.2,106.2,55.3,100.1,48.5z"/>
</g>
<g>
	<path d="M71.8,113.3c-7.8,0-14.1-6.3-14.1-14.1c0-8.8,4.3-17.8,12.3-26.1c0.9-1,2.6-1,3.6,0C81.8,81.4,86,90.2,86,99.2
		C86,107,79.6,113.3,71.8,113.3z M71.8,78.5c-6.1,6.8-9.1,13.7-9.1,20.7c0,5,4.1,9.1,9.1,9.1c5,0,9.1-4.1,9.1-9.1
		C81,92.2,77.9,85.3,71.8,78.5z"/>
</g>
</svg>
