<?xml version="1.0" encoding="utf-8"?>
<!-- Generator: Adobe Illustrator 22.1.0, SVG Export Plug-In . SVG Version: 6.00 Build 0)  -->
<svg version="1.1" id="Layer_1" xmlns="http://www.w3.org/2000/svg" xmlns:xlink="http://www.w3.org/1999/xlink" x="0px" y="0px"
	 viewBox="0 0 157.8 157.8" style="enable-background:new 0 0 157.8 157.8;" xml:space="preserve">
<style type="text/css">
	.st0{fill:#231F20;}
	.st1{enable-background:new    ;}
</style>
<path class="st0" d="M78.9,0C35.3,0,0,35.3,0,78.9s35.3,78.9,78.9,78.9s78.9-35.3,78.9-78.9S122.5,0,78.9,0z M78.9,148.1
	c-38.2,0-69.2-31-69.2-69.2s31-69.2,69.2-69.2s69.2,31,69.2,69.2S117.1,148.1,78.9,148.1z"/>
<g class="st1">
	<path d="M50.8,63.6V69H34.6v10.1h12.7v5.2H34.6v10.3h16.1v5.4H27.8V63.6H50.8z"/>
	<path d="M77.6,63.6V69H61.5v10.8h13.6v5.4H61.5V100h-6.8V63.6H77.6z"/>
	<path d="M79.8,82.2h13v5.2h-13V82.2z"/>
	<path d="M116.1,86.6c0.2,0.6,0.5,1.2,0.7,1.7c0.2-0.6,0.5-1.2,0.7-1.8c0.3-0.6,0.5-1.1,0.8-1.7l10.8-20.1c0.1-0.3,0.3-0.5,0.4-0.6
		c0.1-0.2,0.3-0.3,0.5-0.3c0.2-0.1,0.4-0.1,0.6-0.1s0.5,0,0.8,0h5.1V100h-5.9V76.5c0-0.4,0-0.9,0-1.4c0-0.5,0.1-1,0.1-1.6l-11,20.6
		c-0.3,0.5-0.6,0.8-1,1.1s-0.9,0.4-1.4,0.4h-0.9c-0.5,0-1-0.1-1.4-0.4s-0.7-0.6-1-1.1l-11.2-20.7c0.1,0.6,0.1,1.1,0.1,1.6
		c0,0.5,0,1,0,1.5V100H97V63.6h5.1c0.3,0,0.6,0,0.8,0c0.2,0,0.4,0.1,0.6,0.1c0.2,0.1,0.3,0.2,0.5,0.3c0.2,0.2,0.3,0.4,0.4,0.6
		l10.9,20.2C115.6,85.4,115.8,86,116.1,86.6z"/>
</g>
</svg>
