<?xml version="1.0" encoding="utf-8"?>
<!-- Generator: Adobe Illustrator 22.1.0, SVG Export Plug-In . SVG Version: 6.00 Build 0)  -->
<svg version="1.1" id="Layer_1" xmlns="http://www.w3.org/2000/svg" xmlns:xlink="http://www.w3.org/1999/xlink" x="0px" y="0px"
	 viewBox="0 0 157.8 157.8" style="enable-background:new 0 0 157.8 157.8;" xml:space="preserve">
<style type="text/css">
	.st0{fill:#231F20;}
	.st1{enable-background:new    ;}
</style>
<path class="st0" d="M78.9,0C35.3,0,0,35.3,0,78.9s35.3,78.9,78.9,78.9s78.9-35.3,78.9-78.9S122.5,0,78.9,0z M78.9,148.1
	c-38.2,0-69.2-31-69.2-69.2s31-69.2,69.2-69.2s69.2,31,69.2,69.2S117.1,148.1,78.9,148.1z"/>
<g>
	<path class="st0" d="M18.1,76.4c0-33.1,26.9-60,59.9-60c3.1,0,5.7,2.5,5.7,5.7c0,3.1-2.5,5.7-5.7,5.7c-26.8,0-48.6,21.8-48.6,48.6
		c0,3.1-2.5,5.7-5.7,5.7S18.1,79.5,18.1,76.4z"/>
</g>
<g class="st1">
	<path d="M67.7,76.1h2.6c1,0,1.9-0.1,2.6-0.4c0.7-0.3,1.3-0.7,1.7-1.4l16.2-20.5c0.7-0.9,1.4-1.5,2.1-1.8c0.7-0.3,1.7-0.5,2.8-0.5
		h9.4L85.4,75.9c-0.6,0.8-1.2,1.4-1.8,1.9c-0.6,0.5-1.2,0.9-1.8,1.3c0.9,0.3,1.7,0.8,2.4,1.4c0.7,0.6,1.4,1.4,2.1,2.3l20.4,27.5
		h-9.7c-1.3,0-2.3-0.2-2.9-0.5s-1.2-0.9-1.6-1.6L75.9,86.4c-0.5-0.7-1.2-1.2-1.8-1.5c-0.7-0.3-1.6-0.5-2.9-0.5h-3.5v25.9H56.8V51.4
		h10.9V76.1z"/>
</g>
</svg>
