<?xml version="1.0" encoding="utf-8"?>
<!-- Generator: Adobe Illustrator 22.1.0, SVG Export Plug-In . SVG Version: 6.00 Build 0)  -->
<svg version="1.1" id="Layer_1" xmlns="http://www.w3.org/2000/svg" xmlns:xlink="http://www.w3.org/1999/xlink" x="0px" y="0px"
	 viewBox="0 0 180.6 136.2" style="enable-background:new 0 0 180.6 136.2;" xml:space="preserve">
<style type="text/css">
	.st0{fill-rule:evenodd;clip-rule:evenodd;}
	.st1{fill:#231F20;}
	.st2{fill:none;stroke:#000000;stroke-width:4;stroke-linecap:round;stroke-linejoin:round;stroke-miterlimit:10;}
</style>
<path d="M90.3,0C52.7,0,22.2,30.5,22.2,68.1c0,37.6,30.5,68.1,68.1,68.1c37.6,0,68.1-30.5,68.1-68.1C158.4,30.5,127.9,0,90.3,0z
	 M90.3,127.8c-32.9,0-59.7-26.8-59.7-59.7c0-32.9,26.8-59.7,59.7-59.7c32.9,0,59.7,26.8,59.7,59.7C150,101,123.2,127.8,90.3,127.8z"
	/>
<g>
	<path class="st0" d="M89,12.3c27.5-0.4,51.8,19.5,56,47.5c0.5,3.6,0.7,7.2,0.6,10.7C139.3,41.3,116.8,19.2,89,12.3z"/>
	<path class="st0" d="M96.9,123.5c-27,3.5-52.1-13.1-60.2-38.3C48.7,107.2,71.4,122,96.9,123.5z"/>
</g>
<path id="wireless_1_" class="st1" d="M160.8,94.1c-2.1,3.5-2.4,8.3,0,11.1l0,0c2.4,2.8,7.5,1.6,10.4-3.2
	c12.6-20.7,12.6-48.1,0-68.8c-2.9-4.8-8-6-10.4-3.2l0,0c-2.4,2.8-2.1,7.6,0,11.1C170.5,57.1,170.5,78.2,160.8,94.1z M19.8,41.2
	c2.1-3.5,2.4-8.3,0-11.1l0,0c-2.4-2.8-7.5-1.6-10.4,3.2C-3.1,53.9-3.1,81.3,9.4,102c2.9,4.8,8,6,10.4,3.2l0,0
	c2.4-2.8,2.1-7.6,0-11.1C10.1,78.2,10.1,57.1,19.8,41.2z"/>
<g>
	<line class="st2" x1="45.6" y1="68.2" x2="75" y2="68.2"/>
	<polyline class="st2" points="65.2,78 75,68.2 65.2,58.4 	"/>
</g>
<g>
	<line class="st2" x1="136.9" y1="68.2" x2="107.6" y2="68.2"/>
	<polyline class="st2" points="117.4,58.4 107.6,68.2 117.4,78 	"/>
</g>
</svg>
