<?xml version="1.0" encoding="utf-8"?>
<!-- Generator: Adobe Illustrator 22.1.0, SVG Export Plug-In . SVG Version: 6.00 Build 0)  -->
<svg version="1.1" id="Layer_1" xmlns="http://www.w3.org/2000/svg" xmlns:xlink="http://www.w3.org/1999/xlink" x="0px" y="0px"
	 viewBox="0 0 297.6 33.2" style="enable-background:new 0 0 297.6 33.2;" xml:space="preserve">
<style type="text/css">
	.st0{fill:#D7133F;}
</style>
<rect x="260.7" y="12.7" width="9.5" height="1.9"/>
<polygon points="260.7,17.6 288.7,17.6 289.8,15.7 270.2,15.7 270.2,15.7 260.7,15.7 "/>
<rect x="260.7" y="9.7" width="9.5" height="1.9"/>
<polygon points="260.7,20.6 287,20.6 288.1,18.6 260.7,18.6 "/>
<rect x="260.7" y="27.6" width="9.5" height="1.9"/>
<rect x="260.7" y="24.6" width="9.5" height="1.9"/>
<polygon points="264.8,0.8 260.7,0.8 260.7,2.7 296.5,2.7 297.6,0.8 297.1,0.8 270.2,0.8 "/>
<rect x="260.7" y="21.6" width="9.5" height="1.9"/>
<polygon points="260.7,5.7 294.8,5.7 295.9,3.8 260.7,3.8 "/>
<rect x="260.7" y="6.8" width="9.5" height="1.9"/>
<rect x="260.7" y="30.5" width="9.5" height="1.9"/>
<polygon points="248,26.5 257.3,26.5 256.2,24.6 246.9,24.6 "/>
<polygon points="246.3,23.5 255.6,23.5 254.5,21.6 245.1,21.6 "/>
<polygon points="249.7,29.5 259,29.5 257.9,27.6 248.6,27.6 "/>
<polygon points="242.5,0.8 241.3,0.8 235.4,0.8 232,0.8 230.9,2.7 243.6,2.7 "/>
<polygon points="242.8,17.6 252.2,17.6 251.1,15.7 241.7,15.7 "/>
<polygon points="250.3,30.5 251.4,32.4 260.7,32.4 259.6,30.5 "/>
<polygon points="239.4,11.7 248.7,11.7 247.6,9.7 238.3,9.7 "/>
<polygon points="244.2,3.8 230.3,3.8 229.2,5.7 245.3,5.7 "/>
<polygon points="244.5,20.6 253.9,20.6 252.8,18.6 243.4,18.6 "/>
<polygon points="241.1,14.6 250.4,14.6 249.3,12.7 240,12.7 "/>
<polygon points="234.5,12.7 225.2,12.7 224.1,14.6 233.4,14.6 "/>
<polygon points="236.2,9.7 226.9,9.7 225.8,11.7 235.1,11.7 "/>
<polygon points="242,21.6 220,21.6 218.9,23.5 243.2,23.5 "/>
<polygon points="231.1,18.6 221.7,18.6 220.6,20.6 230,20.6 "/>
<polygon points="225.9,27.6 216.6,27.6 215.5,29.5 224.8,29.5 "/>
<polygon points="223.1,32.4 224.2,30.5 214.9,30.5 214.9,30.4 213.8,32.4 214.9,32.4 214.9,32.4 "/>
<polygon points="237.3,7.9 237.7,8.7 247,8.7 245.9,6.8 228.6,6.8 227.5,8.7 236.8,8.7 "/>
<polygon points="232.8,15.7 223.4,15.7 222.3,17.6 231.7,17.6 "/>
<polygon points="243.8,24.6 218.3,24.6 217.2,26.5 244.9,26.5 "/>
<path class="st0" d="M182.5,16.4c0,9.2,7.6,16.8,16.9,16.8c9,0,15.8-6,16-14.4l0.1-3.1h-16v6h9.2c-1.3,3.4-4.8,5.5-9.3,5.5
	c-6,0-10.9-4.8-10.9-10.8c0-5.8,4.8-10.4,10.9-10.4c4.3,0,6.9,1.7,9.4,4.2l4.3-4.2c-2.8-2.8-6.9-6-13.7-6
	C189.9,0,182.5,7.2,182.5,16.4"/>
<polygon class="st0" points="93.7,0.8 100.2,0.8 108.3,14.9 116.3,0.8 122.7,0.8 111.3,21.4 111.3,32.4 105.2,32.4 105.2,21.4 "/>
<path class="st0" d="M149.4,32.4L137.2,0.8H131l-12.3,31.6h6.3l2-5c4-3.8,10.2-3.7,14.2,0l1.9,5H149.4z M129.9,20l4.2-10.8l4.2,10.8
	C135.6,19.2,132.6,19.2,129.9,20"/>
<path class="st0" d="M54.7,32.4L42.4,0.8h-6.2L24,32.4h6.3l2-5c4-3.8,10.2-3.7,14.2,0l1.9,5H54.7z M35.1,20l4.2-10.8L43.6,20
	C40.8,19.2,37.9,19.2,35.1,20"/>
<path class="st0" d="M18,7.6c-1.2-1.7-3.4-2.5-5.7-2.5c-2.6,0-5.3,1.2-5.3,4.1c0,6.3,15.4,2.7,15.4,13.9c0,6.8-5.5,10.1-11.8,10.1
	c-4,0-8-1.2-10.6-4.3l4.3-4.1c1.4,2.1,3.8,3.3,6.4,3.3c2.6,0,5.7-1.4,5.7-4.3c0-6.9-15.4-2.9-15.4-14.2C1.1,3.1,7,0.1,13,0.1
	c3.4,0,6.8,0.9,9.3,3.3L18,7.6z"/>
<path class="st0" d="M178.1,0.8H172v20.8L159.6,2.7c-0.8-1.2-1.5-1.9-3-1.9h-4v31.6h6.1V11.7l13.7,20.7h5.8V0.8z"/>
<path class="st0" d="M88.9,0.8h-3.5c-1.6,0-2.5,0.5-3,1.9l-6.8,20.2L68.8,2.7c-0.5-1.4-1.4-1.9-3-1.9h-3.5l-5.5,31.6h5.9l3.5-19.9
	l6.7,19.9h5.3L85,12.4l3.4,19.9h5.9L88.9,0.8z"/>
</svg>
