<?xml version="1.0" encoding="utf-8"?>
<!-- Generator: Adobe Illustrator 22.0.1, SVG Export Plug-In . SVG Version: 6.00 Build 0)  -->
<svg version="1.1" id="Layer_1" xmlns="http://www.w3.org/2000/svg" xmlns:xlink="http://www.w3.org/1999/xlink" x="0px" y="0px"
	 viewBox="0 0 283.5 31" style="enable-background:new 0 0 283.5 31;" xml:space="preserve">
<rect x="248.9" y="11.9" width="8.9" height="1.8"/>
<polygon points="248.9,16.4 275.1,16.4 276.1,14.7 257.8,14.7 257.8,14.6 248.9,14.6 "/>
<rect x="248.9" y="9.1" width="8.9" height="1.8"/>
<polygon points="248.9,19.2 273.5,19.2 274.5,17.4 248.9,17.4 "/>
<rect x="248.9" y="25.8" width="8.9" height="1.8"/>
<rect x="248.9" y="23" width="8.9" height="1.8"/>
<polygon points="252.7,0.8 248.9,0.8 248.9,2.6 282.4,2.6 283.5,0.8 283,0.8 257.8,0.8 "/>
<rect x="248.9" y="20.2" width="8.9" height="1.8"/>
<polygon points="248.9,5.3 280.8,5.3 281.9,3.5 248.9,3.5 "/>
<rect x="248.9" y="6.3" width="8.9" height="1.8"/>
<rect x="248.9" y="28.5" width="8.9" height="1.8"/>
<polygon points="217.4,19.2 216.1,17.4 216.1,17.4 217.4,19.2 "/>
<polygon points="215.4,16.4 214.2,14.6 215.4,16.4 "/>
<polygon points="215.7,2.6 214.5,0.8 204.4,0.8 205.6,2.6 "/>
<rect x="204.3" y="25.8" width="9" height="1.8"/>
<rect x="204.3" y="23" width="9" height="1.8"/>
<rect x="236.9" y="25.8" width="9" height="1.8"/>
<polygon points="213.3,17.7 213.1,17.4 204.3,17.4 204.3,19.2 213.3,19.2 "/>
<polygon points="228.9,24.8 230.2,23 220,23 221.3,24.8 "/>
<rect x="236.9" y="23" width="9" height="1.8"/>
<rect x="204.3" y="20.2" width="9" height="1.8"/>
<polygon points="227.3,13.7 236.7,13.7 236.9,13.7 245.9,13.7 245.9,11.9 228.4,11.9 "/>
<polygon points="230.9,8.1 245.9,8.1 245.9,6.3 232.1,6.3 "/>
<polygon points="229.1,10.9 245.9,10.9 245.9,9.1 230.3,9.1 "/>
<rect x="236.9" y="20.2" width="9" height="1.8"/>
<polygon points="233.9,3.5 232.7,5.3 245.9,5.3 245.9,3.5 "/>
<rect x="236.9" y="17.4" width="9" height="1.8"/>
<polygon points="211.2,14.6 204.3,14.6 204.3,16.4 212.4,16.4 "/>
<rect x="236.9" y="14.6" width="9" height="1.8"/>
<polygon points="219.3,8.1 218.1,6.3 208.3,6.3 209.5,8.1 "/>
<polygon points="224.7,16.4 223.6,14.6 214.2,14.6 215.4,16.4 "/>
<polygon points="230.8,22 232.1,20.2 218.1,20.2 219.3,22 "/>
<polygon points="234.8,16.4 236,14.6 226.6,14.6 225.5,16.4 "/>
<polygon points="232.8,19.2 234.1,17.4 216.1,17.4 217.4,19.2 "/>
<rect x="236.9" y="28.5" width="9" height="1.8"/>
<polygon points="222.9,13.7 221.7,11.9 212.2,11.9 213.5,13.7 "/>
<polygon points="221.1,10.9 219.9,9.1 210.2,9.1 211.5,10.9 "/>
<polygon points="245.9,0.8 235.7,0.8 234.5,2.6 245.9,2.6 "/>
<polygon points="209.2,11.9 204.3,11.9 204.3,13.7 210.5,13.7 "/>
<polygon points="207.2,9.1 204.3,9.1 204.3,10.9 208.5,10.9 "/>
<polygon points="205.3,6.3 204.3,6.3 204.3,8.1 206.6,8.1 "/>
<polygon points="206.3,3.5 207.6,5.3 217.5,5.3 216.3,3.5 "/>
<rect x="204.3" y="28.5" width="9" height="1.8"/>
<path d="M170.8,15.3c0,8.7,7.1,15.7,15.8,15.7c8.5,0,14.7-5.7,15-13.5l0.1-2.9h-14.9v5.6h8.6c-1.3,3.2-4.5,5.1-8.7,5.1
	c-5.6,0-10.2-4.5-10.2-10.1c0-5.4,4.5-9.7,10.2-9.7c4,0,6.4,1.6,8.8,3.9l4-4C196.8,3,193,0,186.6,0C177.7,0,170.8,6.7,170.8,15.3"/>
<polygon points="87.7,0.7 93.8,0.7 101.3,13.9 108.8,0.7 114.8,0.7 104.1,20.1 104.1,30.3 98.4,30.3 98.4,20.1 "/>
<path d="M139.8,30.3L128.4,0.7h-5.8l-11.5,29.5h5.9l1.8-4.7c3.8-3.5,9.5-3.5,13.3,0l1.8,4.6H139.8z M121.5,18.7l4-10.1l3.9,10.1
	C126.9,18,124.1,17.9,121.5,18.7"/>
<path d="M51.1,30.3L39.7,0.7h-5.8L22.4,30.3h5.9l1.8-4.7c3.8-3.5,9.5-3.5,13.3,0l1.8,4.6H51.1z M32.9,18.7l4-10.1l3.9,10.1
	C38.2,18,35.4,17.9,32.9,18.7"/>
<path d="M16.9,7.1c-1.2-1.6-3.2-2.3-5.3-2.3c-2.5,0-5,1.1-5,3.8c0,5.9,14.4,2.5,14.4,13C21,28,15.9,31,9.9,31c-3.8,0-7.4-1.1-9.9-4
	l4.1-3.8c1.3,2,3.6,3.1,6,3.1c2.5,0,5.3-1.3,5.3-4C15.4,15.8,1,19.5,1,9c0-6.1,5.6-8.9,11.2-8.9c3.2,0,6.3,0.9,8.7,3L16.9,7.1z"/>
<path d="M166.6,0.7H161v19.4L149.3,2.5c-0.7-1.1-1.4-1.7-2.8-1.7h-3.8v29.5h5.7V10.9l12.8,19.4h5.4V0.7z"/>
<path d="M83.2,0.7h-3.3c-1.5,0-2.4,0.5-2.8,1.7l-6.4,18.9L64.4,2.5c-0.4-1.3-1.3-1.7-2.8-1.7h-3.3l-5.2,29.5h5.5l3.3-18.7l6.3,18.7
	h5l6.3-18.7l3.2,18.7h5.5L83.2,0.7z"/>
</svg>
