<?xml version="1.0" encoding="utf-8"?>
<!-- Generator: Adobe Illustrator 22.1.0, SVG Export Plug-In . SVG Version: 6.00 Build 0)  -->
<svg version="1.1" id="Layer_1" xmlns="http://www.w3.org/2000/svg" xmlns:xlink="http://www.w3.org/1999/xlink" x="0px" y="0px"
	 viewBox="0 0 422.8 90.9" style="enable-background:new 0 0 422.8 90.9;" xml:space="preserve">
<style type="text/css">
	.st0{fill:#FFFFFF;}
</style>
<g>
	<path class="st0" d="M222.3,46.6v-9.7h67.9V22.3h-83.8v24.9c0,2.5,0.5,4.8,1.4,6.8c0.9,2,2.1,3.7,3.5,5.1c1.4,1.4,3.1,2.6,4.9,3.4
		c1.9,0.8,3.8,1.2,5.7,1.2h70.9V49.2h-67.6C223.6,49.2,222.3,48.3,222.3,46.6"/>
	<path class="st0" d="M206.4,9.1v5.4h86.4V0h-76.6C210.3,0,206.4,3.7,206.4,9.1"/>
	<path class="st0" d="M125.4,46.6v-9.7h67.9V22.3h-83.8v24.9c0,2.5,0.5,4.8,1.4,6.8c0.9,2,2.1,3.7,3.5,5.1c1.4,1.4,3.1,2.6,4.9,3.4
		c1.9,0.8,3.8,1.2,5.7,1.2h70.9V49.2h-67.6C126.7,49.2,125.4,48.3,125.4,46.6"/>
	<path class="st0" d="M109.5,9.1v5.4h86.4V0h-76.6C113.4,0,109.5,3.7,109.5,9.1"/>
	<path class="st0" d="M377,0v45L323.7,2.4c-2.4-1.8-5.7-2.8-8.9-2.8c-5.7,0-12,3.3-12,12.6v51.5H319v-45l53.2,42.5
		c2.4,1.8,5.7,2.8,8.9,2.8c3.3,0,6.1-1.1,8.2-3c1.7-1.6,3.8-4.5,3.8-9.6V0H377z"/>
	<path class="st0" d="M38.8,25.4c2.9,1.2,5.7,2,8.3,2.3c2.5,0.3,5.4,0.4,8.5,0.4h2.6h0c2.7-0.1,5.2-0.3,7.4-0.7
		c2.4-0.4,5-1.2,7.7-2.5c2.7-1.3,5.7-3.2,9.1-5.6L106.5,0H82.3l-11,9c-2,1.5-3.9,2.7-5.5,3.5c-1.5,0.7-2.9,1.2-4.2,1.4
		c-1.4,0.2-2.9,0.4-4.4,0.4h-1.7c-1.9,0-3.7-0.1-5.2-0.3c-1.4-0.2-3-0.6-4.6-1.3c-1.7-0.7-3.6-1.9-5.7-3.4L28.6,0H4.2l25,19.8
		C32.7,22.3,35.9,24.2,38.8,25.4"/>
	<path class="st0" d="M73.3,35.5c-2.7-1.3-5.3-2.2-7.7-2.5c-2.2-0.4-4.8-0.6-7.5-0.7h-2.6c-3.1,0-6,0.1-8.5,0.4
		c-2.6,0.3-5.4,1-8.3,2.3c-2.8,1.2-6,3.1-9.6,5.6L0,63.8h24.4L40,51c2.1-1.6,4.1-2.7,5.7-3.4c1.6-0.7,3.1-1.1,4.6-1.3
		c1.5-0.2,3.3-0.3,5.2-0.3h1.7c1.6,0.1,3.1,0.2,4.5,0.4c1.3,0.2,2.7,0.7,4.2,1.4c1.6,0.8,3.4,1.9,5.4,3.5l15.2,12.4h24.2L82.3,41.2
		C79,38.7,75.9,36.8,73.3,35.5"/>
	<polygon class="st0" points="402.8,0 410.7,0 410.7,1.5 407.6,1.5 407.6,9.8 405.9,9.8 405.9,1.5 402.8,1.5 	"/>
	<polygon class="st0" points="412.7,0 415.1,0 417.8,7.7 417.8,7.7 420.4,0 422.8,0 422.8,9.8 421.2,9.8 421.2,2.2 421.1,2.2 
		418.4,9.8 417,9.8 414.3,2.2 414.3,2.2 414.3,9.8 412.7,9.8 	"/>
	<polygon class="st0" points="72.7,79.4 75.1,79.4 77.6,83.3 80.3,79.4 82.5,79.4 78.8,84.8 82.7,90.6 80.4,90.6 77.5,86.3 
		74.7,90.6 72.4,90.6 76.4,84.8 	"/>
	<rect x="93.7" y="84.9" class="st0" width="4.6" height="1.7"/>
	<polygon class="st0" points="110.5,79.4 118.6,79.4 118.6,81.1 112.5,81.1 112.5,84 118.1,84 118.1,85.6 112.5,85.6 112.5,88.9 
		118.7,88.9 118.7,90.6 110.5,90.6 	"/>
	<polygon class="st0" points="129.7,79.4 132,79.4 134.6,83.3 137.2,79.4 139.4,79.4 135.7,84.8 139.7,90.6 137.3,90.6 134.5,86.3 
		131.6,90.6 129.4,90.6 133.4,84.8 	"/>
	<path class="st0" d="M151.1,79.4h5c3.2,0,3.8,2.1,3.8,3.5c0,1.4-0.6,3.5-3.8,3.4h-3v4.3h-2V79.4z M153,84.7h2.9c0.9,0,2-0.4,2-1.9
		c0-1.5-0.9-1.9-1.9-1.9H153V84.7z"/>
	<polygon class="st0" points="171.8,79.4 179.9,79.4 179.9,81.1 173.8,81.1 173.8,84 179.5,84 179.5,85.6 173.8,85.6 173.8,88.9 
		180,88.9 180,90.6 171.8,90.6 	"/>
	<path class="st0" d="M192,79.4h5.4c2.5,0,3.7,1.1,3.7,3c0,2.2-1.5,2.7-1.9,2.8v0c0.7,0.1,1.7,0.6,1.7,2.4c0,1.3,0.2,2.5,0.6,3h-2.1
		c-0.3-0.5-0.3-1.1-0.3-1.7c0-2.1-0.4-3-2.2-3h-2.9v4.6h-2V79.4z M193.9,84.5h3.2c1.2,0,1.9-0.6,1.9-1.8c0-1.4-0.9-1.7-2-1.7h-3.2
		V84.5z"/>
	<rect x="213.3" y="79.4" class="st0" width="2" height="11.2"/>
	<polygon class="st0" points="227.9,79.4 236,79.4 236,81.1 229.9,81.1 229.9,84 235.5,84 235.5,85.6 229.9,85.6 229.9,88.9 
		236.1,88.9 236.1,90.6 227.9,90.6 	"/>
	<polygon class="st0" points="248,79.4 250.1,79.4 255.2,87.6 255.2,87.6 255.2,79.4 257.1,79.4 257.1,90.6 255,90.6 249.9,82.3 
		249.8,82.3 249.8,90.6 248,90.6 	"/>
	<path class="st0" d="M277.2,82.9c-0.3-1.3-1.2-2.2-2.8-2.2c-2.4,0-3.4,2.1-3.4,4.3c0,2.2,1,4.3,3.4,4.3c1.7,0,2.7-1.3,2.9-2.9h1.9
		c-0.2,2.7-2.1,4.6-4.8,4.6c-3.4,0-5.4-2.7-5.4-5.9c0-3.2,2-5.9,5.4-5.9c2.5,0,4.5,1.4,4.8,3.8H277.2z"/>
	<polygon class="st0" points="291.3,79.4 299.3,79.4 299.3,81.1 293.2,81.1 293.2,84 298.9,84 298.9,85.6 293.2,85.6 293.2,88.9 
		299.5,88.9 299.5,90.6 291.3,90.6 	"/>
	<path class="st0" d="M312.7,86.8c0,1.7,1.3,2.4,2.9,2.4c1.7,0,2.4-0.8,2.4-1.7c0-0.9-0.5-1.2-0.9-1.4c-0.8-0.3-1.8-0.5-3.4-0.9
		c-1.9-0.5-2.5-1.7-2.5-2.9c0-2.3,2.1-3.3,4.1-3.3c2.3,0,4.3,1.2,4.3,3.6h-2c-0.1-1.5-1.1-2-2.4-2c-0.9,0-2.1,0.3-2.1,1.5
		c0,0.8,0.5,1.2,1.3,1.4c0.2,0,2.7,0.7,3.2,0.9c1.5,0.4,2.2,1.7,2.2,2.9c0,2.5-2.2,3.5-4.5,3.5c-2.6,0-4.6-1.2-4.7-4H312.7z"/>
</g>
</svg>
