<?xml version="1.0" encoding="utf-8"?>
<!-- Generator: Adobe Illustrator 22.1.0, SVG Export Plug-In . SVG Version: 6.00 Build 0)  -->
<svg version="1.1" id="Layer_1" xmlns="http://www.w3.org/2000/svg" xmlns:xlink="http://www.w3.org/1999/xlink" x="0px" y="0px"
	 viewBox="0 0 394.1 118.7" style="enable-background:new 0 0 394.1 118.7;" xml:space="preserve">
<style type="text/css">
	.st0{fill:#FFFFFF;}
	.st1{clip-path:url(#SVGID_2_);fill:url(#SVGID_3_);}
	.st2{font-family:'Meiryo';}
	.st3{font-size:38.9264px;}
</style>
<g>
	<path class="st0" d="M297.7,74.3c0,15.2,12.4,27.6,27.6,27.6c14.7,0,25.7-10,26.1-23.7l0.1-5.1h-26V83h15
		c-2.2,5.6-7.8,9.1-15.2,9.1c-9.8,0-17.8-8-17.8-17.8c0-9.6,7.8-17.1,17.8-17.1c7,0,11.2,2.8,15.4,6.9l7-7
		c-4.6-4.6-11.2-9.8-22.4-9.8C309.8,47.4,297.7,59.2,297.7,74.3"/>
	<polygon class="st0" points="152.9,48.7 163.5,48.7 176.6,71.9 189.6,48.7 200.1,48.7 181.5,82.7 181.5,100.7 171.5,100.7 
		171.5,82.7 	"/>
	<path class="st0" d="M243.7,100.7l-20-52h-10l-20,52h10.3l3.2-8.2c6.6-6.2,16.6-6.2,23.2,0.1l3.1,8.2H243.7z M211.9,80.3l6.9-17.8
		l6.9,17.8C221.1,79,216.4,79,211.9,80.3"/>
	<path class="st0" d="M89.2,100.7l-20-52h-10l-20,52h10.3l3.2-8.2c6.6-6.2,16.6-6.2,23.2,0.1l3.1,8.2H89.2z M57.3,80.3l6.9-17.8
		l6.9,17.8C66.6,79,61.8,79,57.3,80.3"/>
	<path class="st0" d="M29.4,59.9c-2-2.8-5.6-4.1-9.2-4.1c-4.3,0-8.6,1.9-8.6,6.7c0,10.4,25,4.5,25,22.9c0,11.1-8.9,16.6-19.3,16.6
		c-6.6,0-13-2-17.3-7l7.1-6.7c2.3,3.4,6.3,5.4,10.4,5.4c4.3,0,9.2-2.3,9.2-7.1c0-11.4-25-4.8-25-23.4c0-10.7,9.7-15.7,19.5-15.7
		c5.5,0,11,1.5,15.1,5.4L29.4,59.9z"/>
	<path class="st0" d="M290.5,48.7h-9.9v34.2l-20.3-31.1c-1.3-2-2.5-3.1-4.9-3.1h-6.5v52h9.9V66.6l22.3,34.1h9.4V48.7z"/>
	<path class="st0" d="M145.1,48.7h-5.8c-2.6,0-4.2,0.8-4.9,3.1L123.3,85l-11-33.2c-0.8-2.3-2.2-3.1-4.9-3.1h-5.7l-9,52h9.6l5.7-32.8
		l11,32.8h8.7l11-32.8l5.6,32.8h9.6L145.1,48.7z"/>
	<g>
		<defs>
			<polygon id="SVGID_1_" points="374.5,73.2 348.2,118.6 368.2,118.6 394.4,73.2 			"/>
		</defs>
		<clipPath id="SVGID_2_">
			<use xlink:href="#SVGID_1_"  style="overflow:visible;"/>
		</clipPath>
		<linearGradient id="SVGID_3_" gradientUnits="userSpaceOnUse" x1="371.3354" y1="73.1988" x2="371.3354" y2="119.5792">
			<stop  offset="0" style="stop-color:#FEFEFE"/>
			<stop  offset="1" style="stop-color:#FEFEFE;stop-opacity:0"/>
			<stop  offset="1" style="stop-color:#FEFCFB;stop-opacity:0.2356"/>
			<stop  offset="1" style="stop-color:#FEF7F3;stop-opacity:0.3773"/>
			<stop  offset="1" style="stop-color:#FEEDE5;stop-opacity:0.4942"/>
			<stop  offset="1" style="stop-color:#FEDFD0;stop-opacity:0.5976"/>
			<stop  offset="1" style="stop-color:#FECEB6;stop-opacity:0.6921"/>
			<stop  offset="1" style="stop-color:#FEB896;stop-opacity:0.7801"/>
			<stop  offset="1" style="stop-color:#FF9E6F;stop-opacity:0.8631"/>
			<stop  offset="1" style="stop-color:#FF8144;stop-opacity:0.9401"/>
			<stop  offset="1" style="stop-color:#FF671D"/>
		</linearGradient>
		<rect x="348.2" y="73.2" class="st1" width="46.2" height="45.4"/>
	</g>
</g>
<g>
	<path class="st0" d="M24.8,29.4l-2.9-8.2H9.4l-2.9,8.2H2.8L13.4,0.7h4.5l10.6,28.7H24.8z M20.7,18.3L15.6,4.1l-5.1,14.2H20.7z"/>
	<path class="st0" d="M67.4,29.4h-4.1L48.9,4.5v24.9h-3.3V0.7h4.9l13.6,23.5V0.7h3.3V29.4z"/>
	<path class="st0" d="M83.9,29.9c-3.6,0-6.3-1-8.3-2.9s-3-4.7-3-8.2s0.9-6.3,2.8-8.4s4.4-3.1,7.5-3.1c2.8,0,5,0.8,6.6,2.5
		s2.3,4.1,2.3,7.3V19H76c0,2.6,0.7,4.6,2.1,6c1.4,1.3,3.4,2,5.8,2c2.5,0,4.9-0.9,7.4-2.6h0.2V28C88.4,29.3,85.9,29.9,83.9,29.9z
		 M76,16.4h12.6c-0.1-4.2-2-6.4-5.8-6.4c-1.9,0-3.5,0.6-4.7,1.7C76.9,12.9,76.2,14.4,76,16.4z"/>
	<path class="st0" d="M124.7,7.9l-6.6,21.5h-2.4l-5.9-16.7l-6.3,16.7h-2.4L94.6,7.9h3.5l4.6,16.2l5.9-16.2h2.5l5.6,16.2l4.6-16.2
		C121.3,7.9,124.7,7.9,124.7,7.9z"/>
</g>
<text transform="matrix(1 0 0 1 125.8909 29.3886)" class="st0 st2 st3"> </text>
<g>
	<path class="st0" d="M144.6,18.6v10.8h-3.5V0.7h7.9c3.7,0,6.4,0.8,8.2,2.3c1.8,1.6,2.7,3.6,2.7,6.3s-1,4.9-2.9,6.7
		c-1.9,1.7-4.6,2.6-8.1,2.6H144.6z M144.6,3.7v11.8h3.5c2.9,0,5-0.6,6.2-1.7s1.8-2.6,1.8-4.5s-0.6-3.3-1.8-4.2s-3.1-1.4-5.6-1.4
		C148.7,3.7,144.6,3.7,144.6,3.7z"/>
	<path class="st0" d="M172.8,29.9c-3.6,0-6.3-1-8.3-2.9s-3-4.7-3-8.2s0.9-6.3,2.8-8.4c1.9-2.1,4.4-3.1,7.5-3.1c2.8,0,5,0.8,6.6,2.5
		s2.3,4.1,2.3,7.3V19h-15.9c0,2.6,0.7,4.6,2.1,6c1.4,1.4,3.3,2.1,5.8,2.1s4.9-0.9,7.4-2.6h0.2v3.6C177.3,29.3,174.8,29.9,172.8,29.9
		z M164.9,16.4h12.6c-0.1-4.3-2.1-6.4-5.9-6.4c-1.9,0-3.5,0.6-4.7,1.7C165.8,12.9,165.1,14.4,164.9,16.4z"/>
	<path class="st0" d="M185.5,29.4V7.9h3.3v3.3c2.7-2.2,5.2-3.3,7.4-3.3c0.8,0,1.6,0.1,2.4,0.2v3.5h-0.1c-1.1-0.3-2.1-0.4-3.2-0.4
		c-2.2,0-4.3,0.9-6.5,2.7v15.4h-3.3V29.4z"/>
	<path class="st0" d="M207.7,29.9c-2.7,0-5.2-0.6-7.6-1.8v-3.9h0.1c2.6,1.9,5.1,2.9,7.6,2.9c3.5,0,5.3-1.1,5.3-3.3
		c0-0.9-0.2-1.6-0.7-2s-1.4-0.9-2.9-1.2c-1.2-0.2-2.7-0.6-4.3-0.9c-1.6-0.4-2.9-1-3.7-2c-0.9-1-1.3-2.2-1.3-3.7
		c0-1.9,0.8-3.5,2.3-4.7s3.6-1.8,6.2-1.8c2.7,0,5,0.5,7,1.6v3.7h-0.1c-2.2-1.6-4.6-2.5-7.1-2.5c-1.5,0-2.7,0.3-3.6,0.8
		s-1.3,1.3-1.3,2.3c0,0.9,0.2,1.6,0.7,2c0.5,0.5,1.4,0.9,2.8,1.2l4.2,0.9c1.7,0.4,3,1,3.9,2s1.3,2.2,1.3,3.7c0,2-0.8,3.6-2.4,4.8
		S210.4,29.9,207.7,29.9z"/>
	<path class="st0" d="M224.3,28.2v9.2H221V7.9h3.3v2.4c2.4-2,4.8-3,7.1-3c2.5,0,4.5,1,6,3s2.2,4.7,2.2,8.1s-0.9,6.1-2.7,8.2
		s-4.1,3.2-6.7,3.2C228.3,29.8,226.3,29.3,224.3,28.2z M224.3,13v12.5c1.9,0.8,3.7,1.3,5.3,1.3c2.1,0,3.7-0.7,4.9-2.2
		s1.8-3.5,1.8-6.1c0-5.4-1.9-8-5.8-8C228.4,10.5,226.4,11.3,224.3,13z"/>
	<path class="st0" d="M254.4,29.9c-3.6,0-6.3-1-8.3-2.9s-3-4.7-3-8.2s0.9-6.3,2.8-8.4c1.9-2.1,4.4-3.1,7.5-3.1c2.8,0,5,0.8,6.6,2.5
		s2.3,4.1,2.3,7.3V19h-15.8c0,2.6,0.7,4.6,2.1,6c1.4,1.4,3.3,2.1,5.8,2.1s4.9-0.9,7.4-2.6h0.2v3.6C258.9,29.3,256.4,29.9,254.4,29.9
		z M246.5,16.4h12.6c-0.1-4.3-2.1-6.4-5.9-6.4c-1.9,0-3.5,0.6-4.7,1.7C247.4,12.9,246.7,14.4,246.5,16.4z"/>
	<path class="st0" d="M282.7,28.1c-2.6,1.2-4.8,1.8-6.7,1.8c-3.3,0-5.9-1-7.7-2.9c-1.8-1.9-2.7-4.7-2.7-8.3c0-3.5,0.9-6.3,2.8-8.3
		s4.4-3,7.6-3c2.1,0,4.4,0.6,6.7,1.8v3.7h-0.2c-2.4-1.7-4.6-2.6-6.6-2.6c-2.2,0-3.9,0.7-5.1,2.2S269,16,269,18.7s0.6,4.8,1.8,6.2
		c1.2,1.4,2.9,2.1,5.1,2.1c2.1,0,4.3-0.9,6.6-2.6h0.2L282.7,28.1L282.7,28.1z"/>
	<path class="st0" d="M293.7,29.8c-4.4,0-6.7-2.4-6.7-7.3V10.6h-2.5V7.9h2.5V1.7h3.3v6.2h7.5v2.7h-7.5v9.9c0,2.3,0.2,3.7,0.5,4.4
		c0.3,0.7,0.8,1.2,1.4,1.5s1.4,0.5,2.4,0.5c0.9,0,2-0.2,3.1-0.7h0.1v3C296.4,29.6,295,29.8,293.7,29.8z"/>
	<path class="st0" d="M305.2,3.6h-3.8V0.1h3.8V3.6z M305,29.4h-3.3V7.9h3.3V29.4z"/>
	<path class="st0" d="M329.7,7.9l-9.1,21.5H318l-9.1-21.5h3.6l6.9,16.8l6.8-16.8C326.2,7.9,329.7,7.9,329.7,7.9z"/>
	<path class="st0" d="M343,29.9c-3.6,0-6.3-1-8.3-2.9s-3-4.7-3-8.2s0.9-6.3,2.8-8.4s4.4-3.1,7.5-3.1c2.8,0,5,0.8,6.6,2.5
		s2.3,4.1,2.3,7.3V19H335c0,2.6,0.7,4.6,2.1,6s3.3,2.1,5.8,2.1s4.9-0.9,7.4-2.6h0.2v3.6C347.5,29.3,345,29.9,343,29.9z M335.1,16.4
		h12.6c-0.1-4.3-2.1-6.4-5.9-6.4c-1.9,0-3.5,0.6-4.7,1.7C336,12.9,335.3,14.4,335.1,16.4z"/>
</g>
</svg>
