<?xml version="1.0" encoding="utf-8"?>
<!-- Generator: Adobe Illustrator 22.1.0, SVG Export Plug-In . SVG Version: 6.00 Build 0)  -->
<svg version="1.1" id="Layer_1" xmlns="http://www.w3.org/2000/svg" xmlns:xlink="http://www.w3.org/1999/xlink" x="0px" y="0px"
	 viewBox="0 0 302.9 33.1" style="enable-background:new 0 0 302.9 33.1;" xml:space="preserve">
<style type="text/css">
	.st0{fill:#D7133F;}
</style>
<rect x="266" y="12.6" width="9.5" height="1.9"/>
<polygon points="266,17.5 294,17.5 295.1,15.6 275.5,15.6 275.5,15.6 266,15.6 "/>
<rect x="266" y="9.7" width="9.5" height="1.9"/>
<polygon points="266,20.5 292.3,20.5 293.4,18.6 266,18.6 "/>
<rect x="266" y="27.5" width="9.5" height="1.9"/>
<rect x="266" y="24.5" width="9.5" height="1.9"/>
<polygon points="270.1,0.7 266,0.7 266,2.7 301.8,2.7 302.9,0.7 302.4,0.7 275.5,0.7 "/>
<rect x="266" y="21.5" width="9.5" height="1.9"/>
<polygon points="266,5.6 300.1,5.6 301.2,3.7 266,3.7 "/>
<rect x="266" y="6.7" width="9.5" height="1.9"/>
<rect x="266" y="30.4" width="9.5" height="1.9"/>
<polygon points="230.5,2.7 229.2,0.7 218.4,0.7 219.8,2.7 "/>
<rect x="218.4" y="27.5" width="9.6" height="1.9"/>
<rect x="218.4" y="24.5" width="9.6" height="1.9"/>
<rect x="253.2" y="27.5" width="9.6" height="1.9"/>
<polygon points="227.9,18.8 227.8,18.6 218.4,18.6 218.4,20.5 227.9,20.5 "/>
<polygon points="244.6,26.4 246,24.5 235.2,24.5 236.5,26.4 "/>
<rect x="253.2" y="24.5" width="9.6" height="1.9"/>
<rect x="218.4" y="21.5" width="9.6" height="1.9"/>
<polygon points="242.9,14.5 253,14.5 253.2,14.5 262.8,14.5 262.8,12.6 244.1,12.6 "/>
<polygon points="246.8,8.6 262.8,8.6 262.8,6.7 248,6.7 "/>
<polygon points="244.8,11.6 262.8,11.6 262.8,9.7 246.1,9.7 "/>
<rect x="253.2" y="21.5" width="9.6" height="1.9"/>
<polygon points="250,3.7 248.7,5.6 262.8,5.6 262.8,3.7 "/>
<rect x="253.2" y="18.6" width="9.6" height="1.9"/>
<polygon points="225.7,15.6 218.4,15.6 218.4,17.5 227,17.5 "/>
<rect x="253.2" y="15.6" width="9.6" height="1.9"/>
<polygon points="234.4,8.6 233.1,6.7 222.6,6.7 223.9,8.6 "/>
<polygon points="240.2,17.5 238.9,15.6 228.9,15.6 230.2,17.5 "/>
<polygon points="246.7,23.5 248.1,21.5 233.1,21.5 234.4,23.5 "/>
<polygon points="250.9,17.5 252.3,15.6 242.2,15.6 241,17.5 "/>
<polygon points="248.8,20.5 250.2,18.6 231,18.6 232.3,20.5 "/>
<rect x="253.2" y="30.4" width="9.6" height="1.9"/>
<polygon points="238.2,14.5 237,12.6 226.8,12.6 228.1,14.5 "/>
<polygon points="236.3,11.6 235,9.7 224.7,9.7 226,11.6 "/>
<polygon points="262.8,0.7 251.9,0.7 250.7,2.7 262.8,2.7 "/>
<polygon points="223.6,12.6 218.4,12.6 218.4,14.5 224.9,14.5 "/>
<polygon points="221.5,9.7 218.4,9.7 218.4,11.6 222.8,11.6 "/>
<polygon points="219.4,6.7 218.4,6.7 218.4,8.6 220.7,8.6 "/>
<polygon points="220.5,3.7 221.9,5.6 232.4,5.6 231.2,3.7 "/>
<rect x="218.4" y="30.4" width="9.6" height="1.9"/>
<path class="st0" d="M182.5,16.3c0,9.2,7.6,16.8,16.9,16.8c9,0,15.8-6,16-14.4l0.1-3.1h-16v6h9.2c-1.3,3.4-4.8,5.5-9.3,5.5
	c-6,0-10.9-4.8-10.9-10.8c0-5.8,4.8-10.4,10.9-10.4c4.3,0,6.9,1.7,9.4,4.2l4.3-4.2c-2.8-2.8-6.9-6-13.7-6
	C189.9-0.1,182.5,7.1,182.5,16.3"/>
<polygon class="st0" points="93.7,0.7 100.2,0.7 108.3,14.8 116.3,0.7 122.7,0.7 111.3,21.4 111.3,32.3 105.2,32.3 105.2,21.4 "/>
<path class="st0" d="M149.4,32.3L137.2,0.7H131l-12.3,31.6h6.3l2-5c4-3.8,10.2-3.7,14.2,0l1.9,5H149.4z M129.9,19.9l4.2-10.8
	l4.2,10.8C135.6,19.1,132.6,19.1,129.9,19.9"/>
<path class="st0" d="M54.7,32.3L42.4,0.7h-6.2L24,32.3h6.3l2-5c4-3.8,10.2-3.7,14.2,0l1.9,5H54.7z M35.1,19.9l4.2-10.8l4.2,10.8
	C40.8,19.1,37.9,19.1,35.1,19.9"/>
<path class="st0" d="M18,7.6c-1.2-1.7-3.4-2.5-5.7-2.5c-2.6,0-5.3,1.2-5.3,4.1c0,6.3,15.4,2.7,15.4,13.9c0,6.8-5.5,10.1-11.8,10.1
	c-4,0-8-1.2-10.6-4.3l4.3-4.1c1.4,2.1,3.8,3.3,6.4,3.3c2.6,0,5.7-1.4,5.7-4.3c0-6.9-15.4-2.9-15.4-14.2C1.1,3,7,0,13,0
	c3.4,0,6.8,0.9,9.3,3.3L18,7.6z"/>
<path class="st0" d="M178.1,0.7H172v20.8L159.6,2.6c-0.8-1.2-1.5-1.9-3-1.9h-4v31.6h6.1V11.6l13.7,20.7h5.8V0.7z"/>
<path class="st0" d="M88.9,0.7h-3.5c-1.6,0-2.5,0.5-3,1.9l-6.8,20.2L68.8,2.6c-0.5-1.4-1.4-1.9-3-1.9h-3.5l-5.5,31.6h5.9l3.5-19.9
	l6.7,19.9h5.3L85,12.4l3.4,19.9h5.9L88.9,0.7z"/>
</svg>
