<?xml version="1.0" encoding="utf-8"?>
<!-- Generator: Adobe Illustrator 22.1.0, SVG Export Plug-In . SVG Version: 6.00 Build 0)  -->
<svg version="1.1" id="Layer_1" xmlns="http://www.w3.org/2000/svg" xmlns:xlink="http://www.w3.org/1999/xlink" x="0px" y="0px"
	 viewBox="0 0 188.7 143.7" style="enable-background:new 0 0 188.7 143.7;" xml:space="preserve">
<style type="text/css">
	.st0{enable-background:new    ;}
</style>
<g class="st0">
	<path d="M93.4,50.6v6.8H73v13.7h17.3v6.9H73v18.8h-8.6V50.6H93.4z"/>
	<path d="M129.3,50.6v6.8h-20.5v13.7h17.3v6.9h-17.3v18.8h-8.6V50.6H129.3z"/>
</g>
<g>
	<path d="M155.4,114.1h-122c-1.6,0-2.9-1.3-2.9-2.9V32.4c0-1.6,1.3-2.9,2.9-2.9h122c1.6,0,2.9,1.3,2.9,2.9v78.9
		C158.2,112.9,157,114.1,155.4,114.1z M36.2,108.4h116.3V35.3H36.2V108.4z"/>
</g>
<g>
	<path d="M129.9,143.7c-13.3,0-23-5.7-23-13.6c-0.5-0.7-4.9-3.3-12.6-3.3s-12.1,2.6-12.7,3.6c0.1,7.5-9.6,13.3-22.9,13.3
		c-10.2,0-18.2-3.3-21.4-8.4H13.6c-2.9,0-5.2-2.3-5.2-5.2v-23.3C3.5,104.4,0,98.9,0,92.4C0,83.9,6.1,77,13.6,77
		c1.5,0,3.3-2.2,3.3-5.1s-1.7-5.1-3.3-5.1C6.1,66.8,0,59.8,0,51.3c0-6.5,3.5-12,8.4-14.3V13.6c0-2.9,2.3-5.2,5.2-5.2h23.7
		C40.6,3.3,48.6,0,58.8,0c13.3,0,23,5.7,23,13.6c0.5,0.7,4.9,3.3,12.6,3.3s12.1-2.6,12.7-3.6C107,5.7,116.6,0,129.9,0
		c10.2,0,18.2,3.3,21.4,8.4H175c2.9,0,5.2,2.3,5.2,5.2V37c5,2.3,8.4,7.9,8.4,14.3c0,8.5-6.1,15.5-13.6,15.5c-1.5,0-3.3,2.2-3.3,5.1
		s1.7,5.1,3.2,5.1c7.5,0,13.6,6.9,13.6,15.5c0,6.4-3.5,12-8.4,14.3v23.3c0,2.9-2.3,5.2-5.2,5.2h-23.7
		C148.1,140.4,140.1,143.7,129.9,143.7z M94.4,116.4c13.3,0,23,5.7,23,13.6c0.5,0.7,4.9,3.2,12.6,3.2s12.1-2.5,12.7-3.6
		c0-2.9,2.3-4.8,5.1-4.8H170v-22.2c0-2.9,2.3-5.2,5.2-5.2c1.5,0,3.3-2.2,3.3-5.1s-1.7-5.1-3.2-5.1c-7.5,0-13.6-6.9-13.6-15.5
		c0-8.5,6.1-15.5,13.6-15.5c1.5,0,3.3-2.2,3.3-5.1c0-2.9-1.7-5.1-3.2-5.1c-2.9,0-5.2-2.3-5.2-5.2V18.6H148c-2.9,0-5.2-2.3-5.2-5.2
		c-0.5-0.7-4.9-3.3-12.6-3.3c-7.7,0-12.1,2.6-12.7,3.6c0.1,7.5-9.6,13.3-22.9,13.3s-23-5.7-23-13.6c-0.5-0.7-4.9-3.3-12.6-3.3
		s-12.1,2.6-12.7,3.6c0,2.9-2.3,4.8-5.1,4.8H18.8V41c0,2.9-2.3,5.2-5.2,5.2c-1.5,0-3.3,2.2-3.3,5.1c0,2.9,1.7,5.1,3.3,5.1
		c7.5,0,13.6,6.9,13.6,15.5c0,8.5-6.1,15.5-13.6,15.5c-1.5,0-3.3,2.2-3.3,5.1s1.7,5.1,3.3,5.1c2.9,0,5.2,2.3,5.2,5.2V125H41
		c2.9,0,5.2,2.3,5.2,5.2c0.5,0.7,4.9,3.2,12.6,3.2s12.1-2.5,12.7-3.6C71.4,122.2,81,116.4,94.4,116.4z"/>
</g>
</svg>
