<?xml version="1.0" encoding="utf-8"?>
<!-- Generator: Adobe Illustrator 22.1.0, SVG Export Plug-In . SVG Version: 6.00 Build 0)  -->
<svg version="1.1" id="Layer_1" xmlns="http://www.w3.org/2000/svg" xmlns:xlink="http://www.w3.org/1999/xlink" x="0px" y="0px"
	 viewBox="0 0 157.5 126.3" style="enable-background:new 0 0 157.5 126.3;" xml:space="preserve">
<g>
	<path d="M4.2,43.7c-2.3,0-4.2-1.9-4.2-4.2V4.2C0,1.9,1.9,0,4.2,0h35.3c2.3,0,4.2,1.9,4.2,4.2c0,2.3-1.9,4.2-4.2,4.2H8.4v31.1
		C8.4,41.8,6.5,43.7,4.2,43.7z"/>
</g>
<g>
	<path d="M153.3,43.7c-2.3,0-4.2-1.9-4.2-4.2V8.4H118c-2.3,0-4.2-1.9-4.2-4.2c0-2.3,1.9-4.2,4.2-4.2h35.3c2.3,0,4.2,1.9,4.2,4.2
		v35.3C157.5,41.8,155.6,43.7,153.3,43.7z"/>
</g>
<g>
	<path d="M153.3,126.3H118c-2.3,0-4.2-1.9-4.2-4.2c0-2.3,1.9-4.2,4.2-4.2h31.1V86.8c0-2.3,1.9-4.2,4.2-4.2c2.3,0,4.2,1.9,4.2,4.2
		v35.3C157.5,124.4,155.6,126.3,153.3,126.3z"/>
</g>
<g>
	<path d="M39.5,126.3H4.2c-2.3,0-4.2-1.9-4.2-4.2V86.8c0-2.3,1.9-4.2,4.2-4.2c2.3,0,4.2,1.9,4.2,4.2v31.1h31.1
		c2.3,0,4.2,1.9,4.2,4.2C43.7,124.4,41.8,126.3,39.5,126.3z"/>
</g>
<g>
	<g>
		<path d="M82.9,86.7h-1.2c-5,0-9.5-2.8-11.8-7c-4.6,1.4-9.9,0.1-13.3-3.4l-0.8-0.8c-3.5-3.5-4.8-8.7-3.4-13.3
			c-4.2-2.3-7-6.8-7-11.8v-1.2c0-5,2.8-9.5,7-11.8c-1.4-4.6-0.1-9.8,3.4-13.3l0.8-0.8c3.5-3.5,8.7-4.8,13.3-3.4
			c2.3-4.3,6.8-7,11.8-7h1.2c5,0,9.5,2.8,11.8,7c4.6-1.4,9.9-0.1,13.3,3.4l0.8,0.8c3.5,3.5,4.7,8.7,3.4,13.3c4.2,2.3,7,6.8,7,11.8
			v1.2c0,5-2.8,9.5-7,11.8c1.4,4.6,0.1,9.8-3.4,13.3l-0.8,0.8c-2.5,2.5-5.9,3.9-9.5,3.9l0,0c-1.3,0-2.6-0.2-3.8-0.5
			C92.4,84,87.9,86.7,82.9,86.7z M71.5,73.2c0.4,0,0.7,0.1,1.1,0.2c0.8,0.3,1.4,1,1.6,1.9c0.9,3.4,4,5.8,7.6,5.8h1.2
			c3.5,0,6.7-2.4,7.6-5.8c0.2-0.8,0.8-1.5,1.6-1.9c0.8-0.3,1.7-0.3,2.5,0.2c1.2,0.7,2.5,1.1,3.9,1.1l0,0c2.1,0,4.1-0.8,5.5-2.3
			l0.8-0.8c2.5-2.5,3-6.4,1.2-9.5c-0.4-0.8-0.5-1.7-0.2-2.5c0.3-0.8,1-1.4,1.9-1.6c3.4-0.9,5.8-4,5.8-7.6v-1.2
			c0-3.5-2.4-6.6-5.8-7.6c-0.8-0.2-1.5-0.8-1.9-1.6c-0.3-0.8-0.3-1.7,0.2-2.5c1.8-3.1,1.3-7-1.2-9.5l-0.8-0.8
			c-2.5-2.4-6.5-3-9.5-1.2c-0.8,0.4-1.7,0.5-2.5,0.2c-0.8-0.3-1.4-1-1.6-1.9c-0.9-3.4-4-5.8-7.6-5.8h-1.2c-3.5,0-6.7,2.4-7.6,5.8
			c-0.2,0.8-0.8,1.5-1.6,1.9c-0.8,0.3-1.7,0.3-2.5-0.2c-3-1.7-7-1.2-9.5,1.2l-0.8,0.8c-2.5,2.5-3,6.4-1.2,9.5
			c0.4,0.8,0.5,1.7,0.2,2.5c-0.3,0.8-1,1.4-1.9,1.6c-3.4,0.9-5.8,4-5.8,7.6v1.2c0,3.5,2.4,6.7,5.8,7.6c0.8,0.2,1.5,0.8,1.9,1.6
			c0.3,0.8,0.3,1.7-0.2,2.5c-1.8,3.1-1.3,7,1.2,9.5l0.8,0.8c2.5,2.5,6.5,3,9.5,1.2C70.5,73.4,71,73.2,71.5,73.2z"/>
	</g>
	<g>
		<path d="M82.3,71.4c-11.9,0-21.6-9.7-21.6-21.6c0-11.9,9.7-21.6,21.6-21.6c11.9,0,21.6,9.7,21.6,21.6
			C104,61.7,94.3,71.4,82.3,71.4z M82.3,33.8c-8.8,0-16,7.2-16,16c0,8.8,7.2,16,16,16c8.8,0,16-7.2,16-16
			C98.4,41,91.2,33.8,82.3,33.8z"/>
	</g>
	<g>
		<path d="M82.3,117.9c-1.5,0-2.8-1.3-2.8-2.8V83.9c0-1.5,1.3-2.8,2.8-2.8c1.5,0,2.8,1.3,2.8,2.8v31.2
			C85.1,116.7,83.9,117.9,82.3,117.9z"/>
	</g>
	<g>
		<path d="M98,112.9c-2.6,0-5.1-1-7-2.9c-3.8-3.8-3.8-10.1,0-13.9l8.4-8.4c3.7-3.7,10.2-3.7,13.9,0c3.8,3.8,3.8,10.1,0,13.9L105,110
			C103.1,111.9,100.7,112.9,98,112.9z M106.4,90.5c-1.1,0-2.2,0.4-3,1.2l-8.4,8.4c-1.6,1.6-1.6,4.3,0,6c1.6,1.6,4.4,1.6,6,0l8.4-8.4
			c1.6-1.6,1.6-4.3,0-6C108.6,90.9,107.5,90.5,106.4,90.5z"/>
	</g>
	<g>
		<path d="M66.7,112.9c-2.6,0-5.1-1-6.9-2.9l-8.4-8.4c-1.9-1.9-2.9-4.3-2.9-6.9c0-2.6,1-5.1,2.9-7c3.7-3.7,10.2-3.7,13.9,0l8.4,8.4
			c1.9,1.9,2.9,4.3,2.9,6.9c0,2.6-1,5.1-2.9,6.9C71.8,111.9,69.3,112.9,66.7,112.9z M58.3,90.5c-1.1,0-2.2,0.4-3,1.2
			c-0.8,0.8-1.2,1.9-1.2,3c0,1.1,0.4,2.2,1.2,3l8.4,8.4c1.6,1.6,4.4,1.6,6,0c0.8-0.8,1.2-1.9,1.2-3c0-1.1-0.4-2.2-1.2-3l-8.4-8.4
			C60.5,90.9,59.4,90.5,58.3,90.5z"/>
	</g>
</g>
</svg>
