<?xml version="1.0" encoding="utf-8"?>
<!-- Generator: Adobe Illustrator 22.1.0, SVG Export Plug-In . SVG Version: 6.00 Build 0)  -->
<svg version="1.1" id="Layer_1" xmlns="http://www.w3.org/2000/svg" xmlns:xlink="http://www.w3.org/1999/xlink" x="0px" y="0px"
	 viewBox="0 0 153.7 98.3" style="enable-background:new 0 0 153.7 98.3;" xml:space="preserve">
<g>
	<g>
		<path d="M149.6,98.3H91.8c-1.7,0-3.2-1-3.8-2.5c-0.6-1.5-0.3-3.3,0.9-4.5l57.8-57.8c1.2-1.2,2.9-1.5,4.5-0.9
			c1.5,0.6,2.5,2.1,2.5,3.8v57.8C153.7,96.5,151.8,98.3,149.6,98.3z M101.7,90.1h43.8V46.4L101.7,90.1z"/>
	</g>
	<g>
		<path d="M61.9,98.3C61.9,98.3,61.9,98.3,61.9,98.3H4.1c-2.3,0-4.1-1.8-4.1-4.1V36.5c0-1.7,1-3.2,2.5-3.8c1.5-0.6,3.3-0.3,4.5,0.9
			l57.3,57.3c1,0.7,1.7,2,1.7,3.3C66,96.5,64.2,98.3,61.9,98.3z M8.2,90.1H52L8.2,46.4V90.1z"/>
	</g>
	<g>
		<path d="M96.1,54.8H57.9c-8.5,0-15.4-5.7-15.4-12.8V12.8c0-7,6.9-12.8,15.4-12.8h38.2c8.5,0,15.4,5.7,15.4,12.8V42
			C111.6,49,104.6,54.8,96.1,54.8z M57.9,8.2c-4.3,0-7.2,2.4-7.2,4.6V42c0,2.2,3,4.6,7.2,4.6h38.2c4.3,0,7.2-2.4,7.2-4.6V12.8
			c0-2.2-3-4.6-7.2-4.6H57.9z"/>
	</g>
</g>
</svg>
