<?xml version="1.0" encoding="utf-8"?>
<!-- Generator: Adobe Illustrator 22.1.0, SVG Export Plug-In . SVG Version: 6.00 Build 0)  -->
<svg version="1.1" id="Layer_1" xmlns="http://www.w3.org/2000/svg" xmlns:xlink="http://www.w3.org/1999/xlink" x="0px" y="0px"
	 viewBox="0 0 185.8 185.8" style="enable-background:new 0 0 185.8 185.8;" xml:space="preserve">
<style type="text/css">
	.st0{fill:#231F20;}
	.st1{enable-background:new    ;}
</style>
<path class="st0" d="M93,13.1c-43.6,0-78.9,35.3-78.9,78.9s35.3,78.9,78.9,78.9s78.9-35.3,78.9-78.9C171.9,48.5,136.6,13.1,93,13.1z
	 M93,161.2c-38.2,0-69.2-31-69.2-69.2s31-69.2,69.2-69.2s69.2,31,69.2,69.2S131.2,161.2,93,161.2z"/>
<g class="st1">
	<path d="M82.2,118.2h-9.8V65.6h9.8V118.2z"/>
	<path d="M124.2,65.6v7.8h-23.3v15.6h19.7v7.8h-19.7v21.4h-9.8V65.6H124.2z"/>
</g>
<g>
	<g>
		<path class="st0" d="M34.6,95.9H3.2c-1.8,0-3.2-1.4-3.2-3.2c0-1.8,1.4-3.2,3.2-3.2h31.4c1.8,0,3.2,1.4,3.2,3.2
			S36.4,95.9,34.6,95.9z"/>
	</g>
	<g>
		<path class="st0" d="M182.6,95.9h-31.4c-1.8,0-3.2-1.4-3.2-3.2c0-1.8,1.4-3.2,3.2-3.2h31.4c1.8,0,3.2,1.4,3.2,3.2
			S184.4,95.9,182.6,95.9z"/>
	</g>
	<g>
		<path class="st0" d="M89.8,34.6V3.2C89.8,1.4,91.3,0,93,0c1.8,0,3.2,1.4,3.2,3.2v31.4c0,1.8-1.4,3.2-3.2,3.2
			C91.3,37.8,89.8,36.4,89.8,34.6z"/>
	</g>
	<g>
		<path class="st0" d="M89.8,182.6v-31.4c0-1.8,1.4-3.2,3.2-3.2c1.8,0,3.2,1.4,3.2,3.2v31.4c0,1.8-1.4,3.2-3.2,3.2
			C91.3,185.8,89.8,184.4,89.8,182.6z"/>
	</g>
</g>
</svg>
