<?xml version="1.0" encoding="utf-8"?>
<!-- Generator: Adobe Illustrator 22.1.0, SVG Export Plug-In . SVG Version: 6.00 Build 0)  -->
<svg version="1.1" id="Layer_1" xmlns="http://www.w3.org/2000/svg" xmlns:xlink="http://www.w3.org/1999/xlink" x="0px" y="0px"
	 viewBox="0 0 179.5 132.1" style="enable-background:new 0 0 179.5 132.1;" xml:space="preserve">
<style type="text/css">
	.st0{enable-background:new    ;}
</style>
<g class="st0">
	<path d="M56.7,69.4c0.3,0.7,0.5,1.3,0.8,2c0.3-0.7,0.5-1.4,0.8-2c0.3-0.7,0.6-1.3,0.9-1.9l12.2-22.8c0.2-0.3,0.3-0.5,0.5-0.7
		c0.2-0.2,0.3-0.3,0.5-0.4c0.2-0.1,0.4-0.1,0.7-0.1c0.2,0,0.5,0,0.9,0h5.8v41.1H73V58c0-0.5,0-1,0-1.6s0.1-1.2,0.1-1.8L60.7,77.9
		c-0.3,0.5-0.7,0.9-1.1,1.2c-0.5,0.3-1,0.4-1.6,0.4H57c-0.6,0-1.1-0.1-1.6-0.4c-0.5-0.3-0.8-0.7-1.1-1.2L41.6,54.5
		c0.1,0.6,0.1,1.2,0.2,1.8c0,0.6,0,1.2,0,1.7v26.6h-6.7V43.4h5.8c0.3,0,0.6,0,0.9,0c0.2,0,0.5,0.1,0.7,0.1c0.2,0.1,0.4,0.2,0.6,0.4
		c0.2,0.2,0.3,0.4,0.5,0.7l12.3,22.8C56.1,68.1,56.4,68.7,56.7,69.4z"/>
	<path d="M114,43.4v6.1H95.7v12.2h15.4v6.1H95.7v16.8H88V43.4H114z"/>
	<path d="M148.9,43.4v6.3h-12.4v34.8h-7.7V49.7h-12.4v-6.3H148.9z"/>
</g>
<g>
	<g>
		<path d="M174.7,132.1H4.8c-2.6,0-4.8-2.1-4.8-4.8V4.8C0,2.1,2.2,0,4.8,0h169.9c2.7,0,4.8,2.1,4.8,4.8v122.5
			C179.5,130,177.4,132.1,174.7,132.1z M9.6,122.5h160.3V9.6H9.6V122.5z"/>
	</g>
	<g>
		<path d="M157.3,112.3H21.6c-1.3,0-2.4-1.1-2.4-2.4V22.2c0-1.3,1.1-2.4,2.4-2.4h135.7c1.3,0,2.4,1.1,2.4,2.4v87.7
			C159.7,111.3,158.6,112.3,157.3,112.3z M24,107.5h130.9V24.6H24V107.5z"/>
	</g>
</g>
</svg>
