<?xml version="1.0" encoding="utf-8"?>
<!-- Generator: Adobe Illustrator 22.1.0, SVG Export Plug-In . SVG Version: 6.00 Build 0)  -->
<svg version="1.1" id="Layer_1" xmlns="http://www.w3.org/2000/svg" xmlns:xlink="http://www.w3.org/1999/xlink" x="0px" y="0px"
	 viewBox="0 0 165.3 118.7" style="enable-background:new 0 0 165.3 118.7;" xml:space="preserve">
<style type="text/css">
	.st0{enable-background:new    ;}
</style>
<g class="st0">
	<path d="M51.8,65.5h6.1v4.8c0,0.4-0.1,0.8-0.4,1.1c-0.3,0.3-0.7,0.5-1.3,0.5h-4.4v11.8h-7.2V71.9H24.3c-0.6,0-1-0.2-1.5-0.5
		c-0.4-0.3-0.7-0.8-0.8-1.3l-0.8-4.2L44,35.4h7.8V65.5z M44.6,49.7c0-0.7,0-1.5,0.1-2.3c0-0.8,0.1-1.7,0.2-2.6l-15,20.6h14.7V49.7z"
		/>
	<path d="M73.2,55.6h2.1c0.8,0,1.5-0.1,2.1-0.3s1-0.6,1.4-1.1l13.3-16.8c0.6-0.7,1.1-1.2,1.7-1.5c0.6-0.3,1.4-0.4,2.3-0.4h7.7
		l-16.2,20c-0.5,0.6-1,1.1-1.5,1.6c-0.5,0.4-1,0.8-1.5,1c0.7,0.3,1.4,0.6,2,1.1c0.6,0.5,1.2,1.1,1.7,1.9l16.7,22.6h-7.9
		c-1.1,0-1.9-0.2-2.4-0.5c-0.5-0.3-1-0.7-1.3-1.3L79.9,64.1c-0.4-0.6-0.9-1-1.5-1.3c-0.6-0.3-1.3-0.4-2.4-0.4h-2.8v21.2h-9V35.4h9
		V55.6z"/>
	<path d="M128.2,44.5v13.7h13v6.1h-13V78h-6.7V64.3h-12.9v-6.1h12.9V44.5H128.2z"/>
</g>
<path d="M154.4,7.6c1.8,0,3.2,1.5,3.2,3.2v97c0,1.8-1.5,3.2-3.2,3.2H10.9c-1.8,0-3.2-1.5-3.2-3.2v-97c0-1.8,1.4-3.2,3.2-3.2
	L154.4,7.6 M154.4,0H10.9C4.9,0,0,4.9,0,10.8v97c0,6,4.9,10.9,10.9,10.9h143.6c6,0,10.9-4.9,10.9-10.9v-97
	C165.3,4.9,160.4,0,154.4,0L154.4,0z"/>
</svg>
