<?xml version="1.0" encoding="utf-8"?>
<!-- Generator: Adobe Illustrator 22.1.0, SVG Export Plug-In . SVG Version: 6.00 Build 0)  -->
<svg version="1.1" id="Layer_1" xmlns="http://www.w3.org/2000/svg" xmlns:xlink="http://www.w3.org/1999/xlink" x="0px" y="0px"
	 viewBox="0 0 157.8 157.8" style="enable-background:new 0 0 157.8 157.8;" xml:space="preserve">
<style type="text/css">
	.st0{enable-background:new    ;}
</style>
<g class="st0">
	<path d="M71.6,94.8h-4.2c-0.5,0-0.9-0.1-1.2-0.4s-0.5-0.5-0.7-0.9l-2.2-5.9H51.4l-2.2,5.9c-0.1,0.3-0.3,0.6-0.6,0.8
		c-0.3,0.3-0.7,0.4-1.2,0.4h-4.2l11.4-29.1h5.5L71.6,94.8z M52.7,83.8H62l-3.5-9.7c-0.2-0.4-0.3-0.9-0.5-1.5
		c-0.2-0.6-0.4-1.2-0.6-1.9c-0.2,0.7-0.4,1.3-0.6,1.9c-0.2,0.6-0.4,1.1-0.5,1.6L52.7,83.8z"/>
	<path d="M90.2,71c-0.1,0.3-0.3,0.5-0.5,0.6c-0.2,0.1-0.4,0.2-0.7,0.2s-0.6-0.1-0.9-0.3c-0.3-0.2-0.7-0.4-1.2-0.7
		c-0.5-0.3-1-0.5-1.6-0.7c-0.6-0.2-1.3-0.3-2.2-0.3c-0.8,0-1.4,0.1-2,0.3s-1,0.4-1.4,0.8s-0.7,0.7-0.9,1.2c-0.2,0.5-0.3,0.9-0.3,1.5
		c0,0.7,0.2,1.3,0.6,1.7c0.4,0.5,0.9,0.8,1.5,1.2c0.6,0.3,1.4,0.6,2.2,0.9c0.8,0.3,1.6,0.5,2.5,0.8c0.8,0.3,1.7,0.6,2.5,1
		c0.8,0.4,1.5,0.9,2.2,1.5c0.6,0.6,1.1,1.3,1.5,2.1c0.4,0.8,0.6,1.9,0.6,3.1c0,1.3-0.2,2.5-0.7,3.7c-0.5,1.1-1.1,2.1-2,3
		c-0.9,0.9-1.9,1.5-3.2,2c-1.2,0.5-2.7,0.7-4.3,0.7c-0.9,0-1.8-0.1-2.7-0.3c-0.9-0.2-1.8-0.4-2.6-0.8c-0.8-0.3-1.6-0.7-2.3-1.2
		c-0.7-0.5-1.4-1-1.9-1.6l1.6-2.6c0.1-0.2,0.3-0.3,0.5-0.5c0.2-0.1,0.4-0.2,0.7-0.2c0.3,0,0.7,0.1,1.1,0.4c0.4,0.3,0.8,0.6,1.4,0.9
		c0.5,0.3,1.2,0.6,1.9,0.9c0.7,0.3,1.6,0.4,2.6,0.4c1.5,0,2.7-0.4,3.6-1.1s1.3-1.8,1.3-3.2c0-0.8-0.2-1.4-0.6-1.9s-0.9-0.9-1.5-1.2
		c-0.6-0.3-1.4-0.6-2.2-0.8s-1.6-0.5-2.5-0.7c-0.8-0.3-1.7-0.6-2.5-1s-1.5-0.9-2.2-1.5c-0.6-0.6-1.1-1.4-1.5-2.3s-0.6-2-0.6-3.4
		c0-1.1,0.2-2.1,0.6-3.1c0.4-1,1-1.9,1.9-2.7c0.8-0.8,1.8-1.4,3-1.9c1.2-0.5,2.5-0.7,4-0.7c1.7,0,3.3,0.3,4.8,0.8
		c1.5,0.5,2.7,1.3,3.7,2.3L90.2,71z"/>
	<path d="M101.8,84.6v10.3h-5.4V65.7h9.5c1.9,0,3.6,0.2,5.1,0.7s2.6,1.1,3.5,1.9c0.9,0.8,1.6,1.8,2.1,2.9c0.4,1.1,0.7,2.4,0.7,3.7
		c0,1.4-0.2,2.7-0.7,3.9c-0.5,1.2-1.2,2.2-2.1,3c-0.9,0.8-2.1,1.5-3.5,2c-1.4,0.5-3.1,0.7-5,0.7H101.8z M101.8,80.3h4.1
		c1,0,1.9-0.1,2.6-0.4c0.7-0.2,1.4-0.6,1.8-1.1c0.5-0.5,0.8-1,1.1-1.7c0.2-0.7,0.4-1.4,0.4-2.2c0-0.8-0.1-1.5-0.4-2.1
		c-0.2-0.6-0.6-1.2-1.1-1.6c-0.5-0.4-1.1-0.8-1.8-1c-0.7-0.2-1.6-0.4-2.6-0.4h-4.1V80.3z"/>
</g>
<path d="M78.9,0C35.3,0,0,35.3,0,78.9s35.3,78.9,78.9,78.9s78.9-35.3,78.9-78.9S122.5,0,78.9,0z M78.9,148.1
	c-38.2,0-69.2-31-69.2-69.2s31-69.2,69.2-69.2s69.2,31,69.2,69.2S117.1,148.1,78.9,148.1z"/>
<path d="M79.9,142.7c-17.4,0-33.1-7-44.5-18.4S16.9,97.2,16.9,79.8S24,46.7,35.3,35.3c11.4-11.4,27.1-18.4,44.5-18.4
	s33.1,7,44.5,18.4s18.4,27.1,18.4,44.5s-7.1,33.1-18.4,44.5S97.3,142.7,79.9,142.7L79.9,142.7z M37.5,122.1L37.5,122.1
	c10.8,10.8,25.8,17.5,42.3,17.5s31.5-6.7,42.4-17.5c10.8-10.8,17.5-25.8,17.5-42.3s-6.7-31.5-17.5-42.4
	c-10.8-10.8-25.8-17.5-42.4-17.5c-16.5,0-31.5,6.7-42.3,17.5C26.7,48.3,20,63.2,20,79.8C20,96.3,26.7,111.3,37.5,122.1z"/>
<path d="M112.9,57.3c-2.3-4.2-1.5-9.1,1.8-11c3.3-1.8,7.9,0.1,10.3,4.3c2.3,4.2,1.5,9.1-1.8,11C119.9,63.4,115.3,61.5,112.9,57.3z"
	/>
<path d="M79.9,131.1c-28.4,0-51.3-23-51.3-51.3c0-4.7,0.6-9.2,1.8-13.5c1.7,34.1,29.1,61.5,63.2,63
	C89.2,130.5,84.6,131.1,79.9,131.1z"/>
</svg>
