<?xml version="1.0" encoding="utf-8"?>
<!-- Generator: Adobe Illustrator 22.1.0, SVG Export Plug-In . SVG Version: 6.00 Build 0)  -->
<svg version="1.1" id="Layer_1" xmlns="http://www.w3.org/2000/svg" xmlns:xlink="http://www.w3.org/1999/xlink" x="0px" y="0px"
	 viewBox="0 0 157.8 157.8" style="enable-background:new 0 0 157.8 157.8;" xml:space="preserve">
<style type="text/css">
	.st0{fill:#231F20;}
	.st1{enable-background:new    ;}
</style>
<path class="st0" d="M78.9,0C35.3,0,0,35.3,0,78.9s35.3,78.9,78.9,78.9s78.9-35.3,78.9-78.9S122.5,0,78.9,0z M78.9,148.1
	c-38.2,0-69.2-31-69.2-69.2s31-69.2,69.2-69.2s69.2,31,69.2,69.2S117.1,148.1,78.9,148.1z"/>
<g>
	<path class="st0" d="M140.6,78.9c0,33.1-26.9,60-59.9,60c-3.1,0-5.7-2.5-5.7-5.7c0-3.1,2.5-5.7,5.7-5.7c26.8,0,48.6-21.8,48.6-48.6
		c0-3.1,2.5-5.7,5.7-5.7C138.1,73.2,140.6,75.8,140.6,78.9z"/>
</g>
<g class="st1">
	<path d="M38.6,53.5c0.3,0,0.5,0.1,0.7,0.2c0.2,0.1,0.4,0.3,0.6,0.5s0.4,0.5,0.7,0.8l26.6,33.8c-0.1-0.8-0.2-1.6-0.2-2.4
		S67,84.9,67,84.3V53.5h8.3v50.6h-4.8c-0.7,0-1.4-0.1-1.8-0.3s-1-0.7-1.4-1.3L40.6,68.8c0.1,0.7,0.1,1.5,0.2,2.2
		c0,0.7,0.1,1.4,0.1,2v31.1h-8.3V53.5h4.9C37.9,53.5,38.3,53.5,38.6,53.5z"/>
	<path d="M94.7,78.1L78.6,53.5H88c0.7,0,1.1,0.1,1.4,0.3s0.6,0.5,0.8,0.9l11.5,18.6c0.1-0.3,0.2-0.6,0.4-0.9
		c0.1-0.3,0.3-0.6,0.5-0.9l10.5-16.6c0.5-0.9,1.2-1.3,2-1.3h9l-16.3,24.2l16.8,26.4h-9.4c-0.6,0-1.1-0.2-1.5-0.5
		c-0.4-0.3-0.7-0.7-1-1.1l-11.7-19.4c-0.1,0.3-0.2,0.5-0.3,0.8c-0.1,0.2-0.2,0.5-0.4,0.7L89,102.5c-0.3,0.4-0.6,0.8-0.9,1.1
		c-0.4,0.3-0.8,0.5-1.4,0.5h-8.8L94.7,78.1z"/>
</g>
</svg>
