<svg width="2248" height="8" viewBox="0 0 2248 8" version="1.1" xmlns="http://www.w3.org/2000/svg" xmlns:xlink="http://www.w3.org/1999/xlink">
<title>Vector</title>
<desc>Created using Figma</desc>
<g id="Canvas" transform="matrix(4 0 0 4 -66572 -8360)">
<g id="Vector">
<use xlink:href="#path0_stroke" transform="translate(16643 2091)" fill="#C2C2C2"/>
</g>
</g>
<defs>
<path id="path0_stroke" d="M 0 0.5L 1.99291 0.5L 1.99291 -0.5L 0 -0.5L 0 0.5ZM 9.96454 0.5L 13.9504 0.5L 13.9504 -0.5L 9.96454 -0.5L 9.96454 0.5ZM 21.922 0.5L 25.9078 0.5L 25.9078 -0.5L 21.922 -0.5L 21.922 0.5ZM 33.8794 0.5L 37.8652 0.5L 37.8652 -0.5L 33.8794 -0.5L 33.8794 0.5ZM 45.8369 0.5L 49.8227 0.5L 49.8227 -0.5L 45.8369 -0.5L 45.8369 0.5ZM 57.7943 0.5L 61.7801 0.5L 61.7801 -0.5L 57.7943 -0.5L 57.7943 0.5ZM 69.7518 0.5L 73.7376 0.5L 73.7376 -0.5L 69.7518 -0.5L 69.7518 0.5ZM 81.7092 0.5L 85.695 0.5L 85.695 -0.5L 81.7092 -0.5L 81.7092 0.5ZM 93.6667 0.5L 97.6525 0.5L 97.6525 -0.5L 93.6667 -0.5L 93.6667 0.5ZM 105.624 0.5L 109.61 0.5L 109.61 -0.5L 105.624 -0.5L 105.624 0.5ZM 117.582 0.5L 121.567 0.5L 121.567 -0.5L 117.582 -0.5L 117.582 0.5ZM 129.539 0.5L 133.525 0.5L 133.525 -0.5L 129.539 -0.5L 129.539 0.5ZM 141.496 0.5L 145.482 0.5L 145.482 -0.5L 141.496 -0.5L 141.496 0.5ZM 153.454 0.5L 157.44 0.5L 157.44 -0.5L 153.454 -0.5L 153.454 0.5ZM 165.411 0.5L 169.397 0.5L 169.397 -0.5L 165.411 -0.5L 165.411 0.5ZM 177.369 0.5L 181.355 0.5L 181.355 -0.5L 177.369 -0.5L 177.369 0.5ZM 189.326 0.5L 193.312 0.5L 193.312 -0.5L 189.326 -0.5L 189.326 0.5ZM 201.284 0.5L 205.27 0.5L 205.27 -0.5L 201.284 -0.5L 201.284 0.5ZM 213.241 0.5L 217.227 0.5L 217.227 -0.5L 213.241 -0.5L 213.241 0.5ZM 225.199 0.5L 229.184 0.5L 229.184 -0.5L 225.199 -0.5L 225.199 0.5ZM 237.156 0.5L 241.142 0.5L 241.142 -0.5L 237.156 -0.5L 237.156 0.5ZM 249.113 0.5L 253.099 0.5L 253.099 -0.5L 249.113 -0.5L 249.113 0.5ZM 261.071 0.5L 265.057 0.5L 265.057 -0.5L 261.071 -0.5L 261.071 0.5ZM 273.028 0.5L 277.014 0.5L 277.014 -0.5L 273.028 -0.5L 273.028 0.5ZM 284.986 0.5L 288.972 0.5L 288.972 -0.5L 284.986 -0.5L 284.986 0.5ZM 296.943 0.5L 300.929 0.5L 300.929 -0.5L 296.943 -0.5L 296.943 0.5ZM 308.901 0.5L 312.887 0.5L 312.887 -0.5L 308.901 -0.5L 308.901 0.5ZM 320.858 0.5L 324.844 0.5L 324.844 -0.5L 320.858 -0.5L 320.858 0.5ZM 332.816 0.5L 336.801 0.5L 336.801 -0.5L 332.816 -0.5L 332.816 0.5ZM 344.773 0.5L 348.759 0.5L 348.759 -0.5L 344.773 -0.5L 344.773 0.5ZM 356.73 0.5L 360.716 0.5L 360.716 -0.5L 356.73 -0.5L 356.73 0.5ZM 368.688 0.5L 372.674 0.5L 372.674 -0.5L 368.688 -0.5L 368.688 0.5ZM 380.645 0.5L 384.631 0.5L 384.631 -0.5L 380.645 -0.5L 380.645 0.5ZM 392.603 0.5L 396.589 0.5L 396.589 -0.5L 392.603 -0.5L 392.603 0.5ZM 404.56 0.5L 408.546 0.5L 408.546 -0.5L 404.56 -0.5L 404.56 0.5ZM 416.518 0.5L 420.504 0.5L 420.504 -0.5L 416.518 -0.5L 416.518 0.5ZM 428.475 0.5L 432.461 0.5L 432.461 -0.5L 428.475 -0.5L 428.475 0.5ZM 440.433 0.5L 444.418 0.5L 444.418 -0.5L 440.433 -0.5L 440.433 0.5ZM 452.39 0.5L 456.376 0.5L 456.376 -0.5L 452.39 -0.5L 452.39 0.5ZM 464.348 0.5L 468.333 0.5L 468.333 -0.5L 464.348 -0.5L 464.348 0.5ZM 476.305 0.5L 480.291 0.5L 480.291 -0.5L 476.305 -0.5L 476.305 0.5ZM 488.262 0.5L 492.248 0.5L 492.248 -0.5L 488.262 -0.5L 488.262 0.5ZM 500.22 0.5L 504.206 0.5L 504.206 -0.5L 500.22 -0.5L 500.22 0.5ZM 512.177 0.5L 516.163 0.5L 516.163 -0.5L 512.177 -0.5L 512.177 0.5ZM 524.135 0.5L 528.121 0.5L 528.121 -0.5L 524.135 -0.5L 524.135 0.5ZM 536.092 0.5L 540.078 0.5L 540.078 -0.5L 536.092 -0.5L 536.092 0.5ZM 548.05 0.5L 552.035 0.5L 552.035 -0.5L 548.05 -0.5L 548.05 0.5ZM 560.007 0.5L 562 0.5L 562 -0.5L 560.007 -0.5L 560.007 0.5Z"/>
</defs>
</svg>
