<svg width="520" height="168" viewBox="0 0 520 168" version="1.1" xmlns="http://www.w3.org/2000/svg" xmlns:xlink="http://www.w3.org/1999/xlink">
<title>google</title>
<desc>Created using Figma</desc>
<g id="Canvas" transform="matrix(4 0 0 4 -30764 -12520)">
<g id="google">
<g id="Vector">
<use xlink:href="#path0_fill" transform="translate(7691 3130)"/>
</g>
<g id="PLAY 2">
<g id="Vector">
<use xlink:href="#path1_fill" transform="translate(7700.69 3138.08)" fill="url(#paint1_linear)"/>
</g>
<g id="Vector">
<use xlink:href="#path2_fill" transform="translate(7700.69 3137.98)" fill="url(#paint2_linear)"/>
</g>
<g id="Vector">
<use xlink:href="#path3_fill" transform="translate(7700.69 3152.32)" fill="url(#paint3_linear)"/>
</g>
<g id="Vector">
<use xlink:href="#path4_fill" transform="translate(7715.09 3148.48)" fill="url(#paint4_linear)"/>
</g>
</g>
<g id="Group">
<g id="Vector">
<use xlink:href="#path5_fill" transform="translate(7787.52 3149.31)" fill="#F9F9F9"/>
</g>
<g id="Vector">
<use xlink:href="#path6_fill" transform="translate(7796.5 3145.97)" fill="#F9F9F9"/>
</g>
<g id="Vector">
<use xlink:href="#path7_fill" transform="translate(7799.27 3149.31)" fill="#F9F9F9"/>
</g>
<g id="Vector">
<use xlink:href="#path8_fill" transform="translate(7806.66 3149.46)" fill="#F9F9F9"/>
</g>
</g>
<g id="Group">
<g id="Vector">
<use xlink:href="#path9_fill" transform="translate(7761.62 3149.58)" fill="#F9F9F9"/>
</g>
<g id="Vector">
<use xlink:href="#path10_fill" transform="translate(7752.89 3149.36)" fill="#F9F9F9"/>
</g>
<g id="Vector">
<use xlink:href="#path11_fill" transform="translate(7743.48 3149.36)" fill="#F9F9F9"/>
</g>
<g id="Vector">
<use xlink:href="#path12_fill" transform="translate(7730.14 3145.44)" fill="#F9F9F9"/>
</g>
<g id="Vector">
<use xlink:href="#path13_fill" transform="translate(7769.89 3145.06)" fill="#F9F9F9"/>
</g>
<g id="Vector">
<use xlink:href="#path14_fill" transform="translate(7774.35 3149.33)" fill="#F9F9F9"/>
</g>
<g id="Group">
<g id="Vector">
<use xlink:href="#path15_fill" transform="translate(7781.84 3149.36)" fill="#F9F9F9"/>
</g>
<g id="Vector">
<use xlink:href="#path16_fill" transform="translate(7782.98 3149.36)" fill="#F9F9F9"/>
</g>
</g>
</g>
<g id="Group">
<g id="Vector">
<use xlink:href="#path17_fill" transform="translate(7730.19 3138.53)" fill="#FDFDFE"/>
</g>
<g id="Vector">
<use xlink:href="#path18_fill" transform="translate(7734.2 3138.51)" fill="#FDFDFE"/>
</g>
<g id="Vector">
<use xlink:href="#path19_fill" transform="translate(7738.04 3138.54)" fill="#FDFDFE"/>
</g>
<g id="Vector">
<use xlink:href="#path20_fill" transform="translate(7741.79 3138.54)" fill="#FDFDFE"/>
</g>
<g id="Vector">
<use xlink:href="#path21_fill" transform="translate(7745.1 3138.46)" fill="#FDFDFE"/>
</g>
<g id="Vector">
<use xlink:href="#path22_fill" transform="translate(7749.31 3138.54)" fill="#FDFDFE"/>
</g>
<g id="Vector">
<use xlink:href="#path23_fill" transform="translate(7751 3138.54)" fill="#FDFDFE"/>
</g>
<g id="Vector">
<use xlink:href="#path24_fill" transform="translate(7755.77 3138.54)" fill="#FDFDFE"/>
</g>
<g id="Vector">
<use xlink:href="#path25_fill" transform="translate(7759.8 3138.54)" fill="#FDFDFE"/>
</g>
<g id="Vector">
<use xlink:href="#path26_fill" transform="translate(7763.03 3138.54)" fill="#FDFDFE"/>
</g>
<g id="Vector">
<use xlink:href="#path27_fill" transform="translate(7767.49 3138.46)" fill="#FDFDFE"/>
</g>
<g id="Vector">
<use xlink:href="#path28_fill" transform="translate(7771.71 3138.51)" fill="#FDFDFE"/>
</g>
</g>
</g>
</g>
<defs>
<linearGradient id="paint1_linear" x1="0" y1="0" x2="1" y2="0" gradientUnits="userSpaceOnUse" gradientTransform="matrix(0 28.4442 -28.5749 0 21.4831 0.00276151)">
<stop offset="0" stop-color="#0778B1"/>
<stop offset="0.2863" stop-color="#4692B8"/>
<stop offset="0.767" stop-color="#7EBEBD"/>
<stop offset="1" stop-color="#93CFBD"/>
</linearGradient>
<linearGradient id="paint2_linear" x1="0" y1="0" x2="1" y2="0" gradientUnits="userSpaceOnUse" gradientTransform="matrix(18.2793 0 0 18.1957 -0.00887742 -1.93523)">
<stop offset="0" stop-color="#54BCAA"/>
<stop offset="1" stop-color="#E4EB98"/>
</linearGradient>
<linearGradient id="paint3_linear" x1="0" y1="0" x2="1" y2="0" gradientUnits="userSpaceOnUse" gradientTransform="matrix(0 14.3253 -14.3911 0 16.3262 -0.00921339)">
<stop offset="0" stop-color="#E7392F"/>
<stop offset="0.1668" stop-color="#D83B45"/>
<stop offset="0.5748" stop-color="#B23F73"/>
<stop offset="0.8619" stop-color="#973F8B"/>
<stop offset="1" stop-color="#8C3E93"/>
</linearGradient>
<linearGradient id="paint4_linear" x1="0" y1="0" x2="1" y2="0" gradientUnits="userSpaceOnUse" gradientTransform="matrix(0 7.63973 -7.67483 0 9.0956 0.0116736)">
<stop offset="0" stop-color="#F08975"/>
<stop offset="0.1194" stop-color="#F19375"/>
<stop offset="0.7128" stop-color="#F8BF72"/>
<stop offset="1" stop-color="#FBCE6D"/>
</linearGradient>
<path id="path0_fill" d="M 129 36.3264C 129 39.4644 126.453 42 123.3 42L 5.69971 42C 2.54721 42 0 39.4644 0 36.3264L 0 5.67364C 0 2.53556 2.54721 0 5.69971 0L 123.3 0C 126.453 0 129 2.53556 129 5.67364L 129 36.3264Z"/>
<path id="path1_fill" d="M 3.84826e-07 1.91533e-07L 3.84826e-07 14.2343L 3.84826e-07 28.4435L 14.4006 14.2343L 3.84826e-07 1.91533e-07Z"/>
<path id="path2_fill" d="M 18.2592 10.4937L 12.4587 7.15481L 3.84826e-07 -1.91533e-07L 3.84826e-07 0.100419L 14.4006 14.3347L 18.2592 10.4937Z"/>
<path id="path3_fill" d="M 3.84826e-07 14.2092L 3.84826e-07 14.3096L 12.4587 7.15481L 18.2592 3.8159L 14.4006 3.83066e-07L 3.84826e-07 14.2092Z"/>
<path id="path4_fill" d="M 3.85865 -3.83066e-07L 0 3.841L 3.85865 7.6569L 10.5167 3.841L 3.85865 -3.83066e-07Z"/>
<path id="path5_fill" d="M 3.88387 8.56067C 3.35425 8.56067 2.84986 8.46025 2.3959 8.25941C 1.94194 8.05858 1.56364 7.75732 1.261 7.33054L 1.16011 7.33054C 1.21055 7.80753 1.261 8.25941 1.261 8.7113L 1.261 12.1255L 3.07861e-06 12.1255L 3.07861e-06 0.150628L 1.03401 0.150628L 1.21056 1.28033L 1.261 1.28033C 1.58886 0.828452 1.96716 0.502092 2.3959 0.301255C 2.82464 0.100418 3.32903 3.83066e-07 3.88387 3.83066e-07C 4.99355 3.83066e-07 5.82581 0.376569 6.43109 1.12971C 7.03637 1.88285 7.339 2.93724 7.339 4.29289C 7.339 5.64854 7.03637 6.70293 6.43109 7.45607C 5.80059 8.1841 4.94311 8.56067 3.88387 8.56067ZM 3.68211 1.05439C 2.82463 1.05439 2.21935 1.28034 1.84106 1.75732C 1.46276 2.23431 1.261 2.96234 1.261 3.99163L 1.261 4.26778C 1.261 5.4226 1.46276 6.25105 1.84106 6.75314C 2.21935 7.25523 2.84985 7.50628 3.70733 7.50628C 4.41349 7.50628 4.99355 7.20502 5.39707 6.62762C 5.80059 6.05021 6.00235 5.24686 6.00235 4.24268C 6.00235 3.21339 5.80059 2.41004 5.39707 1.85774C 4.99355 1.33054 4.43871 1.05439 3.68211 1.05439Z"/>
<path id="path6_fill" d="M 1.26099 11.749L -3.07861e-06 11.749L -3.07861e-06 -3.83066e-07L 1.26099 -3.83066e-07L 1.26099 11.749Z"/>
<path id="path7_fill" d="M 5.72493 8.41004L 5.47273 7.23012L 5.42228 7.23012C 5.01877 7.75732 4.59003 8.10879 4.18651 8.28452C 3.78299 8.46025 3.25337 8.56067 2.64809 8.56067C 1.81583 8.56067 1.18534 8.35983 0.70616 7.93305C 0.226981 7.50628 -3.07861e-06 6.90377 -3.07861e-06 6.12552C -3.07861e-06 4.44352 1.33665 3.58996 4.03519 3.48954L 5.44751 3.43933L 5.44751 2.93724C 5.44751 2.28452 5.29619 1.80753 5.01877 1.50628C 4.74135 1.20502 4.28739 1.05439 3.68211 1.05439C 3.00117 1.05439 2.19414 1.25523 1.33666 1.68201L 0.958359 0.728034C 1.36188 0.502093 1.81583 0.326359 2.29501 0.200836C 2.77419 0.075313 3.2786 3.83066e-07 3.75777 3.83066e-07C 4.74135 3.83066e-07 5.47273 0.225941 5.9519 0.65272C 6.43108 1.0795 6.65807 1.78243 6.65807 2.76151L 6.65807 8.41004L 5.72493 8.41004ZM 2.87508 7.53138C 3.65689 7.53138 4.26217 7.30544 4.71613 6.87866C 5.17009 6.45188 5.39707 5.84937 5.39707 5.07113L 5.39707 4.31799L 4.13607 4.3682C 3.12728 4.39331 2.42112 4.56904 1.96716 4.84519C 1.5132 5.12134 1.31144 5.54812 1.31144 6.12552C 1.31144 6.57741 1.43754 6.92887 1.71496 7.15481C 1.99238 7.40586 2.37068 7.53138 2.87508 7.53138Z"/>
<path id="path8_fill" d="M 1.5393e-06 0L 1.33666 0L 3.15249 4.71967C 3.55601 5.79916 3.80821 6.5774 3.88387 7.05439L 3.93431 7.05439C 4.00997 6.80335 4.13607 6.35146 4.33783 5.74895C 4.53959 5.12134 5.24575 3.21339 6.40587 0.0251042L 7.76774 0.0251042L 4.21173 9.41423C 3.85865 10.3431 3.45513 10.9958 2.97595 11.3975C 2.49677 11.7992 1.91672 11.9749 1.23578 11.9749C 0.857478 11.9749 0.479179 11.9247 0.10088 11.8494L 0.10088 10.8452C 0.378299 10.8954 0.680942 10.9456 1.03402 10.9456C 1.8915 10.9456 2.52199 10.4686 2.87507 9.48954L 3.32903 8.30962L 1.5393e-06 0Z"/>
<path id="path9_fill" d="M 6.45631 0.627615C 6.85983 0.953975 7.69208 1.6569 7.69208 2.96234C 7.69208 4.24268 6.96071 4.84519 6.22933 5.42259C 6.00235 5.64854 5.75014 5.89958 5.75014 6.27615C 5.75014 6.65272 6.00235 6.85356 6.20411 7.02929L 6.83461 7.50628C 7.5912 8.159 8.29736 8.7364 8.29736 9.94142C 8.29736 11.5732 6.7085 13.205 3.73255 13.205C 1.21055 13.205 0 12 0 10.7197C 0 10.092 0.302636 9.21339 1.33665 8.61088C 2.42111 7.95816 3.88387 7.85774 4.66569 7.80753C 4.41349 7.50628 4.13607 7.17992 4.13607 6.62762C 4.13607 6.32636 4.21173 6.15063 4.31261 5.94979C 4.11085 5.9749 3.93431 5.9749 3.75777 5.9749C 1.91671 5.9749 0.882698 4.61925 0.882698 3.2636C 0.882698 2.46025 1.23578 1.58159 1.99237 0.953976C 2.97595 0.150628 4.16129 0 5.09443 0L 8.67566 0L 7.56598 0.627615L 6.45631 0.627615ZM 5.22053 8.30962C 5.06921 8.28452 4.99355 8.28452 4.81701 8.28452C 4.66569 8.28452 3.73255 8.30962 3.00117 8.56067C 2.62287 8.68619 1.5132 9.11297 1.5132 10.3431C 1.5132 11.5732 2.72376 12.4519 4.56481 12.4519C 6.22933 12.4519 7.11203 11.6485 7.11203 10.5941C 7.11203 9.71548 6.55719 9.23849 5.22053 8.30962ZM 5.72493 5.02092C 6.12845 4.61925 6.15366 4.06695 6.15366 3.76569C 6.15366 2.51046 5.39707 0.577407 3.95953 0.577407C 3.50557 0.577407 3.02639 0.803347 2.74897 1.15481C 2.44633 1.50628 2.37067 1.98326 2.37067 2.43515C 2.37067 3.58996 3.05161 5.52301 4.53959 5.52301C 4.99355 5.52301 5.44751 5.29707 5.72493 5.02092Z"/>
<path id="path10_fill" d="M 4.23695 8.25941C 1.48798 8.25941 -1.5393e-06 6.12552 -1.5393e-06 4.19247C -1.5393e-06 1.93306 1.86628 -3.83066e-07 4.48915 -3.83066e-07C 7.03637 -3.83066e-07 8.62522 1.98326 8.62522 4.06695C 8.65044 6.10042 7.06159 8.25941 4.23695 8.25941ZM 6.40586 6.85356C 6.8346 6.30126 6.93548 5.59833 6.93548 4.94561C 6.93548 3.41423 6.20411 0.527196 4.06041 0.527196C 3.48035 0.527196 2.92551 0.753138 2.49678 1.1046C 1.81584 1.70711 1.68974 2.46025 1.68974 3.21339C 1.68974 4.9205 2.54721 7.73222 4.64047 7.73222C 5.3214 7.75732 6.00234 7.40586 6.40586 6.85356Z"/>
<path id="path11_fill" d="M 4.23695 8.25941C 1.48798 8.25941 1.5393e-06 6.12552 1.5393e-06 4.19247C 1.5393e-06 1.93306 1.86627 -3.83066e-07 4.48915 -3.83066e-07C 7.03636 -3.83066e-07 8.62522 1.98326 8.62522 4.06695C 8.65044 6.10042 7.06158 8.25941 4.23695 8.25941ZM 6.40587 6.85356C 6.8346 6.30126 6.93549 5.59833 6.93549 4.94561C 6.93549 3.41423 6.2041 0.527196 4.06041 0.527196C 3.48035 0.527196 2.92551 0.753138 2.49677 1.1046C 1.81584 1.70711 1.68974 2.46025 1.68974 3.21339C 1.68974 4.9205 2.54721 7.73222 4.64047 7.73222C 5.32141 7.75732 6.00235 7.40586 6.40587 6.85356Z"/>
<path id="path12_fill" d="M 12.0299 11.8996L 9.53314 12.477C 8.52434 12.6276 7.61642 12.7782 6.65807 12.7782C 1.84106 12.7782 -7.69652e-07 9.2636 -7.69652e-07 6.50209C -7.69652e-07 3.13808 2.59766 -1.78379e-15 7.03636 -1.78379e-15C 7.9695 -1.78379e-15 8.87742 0.150628 9.70968 0.376569C 11.0211 0.753138 11.6264 1.17992 12.0047 1.45607L 10.5672 2.83682L 9.96188 2.98745L 10.3906 2.28452C 9.78534 1.70711 8.7261 0.652719 6.65807 0.652719C 3.90909 0.652719 1.81583 2.7364 1.81583 5.77406C 1.81583 9.03766 4.18651 12.1004 7.99472 12.1004C 9.1044 12.1004 9.68446 11.8745 10.2141 11.6736L 10.2141 8.86193L 7.5912 9.01255L 8.9783 8.25941L 12.6856 8.25941L 12.2317 8.68619C 12.1056 8.78661 12.0804 8.83682 12.0551 8.96234C 12.0299 9.11297 12.0299 9.61506 12.0299 9.7908L 12.0299 11.8996Z"/>
<path id="path13_fill" d="M 3.70733 11.7741C 3.12727 11.7238 3.00118 11.6234 3.00118 10.9456L 3.00118 10.7448L 3.00118 1.12971C 3.00118 1.1046 3.00118 1.05439 3.00118 1.02929C 3.07684 0.426778 3.25337 0.32636 3.78299 1.78379e-15L 1.31144 1.78379e-15L -3.07861e-06 0.627615L 1.33666 0.627615L 1.33666 10.7699L 1.33666 11.3473C 1.33666 11.6987 1.261 11.749 0.857481 12.2761L 3.93431 12.2761L 4.59003 11.8996C 4.28739 11.8494 4.00997 11.8243 3.70733 11.7741Z"/>
<path id="path14_fill" d="M 6.33021 7.68201C 6.12845 7.78243 5.9519 7.90795 5.75014 7.98326C 5.17008 8.23431 4.59003 8.30962 4.06041 8.30962C 3.50557 8.30962 2.64809 8.28452 1.7654 7.6318C 0.529619 6.77824 0 5.29707 0 3.99163C 0 1.33054 2.19414 3.56758e-15 3.95953 3.56758e-15C 4.59003 3.56758e-15 5.22052 0.150628 5.75014 0.476988C 6.60762 1.05439 6.83461 1.78243 6.96071 2.1841L 2.90029 3.841L 1.56364 3.94142C 1.99238 6.12552 3.48035 7.40586 5.14487 7.40586C 6.02756 7.40586 6.65806 7.1046 7.26334 6.80335L 6.33021 7.68201ZM 4.71613 2.53556C 5.04399 2.41004 5.22053 2.30962 5.22053 2.05858C 5.22053 1.38075 4.43871 0.577407 3.50557 0.577407C 2.79941 0.577407 1.5132 1.1046 1.5132 2.96234C 1.5132 3.2636 1.53842 3.56485 1.56364 3.86611L 4.71613 2.53556Z"/>
<path id="path15_fill" d="M 0.529616 0.125523L 0.529616 1.25523L 0.378302 1.25523L 0.378302 0.125523L 3.07861e-06 0.125523L 3.07861e-06 -3.83066e-07L 0.882701 -3.83066e-07L 0.882701 0.125523L 0.529616 0.125523Z"/>
<path id="path16_fill" d="M 0.933136 1.25523L 0.933136 0.100418L 0.580059 1.25523L 0.47918 1.25523L 0.126103 0.100418L 0.126103 1.25523L 3.07861e-06 1.25523L 3.07861e-06 -3.83066e-07L 0.226981 -3.83066e-07L 0.554837 1.00418L 0.882701 -3.83066e-07L 1.10968 -3.83066e-07L 1.10968 1.25523L 0.933136 1.25523Z"/>
<path id="path17_fill" d="M 3.42991 3.51464L 2.57244 3.51464C 2.57244 3.38912 2.49678 3.06276 2.32024 2.51046L 1.05924 2.51046C 0.882699 3.06276 0.80704 3.38912 0.80704 3.51464L -1.5393e-06 3.51464C -1.5393e-06 3.43933 0.201758 2.86192 0.630497 1.78243C 1.05924 0.702928 1.261 0.100418 1.261 0L 2.29501 0C 2.29501 0.100418 2.49678 0.677824 2.87507 1.75732C 3.22815 2.83682 3.42991 3.41423 3.42991 3.51464ZM 2.16892 1.98326C 1.86628 1.05439 1.71496 0.552302 1.71496 0.476988L 1.66452 0.476988C 1.66452 0.552302 1.5132 1.05439 1.18534 1.98326L 2.16892 1.98326Z"/>
<path id="path18_fill" d="M 2.90029 3.53975L 2.21936 3.53975C 2.21936 3.46444 1.96716 3.08787 1.46276 2.35983C 0.933139 1.60669 0.65572 1.1046 0.58006 0.828452L 0.529617 0.828452C 0.580057 1.23013 0.605278 1.58159 0.605278 1.90795C 0.605278 2.35983 0.605277 2.88703 0.655717 3.53975L 7.69651e-07 3.53975C 0.0252207 2.98745 0.0504399 2.35983 0.0504399 1.70711C 0.0504399 1.05439 0.0252207 0.502092 7.69651e-07 0.0251046L 0.807038 0.0251046C 0.807038 0.125523 1.03402 0.502092 1.48798 1.15481C 1.96715 1.85774 2.24457 2.33473 2.29501 2.58577L 2.34546 2.58577C 2.29502 2.1841 2.2698 1.83264 2.2698 1.50628C 2.2698 1.02929 2.24458 0.527197 2.21936 3.83066e-07L 2.90029 3.83066e-07C 2.87507 0.451883 2.84985 1.00418 2.84985 1.68201C 2.87507 2.38494 2.87507 2.98745 2.90029 3.53975Z"/>
<path id="path19_fill" d="M 3.00117 1.6318C 3.00117 2.13389 2.82463 2.58577 2.49677 2.96234C 2.16891 3.33891 1.71495 3.53975 1.10968 3.53975C 0.832256 3.53975 0.479179 3.53975 0 3.51464C 0.0252199 2.96234 0.0252215 2.35983 0.0252215 1.68201C 0.0252215 1.02929 0.0252199 0.476987 0 1.78379e-15L 0.479177 1.78379e-15C 0.554837 1.78379e-15 0.680939 1.78379e-15 0.832259 1.78379e-15C 0.983578 1.78379e-15 1.08446 1.78379e-15 1.1349 1.78379e-15C 1.79062 1.78379e-15 2.2698 0.150628 2.54722 0.476988C 2.84985 0.803348 3.00117 1.17992 3.00117 1.6318ZM 2.24457 1.75732C 2.24457 1.40586 2.14369 1.12971 1.94193 0.878661C 1.74018 0.65272 1.43754 0.527196 1.0088 0.527196C 0.933138 0.527196 0.832257 0.527197 0.680938 0.552301C 0.706158 0.903766 0.706159 1.28033 0.706159 1.68201C 0.706159 2.10879 0.706157 2.53556 0.731377 2.96234C 0.857476 2.98745 0.958358 2.98745 1.08446 2.98745C 1.46276 2.98745 1.7654 2.86192 1.94193 2.63598C 2.16891 2.38494 2.24457 2.10879 2.24457 1.75732Z"/>
<path id="path20_fill" d="M 2.84985 3.51464L 2.04282 3.51464C 1.84106 2.88703 1.66452 2.48536 1.56364 2.33473C 1.46276 2.1841 1.261 2.10879 1.03402 2.10879C 0.933138 2.10879 0.832259 2.10879 0.731379 2.10879C 0.731379 2.56067 0.731377 3.03766 0.756597 3.51464L -1.5393e-06 3.51464C 0.0252184 2.96234 0.0252199 2.35983 0.0252199 1.68201C 0.0252199 1.02929 0.0252184 0.476987 -1.5393e-06 0L 0.47918 0C 0.52962 0 0.65572 0 0.80704 0C 0.983579 0 1.1349 0 1.28622 0C 2.11847 0 2.52199 0.276151 2.52199 0.853557C 2.52199 1.30544 2.29502 1.60669 1.81584 1.78243L 1.81584 1.83264C 1.99238 1.88284 2.16892 2.03347 2.29501 2.25941C 2.44633 2.46025 2.62287 2.88703 2.84985 3.51464ZM 1.84105 1.02929C 1.84105 0.677824 1.61407 0.502092 1.1349 0.502092C 0.958356 0.502092 0.80704 0.502092 0.68094 0.552301C 0.70616 0.828452 0.706158 1.20502 0.706158 1.6318C 0.807037 1.6318 0.882697 1.6318 0.958357 1.6318C 1.56364 1.6318 1.84105 1.43096 1.84105 1.02929Z"/>
<path id="path21_fill" d="M 3.42991 1.78243C 3.42991 2.33473 3.25337 2.78661 2.92551 3.16318C 2.59766 3.51464 2.16892 3.71548 1.66452 3.71548C 1.18534 3.71548 0.781817 3.53975 0.479177 3.21339C 0.151318 2.88703 0 2.46025 0 1.93305C 0 1.38075 0.17654 0.928871 0.504399 0.552302C 0.832258 0.200837 1.261 1.91533e-07 1.7654 1.91533e-07C 2.24457 1.91533e-07 2.64809 0.175732 2.95073 0.502092C 3.27859 0.828452 3.42991 1.25523 3.42991 1.78243ZM 2.69853 1.85774C 2.69853 1.48117 2.59766 1.17992 2.42112 0.953975C 2.21936 0.728033 1.99238 0.60251 1.71496 0.60251C 1.46276 0.60251 1.23578 0.728033 1.03402 0.953975C 0.85748 1.17992 0.756598 1.48117 0.756598 1.85774C 0.756598 2.23431 0.857477 2.53557 1.05924 2.76151C 1.261 2.98745 1.48798 3.11297 1.7654 3.11297C 2.0176 3.11297 2.24457 2.98745 2.44633 2.76151C 2.59765 2.51046 2.69853 2.2092 2.69853 1.85774Z"/>
<path id="path22_fill" d="M 0.756598 3.51464L -7.69652e-07 3.51464C 0.0252192 2.96234 0.0252207 2.33473 0.0252207 1.68201C 0.0252207 1.02929 0.0252192 0.476987 -7.69652e-07 0L 0.756598 0C 0.731378 0.451883 0.73138 1.00418 0.73138 1.68201C 0.73138 2.35983 0.731378 2.96234 0.756598 3.51464Z"/>
<path id="path23_fill" d="M 3.00117 1.6318C 3.00117 2.13389 2.82463 2.58577 2.49677 2.96234C 2.16892 3.33891 1.71496 3.53975 1.10968 3.53975C 0.832259 3.53975 0.479177 3.53975 -1.5393e-06 3.51464C 0.0252184 2.96234 0.0252199 2.35983 0.0252199 1.68201C 0.0252199 1.02929 0.0252184 0.476987 -1.5393e-06 1.78379e-15L 0.47918 1.78379e-15C 0.554839 1.78379e-15 0.680938 1.78379e-15 0.832257 1.78379e-15C 0.983577 1.78379e-15 1.08446 1.78379e-15 1.1349 1.78379e-15C 1.79061 1.78379e-15 2.26979 0.150628 2.54721 0.476988C 2.84985 0.803348 3.00117 1.17992 3.00117 1.6318ZM 2.24458 1.75732C 2.24458 1.40586 2.1437 1.12971 1.94194 0.878661C 1.74018 0.65272 1.43754 0.527196 1.0088 0.527196C 0.933136 0.527196 0.83226 0.527197 0.68094 0.552301C 0.70616 0.903766 0.706158 1.28033 0.706158 1.68201C 0.706158 2.10879 0.706159 2.53556 0.731379 2.96234C 0.857479 2.98745 0.958357 2.98745 1.08446 2.98745C 1.46276 2.98745 1.7654 2.86192 1.94194 2.63598C 2.16892 2.38494 2.24458 2.10879 2.24458 1.75732Z"/>
<path id="path24_fill" d="M 3.42991 3.51464L 2.57243 3.51464C 2.57243 3.38912 2.49677 3.06276 2.32023 2.51046L 1.05924 2.51046C 0.882698 3.06276 0.807038 3.38912 0.807038 3.51464L -3.07861e-06 3.51464C -3.07861e-06 3.43933 0.201756 2.86192 0.630495 1.78243C 1.05923 0.702928 1.26099 0.100418 1.26099 0L 2.29501 0C 2.29501 0.100418 2.49678 0.677824 2.87508 1.75732C 3.25338 2.83682 3.42991 3.41423 3.42991 3.51464ZM 2.19413 1.98326C 1.8915 1.05439 1.74018 0.552302 1.74018 0.476988L 1.68974 0.476988C 1.68974 0.552302 1.53842 1.05439 1.21056 1.98326L 2.19413 1.98326Z"/>
<path id="path25_fill" d="M 2.57243 0.92887C 2.57243 1.35565 2.42112 1.68201 2.09326 1.88285C 1.7654 2.08368 1.3871 2.1841 0.907916 2.1841C 0.832257 2.1841 0.756601 2.1841 0.731381 2.1841C 0.731381 2.51046 0.731375 2.96234 0.756595 3.51464L -3.07861e-06 3.51464C 0.0252169 2.98745 0.0252184 2.38494 0.0252184 1.68201C 0.0252184 1.02929 0.0252169 0.476987 -3.07861e-06 0L 0.479182 0C 0.554842 0 0.680942 0 0.857481 0C 1.05924 0 1.21056 0 1.36188 0C 1.71496 0 1.99238 0.0753142 2.21936 0.225942C 2.44634 0.376569 2.57243 0.602511 2.57243 0.92887ZM 1.86628 1.0795C 1.86628 0.702929 1.61408 0.502092 1.08446 0.502092C 0.958359 0.502092 0.832258 0.527197 0.680938 0.552301C 0.706158 0.903766 0.70616 1.28033 0.70616 1.70711C 0.7566 1.70711 0.807041 1.70711 0.857481 1.70711C 1.53842 1.70711 1.86628 1.48117 1.86628 1.0795Z"/>
<path id="path26_fill" d="M 2.57243 0.92887C 2.57243 1.35565 2.42111 1.68201 2.09325 1.88285C 1.76539 2.08368 1.3871 2.1841 0.907921 2.1841C 0.832261 2.1841 0.756598 2.1841 0.731378 2.1841C 0.731378 2.51046 0.73138 2.96234 0.7566 3.51464L 1.5393e-06 3.51464C 0.0252215 2.98745 0.025223 2.38494 0.025223 1.68201C 0.025223 1.02929 0.0252215 0.476987 1.5393e-06 0L 0.479179 0C 0.554839 0 0.680938 0 0.857478 0C 1.05924 0 1.21056 0 1.36188 0C 1.71496 0 1.99237 0.0753142 2.21935 0.225942C 2.47155 0.376569 2.57243 0.602511 2.57243 0.92887ZM 1.8915 1.0795C 1.8915 0.702929 1.6393 0.502092 1.10968 0.502092C 0.983578 0.502092 0.857476 0.527197 0.706157 0.552301C 0.731377 0.903766 0.731378 1.28033 0.731378 1.70711C 0.781818 1.70711 0.83226 1.70711 0.882699 1.70711C 1.56364 1.70711 1.8915 1.48117 1.8915 1.0795Z"/>
<path id="path27_fill" d="M 3.42991 1.78243C 3.42991 2.33473 3.25337 2.78661 2.92551 3.16318C 2.59765 3.53975 2.16891 3.71548 1.66451 3.71548C 1.18534 3.71548 0.781821 3.53975 0.479182 3.21339C 0.151323 2.88703 -3.07861e-06 2.46025 -3.07861e-06 1.93305C -3.07861e-06 1.38075 0.176537 0.928871 0.504396 0.552302C 0.832255 0.200837 1.26099 1.91533e-07 1.76539 1.91533e-07C 2.24457 1.91533e-07 2.64809 0.175732 2.95073 0.502092C 3.27859 0.828452 3.42991 1.25523 3.42991 1.78243ZM 2.67331 1.85774C 2.67331 1.48117 2.57243 1.17992 2.39589 0.953975C 2.19413 0.728033 1.96716 0.60251 1.68974 0.60251C 1.43754 0.60251 1.21055 0.728033 1.00879 0.953975C 0.832255 1.17992 0.731381 1.48117 0.731381 1.85774C 0.731381 2.23431 0.832256 2.53557 1.03402 2.76151C 1.23578 2.98745 1.46276 3.11297 1.74018 3.11297C 1.99238 3.11297 2.21935 2.98745 2.42111 2.76151C 2.59765 2.51046 2.67331 2.2092 2.67331 1.85774Z"/>
<path id="path28_fill" d="M 2.90029 3.53975L 2.21935 3.53975C 2.21935 3.46444 1.96715 3.08787 1.46275 2.35983C 0.933135 1.60669 0.655715 1.1046 0.580056 0.828452L 0.52962 0.828452C 0.58006 1.23013 0.605277 1.58159 0.605277 1.90795C 0.605277 2.35983 0.60528 2.88703 0.65572 3.53975L 0 3.53975C 0.0252199 2.98745 0.050443 2.35983 0.050443 1.70711C 0.050443 1.05439 0.0252199 0.502092 0 0.0251046L 0.807041 0.0251046C 0.807041 0.125523 1.03402 0.502092 1.48797 1.15481C 1.96715 1.85774 2.24458 2.33473 2.29502 2.58577L 2.34545 2.58577C 2.29501 2.1841 2.26979 1.83264 2.26979 1.50628C 2.26979 1.02929 2.26979 0.527197 2.21935 3.83066e-07L 2.90029 3.83066e-07C 2.87507 0.451883 2.84985 1.00418 2.84985 1.68201C 2.84985 2.38494 2.87507 2.98745 2.90029 3.53975Z"/>
</defs>
</svg>
