<svg width="520" height="172" viewBox="0 0 520 172" version="1.1" xmlns="http://www.w3.org/2000/svg" xmlns:xlink="http://www.w3.org/1999/xlink">
<title>Group</title>
<desc>Created using Figma</desc>
<g id="Canvas" transform="matrix(4 0 0 4 -31328 -12520)">
<g id="Group">
<g id="Vector">
<use xlink:href="#path0_fill" transform="translate(7832 3130)"/>
</g>
<g id="Group">
<g id="Vector">
<use xlink:href="#path1_fill" transform="translate(7840.66 3143.53)" fill="#FFFFFF"/>
</g>
<g id="Group">
<g id="Vector">
<use xlink:href="#path2_fill" transform="translate(7852.66 3136.63)" fill="#FFFFFF"/>
</g>
</g>
</g>
<g id="Group">
<g id="Group">
<g id="Vector">
<use xlink:href="#path3_fill" transform="translate(7871.16 3147.16)" fill="#FFFFFF"/>
</g>
<g id="Vector">
<use xlink:href="#path4_fill" transform="translate(7884.24 3150.96)" fill="#FFFFFF"/>
</g>
<g id="Vector">
<use xlink:href="#path5_fill" transform="translate(7895.54 3150.96)" fill="#FFFFFF"/>
</g>
<g id="Vector">
<use xlink:href="#path6_fill" transform="translate(7909.98 3146.91)" fill="#FFFFFF"/>
</g>
<g id="Vector">
<use xlink:href="#path7_fill" transform="translate(7919.1 3148.66)" fill="#FFFFFF"/>
</g>
<g id="Vector">
<use xlink:href="#path8_fill" transform="translate(7925.72 3150.96)" fill="#FFFFFF"/>
</g>
<g id="Vector">
<use xlink:href="#path9_fill" transform="translate(7937.22 3150.96)" fill="#FFFFFF"/>
</g>
<g id="Vector">
<use xlink:href="#path10_fill" transform="translate(7942.63 3150.94)" fill="#FFFFFF"/>
</g>
</g>
<g id="Group">
<g id="Vector">
<use xlink:href="#path11_fill" transform="translate(7871.16 3137)" fill="#FFFFFF"/>
</g>
<g id="Vector">
<use xlink:href="#path12_fill" transform="translate(7878.33 3138.91)" fill="#FFFFFF"/>
</g>
<g id="Vector">
<use xlink:href="#path13_fill" transform="translate(7884.19 3139.01)" fill="#FFFFFF"/>
</g>
<g id="Vector">
<use xlink:href="#path14_fill" transform="translate(7893.11 3138.88)" fill="#FFFFFF"/>
</g>
<g id="Vector">
<use xlink:href="#path15_fill" transform="translate(7899.42 3136.7)" fill="#FFFFFF"/>
</g>
<g id="Vector">
<use xlink:href="#path16_fill" transform="translate(7901.67 3138.91)" fill="#FFFFFF"/>
</g>
<g id="Vector">
<use xlink:href="#path17_fill" transform="translate(7907.8 3138.96)" fill="#FFFFFF"/>
</g>
<g id="Vector">
<use xlink:href="#path18_fill" transform="translate(7913.29 3136.7)" fill="#FFFFFF"/>
</g>
<g id="Vector">
<use xlink:href="#path19_fill" transform="translate(7922.06 3138.91)" fill="#FFFFFF"/>
</g>
<g id="Vector">
<use xlink:href="#path20_fill" transform="translate(7928.59 3138.88)" fill="#FFFFFF"/>
</g>
<g id="Vector">
<use xlink:href="#path21_fill" transform="translate(7936.68 3137.83)" fill="#FFFFFF"/>
</g>
<g id="Vector">
<use xlink:href="#path22_fill" transform="translate(7941.05 3136.7)" fill="#FFFFFF"/>
</g>
<g id="Vector">
<use xlink:href="#path23_fill" transform="translate(7946.89 3138.88)" fill="#FFFFFF"/>
</g>
</g>
</g>
</g>
</g>
<defs>
<path id="path0_fill" d="M 128.975 36.9216C 128.975 40.0985 126.429 42.7 123.264 42.7L 5.71081 42.7C 2.54638 42.7 0 40.0985 0 36.9216L 0 5.77838C 0 2.57651 2.54638 0 5.71081 0L 123.289 0C 126.429 0 129 2.57651 129 5.77838L 129 36.9216L 128.975 36.9216Z"/>
<path id="path1_fill" d="M 24.9652 14.6836C 24.273 16.2095 23.9516 16.9099 23.0864 18.2607C 21.8503 20.1618 20.1197 22.5132 17.9936 22.5132C 16.09 22.5382 15.5956 21.2625 13.0245 21.2625C 10.4534 21.2875 9.90948 22.5132 8.00587 22.5132C 5.85505 22.4882 4.19867 20.3869 2.98728 18.4858C -0.449092 13.2077 -0.795201 7.0041 1.30618 3.70217C 2.81423 1.35079 5.18755 -3.81693e-07 7.41254 -3.81693e-07C 9.68698 -3.81693e-07 11.1209 1.25073 12.9997 1.25073C 14.8292 1.25073 15.9417 -3.81693e-07 18.5622 -3.81693e-07C 20.54 -3.81693e-07 22.6414 1.10064 24.1494 2.97674C 19.2297 5.70334 20.0208 12.7825 24.9652 14.6836Z"/>
<path id="path2_fill" d="M 4.56265 4.7778C 5.52681 3.52706 6.24376 1.80105 5.97181 0C 4.41432 0.100059 2.58488 1.10064 1.52183 2.42642C 0.557668 3.60211 -0.233438 5.37815 0.0632277 7.07914C 1.76905 7.12917 3.52432 6.10357 4.56265 4.7778Z"/>
<path id="path3_fill" d="M 4.9197 -3.81693e-07L -1.50892e-06 14.6336L 2.24971 14.6336L 3.70832 10.1309L 8.45496 10.1309L 9.96301 14.6336L 12.2869 14.6336L 7.34247 -3.81693e-07L 4.9197 -3.81693e-07ZM 6.08164 2.40141C 6.2547 3.05179 6.42775 3.72718 6.65025 4.47762L 7.98524 8.35489L 4.22748 8.35489L 5.53776 4.45261C 5.73553 3.80223 5.90859 3.12683 6.08164 2.40141Z"/>
<path id="path4_fill" d="M 5.5872 7.63386e-07C 4.10387 7.63386e-07 2.89249 0.575336 2.10138 1.701L 2.00249 0.250147L 7.54459e-07 0.250147L 7.54459e-07 0.425249C 0.049445 1.32578 0.0741679 2.32636 0.0741679 3.7522L 0.0741679 15.0338L 2.27443 15.0338L 2.27443 9.78073C 2.94193 10.6062 4.02971 11.0815 5.26581 11.0815C 6.55136 11.0815 7.7133 10.5812 8.57858 9.65565C 9.54274 8.63005 10.0372 7.15419 10.0372 5.40316C 10.0372 3.85226 9.59218 2.50147 8.77635 1.52589C 7.98524 0.525308 6.84802 7.63386e-07 5.5872 7.63386e-07ZM 5.04331 1.82607C 6.99636 1.82607 7.86163 3.65214 7.86163 5.47821C 7.86163 7.80457 6.74914 9.25542 4.94442 9.25542C 3.70832 9.25542 2.66999 8.40492 2.37332 7.20422C 2.32388 7.0041 2.29916 6.77897 2.29916 6.47879L 2.29916 4.70275C 2.29916 4.55267 2.32388 4.35255 2.37332 4.15243C 2.37332 4.1024 2.39805 4.02736 2.39805 3.97733C 2.71943 2.70158 3.80721 1.82607 5.04331 1.82607Z"/>
<path id="path5_fill" d="M 5.56248 7.63386e-07C 4.07915 7.63386e-07 2.86776 0.575336 2.07666 1.701L 1.97777 0.250147L 0 0.250147L 0 0.425249C 0.0494442 1.32578 0.0741633 2.32636 0.0741633 3.7522L 0.0741633 15.0338L 2.27444 15.0338L 2.27444 9.78073C 2.94193 10.6062 4.0297 11.0815 5.26581 11.0815C 6.55136 11.0815 7.7133 10.5812 8.57858 9.65565C 9.54274 8.63005 10.0372 7.15419 10.0372 5.40316C 10.0372 3.85226 9.59218 2.50147 8.77635 1.52589C 7.96052 0.525308 6.8233 7.63386e-07 5.56248 7.63386e-07ZM 5.01859 1.82607C 6.97163 1.82607 7.83691 3.65214 7.83691 5.47821C 7.83691 7.80457 6.72441 9.25542 4.9197 9.25542C 3.70832 9.25542 2.64527 8.40492 2.3486 7.20422C 2.29916 7.0041 2.27444 6.77897 2.27444 6.47879L 2.27444 4.70275C 2.27444 4.55267 2.29916 4.35255 2.3486 4.15243C 2.3486 4.1024 2.37332 4.02736 2.37332 3.97733C 2.69471 2.70158 3.78248 1.82607 5.01859 1.82607Z"/>
<path id="path6_fill" d="M 5.24109 6.45378C 3.18915 5.65331 2.54638 5.02794 2.54638 3.85226C 2.54638 2.87668 3.31276 1.8761 5.04331 1.8761C 6.45247 1.8761 7.36719 2.37639 7.61441 2.52648L 7.81219 2.65155L 8.43024 0.800469L 8.30663 0.725425C 7.9358 0.500293 6.89747 -3.81693e-07 5.11748 -3.81693e-07C 2.32388 -3.81693e-07 0.37083 1.67598 0.37083 4.05237C 0.37083 5.9785 1.58221 7.32929 4.20276 8.27985C 6.05692 8.98026 6.74914 9.70568 6.74914 10.9314C 6.74914 12.3322 5.68609 13.1827 3.95554 13.1827C 2.84304 13.1827 1.68111 12.8575 0.791109 12.2822L 0.593328 12.1571L -1.50892e-06 14.0582L 0.0988854 14.1333C 0.914715 14.6836 2.47221 15.0838 3.8072 15.0838C 7.56496 15.0838 8.89996 12.7575 8.89996 10.7813C 8.92468 8.75513 7.86163 7.50439 5.24109 6.45378Z"/>
<path id="path7_fill" d="M 3.73304 -3.81693e-07L 1.58222 0.675396L 1.58222 2.52648L -3.01784e-06 2.52648L -3.01784e-06 4.30252L 1.58222 4.30252L 1.58222 9.7307C 1.58222 11.0315 1.82943 11.957 2.3486 12.5323C 2.84304 13.0827 3.58471 13.3828 4.4747 13.3828C 5.29053 13.3828 5.88387 13.2077 6.15581 13.1077L 6.27942 13.0576L 6.18053 11.2816L 5.98275 11.3566C 5.71081 11.4317 5.41414 11.4817 4.96914 11.4817C 4.12859 11.4817 3.75776 10.9314 3.75776 9.65565L 3.75776 4.30252L 6.40303 4.30252L 6.40303 2.52648L 3.75776 2.52648L 3.75776 -3.81693e-07L 3.73304 -3.81693e-07Z"/>
<path id="path8_fill" d="M 5.19165 7.63386e-07C 2.1261 7.63386e-07 1.50892e-06 2.30135 1.50892e-06 5.6283C 1.50892e-06 8.83017 2.07666 11.0815 5.04331 11.0815L 5.06804 11.0815C 7.56497 11.0815 10.2597 9.30545 10.2597 5.42818C 10.2597 3.85226 9.78996 2.50147 8.87524 1.50088C 7.91108 0.525308 6.65025 7.63386e-07 5.19165 7.63386e-07ZM 5.11748 1.72601C 7.09524 1.72601 7.98524 3.67715 7.98524 5.47821C 7.98524 7.70451 6.77386 9.30545 5.06804 9.30545L 5.04331 9.30545C 3.38693 9.30545 2.17554 7.72953 2.17554 5.52824C 2.20027 3.65214 3.09026 1.72601 5.11748 1.72601Z"/>
<path id="path9_fill" d="M 5.43887 0.100058L 5.31526 0.0750436C 5.11748 0.0250143 4.96914 7.63386e-07 4.77137 7.63386e-07C 3.63415 7.63386e-07 2.59582 0.675396 2.02721 1.77604L 1.95305 0.225131L 1.50892e-06 0.225131L 0.0247251 0.400235C 0.0741694 1.27575 0.0988885 2.25132 0.0988885 3.57709L 0.0741648 10.8063L 2.27443 10.8063L 2.27443 5.15302C 2.27443 4.85284 2.29916 4.55267 2.32388 4.30252C 2.5711 2.95173 3.48582 2.07622 4.62303 2.07622C 4.84553 2.07622 5.01859 2.10123 5.21637 2.10123L 5.43887 2.12625L 5.43887 0.100058Z"/>
<path id="path10_fill" d="M 4.94442 -7.63386e-07C 2.02721 -7.63386e-07 0 2.35138 0 5.72835C 0 8.98026 2.02721 11.0815 5.16692 11.0815C 6.8233 11.0815 7.96052 10.7063 8.62802 10.4061L 8.75163 10.3561L 8.33136 8.7051L 8.1583 8.78014C 7.56497 9.03029 6.77386 9.28043 5.41414 9.28043C 4.4747 9.28043 2.27444 8.95524 2.1261 6.07856L 9.19663 6.10357L 9.22135 5.95349C 9.27079 5.72835 9.29552 5.42818 9.29552 5.02794C 9.29552 2.70158 8.1583 -7.63386e-07 4.94442 -7.63386e-07ZM 4.79609 1.67598C 5.46359 1.67598 6.00747 1.8761 6.40303 2.30135C 7.02108 2.95173 7.14469 3.90228 7.14469 4.35255L 2.15083 4.35255C 2.37333 3.0768 3.16443 1.67598 4.79609 1.67598Z"/>
<path id="path11_fill" d="M -1.50892e-06 0.150088C 0.618051 0.075044 1.31027 0 2.10138 0C 3.51054 0 4.52415 0.300176 5.19164 0.850498C 5.88386 1.42583 6.27942 2.2263 6.27942 3.35196C 6.27942 4.47762 5.88386 5.40316 5.19164 6.05354C 4.4747 6.70393 3.28804 7.05413 1.82944 7.05413C 1.1125 7.05413 0.543887 7.02912 0.0247221 6.97909L 0.0247221 0.150088L -1.50892e-06 0.150088ZM 1.01361 6.30369C 1.26083 6.35372 1.63166 6.35372 2.00249 6.35372C 4.10387 6.35372 5.24109 5.27809 5.24109 3.42701C 5.24109 1.77604 4.22748 0.750439 2.15083 0.750439C 1.63166 0.750439 1.26083 0.800469 0.988883 0.850498L 0.988883 6.30369L 1.01361 6.30369Z"/>
<path id="path12_fill" d="M 2.62054 5.20305C 1.16194 5.20305 -1.50892e-06 4.22748 -1.50892e-06 2.65155C -1.50892e-06 0.975571 1.21138 -3.81693e-07 2.71943 -3.81693e-07C 4.27692 -3.81693e-07 5.33998 1.0256 5.33998 2.55149C 5.33998 4.40258 3.93082 5.20305 2.62054 5.20305ZM 2.64527 4.52765C 3.58471 4.52765 4.30165 3.72718 4.30165 2.57651C 4.30165 1.72601 3.83193 0.675395 2.66999 0.675395C 1.50805 0.675395 0.988883 1.65097 0.988883 2.60152C 1.01361 3.70217 1.68111 4.52765 2.64527 4.52765Z"/>
<path id="path13_fill" d="M 1.06305 0.0250143L 1.80471 2.55149C 1.95305 3.10182 2.10138 3.62712 2.20027 4.15243L 2.22499 4.15243C 2.3486 3.65214 2.52166 3.12683 2.71943 2.57651L 3.60943 0.0500295L 4.44998 0.0500295L 5.29053 2.52648C 5.48831 3.10182 5.66137 3.65214 5.78498 4.15243L 5.8097 4.15243C 5.90859 3.65214 6.05692 3.12683 6.22997 2.52648L 6.99636 0.0250143L 7.98524 0.0250143L 6.22997 5.00293L 5.31526 5.00293L 4.4747 2.62654C 4.27693 2.0512 4.12859 1.57592 3.98026 0.975572L 3.95554 0.975572C 3.83193 1.57592 3.65887 2.10123 3.4611 2.62654L 2.5711 4.97791L 1.65638 4.97791L 1.50892e-06 0L 1.06305 0L 1.06305 0.0250143Z"/>
<path id="path14_fill" d="M 0.0494427 1.47586C 0.0494427 0.950557 0.0494435 0.550322 -7.54459e-07 0.125073L 0.889997 0.125073L 0.93944 0.925542L 0.964164 0.925542C 1.23611 0.475278 1.87888 0 2.76888 0C 3.53526 0 4.69721 0.400234 4.69721 2.12625L 4.69721 5.10299L 3.70832 5.10299L 3.70832 2.25132C 3.70832 1.45085 3.38693 0.775454 2.44749 0.775454C 1.80472 0.775454 1.28555 1.2007 1.11249 1.701C 1.06305 1.82607 1.03833 1.97616 1.03833 2.12625L 1.03833 5.128L 0.0494427 5.128L 0.0494427 1.47586Z"/>
<path id="path15_fill" d="M 3.01784e-06 -1.90847e-07L 0.988888 -1.90847e-07L 0.988888 7.30428L 3.01784e-06 7.30428L 3.01784e-06 -1.90847e-07Z"/>
<path id="path16_fill" d="M 2.62054 5.20305C 1.16194 5.20305 -3.01784e-06 4.22748 -3.01784e-06 2.65155C -3.01784e-06 0.975571 1.21138 -3.81693e-07 2.71943 -3.81693e-07C 4.27692 -3.81693e-07 5.33998 1.0256 5.33998 2.55149C 5.33998 4.40258 3.93081 5.20305 2.62054 5.20305ZM 2.64527 4.52765C 3.58471 4.52765 4.30165 3.72718 4.30165 2.57651C 4.30165 1.72601 3.83193 0.675395 2.66999 0.675395C 1.50805 0.675395 0.988882 1.65097 0.988882 2.60152C 1.0136 3.70217 1.6811 4.52765 2.64527 4.52765Z"/>
<path id="path17_fill" d="M 4.30165 3.85226C 4.30165 4.2775 4.32637 4.70275 4.37581 5.05296L 3.48582 5.05296L 3.38693 4.42759L 3.36221 4.42759C 3.06555 4.82783 2.47221 5.17803 1.6811 5.17803C 0.568607 5.17803 1.50892e-06 4.47762 1.50892e-06 3.7522C 1.50892e-06 2.55149 1.16194 1.90111 3.28804 1.90111L 3.28804 1.80105C 3.28804 1.40082 3.16443 0.650381 2.05193 0.650381C 1.53277 0.650381 1.01361 0.775454 0.618054 1.0256L 0.395557 0.425249C 0.840555 0.175103 1.50805 -1.90847e-07 2.20027 -1.90847e-07C 3.88137 -1.90847e-07 4.27692 1.0256 4.27692 2.02619L 4.27692 3.85226L 4.30165 3.85226ZM 3.33749 2.50146C 2.24971 2.47645 1.01361 2.65155 1.01361 3.62712C 1.01361 4.22748 1.43388 4.50264 1.92832 4.50264C 2.64527 4.50264 3.11498 4.1024 3.26332 3.67715C 3.28804 3.57709 3.31276 3.47704 3.31276 3.37698L 3.31276 2.50146L 3.33749 2.50146Z"/>
<path id="path18_fill" d="M 5.11748 -1.90847e-07L 5.11748 6.00352C 5.11748 6.45378 5.11748 6.95407 5.16693 7.27926L 4.27693 7.27926L 4.22748 6.40375L 4.20276 6.40375C 3.90609 6.95407 3.23859 7.37932 2.3486 7.37932C 1.03833 7.37932 -3.01784e-06 6.35372 -3.01784e-06 4.85284C -3.01784e-06 3.17686 1.13722 2.17627 2.44749 2.17627C 3.28804 2.17627 3.85665 2.52648 4.10387 2.92671L 4.12859 2.92671L 4.12859 -1.90847e-07L 5.11748 -1.90847e-07ZM 4.12859 4.35255C 4.12859 4.22748 4.12859 4.07739 4.07915 3.95231C 3.93081 3.37698 3.38693 2.92671 2.64527 2.92671C 1.60694 2.92671 1.01361 3.7522 1.01361 4.82783C 1.01361 5.85343 1.55749 6.67891 2.62054 6.67891C 3.28804 6.67891 3.90609 6.27868 4.07915 5.60328C 4.10387 5.47821 4.12859 5.35313 4.12859 5.20305L 4.12859 4.35255Z"/>
<path id="path19_fill" d="M 2.62054 5.20305C 1.16194 5.20305 -3.01784e-06 4.22748 -3.01784e-06 2.65155C -3.01784e-06 0.975571 1.21138 -3.81693e-07 2.71943 -3.81693e-07C 4.27692 -3.81693e-07 5.33998 1.0256 5.33998 2.55149C 5.33998 4.40258 3.93081 5.20305 2.62054 5.20305ZM 2.64527 4.52765C 3.58471 4.52765 4.30165 3.72718 4.30165 2.57651C 4.30165 1.72601 3.83193 0.675395 2.66999 0.675395C 1.50805 0.675395 0.988882 1.65097 0.988882 2.60152C 0.988882 3.70217 1.6811 4.52765 2.64527 4.52765Z"/>
<path id="path20_fill" d="M 0.0494427 1.47586C 0.0494427 0.950557 0.0494473 0.550322 3.01784e-06 0.125073L 0.889993 0.125073L 0.93944 0.925542L 0.964164 0.925542C 1.23611 0.475278 1.87888 0 2.76888 0C 3.53526 0 4.69721 0.400234 4.69721 2.12625L 4.69721 5.10299L 3.70832 5.10299L 3.70832 2.25132C 3.70832 1.45085 3.38693 0.775454 2.44749 0.775454C 1.80472 0.775454 1.28555 1.2007 1.1125 1.701C 1.06305 1.82607 1.03833 1.97616 1.03833 2.12625L 1.03833 5.128L 0.0494427 5.128L 0.0494427 1.47586Z"/>
<path id="path21_fill" d="M 1.82943 -1.90847e-07L 1.82943 1.2007L 3.26332 1.2007L 3.26332 1.90111L 1.82943 1.90111L 1.82943 4.57768C 1.82943 5.20305 2.02721 5.55325 2.5711 5.55325C 2.84304 5.55325 2.99138 5.52824 3.13971 5.50322L 3.18915 6.20363C 2.99137 6.25366 2.69471 6.3287 2.29916 6.3287C 1.82944 6.3287 1.4586 6.17862 1.2361 5.95349C 0.964161 5.67832 0.840549 5.22806 0.840549 4.65272L 0.840549 1.8761L -1.50892e-06 1.8761L -1.50892e-06 1.17569L 0.840549 1.17569L 0.840549 0.250146L 1.82943 -1.90847e-07Z"/>
<path id="path22_fill" d="M 1.50892e-06 -1.90847e-07L 0.988886 -1.90847e-07L 0.988886 3.10182L 1.01361 3.10182C 1.16194 2.85167 1.40916 2.60152 1.73055 2.47645C 2.02722 2.30135 2.37333 2.2263 2.74416 2.2263C 3.48582 2.2263 4.64776 2.62654 4.64776 4.35255L 4.64776 7.30428L 3.65887 7.30428L 3.65887 4.42759C 3.65887 3.62712 3.33748 2.95173 2.39804 2.95173C 1.75527 2.95173 1.26083 3.35196 1.06305 3.85226C 1.01361 3.97733 0.988886 4.1024 0.988886 4.2775L 0.988886 7.27926L 1.50892e-06 7.27926L 1.50892e-06 -1.90847e-07Z"/>
<path id="path23_fill" d="M 0.988888 2.77663C 1.01361 4.00234 1.85416 4.50264 2.84305 4.50264C 3.55999 4.50264 4.00498 4.37756 4.35109 4.25249L 4.52415 4.87786C 4.17804 5.02794 3.55999 5.20305 2.69471 5.20305C 1.01361 5.20305 3.01784e-06 4.17745 3.01784e-06 2.70158C 3.01784e-06 1.2007 0.988886 0 2.5711 0C 4.35109 0 4.82082 1.42584 4.82082 2.35138C 4.82082 2.52648 4.82081 2.67657 4.79609 2.77663L 0.988888 2.77663ZM 3.88137 2.12625C 3.88137 1.55091 3.60943 0.65038 2.52165 0.65038C 1.50805 0.65038 1.08778 1.50088 0.988888 2.12625L 3.88137 2.12625Z"/>
</defs>
</svg>
