<svg width="1312" height="400" viewBox="0 0 1312 400" version="1.1" xmlns="http://www.w3.org/2000/svg" xmlns:xlink="http://www.w3.org/1999/xlink">
<title>kaicoin logo</title>
<desc>Created using Figma</desc>
<g id="Canvas" transform="matrix(4 0 0 4 -57004 -3872)">
<g id="kaicoin logo">
<g id="Group">
<g id="Vector">
<use xlink:href="#path0_fill" transform="translate(14465.7 1000.89)" fill="#C1C3C3"/>
</g>
<g id="Vector">
<use xlink:href="#path1_fill" transform="translate(14494.4 1001.18)" fill="#C1C3C3"/>
</g>
<g id="Vector">
<use xlink:href="#path2_fill" transform="translate(14400.9 1001.08)" fill="#00B1AD"/>
</g>
<g id="Vector">
<use xlink:href="#path3_fill" transform="translate(14550 1001.08)" fill="#C1C3C3"/>
</g>
<g id="Group">
<g id="Vector">
<use xlink:href="#path4_fill" transform="translate(14441.9 1001.08)" fill="#00B1AD"/>
</g>
<g id="Vector">
<use xlink:href="#path5_fill" transform="translate(14441.8 987.519)" fill="#00B1AD"/>
</g>
</g>
<g id="Group">
<g id="Vector">
<use xlink:href="#path6_fill" transform="translate(14533.9 1001.08)" fill="#C1C3C3"/>
</g>
<g id="Vector">
<use xlink:href="#path7_fill" transform="translate(14533.8 987.519)" fill="#C1C3C3"/>
</g>
</g>
<g id="Vector">
<use xlink:href="#path8_fill" transform="translate(14368.7 979.727)" fill="#00B1AD"/>
</g>
<g id="Group">
<g id="Vector">
<use xlink:href="#path9_fill" transform="translate(14251 985.018)" fill="#00B1AD"/>
</g>
<g id="Vector">
<use xlink:href="#path10_fill" transform="translate(14273.5 968.375)" fill="#00B1AD"/>
</g>
<g id="Vector">
<use xlink:href="#path11_fill" transform="translate(14262.2 975.59)" fill="#00B1AD"/>
</g>
<g id="Vector">
<use xlink:href="#path12_fill" transform="translate(14316.6 984.825)" fill="#C1C3C3"/>
</g>
<g id="Vector">
<use xlink:href="#path13_fill" transform="translate(14308.4 993.003)" fill="#C1C3C3"/>
</g>
<g id="Vector">
<use xlink:href="#path14_fill" transform="translate(14300.6 1000.6)" fill="#C1C3C3"/>
</g>
</g>
</g>
</g>
</g>
<defs>
<path id="path0_fill" d="M 16.4984 25.2052C 11.7983 25.2052 7.96144 21.3571 7.96144 16.6432C 7.96144 11.9292 11.7983 8.08107 16.4984 8.08107C 18.0331 8.08107 19.4719 8.46588 20.623 9.1393L 26.3783 3.36711C 23.5965 1.25064 20.1434 -7.33972e-07 16.4984 -7.33972e-07C 7.38591 -7.33972e-07 -2.92727e-06 7.40765 -2.92727e-06 16.547C -2.92727e-06 25.6863 7.38591 33.0939 16.4984 33.0939C 20.2393 33.0939 23.5965 31.8433 26.3783 29.823L 20.623 24.0508C 19.376 24.8204 17.9372 25.2052 16.4984 25.2052Z"/>
<path id="path1_fill" d="M 16.4025 7.98487C 21.1026 7.98487 24.8435 11.833 24.8435 16.4507C 24.8435 21.0685 21.0067 24.9166 16.4025 24.9166C 11.7983 24.9166 7.96143 21.0685 7.96143 16.4507C 7.96143 11.833 11.7024 7.98487 16.4025 7.98487ZM 16.4025 -1.46794e-06C 7.38592 -1.46794e-06 5.85455e-06 7.40765 5.85455e-06 16.4507C 5.85455e-06 25.4938 7.38592 32.9015 16.4025 32.9015C 25.4191 32.9015 32.8049 25.4938 32.8049 16.4507C 32.8049 7.40765 25.4191 -1.46794e-06 16.4025 -1.46794e-06Z"/>
<path id="path2_fill" d="M 32.9968 16.5469C 32.9968 16.4507 32.9968 16.4507 32.9968 16.3545L 32.9968 0L 25.0354 0L 25.0354 2.40508C 22.5414 0.865829 19.6638 0 16.4984 0C 7.3859 0 -2.92727e-06 7.40765 -2.92727e-06 16.5469C -2.92727e-06 25.6863 7.3859 33.0939 16.4984 33.0939C 19.6638 33.0939 22.5414 32.2281 25.0354 30.6888L 25.0354 33.0939L 32.9968 33.0939L 32.9968 16.7394C 32.9968 16.6432 32.9968 16.5469 32.9968 16.5469ZM 16.4984 25.0128C 11.7983 25.0128 7.96143 21.1647 7.96143 16.4507C 7.96143 11.7368 11.7983 7.88866 16.4984 7.88866C 21.1985 7.88866 25.0354 11.7368 25.0354 16.4507C 25.0354 21.1647 21.1985 25.0128 16.4984 25.0128Z"/>
<path id="path3_fill" d="M 14.3881 0C 11.7983 0 9.40026 0.673422 7.29 1.92406L 7.29 0L 5.85455e-06 0L 5.85455e-06 32.9977L 7.29 32.9977L 7.29 14.3343C 7.38592 10.4861 10.5513 7.31144 14.3881 7.31144C 18.3209 7.31144 21.5822 10.4861 21.5822 14.5267L 21.5822 33.0939L 28.8722 33.0939L 28.8722 14.5267C 28.7763 6.54182 22.2537 0 14.3881 0Z"/>
<path id="path4_fill" d="M 7.86552 0L -5.85455e-06 0L -5.85455e-06 32.9977L 7.86552 32.9977L 7.86552 0Z"/>
<path id="path5_fill" d="M 4.02868 8.08107C 6.25366 8.08107 8.05735 6.27206 8.05735 4.04053C 8.05735 1.80901 6.25366 0 4.02868 0C 1.8037 0 2.92727e-06 1.80901 2.92727e-06 4.04053C 2.92727e-06 6.27206 1.8037 8.08107 4.02868 8.08107Z"/>
<path id="path6_fill" d="M 7.86551 0L -1.17091e-05 0L -1.17091e-05 32.9977L 7.86551 32.9977L 7.86551 0Z"/>
<path id="path7_fill" d="M 4.02867 8.08107C 6.25365 8.08107 8.05736 6.27206 8.05736 4.04053C 8.05736 1.80901 6.25365 0 4.02867 0C 1.80369 0 1.17091e-05 1.80901 1.17091e-05 4.04053C 1.17091e-05 6.27206 1.80369 8.08107 4.02867 8.08107Z"/>
<path id="path8_fill" d="M 15.731 37.9041L 32.2294 21.3571L 21.0067 21.3571L 7.86552 34.5369L 7.86552 1.83493e-07L -1.46364e-06 7.98486L -1.46364e-06 54.3548L 7.86552 54.3548L 7.86552 41.2712L 20.9108 54.3548L 32.1335 54.3548L 15.731 37.9041Z"/>
<path id="path9_fill" d="M 0.0959209 58.6839C 1.91842 61.9548 5.17973 65.6106 5.17973 65.6106L 5.17973 64.4561L 5.17973 2.02027L 5.17973 -7.33972e-07C 1.72658 3.84813 -1.42933e-09 7.02283 -1.42933e-09 7.02283L -1.42933e-09 58.6839L 0.0959209 58.6839Z"/>
<path id="path10_fill" d="M 42.9726 78.9828L 38.4643 74.4613L 34.8193 70.8055L 30.8865 66.8612L 27.1456 63.1093L 13.7167 49.6408L 27.3375 35.98L 31.0784 32.2281L 35.0111 28.2837L 38.6561 24.628L 43.1644 20.1065L 46.8094 16.4507L 51.7973 11.4482C 51.7973 11.4482 49.8789 9.81273 47.6727 8.27347L 5.17973 50.8915L 5.17973 42.137L 42.1093 5.09877C 42.1093 5.09877 38.752 3.46331 37.0255 2.8861L 5.17973 34.8256L 5.17973 26.3597L 30.4069 0.962032C 28.2967 0.384813 24.0761 0 24.0761 0L 5.17973 19.0482L 5.17973 2.02027C 3.06947 2.59749 -3.65909e-07 3.94433 -3.65909e-07 3.94433L -3.65909e-07 94.6639L -3.65909e-07 94.8563C -3.65909e-07 94.8563 2.58986 96.107 5.17973 96.7804L 5.17973 80.2335L 23.5006 98.6083L 23.8843 98.9931C 23.8843 98.9931 27.7211 98.7045 30.2151 98.0311L 5.17973 72.922L 5.17973 64.1675L 37.0255 96.107C 37.0255 96.107 40.2868 94.8563 42.1093 93.8943L 5.75525 57.5295L 9.97577 53.2966L 47.0972 90.5272L 47.3849 90.8158C 49.3993 89.5652 51.5095 87.6411 51.5095 87.6411L 46.6176 82.7347L 42.9726 78.9828Z"/>
<path id="path11_fill" d="M 3.65909e-07 3.75192L 3.65909e-07 80.9069C 1.72658 82.4461 5.17973 84.5626 5.17973 84.5626L 5.17973 0.865828L 5.17973 -5.12674e-15C 3.54907 0.865829 3.65909e-07 3.75192 3.65909e-07 3.75192Z"/>
<path id="path12_fill" d="M 19.376 33.0939C 19.376 19.7217 13.2371 7.88866 3.74091 3.66986e-07L 0.0959224 3.65572C 8.7288 10.4861 14.2922 21.1647 14.2922 33.0939C 14.2922 45.0231 8.7288 55.7016 2.92727e-06 62.6283L 3.54907 66.284C 13.1412 58.3953 19.376 46.4661 19.376 33.0939Z"/>
<path id="path13_fill" d="M 11.0309 24.9166C 11.0309 33.7673 6.71447 41.4636 7.31819e-07 46.2737L 3.64499 49.9295C 11.2227 44.2535 16.1147 35.1142 16.1147 24.9166C 16.1147 14.7191 11.2227 5.67599 3.74091 3.66986e-07L 0.0959202 3.65572C 6.71446 8.36968 11.0309 16.1621 11.0309 24.9166Z"/>
<path id="path14_fill" d="M 13.333 17.3166C 13.333 10.1013 9.59209 3.65572 3.93276 0L 0.191841 3.75193C 4.98789 6.34941 8.15327 11.4482 8.15327 17.3166C 8.15327 23.185 4.89196 28.2837 -1.46364e-06 30.9774L 3.74091 34.7293C 9.49617 30.9774 13.333 24.628 13.333 17.3166Z"/>
</defs>
</svg>
