<svg width="568" height="176" viewBox="0 0 568 176" version="1.1" xmlns="http://www.w3.org/2000/svg" xmlns:xlink="http://www.w3.org/1999/xlink">
<title>kaicoin logo</title>
<desc>Created using Figma</desc>
<g id="Canvas" transform="matrix(4 0 0 4 -29460 1972)">
<g id="kaicoin logo">
<g id="Group">
<g id="Vector">
<use xlink:href="#path0_fill" transform="translate(7457.98 -478.547)" fill="#FFFFFF"/>
</g>
<g id="Vector">
<use xlink:href="#path1_fill" transform="translate(7470.4 -478.419)" fill="#FFFFFF"/>
</g>
<g id="Vector">
<use xlink:href="#path2_fill" transform="translate(7429.93 -478.462)" fill="#FFFFFF"/>
</g>
<g id="Vector">
<use xlink:href="#path3_fill" transform="translate(7494.5 -478.462)" fill="#FFFFFF"/>
</g>
<g id="Group">
<g id="Vector">
<use xlink:href="#path4_fill" transform="translate(7447.67 -478.462)" fill="#FFFFFF"/>
</g>
<g id="Vector">
<use xlink:href="#path5_fill" transform="translate(7447.63 -484.491)" fill="#FFFFFF"/>
</g>
</g>
<g id="Group">
<g id="Vector">
<use xlink:href="#path6_fill" transform="translate(7487.52 -478.462)" fill="#FFFFFF"/>
</g>
<g id="Vector">
<use xlink:href="#path7_fill" transform="translate(7487.47 -484.491)" fill="#FFFFFF"/>
</g>
</g>
<g id="Vector">
<use xlink:href="#path8_fill" transform="translate(7415.98 -487.954)" fill="#FFFFFF"/>
</g>
<g id="Group">
<g id="Vector">
<use xlink:href="#path9_fill" transform="translate(7365 -485.603)" fill="#FFFFFF"/>
</g>
<g id="Vector">
<use xlink:href="#path10_fill" transform="translate(7374.76 -493)" fill="#FFFFFF"/>
</g>
<g id="Vector">
<use xlink:href="#path11_fill" transform="translate(7369.86 -489.793)" fill="#FFFFFF"/>
</g>
<g id="Vector">
<use xlink:href="#path12_fill" transform="translate(7393.42 -485.688)" fill="#FFFFFF" fill-opacity="0.5"/>
</g>
<g id="Vector">
<use xlink:href="#path13_fill" transform="translate(7389.84 -482.053)" fill="#FFFFFF" fill-opacity="0.5"/>
</g>
<g id="Vector">
<use xlink:href="#path14_fill" transform="translate(7386.48 -478.675)" fill="#FFFFFF" fill-opacity="0.5"/>
</g>
</g>
</g>
</g>
</g>
<defs>
<path id="path0_fill" d="M 7.1457 11.2031C 5.11 11.2031 3.44822 9.49271 3.44822 7.39747C 3.44822 5.30224 5.11 3.59184 7.1457 3.59184C 7.81041 3.59184 8.43359 3.76288 8.93213 4.0622L 11.4248 1.4966C 10.22 0.555879 8.7244 -3.26233e-07 7.1457 -3.26233e-07C 3.19894 -3.26233e-07 -1.26785e-06 3.29252 -1.26785e-06 7.35471C -1.26785e-06 11.4169 3.19894 14.7094 7.1457 14.7094C 8.76594 14.7094 10.22 14.1536 11.4248 13.2556L 8.93213 10.69C 8.39204 11.0321 7.76887 11.2031 7.1457 11.2031Z"/>
<path id="path1_fill" d="M 7.10416 3.54908C 9.13985 3.54908 10.7601 5.25948 10.7601 7.31195C 10.7601 9.36443 9.09831 11.0748 7.10416 11.0748C 5.11001 11.0748 3.44821 9.36443 3.44821 7.31195C 3.44821 5.25948 5.06847 3.54908 7.10416 3.54908ZM 7.10416 -6.52465e-07C 3.19895 -6.52465e-07 2.53569e-06 3.29252 2.53569e-06 7.31195C 2.53569e-06 11.3314 3.19895 14.6239 7.10416 14.6239C 11.0094 14.6239 14.2083 11.3314 14.2083 7.31195C 14.2083 3.29252 11.0094 -6.52465e-07 7.10416 -6.52465e-07Z"/>
<path id="path2_fill" d="M 14.2914 7.35471C 14.2914 7.31195 14.2914 7.31195 14.2914 7.26919L 14.2914 0L 10.8432 0L 10.8432 1.069C 9.76302 0.38484 8.51667 0 7.1457 0C 3.19894 0 -1.26785e-06 3.29252 -1.26785e-06 7.35471C -1.26785e-06 11.4169 3.19894 14.7094 7.1457 14.7094C 8.51667 14.7094 9.76302 14.3246 10.8432 13.6404L 10.8432 14.7094L 14.2914 14.7094L 14.2914 7.44023C 14.2914 7.39747 14.2914 7.35471 14.2914 7.35471ZM 7.1457 11.1176C 5.11 11.1176 3.44822 9.40719 3.44822 7.31195C 3.44822 5.21671 5.11 3.50632 7.1457 3.50632C 9.18139 3.50632 10.8432 5.21671 10.8432 7.31195C 10.8432 9.40719 9.18139 11.1176 7.1457 11.1176Z"/>
<path id="path3_fill" d="M 6.23172 0C 5.11001 0 4.07139 0.29932 3.15741 0.855199L 3.15741 0L 2.53569e-06 0L 2.53569e-06 14.6667L 3.15741 14.6667L 3.15741 6.37123C 3.19895 4.66084 4.56993 3.24976 6.23172 3.24976C 7.93505 3.24976 9.34758 4.66084 9.34758 6.45675L 9.34758 14.7094L 12.505 14.7094L 12.505 6.45675C 12.4634 2.90768 9.63839 0 6.23172 0Z"/>
<path id="path4_fill" d="M 3.40667 0L -2.53569e-06 0L -2.53569e-06 14.6667L 3.40667 14.6667L 3.40667 0Z"/>
<path id="path5_fill" d="M 1.74488 3.59184C 2.70855 3.59184 3.48976 2.78778 3.48976 1.79592C 3.48976 0.80406 2.70855 0 1.74488 0C 0.781209 0 0 0.80406 0 1.79592C 0 2.78778 0.781209 3.59184 1.74488 3.59184Z"/>
<path id="path6_fill" d="M 3.40667 0L -5.07138e-06 0L -5.07138e-06 14.6667L 3.40667 14.6667L 3.40667 0Z"/>
<path id="path7_fill" d="M 1.74488 3.59184C 2.70855 3.59184 3.48976 2.78778 3.48976 1.79592C 3.48976 0.80406 2.70855 0 1.74488 0C 0.781207 0 5.07138e-06 0.80406 5.07138e-06 1.79592C 5.07138e-06 2.78778 0.781207 3.59184 1.74488 3.59184Z"/>
<path id="path8_fill" d="M 6.81334 16.8474L 13.959 9.49271L 9.0983 9.49271L 3.40667 15.3508L 3.40667 8.15582e-08L -6.33923e-07 3.54908L -6.33923e-07 24.1594L 3.40667 24.1594L 3.40667 18.344L 9.05676 24.1594L 13.9175 24.1594L 6.81334 16.8474Z"/>
<path id="path9_fill" d="M 0.0415448 26.0836C 0.830895 27.5374 2.24342 29.1623 2.24342 29.1623L 2.24342 28.6492L 2.24342 0.897959L 2.24342 -3.26233e-07C 0.747806 1.7104 -6.19065e-10 3.12148 -6.19065e-10 3.12148L -6.19065e-10 26.0836L 0.0415448 26.0836Z"/>
<path id="path10_fill" d="M 18.612 35.1059L 16.6594 33.0962L 15.0807 31.4713L 13.3774 29.7182L 11.7572 28.0505L 5.9409 22.0641L 11.8403 15.9922L 13.4605 14.3246L 15.1638 12.5714L 16.7425 10.9466L 18.6951 8.93683L 20.2738 7.31195L 22.4342 5.08844C 22.4342 5.08844 21.6033 4.36152 20.6477 3.67736L 2.24342 22.62L 2.24342 18.7289L 18.2381 2.26628C 18.2381 2.26628 16.7841 1.53936 16.0363 1.2828L 2.24342 15.4791L 2.24342 11.7162L 13.1697 0.4276C 12.2557 0.17104 10.4277 0 10.4277 0L 2.24342 8.46647L 2.24342 0.897959C 1.32943 1.15452 -1.58481e-07 1.75316 -1.58481e-07 1.75316L -1.58481e-07 42.0758L -1.58481e-07 42.1613C -1.58481e-07 42.1613 1.12171 42.7172 2.24342 43.0165L 2.24342 35.6618L 10.1785 43.829L 10.3446 44C 10.3446 44 12.0064 43.8717 13.0866 43.5724L 2.24342 32.4121L 2.24342 28.5209L 16.0363 42.7172C 16.0363 42.7172 17.4488 42.1613 18.2381 41.7337L 2.49269 25.5705L 4.32065 23.689L 20.3985 40.2371L 20.5231 40.3654C 21.3956 39.8095 22.3095 38.9543 22.3095 38.9543L 20.1908 36.7736L 18.612 35.1059Z"/>
<path id="path11_fill" d="M 1.58481e-07 1.66764L 1.58481e-07 35.9611C 0.747806 36.6453 2.24342 37.586 2.24342 37.586L 2.24342 0.384839L 2.24342 -2.27871e-15C 1.53716 0.38484 1.58481e-07 1.66764 1.58481e-07 1.66764Z"/>
<path id="path12_fill" d="M 8.39204 14.7094C 8.39204 8.76579 5.73317 3.50632 1.62024 1.63116e-07L 0.0415454 1.62488C 3.78057 4.66084 6.19017 9.40719 6.19017 14.7094C 6.19017 20.0117 3.78057 24.758 1.26785e-06 27.8367L 1.53716 29.4616C 5.69163 25.9553 8.39204 20.6531 8.39204 14.7094Z"/>
<path id="path13_fill" d="M 4.77765 11.0748C 4.77765 15.0087 2.90813 18.4295 3.16961e-07 20.5675L 1.5787 22.1924C 4.86074 19.6696 6.97952 15.6074 6.97952 11.0748C 6.97952 6.54227 4.86074 2.52284 1.62025 1.63116e-07L 0.0415444 1.62488C 2.90813 3.72012 4.77765 7.18367 4.77765 11.0748Z"/>
<path id="path14_fill" d="M 5.77472 7.69679C 5.77472 4.4898 4.15448 1.62488 1.70334 0L 0.0830892 1.66764C 2.16033 2.82216 3.5313 5.08844 3.5313 7.69679C 3.5313 10.3052 2.11878 12.5714 -6.33923e-07 13.7687L 1.62025 15.4363C 4.11293 13.7687 5.77472 10.9465 5.77472 7.69679Z"/>
</defs>
</svg>
