<svg width="1188" height="268" viewBox="0 0 1188 268" version="1.1" xmlns="http://www.w3.org/2000/svg" xmlns:xlink="http://www.w3.org/1999/xlink">
<title>kairexlogo</title>
<desc>Created using Figma</desc>
<g id="Canvas" transform="matrix(4 0 0 4 -59084 -3936)">
<g id="kairexlogo">
<g id="Group">
<g id="Vector">
<use xlink:href="#path0_fill" transform="matrix(1 0 0 1 14858.7 998.978)" fill="#EB6153"/>
</g>
<g id="Vector">
<use xlink:href="#path1_fill" transform="matrix(1 0 0 1 14941.1 998.978)" fill="#EB6153"/>
</g>
<g id="Vector">
<use xlink:href="#path2_fill" transform="matrix(1 0 0 1 14941.1 1008.41)" fill="#EB6153"/>
</g>
<g id="Vector">
<use xlink:href="#path3_fill" transform="matrix(1 0 0 1 14895.4 998.978)" fill="#EB6153"/>
</g>
<g id="Vector">
<use xlink:href="#path4_fill" transform="matrix(1 0 0 1 14958.7 999.303)" fill="#EB6153"/>
</g>
<g id="Vector">
<use xlink:href="#path5_fill" transform="matrix(1 0 0 1 14997.1 998.978)" fill="#EB6153"/>
</g>
<g id="Vector">
<use xlink:href="#path6_fill" transform="matrix(1 0 0 1 15031.6 998.978)" fill="#EB6153"/>
</g>
<g id="Group">
<g id="Vector">
<use xlink:href="#path7_fill" transform="matrix(1 0 0 1 14771.9 987.112)" fill="#EB6153"/>
</g>
<g id="Vector">
<use xlink:href="#path8_fill" transform="matrix(1 0 0 1 14807.8 1005.22)" fill="#EB6153"/>
</g>
<g id="Vector">
<use xlink:href="#path9_fill" transform="matrix(1 0 0 1 14793.1 984.673)" fill="#EB6153"/>
</g>
<g id="Vector">
<use xlink:href="#path10_fill" transform="matrix(1 0 0 1 14774.4 1020.19)" fill="#F08437"/>
</g>
</g>
</g>
</g>
</g>
<defs>
<path id="path0_fill" d="M 16.5621 16.5801L 33.1241 3.1004e-07L 25.8368 3.1004e-07L 5.6311 19.8311L 5.6311 3.1004e-07L 2.52717e-06 3.1004e-07L 2.52717e-06 37.7117L 5.6311 37.7117L 5.6311 27.6335L 12.5872 20.4813L 26.4993 37.7117L 33.7866 37.7117L 16.5621 16.5801Z"/>
<path id="path1_fill" d="M 5.6311 0L -5.05434e-06 0L -5.05434e-06 5.85181L 5.6311 5.85181L 5.6311 0Z"/>
<path id="path2_fill" d="M 5.6311 0L -5.05434e-06 0L -5.05434e-06 28.2837L 5.6311 28.2837L 5.6311 0Z"/>
<path id="path3_fill" d="M 22.1932 3.1004e-07L 17.2245 3.1004e-07L -2.52717e-06 37.7117L 5.96233 37.7117L 10.5997 27.9586L 12.2559 24.7076L 28.1555 24.7076L 29.8117 28.2837L 34.1178 37.7117L 40.4114 37.7117L 22.1932 3.1004e-07ZM 19.8745 7.47731L 25.1743 18.8558L 14.5746 18.8558L 19.8745 7.47731Z"/>
<path id="path4_fill" d="M 21.1994 22.4319C 22.1931 22.1068 23.1869 21.7817 24.1806 21.4566C 25.5056 20.8064 26.4993 20.1562 27.493 19.1809C 28.4867 18.2056 29.1492 17.2303 29.8117 15.9299C 30.4742 14.6295 30.4742 13.3291 30.4742 11.7036C 30.4742 10.0781 30.1429 8.77771 29.8117 7.47731C 29.1492 6.17691 28.4867 4.87651 27.493 3.90121C 26.168 2.6008 24.8431 1.6255 22.8556 0.975302C 20.8682 0.325101 18.8807 2.88747e-15 16.5621 2.88747e-15L 5.05434e-06 2.88747e-15L 5.05434e-06 37.3866L 5.63109 37.3866L 5.63109 23.4072L 14.9059 23.4072L 25.5056 37.3866L 32.4616 37.3866L 21.1994 22.4319ZM 24.1806 13.9793C 23.8494 14.6295 23.1869 15.6048 22.5244 15.9299C 21.8619 16.5801 20.8682 16.9052 19.8745 17.2303C 18.5495 17.8805 17.5558 17.8805 16.2308 17.8805L 5.63109 17.8805L 5.63109 4.87651L 16.2308 4.87651C 18.8807 4.87651 21.1994 5.52671 22.8556 6.50201C 24.1806 7.47731 25.1743 9.10281 25.1743 11.0534C 24.8431 12.3538 24.5118 13.3291 24.1806 13.9793Z"/>
<path id="path5_fill" d="M 5.96235 32.51L 5.96235 21.1315L 28.4867 21.1315L 28.4867 15.9299L 5.96235 15.9299L 5.96235 5.20161L 28.4867 5.20161L 28.4867 3.1004e-07L 0 3.1004e-07L 0 37.7117L 28.4867 37.7117L 28.4867 32.51L 5.96235 32.51Z"/>
<path id="path6_fill" d="M 21.8619 18.5307L 36.1053 3.1004e-07L 29.1492 3.1004e-07L 18.2183 14.3044L 7.2873 3.1004e-07L 0.331241 3.1004e-07L 14.5746 18.5307L 5.05434e-06 37.7117L 6.62483 37.7117L 18.2183 22.757L 29.4805 37.7117L 36.4365 37.7117L 21.8619 18.5307Z"/>
<path id="path7_fill" d="M 30.8054 12.5164L 18.5495 0.487651C 17.887 -0.16255 17.2245 -0.16255 16.5621 0.487651L 0.331241 16.4176C 0 16.7427 0 17.0678 0 17.3929L 0 41.4503C 0 42.4256 1.32496 43.0758 2.31869 42.4256L 14.2434 30.722L 31.1367 14.1419C 31.4679 13.8168 31.4679 12.8415 30.8054 12.5164Z"/>
<path id="path8_fill" d="M 13.7465 29.8459C 13.084 29.1957 13.084 28.5455 13.7465 27.8953L 31.3023 10.6649C 31.6335 10.3398 31.6335 10.0147 31.6335 9.68964C 31.6335 6.43864 31.6335 3.51273 31.6335 1.23703C 31.6335 0.261725 30.3086 -0.388475 29.3148 0.261726L 17.0589 12.6155L 0.496862 28.8706C -0.165621 29.5208 -0.165621 30.171 0.496862 30.8212L 12.7528 42.8499C 13.4153 43.5001 14.0777 43.5001 14.7402 42.8499L 31.3023 26.5949C 31.6335 26.2698 31.6335 25.9447 31.6335 25.6196C 31.6335 24.3192 31.6335 20.7431 31.6335 16.5168C 31.6335 15.5414 30.3086 15.2163 29.6461 15.8665L 15.4027 29.8459C 15.0715 30.4961 14.0777 30.4961 13.7465 29.8459Z"/>
<path id="path9_fill" d="M 12.5226 13.9793L 29.4159 30.5594C 30.0784 31.2096 30.7408 31.2096 31.4033 30.5594L 43.6593 18.5307C 44.3217 17.8805 44.3217 17.2303 43.6593 16.5801L 27.0972 0.325101C 26.766 0.325101 26.4347 0 26.1035 0C 24.7785 0 21.4661 0 17.4912 0C 16.4975 0 15.835 1.3004 16.4975 2.2757L 30.4096 15.9299C 31.0721 16.5801 31.0721 17.2303 30.4096 17.8805C 29.7471 18.5307 29.0846 18.5307 28.4222 17.8805L 10.8664 0.325101C 10.5351 0 10.2039 0 9.87266 0C 6.56025 0 3.57908 0 1.26039 0C 0.26667 0 -0.395813 1.3004 0.266669 2.2757L 12.5226 13.9793Z"/>
<path id="path10_fill" d="M 12.7528 0.243825L 0.496861 12.2725C -0.165621 12.9227 -0.165621 13.5729 0.496861 14.2231L 16.7277 30.1531C 17.0589 30.4782 17.3902 30.4782 17.7214 30.4782C 20.7026 30.4782 35.9397 30.4782 42.5645 30.4782C 43.5582 30.4782 44.2207 29.1778 43.5582 28.2025L 31.6335 16.4989L 14.409 0.243825C 14.0777 -0.0812751 13.084 -0.0812751 12.7528 0.243825Z"/>
</defs>
</svg>
