<svg width="780" height="176" viewBox="0 0 780 176" version="1.1" xmlns="http://www.w3.org/2000/svg" xmlns:xlink="http://www.w3.org/1999/xlink">
<title>partner_logo_1</title>
<desc>Created using Figma</desc>
<g id="Canvas" transform="matrix(4 0 0 4 -45884 -6044)">
<g id="partner_logo_1">
<g id="Group">
<g id="Vector">
<use xlink:href="#path0_fill" transform="translate(11528.1 1520.54)" fill="#949494"/>
</g>
<g id="Vector">
<use xlink:href="#path1_fill" transform="translate(11582.5 1520.54)" fill="#949494"/>
</g>
<g id="Vector">
<use xlink:href="#path2_fill" transform="translate(11582.5 1526.82)" fill="#949494"/>
</g>
<g id="Vector">
<use xlink:href="#path3_fill" transform="translate(11552.4 1520.54)" fill="#949494"/>
</g>
<g id="Vector">
<use xlink:href="#path4_fill" transform="translate(11594 1520.75)" fill="#949494"/>
</g>
<g id="Vector">
<use xlink:href="#path5_fill" transform="translate(11619.3 1520.54)" fill="#949494"/>
</g>
<g id="Vector">
<use xlink:href="#path6_fill" transform="translate(11642 1520.54)" fill="#949494"/>
</g>
<g id="Group">
<g id="Vector">
<use xlink:href="#path7_fill" transform="translate(11471 1512.63)" fill="#949494"/>
</g>
<g id="Vector">
<use xlink:href="#path8_fill" transform="translate(11494.7 1524.7)" fill="#949494"/>
</g>
<g id="Vector">
<use xlink:href="#path9_fill" transform="translate(11485 1511)" fill="#949494"/>
</g>
<g id="Vector">
<use xlink:href="#path10_fill" transform="translate(11472.6 1534.68)" fill="#949494"/>
</g>
</g>
</g>
</g>
</g>
<defs>
<path id="path0_fill" d="M 10.906 11.0542L 21.8121 2.06708e-07L 17.0134 2.06708e-07L 3.70805 13.2217L 3.70805 2.06708e-07L 1.66413e-06 2.06708e-07L 1.66413e-06 25.1429L 3.70805 25.1429L 3.70805 18.4236L 8.28859 13.6552L 17.4497 25.1429L 22.2483 25.1429L 10.906 11.0542Z"/>
<path id="path1_fill" d="M 3.70805 0L -3.32826e-06 0L -3.32826e-06 3.90148L 3.70805 3.90148L 3.70805 0Z"/>
<path id="path2_fill" d="M 3.70805 0L -3.32826e-06 0L -3.32826e-06 18.8571L 3.70805 18.8571L 3.70805 0Z"/>
<path id="path3_fill" d="M 14.6141 2.06708e-07L 11.3423 2.06708e-07L -1.66413e-06 25.1429L 3.92617 25.1429L 6.97987 18.6404L 8.07047 16.4729L 18.5403 16.4729L 19.6309 18.8571L 22.4664 25.1429L 26.6107 25.1429L 14.6141 2.06708e-07ZM 13.0872 4.98522L 16.5772 12.5714L 9.59732 12.5714L 13.0872 4.98522Z"/>
<path id="path4_fill" d="M 13.9597 14.9557C 14.6141 14.7389 15.2685 14.5222 15.9228 14.3054C 16.7953 13.8719 17.4497 13.4384 18.104 12.7882C 18.7584 12.1379 19.1946 11.4877 19.6309 10.6207C 20.0671 9.75369 20.0671 8.8867 20.0671 7.80296C 20.0671 6.71921 19.849 5.85222 19.6309 4.98522C 19.1946 4.11823 18.7584 3.25123 18.104 2.60099C 17.2315 1.73399 16.3591 1.08374 15.0503 0.650247C 13.7416 0.216749 12.4329 1.92512e-15 10.906 1.92512e-15L 3.32826e-06 1.92512e-15L 3.32826e-06 24.9261L 3.70805 24.9261L 3.70805 15.6059L 9.81544 15.6059L 16.7953 24.9261L 21.3758 24.9261L 13.9597 14.9557ZM 15.9228 9.3202C 15.7047 9.7537 15.2685 10.4039 14.8322 10.6207C 14.396 11.0542 13.7416 11.2709 13.0873 11.4877C 12.2148 11.9212 11.5604 11.9212 10.6879 11.9212L 3.70805 11.9212L 3.70805 3.25123L 10.6879 3.25123C 12.4329 3.25123 13.9597 3.68473 15.0503 4.33498C 15.9228 4.98522 16.5772 6.06897 16.5772 7.36946C 16.3591 8.23645 16.1409 8.8867 15.9228 9.3202Z"/>
<path id="path5_fill" d="M 3.92618 21.6749L 3.92618 14.0887L 18.7584 14.0887L 18.7584 10.6207L 3.92618 10.6207L 3.92618 3.46798L 18.7584 3.46798L 18.7584 2.06708e-07L 0 2.06708e-07L 0 25.1429L 18.7584 25.1429L 18.7584 21.6749L 3.92618 21.6749Z"/>
<path id="path6_fill" d="M 14.396 12.3547L 23.7752 2.06708e-07L 19.1946 2.06708e-07L 11.9966 9.53695L 4.79865 2.06708e-07L 0.218121 2.06708e-07L 9.59732 12.3547L 3.32826e-06 25.1429L 4.36242 25.1429L 11.9966 15.1724L 19.4128 25.1429L 23.9933 25.1429L 14.396 12.3547Z"/>
<path id="path7_fill" d="M 20.2852 8.34483L 12.2148 0.325123C 11.7785 -0.108374 11.3423 -0.108374 10.906 0.325123L 0.218121 10.9458C 0 11.1626 0 11.3793 0 11.5961L 0 27.6355C 0 28.2857 0.872483 28.7192 1.52685 28.2857L 9.37919 20.4828L 20.5034 9.42857C 20.7215 9.21182 20.7215 8.56158 20.2852 8.34483Z"/>
<path id="path8_fill" d="M 9.05201 19.8986C 8.61577 19.4651 8.61577 19.0316 9.05201 18.5981L 20.6124 7.11046C 20.8305 6.89371 20.8305 6.67696 20.8305 6.46021C 20.8305 4.29272 20.8305 2.34198 20.8305 0.824742C 20.8305 0.174496 19.9581 -0.259001 19.3037 0.174496L 11.2332 8.41095L 0.327181 19.2484C -0.10906 19.6819 -0.10906 20.1154 0.327181 20.5489L 8.39765 28.5686C 8.83389 29.0021 9.27013 29.0021 9.70638 28.5686L 20.6124 17.7311C 20.8305 17.5144 20.8305 17.2976 20.8305 17.0809C 20.8305 16.2139 20.8305 13.8297 20.8305 11.0119C 20.8305 10.3617 19.9581 10.1449 19.5218 10.5784L 10.1426 19.8986C 9.9245 20.3321 9.27013 20.3321 9.05201 19.8986Z"/>
<path id="path9_fill" d="M 8.24607 9.3202L 19.3702 20.3744C 19.8065 20.8079 20.2427 20.8079 20.679 20.3744L 28.7494 12.3547C 29.1857 11.9212 29.1857 11.4877 28.7494 11.0542L 17.8434 0.216749C 17.6253 0.216749 17.4071 0 17.189 0C 16.3165 0 14.1353 0 11.5179 0C 10.8635 0 10.4273 0.866995 10.8635 1.51724L 20.0246 10.6207C 20.4608 11.0542 20.4608 11.4877 20.0246 11.9212C 19.5884 12.3547 19.1521 12.3547 18.7159 11.9212L 7.15547 0.216749C 6.93735 0 6.71922 0 6.5011 0C 4.3199 0 2.35681 0 0.829964 0C 0.175601 0 -0.260641 0.866995 0.175601 1.51724L 8.24607 9.3202Z"/>
<path id="path10_fill" d="M 8.39765 0.162562L 0.327181 8.18227C -0.10906 8.61576 -0.10906 9.04926 0.327181 9.48276L 11.0151 20.1035C 11.2332 20.3202 11.4513 20.3202 11.6695 20.3202C 13.6325 20.3202 23.6661 20.3202 28.0285 20.3202C 28.6829 20.3202 29.1191 19.4532 28.6829 18.803L 20.8305 11L 9.48825 0.162562C 9.27013 -0.0541872 8.61577 -0.0541872 8.39765 0.162562Z"/>
</defs>
</svg>
