<svg width="944" height="120" viewBox="0 0 944 120" version="1.1" xmlns="http://www.w3.org/2000/svg" xmlns:xlink="http://www.w3.org/1999/xlink">
<title>partner_logo_2</title>
<desc>Created using Figma</desc>
<g id="Canvas" transform="matrix(4 0 0 4 -46896 -6080)">
<g id="partner_logo_2">
<g id="Vector">
<use xlink:href="#path0_fill" transform="translate(11724 1521.62)" fill="#949494"/>
</g>
<g id="Vector">
<use xlink:href="#path1_fill" transform="translate(11867.9 1521.62)" fill="#949494"/>
</g>
<g id="Vector">
<use xlink:href="#path2_fill" transform="translate(11743.1 1521.68)" fill="#949494"/>
</g>
<g id="Vector">
<use xlink:href="#path3_fill" transform="translate(11761.3 1521.68)" fill="#949494"/>
</g>
<g id="Vector">
<use xlink:href="#path4_fill" transform="translate(11844.4 1521.68)" fill="#949494"/>
</g>
<g id="Vector">
<use xlink:href="#path5_fill" transform="translate(11786.3 1521.91)" fill="#949494"/>
</g>
<g id="Vector">
<use xlink:href="#path6_fill" transform="translate(11956.9 1521.98)" fill="#949494"/>
</g>
<g id="Vector">
<use xlink:href="#path7_fill" transform="translate(11809.4 1522.01)" fill="#949494"/>
</g>
<g id="Vector">
<use xlink:href="#path8_fill" transform="translate(11935.4 1521.98)" fill="#949494"/>
</g>
<g id="Vector">
<use xlink:href="#path9_fill" transform="translate(11884.6 1520)" fill="#949494"/>
</g>
<g id="Vector">
<use xlink:href="#path10_fill" transform="translate(11887.2 1528.74)" fill="#949494"/>
</g>
<g id="Group">
<g id="Vector">
<use xlink:href="#path11_fill" transform="translate(11827.4 1521.38)" fill="#949494"/>
</g>
</g>
<g id="Group">
<g id="Vector">
<use xlink:href="#path12_fill" transform="translate(11916 1521.38)" fill="#949494"/>
</g>
</g>
</g>
</g>
<defs>
<path id="path0_fill" d="M 16.3936 3.14398e-08L 0 3.14398e-08L 0 2.96703L 6.48914 2.96703L 6.48914 26.3736L 9.90448 26.3736L 9.90448 2.96703L 16.3936 2.96703L 16.3936 3.14398e-08Z"/>
<path id="path1_fill" d="M 16.3936 3.14398e-08L -4.16911e-06 3.14398e-08L -4.16911e-06 2.96703L 6.48914 2.96703L 6.48914 26.3736L 9.93863 26.3736L 9.93863 2.96703L 16.3936 2.96703L 16.3936 3.14398e-08Z"/>
<path id="path2_fill" d="M 12.2611 26.2418L 16.0862 26.2418L 9.83617 16.978C 13.3881 15.7912 15.9496 12.5604 15.9496 8.73626C 15.9496 3.92308 11.9195 0.032967 6.93314 0.032967L 3.41534 0.032967L 3.41534 -3.14398e-08L 5.21139e-07 -3.14398e-08L 5.21139e-07 26.3077L 3.44949 26.3077L 3.44949 17.4396L 6.42084 17.4396L 12.2611 26.2418ZM 3.41534 3L 6.93314 3C 10.2119 3 12.8758 5.57143 12.8758 8.73626C 12.8758 11.9011 10.2119 14.4725 6.93314 14.4725L 3.41534 14.4725L 3.41534 3Z"/>
<path id="path3_fill" d="M 12.7734 -3.14398e-08L 10.0752 -3.14398e-08L 0.0683068 26.044L 1.04228e-06 26.3077L 3.58611 26.3077L 7.68451 15.4615L 15.1983 15.4615L 19.0917 26.3077L 22.6437 26.3077L 12.7734 -3.14398e-08ZM 8.67496 12.7582L 11.4755 5.53846L 14.2761 12.7582L 8.67496 12.7582Z"/>
<path id="path4_fill" d="M 12.7734 -3.14398e-08L 10.0752 -3.14398e-08L 0.0683026 26.044L 2.08456e-06 26.3077L 3.58611 26.3077L 7.68451 15.4615L 15.1983 15.4615L 19.0917 26.3077L 22.6778 26.3077L 12.7734 -3.14398e-08ZM 8.67496 12.7582L 11.4755 5.53846L 14.2761 12.7582L 8.67496 12.7582Z"/>
<path id="path5_fill" d="M 6.5233 6.28796e-08L -2.08456e-06 6.28796e-08L -2.08456e-06 0.0659341L -2.08456e-06 2.63736L -2.08456e-06 23.3077L -2.08456e-06 25.9451L 3.24457 25.9451L 6.48914 25.9451C 13.9004 25.9451 19.9456 20.1099 19.9456 12.956C 19.9456 5.8022 13.9346 6.28796e-08 6.5233 6.28796e-08ZM 6.5233 23.3407L 3.27872 23.3407L 3.27872 2.63736L 6.5233 2.63736C 12.4318 2.63736 17.2475 7.28572 17.2475 12.989C 17.2475 18.6923 12.4318 23.3407 6.5233 23.3407Z"/>
<path id="path6_fill" d="M 3.10796 0L 8.33823e-06 0L 8.33823e-06 25.9121L 3.10796 25.9121L 3.10796 0Z"/>
<path id="path7_fill" d="M 14.3444 2.63736L 14.3444 -3.14398e-08L 3.03965 -3.14398e-08L 2.83473 -3.14398e-08L 0 -3.14398e-08L 0 25.9121L 2.83473 25.9121L 3.03965 25.9121L 14.3444 25.9121L 14.3444 23.2747L 3.03965 23.2747L 3.03965 14.1099L 14.3444 14.1099L 14.3444 11.4725L 3.03965 11.4725L 3.03965 2.63736L 14.3444 2.63736Z"/>
<path id="path8_fill" d="M 14.6518 0L 14.6518 11.5714L 3.41535 11.5714L 3.41535 0L 8.33823e-06 0L 8.33823e-06 25.9121L 3.41535 25.9121L 3.41535 14.1429L 14.6518 14.1429L 14.6518 25.9121L 18.0671 25.9121L 18.0671 0L 14.6518 0Z"/>
<path id="path9_fill" d="M 25.171 12.5275L 29.4744 8.34066C 26.9129 3.3956 21.6191 0 15.5398 0C 6.96728 0 2.08456e-06 6.72527 2.08456e-06 15C 2.08456e-06 17.3736 0.580603 19.6484 1.6052 21.6264L 18.1355 5.93407L 25.171 12.5275Z"/>
<path id="path10_fill" d="M 22.5412 6.59341L 15.4715 0L -2.08456e-06 14.6703C 2.80058 18.6593 7.51374 21.2637 12.8758 21.2637C 21.4483 21.2637 28.4156 14.5385 28.4156 6.26374C 28.4156 4.64835 28.1424 3.06593 27.6301 1.58242L 22.5412 6.59341Z"/>
<path id="path11_fill" d="M 8.26512 26.7033C 3.72272 26.7033 4.16911e-06 23.1429 4.16911e-06 18.7253L 2.73227 18.7253C 2.73227 21.6593 5.22547 24.0659 8.26512 24.0659C 11.3048 24.0659 13.798 21.6923 13.798 18.7253C 13.798 15.8901 10.7583 14.1099 7.65036 12.5604L 7.54789 12.4945C 5.22546 11.1429 2.08335 9.32967 2.08335 6C 2.08335 2.7033 4.88393 -6.28796e-08 8.29927 -6.28796e-08C 11.2365 -6.28796e-08 13.798 2.01099 14.3786 4.78022L 11.7146 5.30769C 11.3731 3.75824 9.93863 2.63736 8.29927 2.63736C 6.38668 2.63736 4.81562 4.15385 4.81562 6C 4.81562 7.81319 7.0356 9.0989 8.98234 10.2198C 11.8512 11.6703 16.5644 14.0769 16.5644 18.7253C 16.5302 23.1429 12.8075 26.7033 8.26512 26.7033Z"/>
<path id="path12_fill" d="M 8.26513 26.7033C 3.72273 26.7033 4.16911e-06 23.1429 4.16911e-06 18.7253L 2.73227 18.7253C 2.73227 21.6593 5.22548 24.0659 8.26513 24.0659C 11.3048 24.0659 13.798 21.6923 13.798 18.7253C 13.798 15.8901 10.7583 14.1099 7.65035 12.5604L 7.54789 12.4945C 5.22546 11.1429 2.08335 9.32967 2.08335 6C 2.08335 2.7033 4.88393 -6.28796e-08 8.29927 -6.28796e-08C 11.2365 -6.28796e-08 13.798 2.01099 14.3786 4.78022L 11.7146 5.30769C 11.3731 3.75824 9.93863 2.63736 8.29927 2.63736C 6.38668 2.63736 4.81562 4.15385 4.81562 6C 4.81562 7.81319 7.0356 9.0989 8.98234 10.2198C 11.8512 11.6703 16.5644 14.0769 16.5644 18.7253C 16.5302 23.1429 12.8075 26.7033 8.26513 26.7033Z"/>
</defs>
</svg>
