<svg width="672" height="180" viewBox="0 0 672 180" version="1.1" xmlns="http://www.w3.org/2000/svg" xmlns:xlink="http://www.w3.org/1999/xlink">
<title>partner_logo_3</title>
<desc>Created using Figma</desc>
<g id="Canvas" transform="matrix(4 0 0 4 -48084 -6040)">
<g id="partner_logo_3">
<g id="Group">
<g id="Group">
<g id="Vector">
<use xlink:href="#path0_fill" transform="translate(12086.1 1522.35)" fill="#949494"/>
</g>
<g id="Vector">
<use xlink:href="#path1_fill" transform="translate(12077.7 1534.49)" fill="#949494"/>
</g>
<g id="Vector">
<use xlink:href="#path2_fill" transform="translate(12072.5 1523.27)" fill="#949494"/>
</g>
</g>
<g id="Group">
<g id="Vector">
<use xlink:href="#path3_fill" transform="translate(12092.8 1523.08)" fill="#949494"/>
</g>
<g id="Vector">
<use xlink:href="#path4_fill" transform="translate(12106.7 1522.35)" fill="#949494"/>
</g>
<g id="Vector">
<use xlink:href="#path5_fill" transform="translate(12096 1535.25)" fill="#949494"/>
</g>
</g>
<g id="Group">
<g id="Vector">
<use xlink:href="#path6_fill" transform="translate(12113.8 1523.47)" fill="#949494"/>
</g>
<g id="Vector">
<use xlink:href="#path7_fill" transform="translate(12127.1 1522.28)" fill="#949494"/>
</g>
</g>
<g id="Group">
<g id="Vector">
<use xlink:href="#path8_fill" transform="translate(12135.9 1523.08)" fill="#949494"/>
</g>
<g id="Vector">
<use xlink:href="#path9_fill" transform="translate(12132.6 1534.46)" fill="#949494"/>
</g>
</g>
<g id="Vector">
<use xlink:href="#path10_fill" transform="translate(12153.6 1522.28)" fill="#949494"/>
</g>
<g id="Vector">
<use xlink:href="#path11_fill" transform="translate(12159.9 1534.26)" fill="#949494"/>
</g>
<g id="Group">
<g id="Vector">
<use xlink:href="#path12_fill" transform="translate(12174.2 1522.71)" fill="#949494"/>
</g>
<g id="Vector">
<use xlink:href="#path13_fill" transform="translate(12181.3 1522.28)" fill="#949494"/>
</g>
<g id="Vector">
<use xlink:href="#path14_fill" transform="translate(12174.9 1538.74)" fill="#949494"/>
</g>
<g id="Vector">
<use xlink:href="#path15_fill" transform="translate(12172.3 1533.1)" fill="#949494"/>
</g>
</g>
</g>
<g id="Vector">
<use xlink:href="#path16_fill" transform="translate(12021 1510)" fill="#949494"/>
</g>
</g>
</g>
<defs>
<path id="path0_fill" d="M 3.94787 4.84513C 4.3128 4.84513 4.61137 5.14381 4.61137 5.50885C 4.61137 5.87389 4.3128 6.17257 3.94787 6.17257L 1.45971 6.17257L 1.45971 10.9845C 1.45971 11.3827 1.12796 11.7146 0.729858 11.7146C 0.331754 11.7146 1.01243e-06 11.3827 1.01243e-06 10.9845L 1.01243e-06 0.730089C 1.01243e-06 0.331859 0.331754 2.53188e-07 0.729858 2.53188e-07C 1.12796 2.53188e-07 1.45971 0.331859 1.45971 0.730089L 1.45971 4.84513L 3.94787 4.84513Z"/>
<path id="path1_fill" d="M 4.67772 1.01275e-06C 2.09005 1.01275e-06 1.01243e-06 2.09071 1.01243e-06 4.6792C 1.01243e-06 7.2677 2.09005 9.35841 4.67772 9.35841C 7.2654 9.35841 9.35545 7.2677 9.35545 4.6792C 9.35545 2.09071 7.23223 1.01275e-06 4.67772 1.01275e-06ZM 4.67772 7.93141C 2.88625 7.93141 1.42654 6.47124 1.42654 4.6792C 1.42654 2.88717 2.88625 1.42699 4.67772 1.42699C 6.46919 1.42699 7.92891 2.88717 7.92891 4.6792C 7.92891 6.47124 6.46919 7.93141 4.67772 7.93141Z"/>
<path id="path2_fill" d="M 9.5545 0.730089C 9.5545 0.696903 9.5545 0.663717 9.5545 0.630531C 9.5545 0.265487 9.25592 -2.358e-15 8.92417 -2.358e-15L 0.630332 -2.358e-15C 0.265403 -2.358e-15 2.02486e-06 0.298673 2.02486e-06 0.630531C 2.02486e-06 0.96239 0.298578 1.26106 0.630332 1.26106L 8.02844 1.26106C 7.36493 5.44248 3.71564 8.36283 0.398105 9.62389C 0.165878 9.72345 2.02486e-06 9.95575 2.02486e-06 10.2212C 2.02486e-06 10.3872 0.0663527 10.5531 0.165879 10.6527C 0.265405 10.7522 0.431278 10.8186 0.597154 10.8186C 0.663505 10.8186 0.729858 10.8186 0.796209 10.7854C 4.9763 9.35841 8.75829 6.37168 9.5545 0.730089Z"/>
<path id="path3_fill" d="M -2.02486e-06 8.36283C -2.02486e-06 8.76106 0.331756 9.09292 0.72986 9.09292C 1.99052 9.09292 4.47867 9.09292 4.74407 9.05973C 7.09953 9.05973 9.78673 8.79425 11.4455 8.49557C 11.7441 8.4292 11.9763 8.1969 11.9763 7.86504C 11.9763 7.53319 11.7109 7.23451 11.346 7.23451C 11.3128 7.23451 11.2796 7.23451 11.2464 7.23451C 9.45498 7.53319 6.96682 7.76549 4.74407 7.76549L 1.49289 7.76549L 1.49289 0.730088C 1.49289 0.331858 1.16114 5.06376e-07 0.763032 5.06376e-07C 0.364928 5.06376e-07 0.0331754 0.331858 0.0331754 0.730088L 0.0331754 8.36283L -2.02486e-06 8.36283Z"/>
<path id="path4_fill" d="M 4.04973e-06 0.730089C 4.04973e-06 0.331859 0.331751 2.53188e-07 0.729856 2.53188e-07C 1.12796 2.53188e-07 1.45972 0.331859 1.45972 0.730089L 1.45972 4.11504L 3.94787 4.11504C 4.3128 4.11504 4.61138 4.41372 4.61138 4.77876C 4.61138 5.1438 4.3128 5.44248 3.94787 5.44248L 1.45972 5.44248L 1.45972 10.7522C 1.45972 11.1504 1.12796 11.4823 0.729856 11.4823C 0.331751 11.4823 4.04973e-06 11.1504 4.04973e-06 10.7522L 4.04973e-06 0.730089Z"/>
<path id="path5_fill" d="M 11.2464 -5.06376e-07L 0.763033 -5.06376e-07C 0.331754 -5.06376e-07 -1.01243e-06 0.331859 -1.01243e-06 0.763275L -1.01243e-06 6.96903C -1.01243e-06 7.40044 0.331754 7.7323 0.763033 7.7323L 11.2464 7.7323C 11.6777 7.7323 12.0095 7.40044 12.0095 6.96903L 12.0095 0.763275C 12.0095 0.365045 11.6777 -5.06376e-07 11.2464 -5.06376e-07ZM 10.4834 6.43805L 1.52607 6.43805L 1.52607 1.29425L 10.4834 1.29425L 10.4834 6.43805Z"/>
<path id="path6_fill" d="M 10.6493 13.9049C 11.2133 13.8385 11.6446 13.3407 11.6446 12.7765C 11.6446 12.146 11.1137 11.615 10.4834 11.615C 10.4171 11.615 10.3839 11.615 10.3175 11.6482C 8.59242 11.9137 6.53555 12.0796 4.84361 12.1128L 2.65403 12.146L 2.65403 1.32743C 2.65403 0.597345 2.05687 -5.06376e-07 1.32702 -5.06376e-07C 0.597158 -5.06376e-07 2.02486e-06 0.597345 2.02486e-06 1.32743L 2.02486e-06 13.1748C 2.02486e-06 13.9049 0.597158 14.5022 1.32702 14.5022L 4.7109 14.5022C 6.40284 14.469 8.891 14.1704 10.6493 13.9049Z"/>
<path id="path7_fill" d="M 4.04973e-06 1.29425C 4.04973e-06 0.597346 0.563983 0 1.29384 0C 1.99052 0 2.58768 0.56416 2.58768 1.29425L 2.58768 7.2677L 4.37915 7.2677C 5.00948 7.2677 5.54028 7.79867 5.54028 8.4292C 5.54028 9.05973 5.00948 9.59071 4.37915 9.59071L 2.58768 9.59071L 2.58768 19.8119C 2.58768 20.5088 2.0237 21.1062 1.29384 21.1062C 0.597158 21.1062 4.04973e-06 20.542 4.04973e-06 19.8119L 4.04973e-06 1.29425Z"/>
<path id="path8_fill" d="M 12.2749 5.06376e-07L 1.32701 5.06376e-07C 0.597152 5.06376e-07 -4.04973e-06 0.597346 -4.04973e-06 1.32743L -4.04973e-06 7.66593C -4.04973e-06 8.39602 0.597152 8.99336 1.32701 8.99336L 12.2749 8.99336C 13.0047 8.99336 13.6019 8.39602 13.6019 7.66593L 13.6019 1.29425C 13.6019 0.564159 13.0047 5.06376e-07 12.2749 5.06376e-07ZM 10.981 6.76991L 2.65402 6.76991L 2.65402 2.12389L 10.981 2.12389L 10.981 6.76991Z"/>
<path id="path9_fill" d="M 8.62559 2.25664L 1.12796 2.25664C 0.497628 2.25664 0 1.75885 0 1.12832C 0 0.497787 0.497628 -1.01275e-06 1.12796 -1.01275e-06L 18.7109 -1.01275e-06C 19.3412 -1.01275e-06 19.8389 0.497787 19.8389 1.12832C 19.8389 1.75885 19.3412 2.25664 18.7109 2.25664L 11.346 2.25664L 11.346 7.46681C 11.346 8.23009 10.7488 8.82743 9.98578 8.82743C 9.22275 8.82743 8.62559 8.23009 8.62559 7.46681L 8.62559 2.25664Z"/>
<path id="path10_fill" d="M 15.4929 0C 14.7962 0 14.199 0.56416 14.199 1.29425L 14.199 2.88717L 10.2844 2.88717L 10.2844 2.12389C 10.2844 1.42699 9.72037 0.862831 9.02369 0.862831C 8.32701 0.862831 7.76303 1.42699 7.76303 2.12389L 7.76303 3.65044L 2.58768 3.65044L 2.58768 2.19026C 2.58768 1.49336 2.0237 0.896018 1.29384 0.896018C 0.597156 0.896018 2.02486e-06 1.46018 2.02486e-06 2.19026L 2.02486e-06 9.62389C 2.02486e-06 10.3208 0.563981 10.9181 1.29384 10.9181L 8.99052 10.9181C 9.68721 10.9181 10.2512 10.354 10.2512 9.65708L 10.2512 8.79425L 14.1659 8.79425L 14.1659 10.4867C 14.1659 11.1836 14.7299 11.781 15.4597 11.781C 16.1564 11.781 16.7536 11.2168 16.7536 10.4867L 16.7536 1.29425C 16.7867 0.56416 16.1896 0 15.4929 0ZM 7.76303 8.72788L 2.58768 8.72788L 2.58768 5.80752L 7.76303 5.80752L 7.76303 8.72788ZM 14.199 6.73673L 10.2844 6.73673L 10.2844 4.94469L 14.199 4.94469L 14.199 6.73673Z"/>
<path id="path11_fill" d="M 4.87678 -5.06376e-07C 2.18957 -5.06376e-07 4.04973e-06 2.19027 4.04973e-06 4.87832C 4.04973e-06 7.53319 2.18957 9.75664 4.87678 9.75664C 7.56398 9.75664 9.75356 7.56637 9.75356 4.87832C 9.75356 2.19027 7.56398 -5.06376e-07 4.87678 -5.06376e-07ZM 4.87678 7.30088C 3.58294 7.30088 2.4218 6.17256 2.4218 4.84513C 2.4218 3.55088 3.54976 2.38938 4.87678 2.38938C 6.17061 2.38938 7.33175 3.5177 7.33175 4.84513C 7.33175 6.17256 6.20379 7.30088 4.87678 7.30088Z"/>
<path id="path12_fill" d="M 4.7109 -2.53188e-07C 2.12322 -2.53188e-07 -2.02486e-06 2.12389 -2.02486e-06 4.71239C -2.02486e-06 7.30088 2.09005 9.42478 4.7109 9.42478C 7.29858 9.42478 9.4218 7.30088 9.4218 4.71239C 9.4218 2.12389 7.29858 -2.53188e-07 4.7109 -2.53188e-07ZM 4.7109 6.96903C 3.48341 6.96903 2.45497 5.90708 2.45497 4.71239C 2.45497 3.48451 3.51659 2.45575 4.7109 2.45575C 5.93839 2.45575 6.96682 3.5177 6.96682 4.71239C 6.96682 5.90708 5.93839 6.96903 4.7109 6.96903Z"/>
<path id="path13_fill" d="M 0.962089 15.9292C 0.431284 15.9292 -4.04973e-06 15.4978 -4.04973e-06 14.9668C -4.04973e-06 14.4358 0.431284 14.0044 0.962089 14.0044L 5.14218 14.0044L 5.14218 1.26106C 5.14218 0.564159 5.70616 0 6.40285 0C 7.09953 0 7.66351 0.564159 7.66351 1.26106L 7.66351 16.3938C 7.66351 17.0907 7.09953 17.6549 6.40285 17.6549C 5.70616 17.6549 5.14218 17.0907 5.14218 16.3938L 5.14218 15.9292L 0.962089 15.9292Z"/>
<path id="path14_fill" d="M 12.9716 2.42257C 13.5687 2.42257 14.0663 2.92035 14.0663 3.5177C 14.0663 4.11504 13.5687 4.61283 12.9716 4.61283L 1.32701 4.61283C 0.597156 4.61283 0 4.01549 0 3.2854L 0 1.32743C 0 0.597345 0.597156 -5.06376e-07 1.32701 -5.06376e-07C 2.05687 -5.06376e-07 2.65403 0.597345 2.65403 1.32743L 2.65403 2.42257L 12.9716 2.42257Z"/>
<path id="path15_fill" d="M 11.7441 -5.06376e-07C 11.7109 -5.06376e-07 11.7109 -5.06376e-07 11.6777 -5.06376e-07C 10.4834 0.0663712 9.18958 0.132743 7.82939 0.132743L 0.995261 0.199114C 0.43128 0.199114 0 0.663716 0 1.19469C 0 1.75885 0.464455 2.19026 0.995261 2.19026L 4.61137 2.15708L 4.61137 3.65044C 4.61137 4.38053 5.20853 4.94469 5.90521 4.94469C 6.63507 4.94469 7.19906 4.34734 7.19906 3.65044L 7.19906 2.12389L 7.82939 2.12389C 9.25593 2.12389 10.5829 2.05752 11.8104 1.95796C 12.3081 1.92478 12.7393 1.49336 12.7393 0.962389C 12.7393 0.431416 12.2749 -5.06376e-07 11.7441 -5.06376e-07Z"/>
<path id="path16_fill" d="M 22.5592 0C 10.1185 0 0 10.1217 0 22.5664C 0 34.115 8.65877 43.6062 19.8057 44.9668L 20.1706 40.4204C 20.1706 40.354 20.1374 40.2544 20.1043 40.2212L 14.9953 34.9779C 14.9289 34.9115 14.8957 34.7788 14.8957 34.6792C 14.8957 34.4137 15.128 34.1814 15.3934 34.1814C 15.4929 34.1814 15.5924 34.2146 15.6588 34.2478L 20.3033 37.4668L 20.3365 37.4668C 20.4028 37.4668 20.436 37.4336 20.436 37.3673L 20.7346 33.4513C 20.7346 33.385 20.7014 33.2854 20.6682 33.2522L 17.5498 29.9004L 13.7678 28.7389C 13.6682 28.7057 13.5687 28.6062 13.5687 28.4735C 13.5687 28.3075 13.7014 28.1748 13.8673 28.1748L 13.9005 28.1748L 15.9905 28.4735C 16.0569 28.4735 16.09 28.4071 16.09 28.3739C 16.09 28.3407 16.09 28.3075 16.0569 28.3075L 13.2701 25.3208C 13.2038 25.2544 13.1706 25.1549 13.1706 25.0221C 13.1706 24.7898 13.3697 24.5907 13.6019 24.5907C 13.7014 24.5907 13.7678 24.6239 13.8341 24.6903L 17.8815 28.042C 17.9147 28.042 17.9147 28.0752 17.9479 28.0752C 18.0142 28.0752 18.0474 28.042 18.0474 27.9757L 18.2796 26.9469C 18.3128 26.8473 18.4123 26.7478 18.5118 26.7478C 18.6446 26.7478 18.7773 26.8473 18.7773 27.0133L 18.7773 28.7721L 20.8009 30.4314C 20.8341 30.4646 20.8341 30.4646 20.8673 30.4646C 20.9336 30.4646 20.9668 30.4314 20.9668 30.365L 21.6967 21.073C 21.6967 20.8739 21.8626 20.7411 22.0616 20.7411C 22.1611 20.7411 22.2607 20.7743 22.327 20.8739L 23.2891 21.9358C 23.3886 22.0686 23.455 22.2345 23.4882 22.4004L 23.9858 28.6726C 23.9858 28.7389 24.0521 28.7721 24.0853 28.7721C 24.1185 28.7721 24.1185 28.7721 24.1517 28.7389L 29.9242 24.7566C 29.9905 24.7234 30.0569 24.6903 30.1564 24.6903C 30.3886 24.6903 30.5545 24.8894 30.5545 25.0885C 30.5545 25.1881 30.5213 25.3208 30.4218 25.3872L 24.3175 31.2279C 24.2512 31.2942 24.218 31.3606 24.218 31.4602C 24.218 31.4602 24.218 31.4602 24.218 31.4934L 24.4502 34.3473C 24.4502 34.4137 24.5166 34.4469 24.5498 34.4469L 24.5829 34.4469L 31.8152 30.531C 31.8815 30.4978 31.9147 30.4978 31.981 30.4978C 32.2133 30.4978 32.3791 30.6637 32.3791 30.896C 32.3791 31.0288 32.3128 31.1283 32.2133 31.1947L 27.9668 34.3142C 27.9337 34.3473 27.9336 34.3805 27.9336 34.4137C 27.9336 34.4801 27.9668 34.5133 28 34.5133L 29.5924 34.8783C 29.7251 34.9115 29.8246 35.0111 29.8246 35.177C 29.8246 35.3429 29.6919 35.4757 29.5261 35.4757L 26.5735 35.3761L 24.782 36.7035C 24.7156 36.7699 24.6493 36.8363 24.6493 36.9358C 24.6493 36.9358 24.6493 36.9358 24.6493 36.969L 25.3128 45C 36.4929 43.6394 45.1517 34.1482 45.1517 22.5996C 45.1517 10.1217 35.0332 0 22.5592 0ZM 15.891 8.03097C 16.9526 8.32965 17.9147 9.05973 18.4123 10.1549C 18.9431 11.25 18.9431 12.4447 18.5118 13.4735C 17.4502 13.1748 16.4882 12.4447 15.9905 11.3496C 15.4597 10.2544 15.4597 9.05973 15.891 8.03097ZM 7.72986 26.5487C 6.7346 26.0841 6.03791 25.1881 5.77251 24.2257C 6.7346 23.8274 7.82938 23.8274 8.82465 24.292C 9.81991 24.7566 10.5166 25.6527 10.782 26.615C 9.81991 27.0465 8.72512 27.0465 7.72986 26.5487ZM 9.12322 21.7367C 7.92891 20.9403 7.23223 19.7124 7.06635 18.4181C 8.36019 18.0863 9.75355 18.2854 10.9479 19.0819C 12.1422 19.8783 12.8389 21.1062 13.0047 22.4004C 11.7109 22.6991 10.3175 22.5332 9.12322 21.7367ZM 13.9668 17.4558C 12.872 17.3562 11.8104 16.792 11.1137 15.7965C 10.4171 14.8341 10.218 13.6394 10.4502 12.5442C 11.545 12.6438 12.6066 13.208 13.3033 14.2035C 14.0332 15.1991 14.2322 16.3938 13.9668 17.4558ZM 18.5118 24.1925C 17.218 23.6947 16.1232 22.6991 15.5924 21.3053C 15.0616 19.9115 15.1943 18.4181 15.8246 17.1903C 17.1185 17.6881 18.2133 18.6836 18.7441 20.0774C 19.2749 21.4712 19.1422 22.9646 18.5118 24.1925ZM 26.7062 10.1549C 27.237 9.05973 28.1659 8.32965 29.2275 8.03097C 29.6588 9.05973 29.6588 10.2544 29.128 11.3496C 28.5972 12.4447 27.6682 13.1748 26.6066 13.4735C 26.1754 12.4447 26.1754 11.25 26.7062 10.1549ZM 22.5592 3.81637C 23.2891 4.48009 23.7536 5.40929 23.7536 6.47124C 23.7536 7.53319 23.2891 8.49557 22.5592 9.12611C 21.8294 8.46239 21.3649 7.53319 21.3649 6.47124C 21.3649 5.44248 21.8294 4.48009 22.5592 3.81637ZM 22.5592 18.6173C 21.564 17.7212 20.9336 16.4602 20.9336 15.0332C 20.9336 13.6062 21.564 12.3119 22.5592 11.4491C 23.5545 12.3451 24.1848 13.6062 24.1848 15.0332C 24.1848 16.4602 23.5545 17.7212 22.5592 18.6173ZM 29.5592 21.3053C 29.0284 22.6991 27.9337 23.6947 26.6398 24.1925C 26.0095 22.9646 25.8768 21.4712 26.4076 20.0774C 26.9384 18.6836 28.0332 17.6881 29.327 17.1903C 29.9573 18.4181 30.09 19.9115 29.5592 21.3053ZM 31.1517 17.4558C 30.9194 16.3606 31.1185 15.1991 31.8152 14.2035C 32.5118 13.2411 33.5735 12.677 34.6682 12.5442C 34.9005 13.6394 34.7014 14.8009 34.0047 15.7965C 33.3081 16.792 32.2796 17.3562 31.1517 17.4558ZM 32.1469 22.3673C 32.3128 21.073 33.0427 19.8119 34.2038 19.0487C 35.3981 18.2522 36.7915 18.0531 38.0853 18.385C 37.9194 19.6792 37.1896 20.9403 36.0284 21.7035C 34.8341 22.5332 33.4076 22.6991 32.1469 22.3673ZM 37.4218 26.5487C 36.4265 27.0133 35.3318 27.0133 34.3697 26.615C 34.6351 25.6195 35.3318 24.7566 36.327 24.292C 37.3223 23.7942 38.4171 23.8274 39.3791 24.2257C 39.1137 25.2212 38.4171 26.0841 37.4218 26.5487Z"/>
</defs>
</svg>
