<svg width="1116" height="176" viewBox="0 0 1116 176" version="1.1" xmlns="http://www.w3.org/2000/svg" xmlns:xlink="http://www.w3.org/1999/xlink">
<title>greenstage_logo_img</title>
<desc>Created using Figma</desc>
<g id="Canvas" transform="matrix(4 0 0 4 -41108 -6224)">
<g id="greenstage_logo_img">
<g id="Vector">
<use xlink:href="#path0_fill" transform="translate(10388.2 1557.08)"/>
<use xlink:href="#path1_stroke" transform="translate(10388.2 1557.08)" fill="#4E4E4E"/>
</g>
<g id="Vector">
<use xlink:href="#path2_fill" transform="translate(10307.4 1557)"/>
<use xlink:href="#path3_stroke" transform="translate(10307.4 1557)" fill="#4E4E4E"/>
</g>
<g id="Vector">
<use xlink:href="#path4_fill" transform="translate(10278 1557.08)"/>
<use xlink:href="#path5_stroke" transform="translate(10278 1557.08)" fill="#4E4E4E"/>
</g>
<g id="Vector">
<use xlink:href="#path6_fill" transform="translate(10506.8 1557.08)"/>
<use xlink:href="#path7_stroke" transform="translate(10506.8 1557.08)" fill="#4E4E4E"/>
</g>
<g id="Group">
<g id="Group">
<g id="Vector">
<use xlink:href="#path8_fill" transform="translate(10426.5 1557.16)"/>
<use xlink:href="#path9_stroke" transform="translate(10426.5 1557.16)" fill="#4E4E4E"/>
</g>
</g>
</g>
<g id="Vector">
<use xlink:href="#path10_fill" transform="translate(10449.2 1557.08)"/>
<use xlink:href="#path11_stroke" transform="translate(10449.2 1557.08)" fill="#4E4E4E"/>
</g>
<g id="Vector">
<use xlink:href="#path12_fill" transform="translate(10334.5 1557.08)"/>
<use xlink:href="#path13_stroke" transform="translate(10334.5 1557.08)" fill="#4E4E4E"/>
</g>
<g id="Vector">
<use xlink:href="#path14_fill" transform="translate(10361.2 1557.08)"/>
<use xlink:href="#path15_stroke" transform="translate(10361.2 1557.08)" fill="#4E4E4E"/>
</g>
<g id="Vector">
<use xlink:href="#path16_fill" transform="translate(10536 1557.08)"/>
<use xlink:href="#path17_stroke" transform="translate(10536 1557.08)" fill="#4E4E4E"/>
</g>
<g id="Vector">
<use xlink:href="#path18_fill" transform="translate(10475.3 1557.08)"/>
<use xlink:href="#path19_stroke" transform="translate(10475.3 1557.08)" fill="#4E4E4E"/>
</g>
</g>
</g>
<defs>
<path id="path0_fill" d="M 17.3327 1.1742e-09C 16.4459 1.1742e-09 15.7203 0.709193 15.7203 1.57599L 15.7203 31.8349L 3.14407 1.02439C 2.90222 0.393996 2.33789 1.1742e-09 1.61234 1.1742e-09C 0.725552 1.1742e-09 -2.46024e-06 0.709193 -2.46024e-06 1.57599L -2.46024e-06 40.1876C -2.46024e-06 41.0544 0.725552 41.7636 1.61234 41.7636C 2.49913 41.7636 3.22468 41.0544 3.22468 40.1876L 3.22468 10.0075L 15.801 40.818C 16.0428 41.3696 16.6071 41.7636 17.3327 41.7636C 18.2195 41.7636 18.945 41.0544 18.945 40.1876L 18.945 1.57599C 19.0256 0.709193 18.3001 1.1742e-09 17.3327 1.1742e-09Z"/>
<path id="path1_stroke" d="M 15.7203 31.8349L 15.4889 31.9294L 15.9703 31.8349L 15.7203 31.8349ZM 3.14407 1.02439L 2.91061 1.11396L 2.91261 1.11887L 3.14407 1.02439ZM 3.22468 10.0075L 3.45614 9.91303L 2.97468 10.0075L 3.22468 10.0075ZM 15.801 40.818L 15.5694 40.9125L 15.572 40.9184L 15.801 40.818ZM 18.945 1.57599L 18.6961 1.55283L 18.695 1.56438L 18.695 1.57599L 18.945 1.57599ZM 17.3327 -0.25C 16.3132 -0.25 15.4703 0.565778 15.4703 1.57599L 15.9703 1.57599C 15.9703 0.852609 16.5786 0.25 17.3327 0.25L 17.3327 -0.25ZM 15.4703 1.57599L 15.4703 31.8349L 15.9703 31.8349L 15.9703 1.57599L 15.4703 1.57599ZM 15.9518 31.7404L 3.37553 0.929913L 2.91261 1.11887L 15.4889 31.9294L 15.9518 31.7404ZM 3.37748 0.934842C 3.0975 0.205047 2.43844 -0.25 1.61234 -0.25L 1.61234 0.25C 2.23735 0.25 2.70694 0.582946 2.91066 1.11394L 3.37748 0.934842ZM 1.61234 -0.25C 0.592886 -0.25 -0.250002 0.565778 -0.250002 1.57599L 0.249998 1.57599C 0.249998 0.852609 0.858217 0.25 1.61234 0.25L 1.61234 -0.25ZM -0.250002 1.57599L -0.250002 40.1876L 0.249998 40.1876L 0.249998 1.57599L -0.250002 1.57599ZM -0.250002 40.1876C -0.250002 41.1978 0.592886 42.0136 1.61234 42.0136L 1.61234 41.5136C 0.858217 41.5136 0.249998 40.911 0.249998 40.1876L -0.250002 40.1876ZM 1.61234 42.0136C 2.63179 42.0136 3.47468 41.1978 3.47468 40.1876L 2.97468 40.1876C 2.97468 40.911 2.36646 41.5136 1.61234 41.5136L 1.61234 42.0136ZM 3.47468 40.1876L 3.47468 10.0075L 2.97468 10.0075L 2.97468 40.1876L 3.47468 40.1876ZM 2.99322 10.102L 15.5695 40.9125L 16.0324 40.7235L 3.45614 9.91303L 2.99322 10.102ZM 15.572 40.9184C 15.8553 41.5646 16.5119 42.0136 17.3327 42.0136L 17.3327 41.5136C 16.7023 41.5136 16.2303 41.1747 16.0299 40.7176L 15.572 40.9184ZM 17.3327 42.0136C 18.3521 42.0136 19.195 41.1978 19.195 40.1876L 18.695 40.1876C 18.695 40.911 18.0868 41.5136 17.3327 41.5136L 17.3327 42.0136ZM 19.195 40.1876L 19.195 1.57599L 18.695 1.57599L 18.695 40.1876L 19.195 40.1876ZM 19.1939 1.59914C 19.2908 0.55806 18.418 -0.25 17.3327 -0.25L 17.3327 0.25C 18.1822 0.25 18.7605 0.860326 18.6961 1.55283L 19.1939 1.59914Z"/>
<path id="path2_fill" d="M 11.6089 21.7486C 15.9622 20.1726 19.0256 16.075 19.0256 11.2683C 19.0256 5.04315 13.8661 0 7.57801 0L 0 0L 0 2.28518L 0 22.4578L 0 40.1876C 0 41.0544 0.725554 41.7636 1.61234 41.7636C 2.49913 41.7636 3.22469 41.0544 3.22469 40.1876L 3.22469 22.4578L 7.49739 22.4578C 7.73924 22.4578 8.06171 22.4578 8.30356 22.4578L 15.801 40.8968C 16.0428 41.5272 16.6877 41.9212 17.3327 41.9212C 17.5745 41.9212 17.7358 41.9212 17.9776 41.8424C 18.7838 41.5272 19.2675 40.5816 18.8644 39.7148L 11.6089 21.7486ZM 3.3053 19.227L 3.3053 3.23077L 7.57801 3.23077C 12.0926 3.23077 15.7203 6.77674 15.7203 11.1895C 15.7203 15.6023 12.012 19.227 7.49739 19.227L 3.3053 19.227Z"/>
<path id="path3_stroke" d="M 11.6089 21.7486L 11.5238 21.5135L 11.28 21.6018L 11.3771 21.8422L 11.6089 21.7486ZM 19.0256 11.2683L 18.7756 11.2683L 19.0256 11.2683ZM 0 0L 0 -0.25L -0.25 -0.25L -0.25 0L 0 0ZM 3.22469 22.4578L 3.22469 22.2078L 2.97469 22.2078L 2.97469 22.4578L 3.22469 22.4578ZM 8.30356 22.4578L 8.53515 22.3636L 8.47179 22.2078L 8.30356 22.2078L 8.30356 22.4578ZM 15.801 40.8968L 16.0344 40.8073L 16.0325 40.8027L 15.801 40.8968ZM 17.9776 41.8424L 18.0551 42.0801L 18.0619 42.0779L 18.0687 42.0752L 17.9776 41.8424ZM 18.8644 39.7148L 18.6323 39.8086L 18.6377 39.8202L 18.8644 39.7148ZM 3.3053 19.227L 3.0553 19.227L 3.0553 19.477L 3.3053 19.477L 3.3053 19.227ZM 3.3053 3.23077L 3.3053 2.98077L 3.0553 2.98077L 3.0553 3.23077L 3.3053 3.23077ZM 11.694 21.9837C 16.1418 20.3735 19.2756 16.185 19.2756 11.2683L 18.7756 11.2683C 18.7756 15.9651 15.7826 19.9718 11.5238 21.5135L 11.694 21.9837ZM 19.2756 11.2683C 19.2756 4.90087 14 -0.25 7.57801 -0.25L 7.57801 0.25C 13.7323 0.25 18.7756 5.18544 18.7756 11.2683L 19.2756 11.2683ZM 7.57801 -0.25L 0 -0.25L 0 0.25L 7.57801 0.25L 7.57801 -0.25ZM -0.25 0L -0.25 2.28518L 0.25 2.28518L 0.25 0L -0.25 0ZM -0.25 2.28518L -0.25 22.4578L 0.25 22.4578L 0.25 2.28518L -0.25 2.28518ZM -0.25 22.4578L -0.25 40.1876L 0.25 40.1876L 0.25 22.4578L -0.25 22.4578ZM -0.25 40.1876C -0.25 41.1978 0.592889 42.0136 1.61234 42.0136L 1.61234 41.5136C 0.858219 41.5136 0.25 40.911 0.25 40.1876L -0.25 40.1876ZM 1.61234 42.0136C 2.6318 42.0136 3.47469 41.1978 3.47469 40.1876L 2.97469 40.1876C 2.97469 40.911 2.36647 41.5136 1.61234 41.5136L 1.61234 42.0136ZM 3.47469 40.1876L 3.47469 22.4578L 2.97469 22.4578L 2.97469 40.1876L 3.47469 40.1876ZM 3.22469 22.7078L 7.49739 22.7078L 7.49739 22.2078L 3.22469 22.2078L 3.22469 22.7078ZM 7.49739 22.7078C 7.49786 22.7078 7.49834 22.7078 7.49881 22.7078C 7.49928 22.7078 7.49976 22.7078 7.50023 22.7078C 7.5007 22.7078 7.50118 22.7078 7.50165 22.7078C 7.50213 22.7078 7.5026 22.7078 7.50308 22.7078C 7.50355 22.7078 7.50403 22.7078 7.5045 22.7078C 7.50498 22.7078 7.50545 22.7078 7.50593 22.7078C 7.5064 22.7078 7.50688 22.7078 7.50736 22.7078C 7.50783 22.7078 7.50831 22.7078 7.50879 22.7078C 7.50926 22.7078 7.50974 22.7078 7.51022 22.7078C 7.5107 22.7078 7.51118 22.7078 7.51165 22.7078C 7.51213 22.7078 7.51261 22.7078 7.51309 22.7078C 7.51357 22.7078 7.51405 22.7078 7.51453 22.7078C 7.51501 22.7078 7.51549 22.7078 7.51597 22.7078C 7.51645 22.7078 7.51693 22.7078 7.51741 22.7078C 7.51789 22.7078 7.51837 22.7078 7.51885 22.7078C 7.51933 22.7078 7.51981 22.7078 7.5203 22.7078C 7.52078 22.7078 7.52126 22.7078 7.52174 22.7078C 7.52223 22.7078 7.52271 22.7078 7.52319 22.7078C 7.52367 22.7078 7.52416 22.7078 7.52464 22.7078C 7.52513 22.7078 7.52561 22.7078 7.52609 22.7078C 7.52658 22.7078 7.52706 22.7078 7.52755 22.7078C 7.52803 22.7078 7.52852 22.7078 7.529 22.7078C 7.52949 22.7078 7.52997 22.7078 7.53046 22.7078C 7.53094 22.7078 7.53143 22.7078 7.53192 22.7078C 7.5324 22.7078 7.53289 22.7078 7.53338 22.7078C 7.53386 22.7078 7.53435 22.7078 7.53484 22.7078C 7.53533 22.7078 7.53581 22.7078 7.5363 22.7078C 7.53679 22.7078 7.53728 22.7078 7.53777 22.7078C 7.53826 22.7078 7.53875 22.7078 7.53923 22.7078C 7.53972 22.7078 7.54021 22.7078 7.5407 22.7078C 7.54119 22.7078 7.54168 22.7078 7.54217 22.7078C 7.54266 22.7078 7.54315 22.7078 7.54364 22.7078C 7.54414 22.7078 7.54463 22.7078 7.54512 22.7078C 7.54561 22.7078 7.5461 22.7078 7.54659 22.7078C 7.54708 22.7078 7.54758 22.7078 7.54807 22.7078C 7.54856 22.7078 7.54905 22.7078 7.54955 22.7078C 7.55004 22.7078 7.55053 22.7078 7.55103 22.7078C 7.55152 22.7078 7.55201 22.7078 7.55251 22.7078C 7.553 22.7078 7.5535 22.7078 7.55399 22.7078C 7.55449 22.7078 7.55498 22.7078 7.55548 22.7078C 7.55597 22.7078 7.55647 22.7078 7.55696 22.7078C 7.55746 22.7078 7.55795 22.7078 7.55845 22.7078C 7.55894 22.7078 7.55944 22.7078 7.55994 22.7078C 7.56043 22.7078 7.56093 22.7078 7.56143 22.7078C 7.56193 22.7078 7.56242 22.7078 7.56292 22.7078C 7.56342 22.7078 7.56392 22.7078 7.56441 22.7078C 7.56491 22.7078 7.56541 22.7078 7.56591 22.7078C 7.56641 22.7078 7.56691 22.7078 7.56741 22.7078C 7.5679 22.7078 7.5684 22.7078 7.5689 22.7078C 7.5694 22.7078 7.5699 22.7078 7.5704 22.7078C 7.5709 22.7078 7.5714 22.7078 7.5719 22.7078C 7.57241 22.7078 7.57291 22.7078 7.57341 22.7078C 7.57391 22.7078 7.57441 22.7078 7.57491 22.7078C 7.57541 22.7078 7.57591 22.7078 7.57642 22.7078C 7.57692 22.7078 7.57742 22.7078 7.57792 22.7078C 7.57843 22.7078 7.57893 22.7078 7.57943 22.7078C 7.57994 22.7078 7.58044 22.7078 7.58094 22.7078C 7.58145 22.7078 7.58195 22.7078 7.58245 22.7078C 7.58296 22.7078 7.58346 22.7078 7.58397 22.7078C 7.58447 22.7078 7.58498 22.7078 7.58548 22.7078C 7.58598 22.7078 7.58649 22.7078 7.587 22.7078C 7.5875 22.7078 7.58801 22.7078 7.58851 22.7078C 7.58902 22.7078 7.58952 22.7078 7.59003 22.7078C 7.59054 22.7078 7.59104 22.7078 7.59155 22.7078C 7.59206 22.7078 7.59256 22.7078 7.59307 22.7078C 7.59358 22.7078 7.59409 22.7078 7.59459 22.7078C 7.5951 22.7078 7.59561 22.7078 7.59612 22.7078C 7.59663 22.7078 7.59713 22.7078 7.59764 22.7078C 7.59815 22.7078 7.59866 22.7078 7.59917 22.7078C 7.59968 22.7078 7.60019 22.7078 7.6007 22.7078C 7.60121 22.7078 7.60172 22.7078 7.60223 22.7078C 7.60274 22.7078 7.60325 22.7078 7.60376 22.7078C 7.60427 22.7078 7.60478 22.7078 7.60529 22.7078C 7.6058 22.7078 7.60631 22.7078 7.60682 22.7078C 7.60733 22.7078 7.60785 22.7078 7.60836 22.7078C 7.60887 22.7078 7.60938 22.7078 7.60989 22.7078C 7.61041 22.7078 7.61092 22.7078 7.61143 22.7078C 7.61194 22.7078 7.61246 22.7078 7.61297 22.7078C 7.61348 22.7078 7.614 22.7078 7.61451 22.7078C 7.61502 22.7078 7.61554 22.7078 7.61605 22.7078C 7.61656 22.7078 7.61708 22.7078 7.61759 22.7078C 7.61811 22.7078 7.61862 22.7078 7.61914 22.7078C 7.61965 22.7078 7.62016 22.7078 7.62068 22.7078C 7.6212 22.7078 7.62171 22.7078 7.62223 22.7078C 7.62274 22.7078 7.62326 22.7078 7.62377 22.7078C 7.62429 22.7078 7.62481 22.7078 7.62532 22.7078C 7.62584 22.7078 7.62636 22.7078 7.62687 22.7078C 7.62739 22.7078 7.62791 22.7078 7.62842 22.7078C 7.62894 22.7078 7.62946 22.7078 7.62997 22.7078C 7.63049 22.7078 7.63101 22.7078 7.63153 22.7078C 7.63205 22.7078 7.63256 22.7078 7.63308 22.7078C 7.6336 22.7078 7.63412 22.7078 7.63464 22.7078C 7.63516 22.7078 7.63568 22.7078 7.6362 22.7078C 7.63671 22.7078 7.63723 22.7078 7.63775 22.7078C 7.63827 22.7078 7.63879 22.7078 7.63931 22.7078C 7.63983 22.7078 7.64035 22.7078 7.64087 22.7078C 7.64139 22.7078 7.64191 22.7078 7.64244 22.7078C 7.64296 22.7078 7.64348 22.7078 7.644 22.7078C 7.64452 22.7078 7.64504 22.7078 7.64556 22.7078C 7.64608 22.7078 7.64661 22.7078 7.64713 22.7078C 7.64765 22.7078 7.64817 22.7078 7.64869 22.7078C 7.64922 22.7078 7.64974 22.7078 7.65026 22.7078C 7.65078 22.7078 7.65131 22.7078 7.65183 22.7078C 7.65235 22.7078 7.65287 22.7078 7.6534 22.7078C 7.65392 22.7078 7.65444 22.7078 7.65497 22.7078C 7.65549 22.7078 7.65602 22.7078 7.65654 22.7078C 7.65706 22.7078 7.65759 22.7078 7.65811 22.7078C 7.65864 22.7078 7.65916 22.7078 7.65969 22.7078C 7.66021 22.7078 7.66074 22.7078 7.66126 22.7078C 7.66179 22.7078 7.66231 22.7078 7.66284 22.7078C 7.66336 22.7078 7.66389 22.7078 7.66441 22.7078C 7.66494 22.7078 7.66547 22.7078 7.66599 22.7078C 7.66652 22.7078 7.66705 22.7078 7.66757 22.7078C 7.6681 22.7078 7.66862 22.7078 7.66915 22.7078C 7.66968 22.7078 7.67021 22.7078 7.67073 22.7078C 7.67126 22.7078 7.67179 22.7078 7.67232 22.7078C 7.67284 22.7078 7.67337 22.7078 7.6739 22.7078C 7.67443 22.7078 7.67495 22.7078 7.67548 22.7078C 7.67601 22.7078 7.67654 22.7078 7.67707 22.7078C 7.6776 22.7078 7.67812 22.7078 7.67865 22.7078C 7.67918 22.7078 7.67971 22.7078 7.68024 22.7078C 7.68077 22.7078 7.6813 22.7078 7.68183 22.7078C 7.68236 22.7078 7.68289 22.7078 7.68342 22.7078C 7.68395 22.7078 7.68448 22.7078 7.68501 22.7078C 7.68554 22.7078 7.68607 22.7078 7.6866 22.7078C 7.68713 22.7078 7.68766 22.7078 7.68819 22.7078C 7.68872 22.7078 7.68925 22.7078 7.68978 22.7078C 7.69031 22.7078 7.69085 22.7078 7.69138 22.7078C 7.69191 22.7078 7.69244 22.7078 7.69297 22.7078C 7.6935 22.7078 7.69404 22.7078 7.69457 22.7078C 7.6951 22.7078 7.69563 22.7078 7.69616 22.7078C 7.6967 22.7078 7.69723 22.7078 7.69776 22.7078C 7.69829 22.7078 7.69883 22.7078 7.69936 22.7078C 7.69989 22.7078 7.70043 22.7078 7.70096 22.7078C 7.70149 22.7078 7.70203 22.7078 7.70256 22.7078C 7.70309 22.7078 7.70363 22.7078 7.70416 22.7078C 7.70469 22.7078 7.70523 22.7078 7.70576 22.7078C 7.7063 22.7078 7.70683 22.7078 7.70736 22.7078C 7.7079 22.7078 7.70843 22.7078 7.70897 22.7078C 7.7095 22.7078 7.71004 22.7078 7.71057 22.7078C 7.71111 22.7078 7.71164 22.7078 7.71218 22.7078C 7.71271 22.7078 7.71325 22.7078 7.71378 22.7078C 7.71432 22.7078 7.71485 22.7078 7.71539 22.7078C 7.71593 22.7078 7.71646 22.7078 7.717 22.7078C 7.71753 22.7078 7.71807 22.7078 7.71861 22.7078C 7.71914 22.7078 7.71968 22.7078 7.72022 22.7078C 7.72075 22.7078 7.72129 22.7078 7.72183 22.7078C 7.72236 22.7078 7.7229 22.7078 7.72344 22.7078C 7.72397 22.7078 7.72451 22.7078 7.72505 22.7078C 7.72559 22.7078 7.72612 22.7078 7.72666 22.7078C 7.7272 22.7078 7.72774 22.7078 7.72827 22.7078C 7.72881 22.7078 7.72935 22.7078 7.72989 22.7078C 7.73043 22.7078 7.73096 22.7078 7.7315 22.7078C 7.73204 22.7078 7.73258 22.7078 7.73312 22.7078C 7.73366 22.7078 7.7342 22.7078 7.73473 22.7078C 7.73527 22.7078 7.73581 22.7078 7.73635 22.7078C 7.73689 22.7078 7.73743 22.7078 7.73797 22.7078C 7.73851 22.7078 7.73905 22.7078 7.73959 22.7078C 7.74013 22.7078 7.74067 22.7078 7.74121 22.7078C 7.74175 22.7078 7.74229 22.7078 7.74283 22.7078C 7.74337 22.7078 7.74391 22.7078 7.74445 22.7078C 7.74499 22.7078 7.74553 22.7078 7.74607 22.7078C 7.74661 22.7078 7.74715 22.7078 7.74769 22.7078C 7.74823 22.7078 7.74877 22.7078 7.74931 22.7078C 7.74985 22.7078 7.75039 22.7078 7.75093 22.7078C 7.75148 22.7078 7.75202 22.7078 7.75256 22.7078C 7.7531 22.7078 7.75364 22.7078 7.75418 22.7078C 7.75472 22.7078 7.75527 22.7078 7.75581 22.7078C 7.75635 22.7078 7.75689 22.7078 7.75743 22.7078C 7.75798 22.7078 7.75852 22.7078 7.75906 22.7078C 7.7596 22.7078 7.76014 22.7078 7.76069 22.7078C 7.76123 22.7078 7.76177 22.7078 7.76231 22.7078C 7.76286 22.7078 7.7634 22.7078 7.76394 22.7078C 7.76449 22.7078 7.76503 22.7078 7.76557 22.7078C 7.76611 22.7078 7.76666 22.7078 7.7672 22.7078C 7.76774 22.7078 7.76829 22.7078 7.76883 22.7078C 7.76937 22.7078 7.76992 22.7078 7.77046 22.7078C 7.771 22.7078 7.77155 22.7078 7.77209 22.7078C 7.77264 22.7078 7.77318 22.7078 7.77372 22.7078C 7.77427 22.7078 7.77481 22.7078 7.77536 22.7078C 7.7759 22.7078 7.77644 22.7078 7.77699 22.7078C 7.77753 22.7078 7.77808 22.7078 7.77862 22.7078C 7.77917 22.7078 7.77971 22.7078 7.78026 22.7078C 7.7808 22.7078 7.78135 22.7078 7.78189 22.7078C 7.78243 22.7078 7.78298 22.7078 7.78352 22.7078C 7.78407 22.7078 7.78462 22.7078 7.78516 22.7078C 7.78571 22.7078 7.78625 22.7078 7.7868 22.7078C 7.78734 22.7078 7.78789 22.7078 7.78843 22.7078C 7.78898 22.7078 7.78952 22.7078 7.79007 22.7078C 7.79062 22.7078 7.79116 22.7078 7.79171 22.7078C 7.79225 22.7078 7.7928 22.7078 7.79334 22.7078C 7.79389 22.7078 7.79444 22.7078 7.79498 22.7078C 7.79553 22.7078 7.79608 22.7078 7.79662 22.7078C 7.79717 22.7078 7.79771 22.7078 7.79826 22.7078C 7.79881 22.7078 7.79935 22.7078 7.7999 22.7078C 7.80045 22.7078 7.80099 22.7078 7.80154 22.7078C 7.80209 22.7078 7.80263 22.7078 7.80318 22.7078C 7.80373 22.7078 7.80428 22.7078 7.80482 22.7078C 7.80537 22.7078 7.80592 22.7078 7.80646 22.7078C 7.80701 22.7078 7.80756 22.7078 7.8081 22.7078C 7.80865 22.7078 7.8092 22.7078 7.80975 22.7078C 7.81029 22.7078 7.81084 22.7078 7.81139 22.7078C 7.81194 22.7078 7.81249 22.7078 7.81303 22.7078C 7.81358 22.7078 7.81413 22.7078 7.81468 22.7078C 7.81522 22.7078 7.81577 22.7078 7.81632 22.7078C 7.81687 22.7078 7.81742 22.7078 7.81796 22.7078C 7.81851 22.7078 7.81906 22.7078 7.81961 22.7078C 7.82016 22.7078 7.8207 22.7078 7.82125 22.7078C 7.8218 22.7078 7.82235 22.7078 7.8229 22.7078C 7.82345 22.7078 7.824 22.7078 7.82454 22.7078C 7.82509 22.7078 7.82564 22.7078 7.82619 22.7078C 7.82674 22.7078 7.82729 22.7078 7.82784 22.7078C 7.82838 22.7078 7.82893 22.7078 7.82948 22.7078C 7.83003 22.7078 7.83058 22.7078 7.83113 22.7078C 7.83168 22.7078 7.83223 22.7078 7.83278 22.7078C 7.83333 22.7078 7.83387 22.7078 7.83442 22.7078C 7.83497 22.7078 7.83552 22.7078 7.83607 22.7078C 7.83662 22.7078 7.83717 22.7078 7.83772 22.7078C 7.83827 22.7078 7.83882 22.7078 7.83937 22.7078C 7.83992 22.7078 7.84047 22.7078 7.84102 22.7078C 7.84157 22.7078 7.84211 22.7078 7.84266 22.7078C 7.84321 22.7078 7.84376 22.7078 7.84431 22.7078C 7.84486 22.7078 7.84541 22.7078 7.84596 22.7078C 7.84651 22.7078 7.84706 22.7078 7.84761 22.7078C 7.84816 22.7078 7.84871 22.7078 7.84926 22.7078C 7.84981 22.7078 7.85036 22.7078 7.85091 22.7078C 7.85146 22.7078 7.85201 22.7078 7.85256 22.7078C 7.85311 22.7078 7.85366 22.7078 7.85421 22.7078C 7.85476 22.7078 7.85531 22.7078 7.85586 22.7078C 7.85641 22.7078 7.85696 22.7078 7.85751 22.7078C 7.85806 22.7078 7.85861 22.7078 7.85916 22.7078C 7.85971 22.7078 7.86027 22.7078 7.86082 22.7078C 7.86137 22.7078 7.86192 22.7078 7.86247 22.7078C 7.86302 22.7078 7.86357 22.7078 7.86412 22.7078C 7.86467 22.7078 7.86522 22.7078 7.86577 22.7078C 7.86632 22.7078 7.86687 22.7078 7.86742 22.7078C 7.86797 22.7078 7.86852 22.7078 7.86907 22.7078C 7.86962 22.7078 7.87018 22.7078 7.87073 22.7078C 7.87128 22.7078 7.87183 22.7078 7.87238 22.7078C 7.87293 22.7078 7.87348 22.7078 7.87403 22.7078C 7.87458 22.7078 7.87513 22.7078 7.87568 22.7078C 7.87623 22.7078 7.87678 22.7078 7.87734 22.7078C 7.87789 22.7078 7.87844 22.7078 7.87899 22.7078C 7.87954 22.7078 7.88009 22.7078 7.88064 22.7078C 7.88119 22.7078 7.88174 22.7078 7.88229 22.7078C 7.88284 22.7078 7.8834 22.7078 7.88395 22.7078C 7.8845 22.7078 7.88505 22.7078 7.8856 22.7078C 7.88615 22.7078 7.8867 22.7078 7.88725 22.7078C 7.8878 22.7078 7.88835 22.7078 7.88891 22.7078C 7.88946 22.7078 7.89001 22.7078 7.89056 22.7078C 7.89111 22.7078 7.89166 22.7078 7.89221 22.7078C 7.89276 22.7078 7.89331 22.7078 7.89386 22.7078C 7.89442 22.7078 7.89497 22.7078 7.89552 22.7078C 7.89607 22.7078 7.89662 22.7078 7.89717 22.7078C 7.89772 22.7078 7.89827 22.7078 7.89882 22.7078C 7.89938 22.7078 7.89993 22.7078 7.90048 22.7078C 7.90103 22.7078 7.90158 22.7078 7.90213 22.7078C 7.90268 22.7078 7.90323 22.7078 7.90378 22.7078C 7.90434 22.7078 7.90489 22.7078 7.90544 22.7078C 7.90599 22.7078 7.90654 22.7078 7.90709 22.7078C 7.90764 22.7078 7.90819 22.7078 7.90874 22.7078C 7.9093 22.7078 7.90985 22.7078 7.9104 22.7078C 7.91095 22.7078 7.9115 22.7078 7.91205 22.7078C 7.9126 22.7078 7.91315 22.7078 7.9137 22.7078C 7.91425 22.7078 7.91481 22.7078 7.91536 22.7078C 7.91591 22.7078 7.91646 22.7078 7.91701 22.7078C 7.91756 22.7078 7.91811 22.7078 7.91866 22.7078C 7.91921 22.7078 7.91976 22.7078 7.92032 22.7078C 7.92087 22.7078 7.92142 22.7078 7.92197 22.7078C 7.92252 22.7078 7.92307 22.7078 7.92362 22.7078C 7.92417 22.7078 7.92472 22.7078 7.92527 22.7078C 7.92582 22.7078 7.92637 22.7078 7.92693 22.7078C 7.92748 22.7078 7.92803 22.7078 7.92858 22.7078C 7.92913 22.7078 7.92968 22.7078 7.93023 22.7078C 7.93078 22.7078 7.93133 22.7078 7.93188 22.7078C 7.93243 22.7078 7.93298 22.7078 7.93353 22.7078C 7.93408 22.7078 7.93464 22.7078 7.93519 22.7078C 7.93574 22.7078 7.93629 22.7078 7.93684 22.7078C 7.93739 22.7078 7.93794 22.7078 7.93849 22.7078C 7.93904 22.7078 7.93959 22.7078 7.94014 22.7078C 7.94069 22.7078 7.94124 22.7078 7.94179 22.7078C 7.94234 22.7078 7.94289 22.7078 7.94344 22.7078C 7.94399 22.7078 7.94454 22.7078 7.94509 22.7078C 7.94564 22.7078 7.94619 22.7078 7.94674 22.7078C 7.94729 22.7078 7.94784 22.7078 7.94839 22.7078C 7.94894 22.7078 7.94949 22.7078 7.95004 22.7078C 7.95059 22.7078 7.95114 22.7078 7.95169 22.7078C 7.95224 22.7078 7.95279 22.7078 7.95334 22.7078C 7.95389 22.7078 7.95444 22.7078 7.95499 22.7078C 7.95554 22.7078 7.95609 22.7078 7.95664 22.7078C 7.95719 22.7078 7.95774 22.7078 7.95829 22.7078C 7.95884 22.7078 7.95939 22.7078 7.95994 22.7078C 7.96049 22.7078 7.96104 22.7078 7.96159 22.7078C 7.96214 22.7078 7.96269 22.7078 7.96324 22.7078C 7.96379 22.7078 7.96434 22.7078 7.96488 22.7078C 7.96543 22.7078 7.96598 22.7078 7.96653 22.7078C 7.96708 22.7078 7.96763 22.7078 7.96818 22.7078C 7.96873 22.7078 7.96928 22.7078 7.96983 22.7078C 7.97038 22.7078 7.97092 22.7078 7.97147 22.7078C 7.97202 22.7078 7.97257 22.7078 7.97312 22.7078C 7.97367 22.7078 7.97422 22.7078 7.97477 22.7078C 7.97531 22.7078 7.97586 22.7078 7.97641 22.7078C 7.97696 22.7078 7.97751 22.7078 7.97806 22.7078C 7.97861 22.7078 7.97915 22.7078 7.9797 22.7078C 7.98025 22.7078 7.9808 22.7078 7.98135 22.7078C 7.9819 22.7078 7.98244 22.7078 7.98299 22.7078C 7.98354 22.7078 7.98409 22.7078 7.98464 22.7078C 7.98518 22.7078 7.98573 22.7078 7.98628 22.7078C 7.98683 22.7078 7.98738 22.7078 7.98792 22.7078C 7.98847 22.7078 7.98902 22.7078 7.98957 22.7078C 7.99011 22.7078 7.99066 22.7078 7.99121 22.7078C 7.99176 22.7078 7.9923 22.7078 7.99285 22.7078C 7.9934 22.7078 7.99395 22.7078 7.99449 22.7078C 7.99504 22.7078 7.99559 22.7078 7.99613 22.7078C 7.99668 22.7078 7.99723 22.7078 7.99777 22.7078C 7.99832 22.7078 7.99887 22.7078 7.99942 22.7078C 7.99996 22.7078 8.00051 22.7078 8.00106 22.7078C 8.0016 22.7078 8.00215 22.7078 8.0027 22.7078C 8.00324 22.7078 8.00379 22.7078 8.00433 22.7078C 8.00488 22.7078 8.00543 22.7078 8.00597 22.7078C 8.00652 22.7078 8.00706 22.7078 8.00761 22.7078C 8.00816 22.7078 8.0087 22.7078 8.00925 22.7078C 8.0098 22.7078 8.01034 22.7078 8.01089 22.7078C 8.01143 22.7078 8.01198 22.7078 8.01252 22.7078C 8.01307 22.7078 8.01361 22.7078 8.01416 22.7078C 8.0147 22.7078 8.01525 22.7078 8.0158 22.7078C 8.01634 22.7078 8.01689 22.7078 8.01743 22.7078C 8.01798 22.7078 8.01852 22.7078 8.01907 22.7078C 8.01961 22.7078 8.02015 22.7078 8.0207 22.7078C 8.02125 22.7078 8.02179 22.7078 8.02233 22.7078C 8.02288 22.7078 8.02342 22.7078 8.02397 22.7078C 8.02451 22.7078 8.02506 22.7078 8.0256 22.7078C 8.02614 22.7078 8.02669 22.7078 8.02723 22.7078C 8.02778 22.7078 8.02832 22.7078 8.02886 22.7078C 8.02941 22.7078 8.02995 22.7078 8.03049 22.7078C 8.03104 22.7078 8.03158 22.7078 8.03213 22.7078C 8.03267 22.7078 8.03321 22.7078 8.03376 22.7078C 8.0343 22.7078 8.03484 22.7078 8.03538 22.7078C 8.03593 22.7078 8.03647 22.7078 8.03701 22.7078C 8.03756 22.7078 8.0381 22.7078 8.03864 22.7078C 8.03918 22.7078 8.03973 22.7078 8.04027 22.7078C 8.04081 22.7078 8.04135 22.7078 8.0419 22.7078C 8.04244 22.7078 8.04298 22.7078 8.04352 22.7078C 8.04406 22.7078 8.04461 22.7078 8.04515 22.7078C 8.04569 22.7078 8.04623 22.7078 8.04677 22.7078C 8.04731 22.7078 8.04786 22.7078 8.0484 22.7078C 8.04894 22.7078 8.04948 22.7078 8.05002 22.7078C 8.05056 22.7078 8.0511 22.7078 8.05164 22.7078C 8.05219 22.7078 8.05273 22.7078 8.05327 22.7078C 8.05381 22.7078 8.05435 22.7078 8.05489 22.7078C 8.05543 22.7078 8.05597 22.7078 8.05651 22.7078C 8.05705 22.7078 8.05759 22.7078 8.05813 22.7078C 8.05867 22.7078 8.05921 22.7078 8.05975 22.7078C 8.06029 22.7078 8.06083 22.7078 8.06137 22.7078C 8.06191 22.7078 8.06245 22.7078 8.06299 22.7078C 8.06353 22.7078 8.06407 22.7078 8.0646 22.7078C 8.06514 22.7078 8.06568 22.7078 8.06622 22.7078C 8.06676 22.7078 8.0673 22.7078 8.06784 22.7078C 8.06838 22.7078 8.06891 22.7078 8.06945 22.7078C 8.06999 22.7078 8.07053 22.7078 8.07107 22.7078C 8.07161 22.7078 8.07214 22.7078 8.07268 22.7078C 8.07322 22.7078 8.07376 22.7078 8.0743 22.7078C 8.07483 22.7078 8.07537 22.7078 8.07591 22.7078C 8.07644 22.7078 8.07698 22.7078 8.07752 22.7078C 8.07806 22.7078 8.07859 22.7078 8.07913 22.7078C 8.07967 22.7078 8.0802 22.7078 8.08074 22.7078C 8.08128 22.7078 8.08181 22.7078 8.08235 22.7078C 8.08289 22.7078 8.08342 22.7078 8.08396 22.7078C 8.08449 22.7078 8.08503 22.7078 8.08557 22.7078C 8.0861 22.7078 8.08664 22.7078 8.08717 22.7078C 8.08771 22.7078 8.08824 22.7078 8.08878 22.7078C 8.08931 22.7078 8.08985 22.7078 8.09038 22.7078C 8.09092 22.7078 8.09145 22.7078 8.09199 22.7078C 8.09252 22.7078 8.09306 22.7078 8.09359 22.7078C 8.09413 22.7078 8.09466 22.7078 8.09519 22.7078C 8.09573 22.7078 8.09626 22.7078 8.0968 22.7078C 8.09733 22.7078 8.09786 22.7078 8.0984 22.7078C 8.09893 22.7078 8.09946 22.7078 8.1 22.7078C 8.10053 22.7078 8.10106 22.7078 8.1016 22.7078C 8.10213 22.7078 8.10266 22.7078 8.10319 22.7078C 8.10373 22.7078 8.10426 22.7078 8.10479 22.7078C 8.10532 22.7078 8.10586 22.7078 8.10639 22.7078C 8.10692 22.7078 8.10745 22.7078 8.10798 22.7078C 8.10852 22.7078 8.10905 22.7078 8.10958 22.7078C 8.11011 22.7078 8.11064 22.7078 8.11117 22.7078C 8.1117 22.7078 8.11223 22.7078 8.11277 22.7078C 8.1133 22.7078 8.11383 22.7078 8.11436 22.7078C 8.11489 22.7078 8.11542 22.7078 8.11595 22.7078C 8.11648 22.7078 8.11701 22.7078 8.11754 22.7078C 8.11807 22.7078 8.1186 22.7078 8.11913 22.7078C 8.11966 22.7078 8.12019 22.7078 8.12072 22.7078C 8.12124 22.7078 8.12177 22.7078 8.1223 22.7078C 8.12283 22.7078 8.12336 22.7078 8.12389 22.7078C 8.12442 22.7078 8.12495 22.7078 8.12547 22.7078C 8.126 22.7078 8.12653 22.7078 8.12706 22.7078C 8.12759 22.7078 8.12811 22.7078 8.12864 22.7078C 8.12917 22.7078 8.1297 22.7078 8.13022 22.7078C 8.13075 22.7078 8.13128 22.7078 8.1318 22.7078C 8.13233 22.7078 8.13286 22.7078 8.13338 22.7078C 8.13391 22.7078 8.13444 22.7078 8.13496 22.7078C 8.13549 22.7078 8.13602 22.7078 8.13654 22.7078C 8.13707 22.7078 8.13759 22.7078 8.13812 22.7078C 8.13864 22.7078 8.13917 22.7078 8.13969 22.7078C 8.14022 22.7078 8.14074 22.7078 8.14127 22.7078C 8.14179 22.7078 8.14232 22.7078 8.14284 22.7078C 8.14337 22.7078 8.14389 22.7078 8.14442 22.7078C 8.14494 22.7078 8.14546 22.7078 8.14599 22.7078C 8.14651 22.7078 8.14703 22.7078 8.14756 22.7078C 8.14808 22.7078 8.1486 22.7078 8.14913 22.7078C 8.14965 22.7078 8.15017 22.7078 8.1507 22.7078C 8.15122 22.7078 8.15174 22.7078 8.15226 22.7078C 8.15279 22.7078 8.15331 22.7078 8.15383 22.7078C 8.15435 22.7078 8.15487 22.7078 8.15539 22.7078C 8.15592 22.7078 8.15644 22.7078 8.15696 22.7078C 8.15748 22.7078 8.158 22.7078 8.15852 22.7078C 8.15904 22.7078 8.15956 22.7078 8.16008 22.7078C 8.1606 22.7078 8.16112 22.7078 8.16164 22.7078C 8.16216 22.7078 8.16268 22.7078 8.1632 22.7078C 8.16372 22.7078 8.16424 22.7078 8.16476 22.7078C 8.16528 22.7078 8.1658 22.7078 8.16632 22.7078C 8.16684 22.7078 8.16735 22.7078 8.16787 22.7078C 8.16839 22.7078 8.16891 22.7078 8.16943 22.7078C 8.16995 22.7078 8.17046 22.7078 8.17098 22.7078C 8.1715 22.7078 8.17202 22.7078 8.17253 22.7078C 8.17305 22.7078 8.17357 22.7078 8.17408 22.7078C 8.1746 22.7078 8.17512 22.7078 8.17563 22.7078C 8.17615 22.7078 8.17667 22.7078 8.17718 22.7078C 8.1777 22.7078 8.17821 22.7078 8.17873 22.7078C 8.17924 22.7078 8.17976 22.7078 8.18028 22.7078C 8.18079 22.7078 8.18131 22.7078 8.18182 22.7078C 8.18233 22.7078 8.18285 22.7078 8.18336 22.7078C 8.18388 22.7078 8.18439 22.7078 8.18491 22.7078C 8.18542 22.7078 8.18593 22.7078 8.18645 22.7078C 8.18696 22.7078 8.18747 22.7078 8.18799 22.7078C 8.1885 22.7078 8.18901 22.7078 8.18953 22.7078C 8.19004 22.7078 8.19055 22.7078 8.19106 22.7078C 8.19158 22.7078 8.19209 22.7078 8.1926 22.7078C 8.19311 22.7078 8.19362 22.7078 8.19413 22.7078C 8.19464 22.7078 8.19516 22.7078 8.19567 22.7078C 8.19618 22.7078 8.19669 22.7078 8.1972 22.7078C 8.19771 22.7078 8.19822 22.7078 8.19873 22.7078C 8.19924 22.7078 8.19975 22.7078 8.20026 22.7078C 8.20077 22.7078 8.20128 22.7078 8.20179 22.7078C 8.2023 22.7078 8.2028 22.7078 8.20331 22.7078C 8.20382 22.7078 8.20433 22.7078 8.20484 22.7078C 8.20535 22.7078 8.20585 22.7078 8.20636 22.7078C 8.20687 22.7078 8.20738 22.7078 8.20788 22.7078C 8.20839 22.7078 8.2089 22.7078 8.2094 22.7078C 8.20991 22.7078 8.21042 22.7078 8.21093 22.7078C 8.21143 22.7078 8.21194 22.7078 8.21244 22.7078C 8.21295 22.7078 8.21346 22.7078 8.21396 22.7078C 8.21447 22.7078 8.21497 22.7078 8.21548 22.7078C 8.21598 22.7078 8.21649 22.7078 8.21699 22.7078C 8.21749 22.7078 8.218 22.7078 8.2185 22.7078C 8.21901 22.7078 8.21951 22.7078 8.22001 22.7078C 8.22052 22.7078 8.22102 22.7078 8.22152 22.7078C 8.22203 22.7078 8.22253 22.7078 8.22303 22.7078C 8.22353 22.7078 8.22404 22.7078 8.22454 22.7078C 8.22504 22.7078 8.22554 22.7078 8.22604 22.7078C 8.22655 22.7078 8.22705 22.7078 8.22755 22.7078C 8.22805 22.7078 8.22855 22.7078 8.22905 22.7078C 8.22955 22.7078 8.23005 22.7078 8.23055 22.7078C 8.23105 22.7078 8.23155 22.7078 8.23205 22.7078C 8.23255 22.7078 8.23305 22.7078 8.23355 22.7078C 8.23405 22.7078 8.23455 22.7078 8.23505 22.7078C 8.23555 22.7078 8.23604 22.7078 8.23654 22.7078C 8.23704 22.7078 8.23754 22.7078 8.23804 22.7078C 8.23853 22.7078 8.23903 22.7078 8.23953 22.7078C 8.24002 22.7078 8.24052 22.7078 8.24102 22.7078C 8.24151 22.7078 8.24201 22.7078 8.24251 22.7078C 8.243 22.7078 8.2435 22.7078 8.24399 22.7078C 8.24449 22.7078 8.24499 22.7078 8.24548 22.7078C 8.24598 22.7078 8.24647 22.7078 8.24696 22.7078C 8.24746 22.7078 8.24795 22.7078 8.24845 22.7078C 8.24894 22.7078 8.24944 22.7078 8.24993 22.7078C 8.25042 22.7078 8.25092 22.7078 8.25141 22.7078C 8.2519 22.7078 8.25239 22.7078 8.25289 22.7078C 8.25338 22.7078 8.25387 22.7078 8.25436 22.7078C 8.25486 22.7078 8.25535 22.7078 8.25584 22.7078C 8.25633 22.7078 8.25682 22.7078 8.25731 22.7078C 8.2578 22.7078 8.25829 22.7078 8.25878 22.7078C 8.25927 22.7078 8.25976 22.7078 8.26025 22.7078C 8.26074 22.7078 8.26123 22.7078 8.26172 22.7078C 8.26221 22.7078 8.2627 22.7078 8.26319 22.7078C 8.26368 22.7078 8.26416 22.7078 8.26465 22.7078C 8.26514 22.7078 8.26563 22.7078 8.26612 22.7078C 8.2666 22.7078 8.26709 22.7078 8.26758 22.7078C 8.26807 22.7078 8.26855 22.7078 8.26904 22.7078C 8.26952 22.7078 8.27001 22.7078 8.2705 22.7078C 8.27098 22.7078 8.27147 22.7078 8.27195 22.7078C 8.27244 22.7078 8.27292 22.7078 8.27341 22.7078C 8.27389 22.7078 8.27438 22.7078 8.27486 22.7078C 8.27535 22.7078 8.27583 22.7078 8.27631 22.7078C 8.2768 22.7078 8.27728 22.7078 8.27776 22.7078C 8.27825 22.7078 8.27873 22.7078 8.27921 22.7078C 8.27969 22.7078 8.28018 22.7078 8.28066 22.7078C 8.28114 22.7078 8.28162 22.7078 8.2821 22.7078C 8.28259 22.7078 8.28307 22.7078 8.28355 22.7078C 8.28403 22.7078 8.28451 22.7078 8.28499 22.7078C 8.28547 22.7078 8.28595 22.7078 8.28643 22.7078C 8.28691 22.7078 8.28739 22.7078 8.28787 22.7078C 8.28834 22.7078 8.28882 22.7078 8.2893 22.7078C 8.28978 22.7078 8.29026 22.7078 8.29074 22.7078C 8.29121 22.7078 8.29169 22.7078 8.29217 22.7078C 8.29265 22.7078 8.29312 22.7078 8.2936 22.7078C 8.29408 22.7078 8.29455 22.7078 8.29503 22.7078C 8.2955 22.7078 8.29598 22.7078 8.29646 22.7078C 8.29693 22.7078 8.29741 22.7078 8.29788 22.7078C 8.29836 22.7078 8.29883 22.7078 8.2993 22.7078C 8.29978 22.7078 8.30025 22.7078 8.30073 22.7078C 8.3012 22.7078 8.30167 22.7078 8.30215 22.7078C 8.30262 22.7078 8.30309 22.7078 8.30356 22.7078L 8.30356 22.2078C 8.30309 22.2078 8.30262 22.2078 8.30215 22.2078C 8.30167 22.2078 8.3012 22.2078 8.30073 22.2078C 8.30025 22.2078 8.29978 22.2078 8.2993 22.2078C 8.29883 22.2078 8.29836 22.2078 8.29788 22.2078C 8.29741 22.2078 8.29693 22.2078 8.29646 22.2078C 8.29598 22.2078 8.2955 22.2078 8.29503 22.2078C 8.29455 22.2078 8.29408 22.2078 8.2936 22.2078C 8.29312 22.2078 8.29265 22.2078 8.29217 22.2078C 8.29169 22.2078 8.29121 22.2078 8.29074 22.2078C 8.29026 22.2078 8.28978 22.2078 8.2893 22.2078C 8.28882 22.2078 8.28834 22.2078 8.28787 22.2078C 8.28739 22.2078 8.28691 22.2078 8.28643 22.2078C 8.28595 22.2078 8.28547 22.2078 8.28499 22.2078C 8.28451 22.2078 8.28403 22.2078 8.28355 22.2078C 8.28307 22.2078 8.28259 22.2078 8.2821 22.2078C 8.28162 22.2078 8.28114 22.2078 8.28066 22.2078C 8.28018 22.2078 8.27969 22.2078 8.27921 22.2078C 8.27873 22.2078 8.27825 22.2078 8.27776 22.2078C 8.27728 22.2078 8.2768 22.2078 8.27631 22.2078C 8.27583 22.2078 8.27535 22.2078 8.27486 22.2078C 8.27438 22.2078 8.27389 22.2078 8.27341 22.2078C 8.27292 22.2078 8.27244 22.2078 8.27195 22.2078C 8.27147 22.2078 8.27098 22.2078 8.2705 22.2078C 8.27001 22.2078 8.26952 22.2078 8.26904 22.2078C 8.26855 22.2078 8.26807 22.2078 8.26758 22.2078C 8.26709 22.2078 8.2666 22.2078 8.26612 22.2078C 8.26563 22.2078 8.26514 22.2078 8.26465 22.2078C 8.26416 22.2078 8.26368 22.2078 8.26319 22.2078C 8.2627 22.2078 8.26221 22.2078 8.26172 22.2078C 8.26123 22.2078 8.26074 22.2078 8.26025 22.2078C 8.25976 22.2078 8.25927 22.2078 8.25878 22.2078C 8.25829 22.2078 8.2578 22.2078 8.25731 22.2078C 8.25682 22.2078 8.25633 22.2078 8.25584 22.2078C 8.25535 22.2078 8.25486 22.2078 8.25436 22.2078C 8.25387 22.2078 8.25338 22.2078 8.25289 22.2078C 8.25239 22.2078 8.2519 22.2078 8.25141 22.2078C 8.25092 22.2078 8.25042 22.2078 8.24993 22.2078C 8.24944 22.2078 8.24894 22.2078 8.24845 22.2078C 8.24795 22.2078 8.24746 22.2078 8.24696 22.2078C 8.24647 22.2078 8.24598 22.2078 8.24548 22.2078C 8.24499 22.2078 8.24449 22.2078 8.24399 22.2078C 8.2435 22.2078 8.243 22.2078 8.24251 22.2078C 8.24201 22.2078 8.24151 22.2078 8.24102 22.2078C 8.24052 22.2078 8.24002 22.2078 8.23953 22.2078C 8.23903 22.2078 8.23853 22.2078 8.23804 22.2078C 8.23754 22.2078 8.23704 22.2078 8.23654 22.2078C 8.23604 22.2078 8.23555 22.2078 8.23505 22.2078C 8.23455 22.2078 8.23405 22.2078 8.23355 22.2078C 8.23305 22.2078 8.23255 22.2078 8.23205 22.2078C 8.23155 22.2078 8.23105 22.2078 8.23055 22.2078C 8.23005 22.2078 8.22955 22.2078 8.22905 22.2078C 8.22855 22.2078 8.22805 22.2078 8.22755 22.2078C 8.22705 22.2078 8.22655 22.2078 8.22604 22.2078C 8.22554 22.2078 8.22504 22.2078 8.22454 22.2078C 8.22404 22.2078 8.22353 22.2078 8.22303 22.2078C 8.22253 22.2078 8.22203 22.2078 8.22152 22.2078C 8.22102 22.2078 8.22052 22.2078 8.22001 22.2078C 8.21951 22.2078 8.21901 22.2078 8.2185 22.2078C 8.218 22.2078 8.21749 22.2078 8.21699 22.2078C 8.21649 22.2078 8.21598 22.2078 8.21548 22.2078C 8.21497 22.2078 8.21447 22.2078 8.21396 22.2078C 8.21346 22.2078 8.21295 22.2078 8.21244 22.2078C 8.21194 22.2078 8.21143 22.2078 8.21093 22.2078C 8.21042 22.2078 8.20991 22.2078 8.2094 22.2078C 8.2089 22.2078 8.20839 22.2078 8.20788 22.2078C 8.20738 22.2078 8.20687 22.2078 8.20636 22.2078C 8.20585 22.2078 8.20535 22.2078 8.20484 22.2078C 8.20433 22.2078 8.20382 22.2078 8.20331 22.2078C 8.2028 22.2078 8.2023 22.2078 8.20179 22.2078C 8.20128 22.2078 8.20077 22.2078 8.20026 22.2078C 8.19975 22.2078 8.19924 22.2078 8.19873 22.2078C 8.19822 22.2078 8.19771 22.2078 8.1972 22.2078C 8.19669 22.2078 8.19618 22.2078 8.19567 22.2078C 8.19516 22.2078 8.19464 22.2078 8.19413 22.2078C 8.19362 22.2078 8.19311 22.2078 8.1926 22.2078C 8.19209 22.2078 8.19158 22.2078 8.19106 22.2078C 8.19055 22.2078 8.19004 22.2078 8.18953 22.2078C 8.18901 22.2078 8.1885 22.2078 8.18799 22.2078C 8.18747 22.2078 8.18696 22.2078 8.18645 22.2078C 8.18593 22.2078 8.18542 22.2078 8.18491 22.2078C 8.18439 22.2078 8.18388 22.2078 8.18336 22.2078C 8.18285 22.2078 8.18233 22.2078 8.18182 22.2078C 8.18131 22.2078 8.18079 22.2078 8.18028 22.2078C 8.17976 22.2078 8.17924 22.2078 8.17873 22.2078C 8.17821 22.2078 8.1777 22.2078 8.17718 22.2078C 8.17667 22.2078 8.17615 22.2078 8.17563 22.2078C 8.17512 22.2078 8.1746 22.2078 8.17408 22.2078C 8.17357 22.2078 8.17305 22.2078 8.17253 22.2078C 8.17202 22.2078 8.1715 22.2078 8.17098 22.2078C 8.17046 22.2078 8.16995 22.2078 8.16943 22.2078C 8.16891 22.2078 8.16839 22.2078 8.16787 22.2078C 8.16735 22.2078 8.16684 22.2078 8.16632 22.2078C 8.1658 22.2078 8.16528 22.2078 8.16476 22.2078C 8.16424 22.2078 8.16372 22.2078 8.1632 22.2078C 8.16268 22.2078 8.16216 22.2078 8.16164 22.2078C 8.16112 22.2078 8.1606 22.2078 8.16008 22.2078C 8.15956 22.2078 8.15904 22.2078 8.15852 22.2078C 8.158 22.2078 8.15748 22.2078 8.15696 22.2078C 8.15644 22.2078 8.15592 22.2078 8.15539 22.2078C 8.15487 22.2078 8.15435 22.2078 8.15383 22.2078C 8.15331 22.2078 8.15279 22.2078 8.15226 22.2078C 8.15174 22.2078 8.15122 22.2078 8.1507 22.2078C 8.15017 22.2078 8.14965 22.2078 8.14913 22.2078C 8.1486 22.2078 8.14808 22.2078 8.14756 22.2078C 8.14703 22.2078 8.14651 22.2078 8.14599 22.2078C 8.14546 22.2078 8.14494 22.2078 8.14442 22.2078C 8.14389 22.2078 8.14337 22.2078 8.14284 22.2078C 8.14232 22.2078 8.14179 22.2078 8.14127 22.2078C 8.14074 22.2078 8.14022 22.2078 8.13969 22.2078C 8.13917 22.2078 8.13864 22.2078 8.13812 22.2078C 8.13759 22.2078 8.13707 22.2078 8.13654 22.2078C 8.13602 22.2078 8.13549 22.2078 8.13496 22.2078C 8.13444 22.2078 8.13391 22.2078 8.13338 22.2078C 8.13286 22.2078 8.13233 22.2078 8.1318 22.2078C 8.13128 22.2078 8.13075 22.2078 8.13022 22.2078C 8.1297 22.2078 8.12917 22.2078 8.12864 22.2078C 8.12811 22.2078 8.12759 22.2078 8.12706 22.2078C 8.12653 22.2078 8.126 22.2078 8.12547 22.2078C 8.12495 22.2078 8.12442 22.2078 8.12389 22.2078C 8.12336 22.2078 8.12283 22.2078 8.1223 22.2078C 8.12177 22.2078 8.12124 22.2078 8.12072 22.2078C 8.12019 22.2078 8.11966 22.2078 8.11913 22.2078C 8.1186 22.2078 8.11807 22.2078 8.11754 22.2078C 8.11701 22.2078 8.11648 22.2078 8.11595 22.2078C 8.11542 22.2078 8.11489 22.2078 8.11436 22.2078C 8.11383 22.2078 8.1133 22.2078 8.11277 22.2078C 8.11223 22.2078 8.1117 22.2078 8.11117 22.2078C 8.11064 22.2078 8.11011 22.2078 8.10958 22.2078C 8.10905 22.2078 8.10852 22.2078 8.10798 22.2078C 8.10745 22.2078 8.10692 22.2078 8.10639 22.2078C 8.10586 22.2078 8.10532 22.2078 8.10479 22.2078C 8.10426 22.2078 8.10373 22.2078 8.10319 22.2078C 8.10266 22.2078 8.10213 22.2078 8.1016 22.2078C 8.10106 22.2078 8.10053 22.2078 8.1 22.2078C 8.09946 22.2078 8.09893 22.2078 8.0984 22.2078C 8.09786 22.2078 8.09733 22.2078 8.0968 22.2078C 8.09626 22.2078 8.09573 22.2078 8.09519 22.2078C 8.09466 22.2078 8.09413 22.2078 8.09359 22.2078C 8.09306 22.2078 8.09252 22.2078 8.09199 22.2078C 8.09145 22.2078 8.09092 22.2078 8.09038 22.2078C 8.08985 22.2078 8.08931 22.2078 8.08878 22.2078C 8.08824 22.2078 8.08771 22.2078 8.08717 22.2078C 8.08664 22.2078 8.0861 22.2078 8.08557 22.2078C 8.08503 22.2078 8.08449 22.2078 8.08396 22.2078C 8.08342 22.2078 8.08289 22.2078 8.08235 22.2078C 8.08181 22.2078 8.08128 22.2078 8.08074 22.2078C 8.0802 22.2078 8.07967 22.2078 8.07913 22.2078C 8.07859 22.2078 8.07806 22.2078 8.07752 22.2078C 8.07698 22.2078 8.07644 22.2078 8.07591 22.2078C 8.07537 22.2078 8.07483 22.2078 8.0743 22.2078C 8.07376 22.2078 8.07322 22.2078 8.07268 22.2078C 8.07214 22.2078 8.07161 22.2078 8.07107 22.2078C 8.07053 22.2078 8.06999 22.2078 8.06945 22.2078C 8.06891 22.2078 8.06838 22.2078 8.06784 22.2078C 8.0673 22.2078 8.06676 22.2078 8.06622 22.2078C 8.06568 22.2078 8.06514 22.2078 8.0646 22.2078C 8.06407 22.2078 8.06353 22.2078 8.06299 22.2078C 8.06245 22.2078 8.06191 22.2078 8.06137 22.2078C 8.06083 22.2078 8.06029 22.2078 8.05975 22.2078C 8.05921 22.2078 8.05867 22.2078 8.05813 22.2078C 8.05759 22.2078 8.05705 22.2078 8.05651 22.2078C 8.05597 22.2078 8.05543 22.2078 8.05489 22.2078C 8.05435 22.2078 8.05381 22.2078 8.05327 22.2078C 8.05273 22.2078 8.05219 22.2078 8.05164 22.2078C 8.0511 22.2078 8.05056 22.2078 8.05002 22.2078C 8.04948 22.2078 8.04894 22.2078 8.0484 22.2078C 8.04786 22.2078 8.04731 22.2078 8.04677 22.2078C 8.04623 22.2078 8.04569 22.2078 8.04515 22.2078C 8.04461 22.2078 8.04406 22.2078 8.04352 22.2078C 8.04298 22.2078 8.04244 22.2078 8.0419 22.2078C 8.04135 22.2078 8.04081 22.2078 8.04027 22.2078C 8.03973 22.2078 8.03918 22.2078 8.03864 22.2078C 8.0381 22.2078 8.03756 22.2078 8.03701 22.2078C 8.03647 22.2078 8.03593 22.2078 8.03538 22.2078C 8.03484 22.2078 8.0343 22.2078 8.03376 22.2078C 8.03321 22.2078 8.03267 22.2078 8.03213 22.2078C 8.03158 22.2078 8.03104 22.2078 8.03049 22.2078C 8.02995 22.2078 8.02941 22.2078 8.02886 22.2078C 8.02832 22.2078 8.02778 22.2078 8.02723 22.2078C 8.02669 22.2078 8.02614 22.2078 8.0256 22.2078C 8.02506 22.2078 8.02451 22.2078 8.02397 22.2078C 8.02342 22.2078 8.02288 22.2078 8.02233 22.2078C 8.02179 22.2078 8.02125 22.2078 8.0207 22.2078C 8.02015 22.2078 8.01961 22.2078 8.01907 22.2078C 8.01852 22.2078 8.01798 22.2078 8.01743 22.2078C 8.01689 22.2078 8.01634 22.2078 8.0158 22.2078C 8.01525 22.2078 8.0147 22.2078 8.01416 22.2078C 8.01361 22.2078 8.01307 22.2078 8.01252 22.2078C 8.01198 22.2078 8.01143 22.2078 8.01089 22.2078C 8.01034 22.2078 8.0098 22.2078 8.00925 22.2078C 8.0087 22.2078 8.00816 22.2078 8.00761 22.2078C 8.00706 22.2078 8.00652 22.2078 8.00597 22.2078C 8.00543 22.2078 8.00488 22.2078 8.00433 22.2078C 8.00379 22.2078 8.00324 22.2078 8.0027 22.2078C 8.00215 22.2078 8.0016 22.2078 8.00106 22.2078C 8.00051 22.2078 7.99996 22.2078 7.99942 22.2078C 7.99887 22.2078 7.99832 22.2078 7.99777 22.2078C 7.99723 22.2078 7.99668 22.2078 7.99613 22.2078C 7.99559 22.2078 7.99504 22.2078 7.99449 22.2078C 7.99395 22.2078 7.9934 22.2078 7.99285 22.2078C 7.9923 22.2078 7.99176 22.2078 7.99121 22.2078C 7.99066 22.2078 7.99011 22.2078 7.98957 22.2078C 7.98902 22.2078 7.98847 22.2078 7.98792 22.2078C 7.98738 22.2078 7.98683 22.2078 7.98628 22.2078C 7.98573 22.2078 7.98518 22.2078 7.98464 22.2078C 7.98409 22.2078 7.98354 22.2078 7.98299 22.2078C 7.98244 22.2078 7.9819 22.2078 7.98135 22.2078C 7.9808 22.2078 7.98025 22.2078 7.9797 22.2078C 7.97915 22.2078 7.97861 22.2078 7.97806 22.2078C 7.97751 22.2078 7.97696 22.2078 7.97641 22.2078C 7.97586 22.2078 7.97531 22.2078 7.97477 22.2078C 7.97422 22.2078 7.97367 22.2078 7.97312 22.2078C 7.97257 22.2078 7.97202 22.2078 7.97147 22.2078C 7.97092 22.2078 7.97038 22.2078 7.96983 22.2078C 7.96928 22.2078 7.96873 22.2078 7.96818 22.2078C 7.96763 22.2078 7.96708 22.2078 7.96653 22.2078C 7.96598 22.2078 7.96543 22.2078 7.96488 22.2078C 7.96434 22.2078 7.96379 22.2078 7.96324 22.2078C 7.96269 22.2078 7.96214 22.2078 7.96159 22.2078C 7.96104 22.2078 7.96049 22.2078 7.95994 22.2078C 7.95939 22.2078 7.95884 22.2078 7.95829 22.2078C 7.95774 22.2078 7.95719 22.2078 7.95664 22.2078C 7.95609 22.2078 7.95554 22.2078 7.95499 22.2078C 7.95444 22.2078 7.95389 22.2078 7.95334 22.2078C 7.95279 22.2078 7.95224 22.2078 7.95169 22.2078C 7.95114 22.2078 7.95059 22.2078 7.95004 22.2078C 7.94949 22.2078 7.94894 22.2078 7.94839 22.2078C 7.94784 22.2078 7.94729 22.2078 7.94674 22.2078C 7.94619 22.2078 7.94564 22.2078 7.94509 22.2078C 7.94454 22.2078 7.94399 22.2078 7.94344 22.2078C 7.94289 22.2078 7.94234 22.2078 7.94179 22.2078C 7.94124 22.2078 7.94069 22.2078 7.94014 22.2078C 7.93959 22.2078 7.93904 22.2078 7.93849 22.2078C 7.93794 22.2078 7.93739 22.2078 7.93684 22.2078C 7.93629 22.2078 7.93574 22.2078 7.93519 22.2078C 7.93464 22.2078 7.93408 22.2078 7.93353 22.2078C 7.93298 22.2078 7.93243 22.2078 7.93188 22.2078C 7.93133 22.2078 7.93078 22.2078 7.93023 22.2078C 7.92968 22.2078 7.92913 22.2078 7.92858 22.2078C 7.92803 22.2078 7.92748 22.2078 7.92693 22.2078C 7.92637 22.2078 7.92582 22.2078 7.92527 22.2078C 7.92472 22.2078 7.92417 22.2078 7.92362 22.2078C 7.92307 22.2078 7.92252 22.2078 7.92197 22.2078C 7.92142 22.2078 7.92087 22.2078 7.92032 22.2078C 7.91976 22.2078 7.91921 22.2078 7.91866 22.2078C 7.91811 22.2078 7.91756 22.2078 7.91701 22.2078C 7.91646 22.2078 7.91591 22.2078 7.91536 22.2078C 7.91481 22.2078 7.91425 22.2078 7.9137 22.2078C 7.91315 22.2078 7.9126 22.2078 7.91205 22.2078C 7.9115 22.2078 7.91095 22.2078 7.9104 22.2078C 7.90985 22.2078 7.9093 22.2078 7.90874 22.2078C 7.90819 22.2078 7.90764 22.2078 7.90709 22.2078C 7.90654 22.2078 7.90599 22.2078 7.90544 22.2078C 7.90489 22.2078 7.90434 22.2078 7.90378 22.2078C 7.90323 22.2078 7.90268 22.2078 7.90213 22.2078C 7.90158 22.2078 7.90103 22.2078 7.90048 22.2078C 7.89993 22.2078 7.89938 22.2078 7.89882 22.2078C 7.89827 22.2078 7.89772 22.2078 7.89717 22.2078C 7.89662 22.2078 7.89607 22.2078 7.89552 22.2078C 7.89497 22.2078 7.89442 22.2078 7.89386 22.2078C 7.89331 22.2078 7.89276 22.2078 7.89221 22.2078C 7.89166 22.2078 7.89111 22.2078 7.89056 22.2078C 7.89001 22.2078 7.88946 22.2078 7.88891 22.2078C 7.88835 22.2078 7.8878 22.2078 7.88725 22.2078C 7.8867 22.2078 7.88615 22.2078 7.8856 22.2078C 7.88505 22.2078 7.8845 22.2078 7.88395 22.2078C 7.8834 22.2078 7.88284 22.2078 7.88229 22.2078C 7.88174 22.2078 7.88119 22.2078 7.88064 22.2078C 7.88009 22.2078 7.87954 22.2078 7.87899 22.2078C 7.87844 22.2078 7.87789 22.2078 7.87734 22.2078C 7.87678 22.2078 7.87623 22.2078 7.87568 22.2078C 7.87513 22.2078 7.87458 22.2078 7.87403 22.2078C 7.87348 22.2078 7.87293 22.2078 7.87238 22.2078C 7.87183 22.2078 7.87128 22.2078 7.87073 22.2078C 7.87018 22.2078 7.86962 22.2078 7.86907 22.2078C 7.86852 22.2078 7.86797 22.2078 7.86742 22.2078C 7.86687 22.2078 7.86632 22.2078 7.86577 22.2078C 7.86522 22.2078 7.86467 22.2078 7.86412 22.2078C 7.86357 22.2078 7.86302 22.2078 7.86247 22.2078C 7.86192 22.2078 7.86137 22.2078 7.86082 22.2078C 7.86027 22.2078 7.85971 22.2078 7.85916 22.2078C 7.85861 22.2078 7.85806 22.2078 7.85751 22.2078C 7.85696 22.2078 7.85641 22.2078 7.85586 22.2078C 7.85531 22.2078 7.85476 22.2078 7.85421 22.2078C 7.85366 22.2078 7.85311 22.2078 7.85256 22.2078C 7.85201 22.2078 7.85146 22.2078 7.85091 22.2078C 7.85036 22.2078 7.84981 22.2078 7.84926 22.2078C 7.84871 22.2078 7.84816 22.2078 7.84761 22.2078C 7.84706 22.2078 7.84651 22.2078 7.84596 22.2078C 7.84541 22.2078 7.84486 22.2078 7.84431 22.2078C 7.84376 22.2078 7.84321 22.2078 7.84266 22.2078C 7.84211 22.2078 7.84157 22.2078 7.84102 22.2078C 7.84047 22.2078 7.83992 22.2078 7.83937 22.2078C 7.83882 22.2078 7.83827 22.2078 7.83772 22.2078C 7.83717 22.2078 7.83662 22.2078 7.83607 22.2078C 7.83552 22.2078 7.83497 22.2078 7.83442 22.2078C 7.83387 22.2078 7.83333 22.2078 7.83278 22.2078C 7.83223 22.2078 7.83168 22.2078 7.83113 22.2078C 7.83058 22.2078 7.83003 22.2078 7.82948 22.2078C 7.82893 22.2078 7.82838 22.2078 7.82784 22.2078C 7.82729 22.2078 7.82674 22.2078 7.82619 22.2078C 7.82564 22.2078 7.82509 22.2078 7.82454 22.2078C 7.824 22.2078 7.82345 22.2078 7.8229 22.2078C 7.82235 22.2078 7.8218 22.2078 7.82125 22.2078C 7.8207 22.2078 7.82016 22.2078 7.81961 22.2078C 7.81906 22.2078 7.81851 22.2078 7.81796 22.2078C 7.81742 22.2078 7.81687 22.2078 7.81632 22.2078C 7.81577 22.2078 7.81522 22.2078 7.81468 22.2078C 7.81413 22.2078 7.81358 22.2078 7.81303 22.2078C 7.81249 22.2078 7.81194 22.2078 7.81139 22.2078C 7.81084 22.2078 7.81029 22.2078 7.80975 22.2078C 7.8092 22.2078 7.80865 22.2078 7.8081 22.2078C 7.80756 22.2078 7.80701 22.2078 7.80646 22.2078C 7.80592 22.2078 7.80537 22.2078 7.80482 22.2078C 7.80428 22.2078 7.80373 22.2078 7.80318 22.2078C 7.80263 22.2078 7.80209 22.2078 7.80154 22.2078C 7.80099 22.2078 7.80045 22.2078 7.7999 22.2078C 7.79935 22.2078 7.79881 22.2078 7.79826 22.2078C 7.79771 22.2078 7.79717 22.2078 7.79662 22.2078C 7.79608 22.2078 7.79553 22.2078 7.79498 22.2078C 7.79444 22.2078 7.79389 22.2078 7.79334 22.2078C 7.7928 22.2078 7.79225 22.2078 7.79171 22.2078C 7.79116 22.2078 7.79062 22.2078 7.79007 22.2078C 7.78952 22.2078 7.78898 22.2078 7.78843 22.2078C 7.78789 22.2078 7.78734 22.2078 7.7868 22.2078C 7.78625 22.2078 7.78571 22.2078 7.78516 22.2078C 7.78462 22.2078 7.78407 22.2078 7.78352 22.2078C 7.78298 22.2078 7.78243 22.2078 7.78189 22.2078C 7.78135 22.2078 7.7808 22.2078 7.78026 22.2078C 7.77971 22.2078 7.77917 22.2078 7.77862 22.2078C 7.77808 22.2078 7.77753 22.2078 7.77699 22.2078C 7.77644 22.2078 7.7759 22.2078 7.77536 22.2078C 7.77481 22.2078 7.77427 22.2078 7.77372 22.2078C 7.77318 22.2078 7.77264 22.2078 7.77209 22.2078C 7.77155 22.2078 7.771 22.2078 7.77046 22.2078C 7.76992 22.2078 7.76937 22.2078 7.76883 22.2078C 7.76829 22.2078 7.76774 22.2078 7.7672 22.2078C 7.76666 22.2078 7.76611 22.2078 7.76557 22.2078C 7.76503 22.2078 7.76449 22.2078 7.76394 22.2078C 7.7634 22.2078 7.76286 22.2078 7.76231 22.2078C 7.76177 22.2078 7.76123 22.2078 7.76069 22.2078C 7.76014 22.2078 7.7596 22.2078 7.75906 22.2078C 7.75852 22.2078 7.75798 22.2078 7.75743 22.2078C 7.75689 22.2078 7.75635 22.2078 7.75581 22.2078C 7.75527 22.2078 7.75472 22.2078 7.75418 22.2078C 7.75364 22.2078 7.7531 22.2078 7.75256 22.2078C 7.75202 22.2078 7.75148 22.2078 7.75093 22.2078C 7.75039 22.2078 7.74985 22.2078 7.74931 22.2078C 7.74877 22.2078 7.74823 22.2078 7.74769 22.2078C 7.74715 22.2078 7.74661 22.2078 7.74607 22.2078C 7.74553 22.2078 7.74499 22.2078 7.74445 22.2078C 7.74391 22.2078 7.74337 22.2078 7.74283 22.2078C 7.74229 22.2078 7.74175 22.2078 7.74121 22.2078C 7.74067 22.2078 7.74013 22.2078 7.73959 22.2078C 7.73905 22.2078 7.73851 22.2078 7.73797 22.2078C 7.73743 22.2078 7.73689 22.2078 7.73635 22.2078C 7.73581 22.2078 7.73527 22.2078 7.73473 22.2078C 7.7342 22.2078 7.73366 22.2078 7.73312 22.2078C 7.73258 22.2078 7.73204 22.2078 7.7315 22.2078C 7.73096 22.2078 7.73043 22.2078 7.72989 22.2078C 7.72935 22.2078 7.72881 22.2078 7.72827 22.2078C 7.72774 22.2078 7.7272 22.2078 7.72666 22.2078C 7.72612 22.2078 7.72559 22.2078 7.72505 22.2078C 7.72451 22.2078 7.72397 22.2078 7.72344 22.2078C 7.7229 22.2078 7.72236 22.2078 7.72183 22.2078C 7.72129 22.2078 7.72075 22.2078 7.72022 22.2078C 7.71968 22.2078 7.71914 22.2078 7.71861 22.2078C 7.71807 22.2078 7.71753 22.2078 7.717 22.2078C 7.71646 22.2078 7.71593 22.2078 7.71539 22.2078C 7.71485 22.2078 7.71432 22.2078 7.71378 22.2078C 7.71325 22.2078 7.71271 22.2078 7.71218 22.2078C 7.71164 22.2078 7.71111 22.2078 7.71057 22.2078C 7.71004 22.2078 7.7095 22.2078 7.70897 22.2078C 7.70843 22.2078 7.7079 22.2078 7.70736 22.2078C 7.70683 22.2078 7.7063 22.2078 7.70576 22.2078C 7.70523 22.2078 7.70469 22.2078 7.70416 22.2078C 7.70363 22.2078 7.70309 22.2078 7.70256 22.2078C 7.70203 22.2078 7.70149 22.2078 7.70096 22.2078C 7.70043 22.2078 7.69989 22.2078 7.69936 22.2078C 7.69883 22.2078 7.69829 22.2078 7.69776 22.2078C 7.69723 22.2078 7.6967 22.2078 7.69616 22.2078C 7.69563 22.2078 7.6951 22.2078 7.69457 22.2078C 7.69404 22.2078 7.6935 22.2078 7.69297 22.2078C 7.69244 22.2078 7.69191 22.2078 7.69138 22.2078C 7.69085 22.2078 7.69031 22.2078 7.68978 22.2078C 7.68925 22.2078 7.68872 22.2078 7.68819 22.2078C 7.68766 22.2078 7.68713 22.2078 7.6866 22.2078C 7.68607 22.2078 7.68554 22.2078 7.68501 22.2078C 7.68448 22.2078 7.68395 22.2078 7.68342 22.2078C 7.68289 22.2078 7.68236 22.2078 7.68183 22.2078C 7.6813 22.2078 7.68077 22.2078 7.68024 22.2078C 7.67971 22.2078 7.67918 22.2078 7.67865 22.2078C 7.67812 22.2078 7.6776 22.2078 7.67707 22.2078C 7.67654 22.2078 7.67601 22.2078 7.67548 22.2078C 7.67495 22.2078 7.67443 22.2078 7.6739 22.2078C 7.67337 22.2078 7.67284 22.2078 7.67232 22.2078C 7.67179 22.2078 7.67126 22.2078 7.67073 22.2078C 7.67021 22.2078 7.66968 22.2078 7.66915 22.2078C 7.66862 22.2078 7.6681 22.2078 7.66757 22.2078C 7.66705 22.2078 7.66652 22.2078 7.66599 22.2078C 7.66547 22.2078 7.66494 22.2078 7.66441 22.2078C 7.66389 22.2078 7.66336 22.2078 7.66284 22.2078C 7.66231 22.2078 7.66179 22.2078 7.66126 22.2078C 7.66074 22.2078 7.66021 22.2078 7.65969 22.2078C 7.65916 22.2078 7.65864 22.2078 7.65811 22.2078C 7.65759 22.2078 7.65706 22.2078 7.65654 22.2078C 7.65602 22.2078 7.65549 22.2078 7.65497 22.2078C 7.65444 22.2078 7.65392 22.2078 7.6534 22.2078C 7.65287 22.2078 7.65235 22.2078 7.65183 22.2078C 7.65131 22.2078 7.65078 22.2078 7.65026 22.2078C 7.64974 22.2078 7.64922 22.2078 7.64869 22.2078C 7.64817 22.2078 7.64765 22.2078 7.64713 22.2078C 7.64661 22.2078 7.64608 22.2078 7.64556 22.2078C 7.64504 22.2078 7.64452 22.2078 7.644 22.2078C 7.64348 22.2078 7.64296 22.2078 7.64244 22.2078C 7.64191 22.2078 7.64139 22.2078 7.64087 22.2078C 7.64035 22.2078 7.63983 22.2078 7.63931 22.2078C 7.63879 22.2078 7.63827 22.2078 7.63775 22.2078C 7.63723 22.2078 7.63671 22.2078 7.6362 22.2078C 7.63568 22.2078 7.63516 22.2078 7.63464 22.2078C 7.63412 22.2078 7.6336 22.2078 7.63308 22.2078C 7.63256 22.2078 7.63205 22.2078 7.63153 22.2078C 7.63101 22.2078 7.63049 22.2078 7.62997 22.2078C 7.62946 22.2078 7.62894 22.2078 7.62842 22.2078C 7.62791 22.2078 7.62739 22.2078 7.62687 22.2078C 7.62636 22.2078 7.62584 22.2078 7.62532 22.2078C 7.62481 22.2078 7.62429 22.2078 7.62377 22.2078C 7.62326 22.2078 7.62274 22.2078 7.62223 22.2078C 7.62171 22.2078 7.6212 22.2078 7.62068 22.2078C 7.62016 22.2078 7.61965 22.2078 7.61914 22.2078C 7.61862 22.2078 7.61811 22.2078 7.61759 22.2078C 7.61708 22.2078 7.61656 22.2078 7.61605 22.2078C 7.61554 22.2078 7.61502 22.2078 7.61451 22.2078C 7.614 22.2078 7.61348 22.2078 7.61297 22.2078C 7.61246 22.2078 7.61194 22.2078 7.61143 22.2078C 7.61092 22.2078 7.61041 22.2078 7.60989 22.2078C 7.60938 22.2078 7.60887 22.2078 7.60836 22.2078C 7.60785 22.2078 7.60733 22.2078 7.60682 22.2078C 7.60631 22.2078 7.6058 22.2078 7.60529 22.2078C 7.60478 22.2078 7.60427 22.2078 7.60376 22.2078C 7.60325 22.2078 7.60274 22.2078 7.60223 22.2078C 7.60172 22.2078 7.60121 22.2078 7.6007 22.2078C 7.60019 22.2078 7.59968 22.2078 7.59917 22.2078C 7.59866 22.2078 7.59815 22.2078 7.59764 22.2078C 7.59713 22.2078 7.59663 22.2078 7.59612 22.2078C 7.59561 22.2078 7.5951 22.2078 7.59459 22.2078C 7.59409 22.2078 7.59358 22.2078 7.59307 22.2078C 7.59256 22.2078 7.59206 22.2078 7.59155 22.2078C 7.59104 22.2078 7.59054 22.2078 7.59003 22.2078C 7.58952 22.2078 7.58902 22.2078 7.58851 22.2078C 7.58801 22.2078 7.5875 22.2078 7.587 22.2078C 7.58649 22.2078 7.58598 22.2078 7.58548 22.2078C 7.58498 22.2078 7.58447 22.2078 7.58397 22.2078C 7.58346 22.2078 7.58296 22.2078 7.58245 22.2078C 7.58195 22.2078 7.58145 22.2078 7.58094 22.2078C 7.58044 22.2078 7.57994 22.2078 7.57943 22.2078C 7.57893 22.2078 7.57843 22.2078 7.57792 22.2078C 7.57742 22.2078 7.57692 22.2078 7.57642 22.2078C 7.57591 22.2078 7.57541 22.2078 7.57491 22.2078C 7.57441 22.2078 7.57391 22.2078 7.57341 22.2078C 7.57291 22.2078 7.57241 22.2078 7.5719 22.2078C 7.5714 22.2078 7.5709 22.2078 7.5704 22.2078C 7.5699 22.2078 7.5694 22.2078 7.5689 22.2078C 7.5684 22.2078 7.5679 22.2078 7.56741 22.2078C 7.56691 22.2078 7.56641 22.2078 7.56591 22.2078C 7.56541 22.2078 7.56491 22.2078 7.56441 22.2078C 7.56392 22.2078 7.56342 22.2078 7.56292 22.2078C 7.56242 22.2078 7.56193 22.2078 7.56143 22.2078C 7.56093 22.2078 7.56043 22.2078 7.55994 22.2078C 7.55944 22.2078 7.55894 22.2078 7.55845 22.2078C 7.55795 22.2078 7.55746 22.2078 7.55696 22.2078C 7.55647 22.2078 7.55597 22.2078 7.55548 22.2078C 7.55498 22.2078 7.55449 22.2078 7.55399 22.2078C 7.5535 22.2078 7.553 22.2078 7.55251 22.2078C 7.55201 22.2078 7.55152 22.2078 7.55103 22.2078C 7.55053 22.2078 7.55004 22.2078 7.54955 22.2078C 7.54905 22.2078 7.54856 22.2078 7.54807 22.2078C 7.54758 22.2078 7.54708 22.2078 7.54659 22.2078C 7.5461 22.2078 7.54561 22.2078 7.54512 22.2078C 7.54463 22.2078 7.54414 22.2078 7.54364 22.2078C 7.54315 22.2078 7.54266 22.2078 7.54217 22.2078C 7.54168 22.2078 7.54119 22.2078 7.5407 22.2078C 7.54021 22.2078 7.53972 22.2078 7.53923 22.2078C 7.53875 22.2078 7.53826 22.2078 7.53777 22.2078C 7.53728 22.2078 7.53679 22.2078 7.5363 22.2078C 7.53581 22.2078 7.53533 22.2078 7.53484 22.2078C 7.53435 22.2078 7.53386 22.2078 7.53338 22.2078C 7.53289 22.2078 7.5324 22.2078 7.53192 22.2078C 7.53143 22.2078 7.53094 22.2078 7.53046 22.2078C 7.52997 22.2078 7.52949 22.2078 7.529 22.2078C 7.52852 22.2078 7.52803 22.2078 7.52755 22.2078C 7.52706 22.2078 7.52658 22.2078 7.52609 22.2078C 7.52561 22.2078 7.52513 22.2078 7.52464 22.2078C 7.52416 22.2078 7.52367 22.2078 7.52319 22.2078C 7.52271 22.2078 7.52223 22.2078 7.52174 22.2078C 7.52126 22.2078 7.52078 22.2078 7.5203 22.2078C 7.51981 22.2078 7.51933 22.2078 7.51885 22.2078C 7.51837 22.2078 7.51789 22.2078 7.51741 22.2078C 7.51693 22.2078 7.51645 22.2078 7.51597 22.2078C 7.51549 22.2078 7.51501 22.2078 7.51453 22.2078C 7.51405 22.2078 7.51357 22.2078 7.51309 22.2078C 7.51261 22.2078 7.51213 22.2078 7.51165 22.2078C 7.51118 22.2078 7.5107 22.2078 7.51022 22.2078C 7.50974 22.2078 7.50926 22.2078 7.50879 22.2078C 7.50831 22.2078 7.50783 22.2078 7.50736 22.2078C 7.50688 22.2078 7.5064 22.2078 7.50593 22.2078C 7.50545 22.2078 7.50498 22.2078 7.5045 22.2078C 7.50403 22.2078 7.50355 22.2078 7.50308 22.2078C 7.5026 22.2078 7.50213 22.2078 7.50165 22.2078C 7.50118 22.2078 7.5007 22.2078 7.50023 22.2078C 7.49976 22.2078 7.49928 22.2078 7.49881 22.2078C 7.49834 22.2078 7.49786 22.2078 7.49739 22.2078L 7.49739 22.7078ZM 8.07198 22.552L 15.5694 40.991L 16.0325 40.8027L 8.53515 22.3636L 8.07198 22.552ZM 15.5675 40.9864C 15.85 41.7226 16.5944 42.1712 17.3327 42.1712L 17.3327 41.6712C 16.7811 41.6712 16.2356 41.3318 16.0344 40.8073L 15.5675 40.9864ZM 17.3327 42.1712C 17.5768 42.1712 17.7726 42.1721 18.0551 42.0801L 17.9002 41.6047C 17.6989 41.6703 17.5723 41.6712 17.3327 41.6712L 17.3327 42.1712ZM 18.0687 42.0752C 18.9916 41.7144 19.5627 40.6235 19.0911 39.6094L 18.6377 39.8202C 18.9723 40.5398 18.576 41.34 17.8866 41.6096L 18.0687 42.0752ZM 19.0962 39.6212L 11.8407 21.655L 11.3771 21.8422L 18.6326 39.8084L 19.0962 39.6212ZM 3.5553 19.227L 3.5553 3.23077L 3.0553 3.23077L 3.0553 19.227L 3.5553 19.227ZM 3.3053 3.48077L 7.57801 3.48077L 7.57801 2.98077L 3.3053 2.98077L 3.3053 3.48077ZM 7.57801 3.48077C 11.9599 3.48077 15.4703 6.92015 15.4703 11.1895L 15.9703 11.1895C 15.9703 6.63332 12.2252 2.98077 7.57801 2.98077L 7.57801 3.48077ZM 15.4703 11.1895C 15.4703 15.4588 11.8793 18.977 7.49739 18.977L 7.49739 19.477C 12.1446 19.477 15.9703 15.7457 15.9703 11.1895L 15.4703 11.1895ZM 7.49739 18.977L 3.3053 18.977L 3.3053 19.477L 7.49739 19.477L 7.49739 18.977Z"/>
<path id="path4_fill" d="M 19.0256 9.29831C 19.0256 4.17636 14.7529 1.1742e-09 9.51282 1.1742e-09C 4.27271 1.1742e-09 0 4.17636 0 9.29831L 0 32.4653C 0 37.5872 4.27271 41.7636 9.51282 41.7636C 14.7529 41.7636 19.0256 37.5872 19.0256 32.4653L 19.0256 19.227L 17.0908 19.227L 15.801 19.227L 11.2058 19.227C 10.319 19.227 9.59344 19.9362 9.59344 20.803C 9.59344 21.6698 10.319 22.379 11.2058 22.379L 15.801 22.379L 15.801 32.3865C 15.801 35.7749 12.9794 38.454 9.59344 38.454C 6.1269 38.454 3.38592 35.6961 3.38592 32.3865L 3.38592 9.29831C 3.38592 5.90994 6.20752 3.23077 9.59344 3.23077C 13.06 3.23077 15.801 5.98874 15.801 9.29831L 15.801 13.4747C 15.801 14.3415 16.5265 15.0507 17.4133 15.0507C 18.3001 15.0507 19.0256 14.3415 19.0256 13.4747L 19.0256 9.29831Z"/>
<path id="path5_stroke" d="M 19.0256 19.227L 19.2756 19.227L 19.2756 18.977L 19.0256 18.977L 19.0256 19.227ZM 15.801 22.379L 16.051 22.379L 16.051 22.129L 15.801 22.129L 15.801 22.379ZM 19.2756 9.29831C 19.2756 4.03294 14.8856 -0.25 9.51282 -0.25L 9.51282 0.25C 14.6203 0.25 18.7756 4.31978 18.7756 9.29831L 19.2756 9.29831ZM 9.51282 -0.25C 4.14004 -0.25 -0.25 4.03294 -0.25 9.29831L 0.25 9.29831C 0.25 4.31978 4.40537 0.25 9.51282 0.25L 9.51282 -0.25ZM -0.25 9.29831L -0.25 32.4653L 0.25 32.4653L 0.25 9.29831L -0.25 9.29831ZM -0.25 32.4653C -0.25 37.7307 4.14004 42.0136 9.51282 42.0136L 9.51282 41.5136C 4.40537 41.5136 0.25 37.4438 0.25 32.4653L -0.25 32.4653ZM 9.51282 42.0136C 14.8856 42.0136 19.2756 37.7307 19.2756 32.4653L 18.7756 32.4653C 18.7756 37.4438 14.6203 41.5136 9.51282 41.5136L 9.51282 42.0136ZM 19.2756 32.4653L 19.2756 19.227L 18.7756 19.227L 18.7756 32.4653L 19.2756 32.4653ZM 19.0256 18.977L 17.0908 18.977L 17.0908 19.477L 19.0256 19.477L 19.0256 18.977ZM 17.0908 18.977L 15.801 18.977L 15.801 19.477L 17.0908 19.477L 17.0908 18.977ZM 15.801 18.977L 11.2058 18.977L 11.2058 19.477L 15.801 19.477L 15.801 18.977ZM 11.2058 18.977C 10.1863 18.977 9.34344 19.7928 9.34344 20.803L 9.84344 20.803C 9.84344 20.0796 10.4517 19.477 11.2058 19.477L 11.2058 18.977ZM 9.34344 20.803C 9.34344 21.8132 10.1863 22.629 11.2058 22.629L 11.2058 22.129C 10.4517 22.129 9.84344 21.5264 9.84344 20.803L 9.34344 20.803ZM 11.2058 22.629L 15.801 22.629L 15.801 22.129L 11.2058 22.129L 11.2058 22.629ZM 15.551 22.379L 15.551 32.3865L 16.051 32.3865L 16.051 22.379L 15.551 22.379ZM 15.551 32.3865C 15.551 35.6294 12.8488 38.204 9.59344 38.204L 9.59344 38.704C 13.1099 38.704 16.051 35.9204 16.051 32.3865L 15.551 32.3865ZM 9.59344 38.204C 6.2617 38.204 3.63592 35.5547 3.63592 32.3865L 3.13592 32.3865C 3.13592 35.8374 5.9921 38.704 9.59344 38.704L 9.59344 38.204ZM 3.63592 32.3865L 3.63592 9.29831L 3.13592 9.29831L 3.13592 32.3865L 3.63592 32.3865ZM 3.63592 9.29831C 3.63592 6.05544 6.33804 3.48077 9.59344 3.48077L 9.59344 2.98077C 6.07699 2.98077 3.13592 5.76444 3.13592 9.29831L 3.63592 9.29831ZM 9.59344 3.48077C 12.9252 3.48077 15.551 6.13007 15.551 9.29831L 16.051 9.29831C 16.051 5.84742 13.1948 2.98077 9.59344 2.98077L 9.59344 3.48077ZM 15.551 9.29831L 15.551 13.4747L 16.051 13.4747L 16.051 9.29831L 15.551 9.29831ZM 15.551 13.4747C 15.551 14.4849 16.3938 15.3007 17.4133 15.3007L 17.4133 14.8007C 16.6592 14.8007 16.051 14.1981 16.051 13.4747L 15.551 13.4747ZM 17.4133 15.3007C 18.4328 15.3007 19.2756 14.4849 19.2756 13.4747L 18.7756 13.4747C 18.7756 14.1981 18.1674 14.8007 17.4133 14.8007L 17.4133 15.3007ZM 19.2756 13.4747L 19.2756 9.29831L 18.7756 9.29831L 18.7756 13.4747L 19.2756 13.4747Z"/>
<path id="path6_fill" d="M 19.0256 9.29831C 19.0256 4.17636 14.7529 1.1742e-09 9.51283 1.1742e-09C 4.27271 1.1742e-09 -9.84096e-06 4.17636 -9.84096e-06 9.29831L -9.84096e-06 32.4653C -9.84096e-06 37.5872 4.27271 41.7636 9.51283 41.7636C 14.7529 41.7636 19.0256 37.5872 19.0256 32.4653L 19.0256 19.227L 17.0908 19.227L 15.801 19.227L 11.2058 19.227C 10.319 19.227 9.59345 19.9362 9.59345 20.803C 9.59345 21.6698 10.319 22.379 11.2058 22.379L 15.801 22.379L 15.801 32.3865C 15.801 35.7749 12.9794 38.454 9.59345 38.454C 6.12691 38.454 3.38592 35.6961 3.38592 32.3865L 3.38592 9.29831C 3.38592 5.90994 6.20753 3.23077 9.59345 3.23077C 13.06 3.23077 15.801 5.98874 15.801 9.29831L 15.801 13.4747C 15.801 14.3415 16.5265 15.0507 17.4133 15.0507C 18.3001 15.0507 19.0256 14.3415 19.0256 13.4747L 19.0256 9.29831Z"/>
<path id="path7_stroke" d="M 19.0256 19.227L 19.2756 19.227L 19.2756 18.977L 19.0256 18.977L 19.0256 19.227ZM 15.801 22.379L 16.051 22.379L 16.051 22.129L 15.801 22.129L 15.801 22.379ZM 19.2756 9.29831C 19.2756 4.03295 14.8856 -0.25 9.51283 -0.25L 9.51283 0.25C 14.6203 0.25 18.7756 4.31978 18.7756 9.29831L 19.2756 9.29831ZM 9.51283 -0.25C 4.14005 -0.25 -0.25001 4.03294 -0.25001 9.29831L 0.24999 9.29831C 0.24999 4.31978 4.40538 0.25 9.51283 0.25L 9.51283 -0.25ZM -0.25001 9.29831L -0.25001 32.4653L 0.24999 32.4653L 0.24999 9.29831L -0.25001 9.29831ZM -0.25001 32.4653C -0.25001 37.7307 4.14005 42.0136 9.51283 42.0136L 9.51283 41.5136C 4.40538 41.5136 0.24999 37.4438 0.24999 32.4653L -0.25001 32.4653ZM 9.51283 42.0136C 14.8856 42.0136 19.2756 37.7307 19.2756 32.4653L 18.7756 32.4653C 18.7756 37.4438 14.6203 41.5136 9.51283 41.5136L 9.51283 42.0136ZM 19.2756 32.4653L 19.2756 19.227L 18.7756 19.227L 18.7756 32.4653L 19.2756 32.4653ZM 19.0256 18.977L 17.0908 18.977L 17.0908 19.477L 19.0256 19.477L 19.0256 18.977ZM 17.0908 18.977L 15.801 18.977L 15.801 19.477L 17.0908 19.477L 17.0908 18.977ZM 15.801 18.977L 11.2058 18.977L 11.2058 19.477L 15.801 19.477L 15.801 18.977ZM 11.2058 18.977C 10.1863 18.977 9.34345 19.7928 9.34345 20.803L 9.84345 20.803C 9.84345 20.0796 10.4517 19.477 11.2058 19.477L 11.2058 18.977ZM 9.34345 20.803C 9.34345 21.8132 10.1863 22.629 11.2058 22.629L 11.2058 22.129C 10.4517 22.129 9.84345 21.5264 9.84345 20.803L 9.34345 20.803ZM 11.2058 22.629L 15.801 22.629L 15.801 22.129L 11.2058 22.129L 11.2058 22.629ZM 15.551 22.379L 15.551 32.3865L 16.051 32.3865L 16.051 22.379L 15.551 22.379ZM 15.551 32.3865C 15.551 35.6294 12.8488 38.204 9.59345 38.204L 9.59345 38.704C 13.1099 38.704 16.051 35.9204 16.051 32.3865L 15.551 32.3865ZM 9.59345 38.204C 6.26171 38.204 3.63592 35.5547 3.63592 32.3865L 3.13592 32.3865C 3.13592 35.8374 5.99211 38.704 9.59345 38.704L 9.59345 38.204ZM 3.63592 32.3865L 3.63592 9.29831L 3.13592 9.29831L 3.13592 32.3865L 3.63592 32.3865ZM 3.63592 9.29831C 3.63592 6.05544 6.33805 3.48077 9.59345 3.48077L 9.59345 2.98077C 6.07701 2.98077 3.13592 5.76444 3.13592 9.29831L 3.63592 9.29831ZM 9.59345 3.48077C 12.9252 3.48077 15.551 6.13006 15.551 9.29831L 16.051 9.29831C 16.051 5.84742 13.1948 2.98077 9.59345 2.98077L 9.59345 3.48077ZM 15.551 9.29831L 15.551 13.4747L 16.051 13.4747L 16.051 9.29831L 15.551 9.29831ZM 15.551 13.4747C 15.551 14.4849 16.3938 15.3007 17.4133 15.3007L 17.4133 14.8007C 16.6592 14.8007 16.051 14.1981 16.051 13.4747L 15.551 13.4747ZM 17.4133 15.3007C 18.4327 15.3007 19.2756 14.4849 19.2756 13.4747L 18.7756 13.4747C 18.7756 14.1981 18.1674 14.8007 17.4133 14.8007L 17.4133 15.3007ZM 19.2756 13.4747L 19.2756 9.29831L 18.7756 9.29831L 18.7756 13.4747L 19.2756 13.4747Z"/>
<path id="path8_fill" d="M 9.51282 41.7636C 4.27271 41.7636 0.0806196 37.5872 0.0806196 32.5441C 0.0806196 31.6773 0.806174 30.9681 1.69296 30.9681C 2.57975 30.9681 3.30531 31.6773 3.30531 32.5441C 3.30531 35.8537 6.04628 38.5328 9.4322 38.5328C 12.8181 38.5328 15.5591 35.8537 15.5591 32.5441C 15.5591 29.1557 11.6895 25.2946 8.54542 22.3002L 7.9811 21.7486C 4.03086 17.9662 -2.46024e-06 13.9475 -2.46024e-06 9.21951C -2.46024e-06 4.09756 4.2727 2.3484e-09 9.4322 2.3484e-09C 14.6723 2.3484e-09 18.8644 4.17636 18.8644 9.21951C 18.8644 10.0863 18.1389 10.7955 17.2521 10.7955C 16.3653 10.7955 15.6397 10.0863 15.6397 9.21951C 15.6397 5.90995 12.8987 3.23077 9.51282 3.23077C 6.1269 3.23077 3.38591 5.90995 3.38591 9.21951C 3.38591 12.6079 6.93308 16.1538 10.3996 19.4634L 10.9639 20.015C 14.5111 23.4822 18.945 27.8161 18.945 32.5441C 18.945 37.5872 14.7529 41.7636 9.51282 41.7636Z"/>
<path id="path9_stroke" d="M 8.54542 22.3002L 8.37065 22.479L 8.373 22.4812L 8.54542 22.3002ZM 7.9811 21.7486L 8.15586 21.5698L 8.154 21.568L 7.9811 21.7486ZM 10.3996 19.4634L 10.5744 19.2846L 10.5723 19.2826L 10.3996 19.4634ZM 10.9639 20.015L 10.7892 20.1938L 10.7892 20.1938L 10.9639 20.015ZM 9.51282 41.5136C 4.40678 41.5136 0.33062 37.4452 0.33062 32.5441L -0.16938 32.5441C -0.16938 37.7293 4.13864 42.0136 9.51282 42.0136L 9.51282 41.5136ZM 0.33062 32.5441C 0.33062 31.8207 0.938839 31.2181 1.69296 31.2181L 1.69296 30.7181C 0.673508 30.7181 -0.16938 31.5339 -0.16938 32.5441L 0.33062 32.5441ZM 1.69296 31.2181C 2.44709 31.2181 3.05531 31.8207 3.05531 32.5441L 3.55531 32.5441C 3.55531 31.5339 2.71242 30.7181 1.69296 30.7181L 1.69296 31.2181ZM 3.05531 32.5441C 3.05531 35.9971 5.91361 38.7828 9.4322 38.7828L 9.4322 38.2828C 6.17895 38.2828 3.55531 35.7103 3.55531 32.5441L 3.05531 32.5441ZM 9.4322 38.7828C 12.9508 38.7828 15.8091 35.9971 15.8091 32.5441L 15.3091 32.5441C 15.3091 35.7103 12.6855 38.2828 9.4322 38.2828L 9.4322 38.7828ZM 15.8091 32.5441C 15.8091 30.763 14.7968 28.8941 13.4292 27.1217C 12.0558 25.3416 10.2894 23.6159 8.71783 22.1192L 8.373 22.4812C 9.94553 23.9789 11.686 25.6809 13.0334 27.4271C 14.3866 29.1809 15.3091 30.9369 15.3091 32.5441L 15.8091 32.5441ZM 8.72017 22.1214L 8.15585 21.5698L 7.80635 21.9274L 8.37067 22.479L 8.72017 22.1214ZM 8.154 21.568C 6.17706 19.6751 4.19789 17.7394 2.71153 15.6918C 1.22606 13.6454 0.249998 11.51 0.249998 9.21951L -0.250002 9.21951C -0.250002 11.657 0.789371 13.895 2.30689 15.9855C 3.82352 18.0748 5.8349 20.0397 7.8082 21.9292L 8.154 21.568ZM 0.249998 9.21951C 0.249998 4.24235 4.40396 0.25 9.4322 0.25L 9.4322 -0.25C 4.14145 -0.25 -0.250002 3.95277 -0.250002 9.21951L 0.249998 9.21951ZM 9.4322 0.25C 14.5382 0.25 18.6144 4.3184 18.6144 9.21951L 19.1144 9.21951C 19.1144 4.03432 14.8064 -0.25 9.4322 -0.25L 9.4322 0.25ZM 18.6144 9.21951C 18.6144 9.94289 18.0062 10.5455 17.2521 10.5455L 17.2521 11.0455C 18.2715 11.0455 19.1144 10.2297 19.1144 9.21951L 18.6144 9.21951ZM 17.2521 10.5455C 16.4979 10.5455 15.8897 9.94289 15.8897 9.21951L 15.3897 9.21951C 15.3897 10.2297 16.2326 11.0455 17.2521 11.0455L 17.2521 10.5455ZM 15.8897 9.21951C 15.8897 5.76653 13.0314 2.98077 9.51282 2.98077L 9.51282 3.48077C 12.7661 3.48077 15.3897 6.05336 15.3897 9.21951L 15.8897 9.21951ZM 9.51282 2.98077C 5.99424 2.98077 3.13591 5.76653 3.13591 9.21951L 3.63591 9.21951C 3.63591 6.05336 6.25957 3.48077 9.51282 3.48077L 9.51282 2.98077ZM 3.13591 9.21951C 3.13591 10.9975 4.0641 12.7861 5.39433 14.523C 6.72791 16.2643 8.49506 17.9907 10.227 19.6442L 10.5723 19.2826C 8.83763 17.6265 7.09793 15.9252 5.79129 14.219C 4.48131 12.5085 3.63591 10.8299 3.63591 9.21951L 3.13591 9.21951ZM 10.2249 19.6422L 10.7892 20.1938L 11.1387 19.8362L 10.5744 19.2846L 10.2249 19.6422ZM 10.7892 20.1938C 12.5655 21.9301 14.5456 23.8663 16.0833 25.955C 17.622 28.0449 18.695 30.2578 18.695 32.5441L 19.195 32.5441C 19.195 30.1024 18.0511 27.7843 16.486 25.6585C 14.92 23.5315 12.9095 21.5671 11.1387 19.8362L 10.7892 20.1938ZM 18.695 32.5441C 18.695 37.4452 14.6189 41.5136 9.51282 41.5136L 9.51282 42.0136C 14.887 42.0136 19.195 37.7293 19.195 32.5441L 18.695 32.5441Z"/>
<path id="path10_fill" d="M 21.686 1.1742e-09L 1.61234 1.1742e-09C 0.725549 1.1742e-09 -4.92048e-06 0.709193 -4.92048e-06 1.57599C -4.92048e-06 2.44278 0.725549 3.15197 1.61234 3.15197L 9.99653 3.15197L 9.99653 41.7636L 13.3018 41.7636L 13.3018 3.15197L 21.686 3.15197C 22.5728 3.15197 23.2984 2.44278 23.2984 1.57599C 23.2984 0.709193 22.5728 1.1742e-09 21.686 1.1742e-09Z"/>
<path id="path11_stroke" d="M 9.99653 3.15197L 10.2465 3.15197L 10.2465 2.90197L 9.99653 2.90197L 9.99653 3.15197ZM 9.99653 41.7636L 9.74653 41.7636L 9.74653 42.0136L 9.99653 42.0136L 9.99653 41.7636ZM 13.3018 41.7636L 13.3018 42.0136L 13.5518 42.0136L 13.5518 41.7636L 13.3018 41.7636ZM 13.3018 3.15197L 13.3018 2.90197L 13.0518 2.90197L 13.0518 3.15197L 13.3018 3.15197ZM 21.686 -0.25L 1.61234 -0.25L 1.61234 0.25L 21.686 0.25L 21.686 -0.25ZM 1.61234 -0.25C 0.592884 -0.25 -0.250005 0.565778 -0.250005 1.57599L 0.249995 1.57599C 0.249995 0.852609 0.858215 0.25 1.61234 0.25L 1.61234 -0.25ZM -0.250005 1.57599C -0.250005 2.58619 0.592884 3.40197 1.61234 3.40197L 1.61234 2.90197C 0.858215 2.90197 0.249995 2.29936 0.249995 1.57599L -0.250005 1.57599ZM 1.61234 3.40197L 9.99653 3.40197L 9.99653 2.90197L 1.61234 2.90197L 1.61234 3.40197ZM 9.74653 3.15197L 9.74653 41.7636L 10.2465 41.7636L 10.2465 3.15197L 9.74653 3.15197ZM 9.99653 42.0136L 13.3018 42.0136L 13.3018 41.5136L 9.99653 41.5136L 9.99653 42.0136ZM 13.5518 41.7636L 13.5518 3.15197L 13.0518 3.15197L 13.0518 41.7636L 13.5518 41.7636ZM 13.3018 3.40197L 21.686 3.40197L 21.686 2.90197L 13.3018 2.90197L 13.3018 3.40197ZM 21.686 3.40197C 22.7055 3.40197 23.5484 2.58619 23.5484 1.57599L 23.0484 1.57599C 23.0484 2.29936 22.4401 2.90197 21.686 2.90197L 21.686 3.40197ZM 23.5484 1.57599C 23.5484 0.565778 22.7055 -0.25 21.686 -0.25L 21.686 0.25C 22.4401 0.25 23.0484 0.852609 23.0484 1.57599L 23.5484 1.57599Z"/>
<path id="path12_fill" d="M 17.4133 22.4578C 18.3001 22.4578 19.0256 21.7486 19.0256 20.8818C 19.0256 20.015 18.3001 19.3058 17.4133 19.3058L 3.3053 19.3058L 3.3053 3.15197L 17.4133 3.15197C 18.3001 3.15197 19.0256 2.44278 19.0256 1.57599C 19.0256 0.709193 18.3001 1.1742e-09 17.4133 1.1742e-09L 1.61234 1.1742e-09L -1.23012e-06 1.1742e-09L -1.23012e-06 1.57599L -1.23012e-06 4.33396L -1.23012e-06 37.3509L -1.23012e-06 40.1088L -1.23012e-06 41.6848L 1.61234 41.6848L 2.57975 41.6848L 17.3327 41.6848C 18.2195 41.6848 18.945 40.9756 18.945 40.1088C 18.945 39.242 18.2195 38.5328 17.3327 38.5328L 3.3053 38.5328L 3.3053 22.4578L 17.4133 22.4578Z"/>
<path id="path13_stroke" d="M 3.3053 19.3058L 3.0553 19.3058L 3.0553 19.5558L 3.3053 19.5558L 3.3053 19.3058ZM 3.3053 3.15197L 3.3053 2.90197L 3.0553 2.90197L 3.0553 3.15197L 3.3053 3.15197ZM -1.23012e-06 1.1742e-09L -1.23012e-06 -0.25L -0.250001 -0.25L -0.250001 1.1742e-09L -1.23012e-06 1.1742e-09ZM -1.23012e-06 41.6848L -0.250001 41.6848L -0.250001 41.9348L -1.23012e-06 41.9348L -1.23012e-06 41.6848ZM 3.3053 38.5328L 3.0553 38.5328L 3.0553 38.7828L 3.3053 38.7828L 3.3053 38.5328ZM 3.3053 22.4578L 3.3053 22.2078L 3.0553 22.2078L 3.0553 22.4578L 3.3053 22.4578ZM 17.4133 22.7078C 18.4328 22.7078 19.2756 21.892 19.2756 20.8818L 18.7756 20.8818C 18.7756 21.6052 18.1674 22.2078 17.4133 22.2078L 17.4133 22.7078ZM 19.2756 20.8818C 19.2756 19.8716 18.4328 19.0558 17.4133 19.0558L 17.4133 19.5558C 18.1674 19.5558 18.7756 20.1584 18.7756 20.8818L 19.2756 20.8818ZM 17.4133 19.0558L 3.3053 19.0558L 3.3053 19.5558L 17.4133 19.5558L 17.4133 19.0558ZM 3.5553 19.3058L 3.5553 3.15197L 3.0553 3.15197L 3.0553 19.3058L 3.5553 19.3058ZM 3.3053 3.40197L 17.4133 3.40197L 17.4133 2.90197L 3.3053 2.90197L 3.3053 3.40197ZM 17.4133 3.40197C 18.4328 3.40197 19.2756 2.58619 19.2756 1.57599L 18.7756 1.57599C 18.7756 2.29936 18.1674 2.90197 17.4133 2.90197L 17.4133 3.40197ZM 19.2756 1.57599C 19.2756 0.565777 18.4328 -0.25 17.4133 -0.25L 17.4133 0.25C 18.1674 0.25 18.7756 0.852609 18.7756 1.57599L 19.2756 1.57599ZM 17.4133 -0.25L 1.61234 -0.25L 1.61234 0.25L 17.4133 0.25L 17.4133 -0.25ZM 1.61234 -0.25L -1.23012e-06 -0.25L -1.23012e-06 0.25L 1.61234 0.25L 1.61234 -0.25ZM -0.250001 1.1742e-09L -0.250001 1.57599L 0.249999 1.57599L 0.249999 1.1742e-09L -0.250001 1.1742e-09ZM -0.250001 1.57599L -0.250001 4.33396L 0.249999 4.33396L 0.249999 1.57599L -0.250001 1.57599ZM -0.250001 4.33396L -0.250001 37.3509L 0.249999 37.3509L 0.249999 4.33396L -0.250001 4.33396ZM -0.250001 37.3509L -0.250001 40.1088L 0.249999 40.1088L 0.249999 37.3509L -0.250001 37.3509ZM -0.250001 40.1088L -0.250001 41.6848L 0.249999 41.6848L 0.249999 40.1088L -0.250001 40.1088ZM -1.23012e-06 41.9348L 1.61234 41.9348L 1.61234 41.4348L -1.23012e-06 41.4348L -1.23012e-06 41.9348ZM 1.61234 41.9348L 2.57975 41.9348L 2.57975 41.4348L 1.61234 41.4348L 1.61234 41.9348ZM 2.57975 41.9348L 17.3327 41.9348L 17.3327 41.4348L 2.57975 41.4348L 2.57975 41.9348ZM 17.3327 41.9348C 18.3521 41.9348 19.195 41.119 19.195 40.1088L 18.695 40.1088C 18.695 40.8322 18.0868 41.4348 17.3327 41.4348L 17.3327 41.9348ZM 19.195 40.1088C 19.195 39.0986 18.3521 38.2828 17.3327 38.2828L 17.3327 38.7828C 18.0868 38.7828 18.695 39.3854 18.695 40.1088L 19.195 40.1088ZM 17.3327 38.2828L 3.3053 38.2828L 3.3053 38.7828L 17.3327 38.7828L 17.3327 38.2828ZM 3.5553 38.5328L 3.5553 22.4578L 3.0553 22.4578L 3.0553 38.5328L 3.5553 38.5328ZM 3.3053 22.7078L 17.4133 22.7078L 17.4133 22.2078L 3.3053 22.2078L 3.3053 22.7078Z"/>
<path id="path14_fill" d="M 17.3327 22.4578C 18.2195 22.4578 18.945 21.7486 18.945 20.8818C 18.945 20.015 18.2195 19.3058 17.3327 19.3058L 3.22468 19.3058L 3.22468 3.15197L 17.3327 3.15197C 18.2195 3.15197 18.945 2.44278 18.945 1.57599C 18.945 0.709193 18.2195 1.1742e-09 17.3327 1.1742e-09L 1.61234 1.1742e-09L -2.46024e-06 1.1742e-09L -2.46024e-06 1.57599L -2.46024e-06 4.33396L -2.46024e-06 37.3509L -2.46024e-06 40.1088L -2.46024e-06 41.6848L 1.61234 41.6848L 2.57975 41.6848L 17.3327 41.6848C 18.2195 41.6848 18.945 40.9756 18.945 40.1088C 18.945 39.242 18.2195 38.5328 17.3327 38.5328L 3.22468 38.5328L 3.22468 22.4578L 17.3327 22.4578Z"/>
<path id="path15_stroke" d="M 3.22468 19.3058L 2.97468 19.3058L 2.97468 19.5558L 3.22468 19.5558L 3.22468 19.3058ZM 3.22468 3.15197L 3.22468 2.90197L 2.97468 2.90197L 2.97468 3.15197L 3.22468 3.15197ZM -2.46024e-06 1.1742e-09L -2.46024e-06 -0.25L -0.250002 -0.25L -0.250002 1.1742e-09L -2.46024e-06 1.1742e-09ZM -2.46024e-06 41.6848L -0.250002 41.6848L -0.250002 41.9348L -2.46024e-06 41.9348L -2.46024e-06 41.6848ZM 3.22468 38.5328L 2.97468 38.5328L 2.97468 38.7828L 3.22468 38.7828L 3.22468 38.5328ZM 3.22468 22.4578L 3.22468 22.2078L 2.97468 22.2078L 2.97468 22.4578L 3.22468 22.4578ZM 17.3327 22.7078C 18.3521 22.7078 19.195 21.892 19.195 20.8818L 18.695 20.8818C 18.695 21.6052 18.0868 22.2078 17.3327 22.2078L 17.3327 22.7078ZM 19.195 20.8818C 19.195 19.8716 18.3521 19.0558 17.3327 19.0558L 17.3327 19.5558C 18.0868 19.5558 18.695 20.1584 18.695 20.8818L 19.195 20.8818ZM 17.3327 19.0558L 3.22468 19.0558L 3.22468 19.5558L 17.3327 19.5558L 17.3327 19.0558ZM 3.47468 19.3058L 3.47468 3.15197L 2.97468 3.15197L 2.97468 19.3058L 3.47468 19.3058ZM 3.22468 3.40197L 17.3327 3.40197L 17.3327 2.90197L 3.22468 2.90197L 3.22468 3.40197ZM 17.3327 3.40197C 18.3521 3.40197 19.195 2.58619 19.195 1.57599L 18.695 1.57599C 18.695 2.29936 18.0868 2.90197 17.3327 2.90197L 17.3327 3.40197ZM 19.195 1.57599C 19.195 0.565777 18.3521 -0.25 17.3327 -0.25L 17.3327 0.25C 18.0868 0.25 18.695 0.852609 18.695 1.57599L 19.195 1.57599ZM 17.3327 -0.25L 1.61234 -0.25L 1.61234 0.25L 17.3327 0.25L 17.3327 -0.25ZM 1.61234 -0.25L -2.46024e-06 -0.25L -2.46024e-06 0.25L 1.61234 0.25L 1.61234 -0.25ZM -0.250002 1.1742e-09L -0.250002 1.57599L 0.249998 1.57599L 0.249998 1.1742e-09L -0.250002 1.1742e-09ZM -0.250002 1.57599L -0.250002 4.33396L 0.249998 4.33396L 0.249998 1.57599L -0.250002 1.57599ZM -0.250002 4.33396L -0.250002 37.3509L 0.249998 37.3509L 0.249998 4.33396L -0.250002 4.33396ZM -0.250002 37.3509L -0.250002 40.1088L 0.249998 40.1088L 0.249998 37.3509L -0.250002 37.3509ZM -0.250002 40.1088L -0.250002 41.6848L 0.249998 41.6848L 0.249998 40.1088L -0.250002 40.1088ZM -2.46024e-06 41.9348L 1.61234 41.9348L 1.61234 41.4348L -2.46024e-06 41.4348L -2.46024e-06 41.9348ZM 1.61234 41.9348L 2.57975 41.9348L 2.57975 41.4348L 1.61234 41.4348L 1.61234 41.9348ZM 2.57975 41.9348L 17.3327 41.9348L 17.3327 41.4348L 2.57975 41.4348L 2.57975 41.9348ZM 17.3327 41.9348C 18.3521 41.9348 19.195 41.119 19.195 40.1088L 18.695 40.1088C 18.695 40.8322 18.0868 41.4348 17.3327 41.4348L 17.3327 41.9348ZM 19.195 40.1088C 19.195 39.0986 18.3521 38.2828 17.3327 38.2828L 17.3327 38.7828C 18.0868 38.7828 18.695 39.3854 18.695 40.1088L 19.195 40.1088ZM 17.3327 38.2828L 3.22468 38.2828L 3.22468 38.7828L 17.3327 38.7828L 17.3327 38.2828ZM 3.47468 38.5328L 3.47468 22.4578L 2.97468 22.4578L 2.97468 38.5328L 3.47468 38.5328ZM 3.22468 22.7078L 17.3327 22.7078L 17.3327 22.2078L 3.22468 22.2078L 3.22468 22.7078Z"/>
<path id="path16_fill" d="M 17.4133 22.4578C 18.3001 22.4578 19.0256 21.7486 19.0256 20.8818C 19.0256 20.015 18.3001 19.3058 17.4133 19.3058L 3.30531 19.3058L 3.30531 3.15197L 17.4133 3.15197C 18.3001 3.15197 19.0256 2.44278 19.0256 1.57599C 19.0256 0.709193 18.3001 1.1742e-09 17.4133 1.1742e-09L 1.61234 1.1742e-09L 0 1.1742e-09L 0 1.57599L 0 4.33396L 0 37.3509L 0 40.1088L 0 41.6848L 1.61234 41.6848L 2.57976 41.6848L 17.3327 41.6848C 18.2195 41.6848 18.945 40.9756 18.945 40.1088C 18.945 39.242 18.2195 38.5328 17.3327 38.5328L 3.22469 38.5328L 3.22469 22.4578L 17.4133 22.4578Z"/>
<path id="path17_stroke" d="M 3.30531 19.3058L 3.05531 19.3058L 3.05531 19.5558L 3.30531 19.5558L 3.30531 19.3058ZM 3.30531 3.15197L 3.30531 2.90197L 3.05531 2.90197L 3.05531 3.15197L 3.30531 3.15197ZM 0 1.1742e-09L 0 -0.25L -0.25 -0.25L -0.25 1.1742e-09L 0 1.1742e-09ZM 0 41.6848L -0.25 41.6848L -0.25 41.9348L 0 41.9348L 0 41.6848ZM 3.22469 38.5328L 2.97469 38.5328L 2.97469 38.7828L 3.22469 38.7828L 3.22469 38.5328ZM 3.22469 22.4578L 3.22469 22.2078L 2.97469 22.2078L 2.97469 22.4578L 3.22469 22.4578ZM 17.4133 22.7078C 18.4328 22.7078 19.2756 21.892 19.2756 20.8818L 18.7756 20.8818C 18.7756 21.6052 18.1674 22.2078 17.4133 22.2078L 17.4133 22.7078ZM 19.2756 20.8818C 19.2756 19.8716 18.4328 19.0558 17.4133 19.0558L 17.4133 19.5558C 18.1674 19.5558 18.7756 20.1584 18.7756 20.8818L 19.2756 20.8818ZM 17.4133 19.0558L 3.30531 19.0558L 3.30531 19.5558L 17.4133 19.5558L 17.4133 19.0558ZM 3.55531 19.3058L 3.55531 3.15197L 3.05531 3.15197L 3.05531 19.3058L 3.55531 19.3058ZM 3.30531 3.40197L 17.4133 3.40197L 17.4133 2.90197L 3.30531 2.90197L 3.30531 3.40197ZM 17.4133 3.40197C 18.4328 3.40197 19.2756 2.58619 19.2756 1.57599L 18.7756 1.57599C 18.7756 2.29936 18.1674 2.90197 17.4133 2.90197L 17.4133 3.40197ZM 19.2756 1.57599C 19.2756 0.565777 18.4328 -0.25 17.4133 -0.25L 17.4133 0.25C 18.1674 0.25 18.7756 0.852609 18.7756 1.57599L 19.2756 1.57599ZM 17.4133 -0.25L 1.61234 -0.25L 1.61234 0.25L 17.4133 0.25L 17.4133 -0.25ZM 1.61234 -0.25L 0 -0.25L 0 0.25L 1.61234 0.25L 1.61234 -0.25ZM -0.25 1.1742e-09L -0.25 1.57599L 0.25 1.57599L 0.25 1.1742e-09L -0.25 1.1742e-09ZM -0.25 1.57599L -0.25 4.33396L 0.25 4.33396L 0.25 1.57599L -0.25 1.57599ZM -0.25 4.33396L -0.25 37.3509L 0.25 37.3509L 0.25 4.33396L -0.25 4.33396ZM -0.25 37.3509L -0.25 40.1088L 0.25 40.1088L 0.25 37.3509L -0.25 37.3509ZM -0.25 40.1088L -0.25 41.6848L 0.25 41.6848L 0.25 40.1088L -0.25 40.1088ZM 0 41.9348L 1.61234 41.9348L 1.61234 41.4348L 0 41.4348L 0 41.9348ZM 1.61234 41.9348L 2.57976 41.9348L 2.57976 41.4348L 1.61234 41.4348L 1.61234 41.9348ZM 2.57976 41.9348L 17.3327 41.9348L 17.3327 41.4348L 2.57976 41.4348L 2.57976 41.9348ZM 17.3327 41.9348C 18.3521 41.9348 19.195 41.119 19.195 40.1088L 18.695 40.1088C 18.695 40.8322 18.0868 41.4348 17.3327 41.4348L 17.3327 41.9348ZM 19.195 40.1088C 19.195 39.0986 18.3521 38.2828 17.3327 38.2828L 17.3327 38.7828C 18.0868 38.7828 18.695 39.3854 18.695 40.1088L 19.195 40.1088ZM 17.3327 38.2828L 3.22469 38.2828L 3.22469 38.7828L 17.3327 38.7828L 17.3327 38.2828ZM 3.47469 38.5328L 3.47469 22.4578L 2.97469 22.4578L 2.97469 38.5328L 3.47469 38.5328ZM 3.22469 22.7078L 17.4133 22.7078L 17.4133 22.2078L 3.22469 22.2078L 3.22469 22.7078Z"/>
<path id="path18_fill" d="M 23.1933 39.8724L 13.7611 1.1742e-09L 9.97208 1.1742e-09L 0.0561728 39.8724C -0.185679 40.7392 0.378641 41.606 1.26543 41.8424C 1.42666 41.8424 1.50728 41.9212 1.66852 41.9212C 2.39407 41.9212 3.11962 41.4484 3.28086 40.6604L 5.77998 30.5741L 17.6307 30.5741L 20.0492 40.6604C 20.2105 41.3696 20.936 41.9212 21.6616 41.9212C 21.8228 41.9212 21.9034 41.9212 22.0647 41.8424C 22.8708 41.606 23.4351 40.7392 23.1933 39.8724ZM 6.58615 27.2645L 11.8263 6.14634L 16.8245 27.2645L 6.58615 27.2645Z"/>
<path id="path19_stroke" d="M 23.1933 39.8724L 22.9498 39.93L 22.9525 39.9396L 23.1933 39.8724ZM 13.7611 1.1742e-09L 14.0044 -0.0575516L 13.9588 -0.25L 13.7611 -0.25L 13.7611 1.1742e-09ZM 9.97208 1.1742e-09L 9.97208 -0.25L 9.77664 -0.25L 9.72947 -0.0603349L 9.97208 1.1742e-09ZM 0.0561728 39.8724L 0.297072 39.9396L 0.298783 39.9328L 0.0561728 39.8724ZM 1.26543 41.8424L 1.20103 42.084L 1.23268 42.0924L 1.26543 42.0924L 1.26543 41.8424ZM 3.28086 40.6604L 3.03799 40.6002L 3.03593 40.6103L 3.28086 40.6604ZM 5.77998 30.5741L 5.77998 30.3241L 5.58436 30.3241L 5.53732 30.514L 5.77998 30.5741ZM 17.6307 30.5741L 17.8738 30.5158L 17.8279 30.3241L 17.6307 30.3241L 17.6307 30.5741ZM 20.0492 40.6604L 20.293 40.605L 20.2923 40.6021L 20.0492 40.6604ZM 22.0647 41.8424L 21.9943 41.6025L 21.9739 41.6085L 21.9549 41.6178L 22.0647 41.8424ZM 6.58615 27.2645L 6.34351 27.2043L 6.26654 27.5145L 6.58615 27.5145L 6.58615 27.2645ZM 11.8263 6.14634L 12.0695 6.08876L 11.5836 6.08614L 11.8263 6.14634ZM 16.8245 27.2645L 16.8245 27.5145L 17.1406 27.5145L 17.0678 27.207L 16.8245 27.2645ZM 23.4366 39.8149L 14.0044 -0.0575516L 13.5178 0.0575516L 22.95 39.93L 23.4366 39.8149ZM 13.7611 -0.25L 9.97208 -0.25L 9.97208 0.25L 13.7611 0.25L 13.7611 -0.25ZM 9.72947 -0.0603349L -0.186437 39.8121L 0.298783 39.9328L 10.2147 0.0603349L 9.72947 -0.0603349ZM -0.184629 39.8052C -0.468846 40.8239 0.198262 41.8167 1.20103 42.084L 1.32983 41.6008C 0.559021 41.3954 0.0974886 40.6546 0.296975 39.9396L -0.184629 39.8052ZM 1.26543 42.0924C 1.30244 42.0924 1.32925 42.0999 1.38953 42.1195C 1.45017 42.1393 1.54429 42.1712 1.66852 42.1712L 1.66852 41.6712C 1.63151 41.6712 1.6047 41.6637 1.54442 41.6441C 1.48377 41.6243 1.38966 41.5924 1.26543 41.5924L 1.26543 42.0924ZM 1.66852 42.1712C 2.49228 42.1712 3.33685 41.6339 3.52578 40.7105L 3.03593 40.6103C 2.90239 41.2629 2.29586 41.6712 1.66852 41.6712L 1.66852 42.1712ZM 3.52352 40.7205L 6.02264 30.6342L 5.53732 30.514L 3.0382 40.6003L 3.52352 40.7205ZM 5.77998 30.8241L 17.6307 30.8241L 17.6307 30.3241L 5.77998 30.3241L 5.77998 30.8241ZM 17.3876 30.6324L 19.8061 40.7187L 20.2923 40.6021L 17.8738 30.5158L 17.3876 30.6324ZM 19.8054 40.7158C 19.9939 41.5447 20.8254 42.1712 21.6616 42.1712L 21.6616 41.6712C 21.0466 41.6712 20.427 41.1945 20.293 40.605L 19.8054 40.7158ZM 21.6616 42.1712C 21.7374 42.1712 21.8191 42.1718 21.9033 42.1581C 21.9936 42.1434 22.0777 42.1143 22.1744 42.067L 21.9549 41.6178C 21.8904 41.6493 21.8535 41.6596 21.8229 41.6646C 21.7862 41.6706 21.747 41.6712 21.6616 41.6712L 21.6616 42.1712ZM 22.135 42.0823C 23.0581 41.8116 23.7166 40.8177 23.4341 39.8052L 22.9525 39.9396C 23.1537 40.6607 22.6835 41.4004 21.9943 41.6025L 22.135 42.0823ZM 6.82879 27.3248L 12.0689 6.20655L 11.5836 6.08614L 6.34351 27.2043L 6.82879 27.3248ZM 11.583 6.20392L 16.5813 27.3221L 17.0678 27.207L 12.0695 6.08876L 11.583 6.20392ZM 16.8245 27.0145L 6.58615 27.0145L 6.58615 27.5145L 16.8245 27.5145L 16.8245 27.0145Z"/>
</defs>
</svg>
