<svg width="656" height="524" viewBox="0 0 656 524" version="1.1" xmlns="http://www.w3.org/2000/svg" xmlns:xlink="http://www.w3.org/1999/xlink">
<title>img_game</title>
<desc>Created using Figma</desc>
<g id="Canvas" transform="matrix(4 0 0 4 -41920 844)">
<g id="img_game" filter="url(#filter0_d)">
<g id="Union">
<use xlink:href="#path0_fill" transform="matrix(0.965926 -0.258819 0.258819 0.965926 10471.9 -156.192)" fill="#239ECD"/>
<mask id="mask0_outline_ins">
<use xlink:href="#path0_fill" fill="white" transform="matrix(0.965926 -0.258819 0.258819 0.965926 10471.9 -156.192)"/>
</mask>
<g mask="url(#mask0_outline_ins)">
<use xlink:href="#path1_stroke_2x" transform="matrix(0.965926 -0.258819 0.258819 0.965926 10471.9 -156.192)" fill="#FFFFFF"/>
</g>
</g>
<g id="Union">
<use xlink:href="#path2_fill" transform="matrix(0.965926 -0.258819 0.258819 0.965926 10502.5 -132.301)" fill="#FFFFFF"/>
</g>
<g id="Ellipse">
<use xlink:href="#path3_fill" transform="matrix(0.965926 -0.258819 0.258819 0.965926 10594.1 -159.774)" fill="#FFFFFF"/>
</g>
<g id="Ellipse">
<use xlink:href="#path3_fill" transform="matrix(0.965926 -0.258819 0.258819 0.965926 10598.8 -142.387)" fill="#FFFFFF"/>
</g>
<g id="Ellipse">
<use xlink:href="#path3_fill" transform="matrix(0.258819 0.965926 -0.965926 0.258819 10612.9 -155.48)" fill="#FFFFFF"/>
</g>
<g id="Ellipse">
<use xlink:href="#path3_fill" transform="matrix(0.258819 0.965926 -0.965926 0.258819 10595.5 -150.822)" fill="#FFFFFF"/>
</g>
<g id="Vector">
<use xlink:href="#path4_stroke" transform="matrix(0.5 -0.866025 0.866025 0.5 10518.4 -192.818)" fill="#FFFFFF"/>
</g>
</g>
</g>
<defs>
<filter id="filter0_d" filterUnits="userSpaceOnUse" x="10480" y="-211" width="164" height="131" color-interpolation-filters="sRGB">
<feFlood flood-opacity="0" result="BackgroundImageFix"/>
<feColorMatrix in="SourceAlpha" type="matrix" values="0 0 0 0 0 0 0 0 0 0 0 0 0 0 0 0 0 0 255 0"/>
<feOffset dx="4" dy="5"/>
<feGaussianBlur stdDeviation="2.5"/>
<feColorMatrix type="matrix" values="0 0 0 0 0 0 0 0 0 0 0 0 0 0 0 0 0 0 0.25 0"/>
<feBlend mode="normal" in2="BackgroundImageFix" result="effect1_dropShadow"/>
<feBlend mode="normal" in="SourceGraphic" in2="effect1_dropShadow" result="shape"/>
</filter>
<path id="path0_fill" d="M 93.4366 4.06455C 95.2932 6.57806 97.7608 9.17749 100.886 9.17749L 123 9.17749C 141.226 9.17749 156 23.9521 156 42.1775C 156 60.4029 141.226 75.1775 123 75.1775C 112.667 75.1775 103.444 70.4286 97.3931 62.9944C 93.1123 57.7351 87.3442 56.1775 80.563 56.1775L 75.437 56.1775C 68.6558 56.1775 62.8877 57.7351 58.6069 62.9944C 52.5562 70.4286 43.333 75.1775 33 75.1775C 14.7744 75.1775 0 60.4029 0 42.1775C 0 23.9521 14.7744 9.17749 33 9.17749L 53.8897 9.17749C 57.0145 9.17749 59.4822 6.57806 61.3388 4.06455C 63.16 1.59898 66.087 0 69.3877 0L 85.3877 0C 88.6883 0 91.6154 1.59898 93.4366 4.06455Z"/>
<path id="path1_stroke_2x" d="M 97.3931 62.9944L 100.495 60.4694L 100.495 60.4693L 97.3931 62.9944ZM 58.6069 62.9944L 55.5047 60.4693L 55.5046 60.4694L 58.6069 62.9944ZM 61.3388 4.06455L 58.1214 1.68797L 61.3388 4.06455ZM 93.4366 4.06455L 90.2192 6.44113L 93.4366 4.06455ZM 100.886 13.1775L 123 13.1775L 123 5.17749L 100.886 5.17749L 100.886 13.1775ZM 123 13.1775C 139.016 13.1775 152 26.1612 152 42.1775L 160 42.1775C 160 21.743 143.435 5.17749 123 5.17749L 123 13.1775ZM 152 42.1775C 152 58.1938 139.016 71.1775 123 71.1775L 123 79.1775C 143.435 79.1775 160 62.612 160 42.1775L 152 42.1775ZM 123 71.1775C 113.921 71.1775 105.819 67.0104 100.495 60.4694L 94.2907 65.5193C 101.068 73.8468 111.413 79.1775 123 79.1775L 123 71.1775ZM 100.495 60.4693C 95.1549 53.9082 87.9741 52.1775 80.563 52.1775L 80.563 60.1775C 86.7144 60.1775 91.0697 61.562 94.2908 65.5194L 100.495 60.4693ZM 80.563 52.1775L 75.437 52.1775L 75.437 60.1775L 80.563 60.1775L 80.563 52.1775ZM 75.437 52.1775C 68.0259 52.1775 60.8451 53.9082 55.5047 60.4693L 61.7092 65.5194C 64.9303 61.562 69.2856 60.1775 75.437 60.1775L 75.437 52.1775ZM 55.5046 60.4694C 50.1808 67.0104 42.0789 71.1775 33 71.1775L 33 79.1775C 44.5871 79.1775 54.9315 73.8468 61.7093 65.5193L 55.5046 60.4694ZM 33 71.1775C 16.9836 71.1775 4 58.1938 4 42.1775L -4 42.1775C -4 62.612 12.5653 79.1775 33 79.1775L 33 71.1775ZM 4 42.1775C 4 26.1612 16.9836 13.1775 33 13.1775L 33 5.17749C 12.5653 5.17749 -4 21.743 -4 42.1775L 4 42.1775ZM 33 13.1775L 53.8897 13.1775L 53.8897 5.17749L 33 5.17749L 33 13.1775ZM 64.5562 6.44113C 65.6558 4.95259 67.41 4 69.3877 4L 69.3877 -4C 64.7641 -4 60.6643 -1.75463 58.1214 1.68797L 64.5562 6.44113ZM 69.3877 4L 85.3877 4L 85.3877 -4L 69.3877 -4L 69.3877 4ZM 85.3877 4C 87.3654 4 89.1196 4.95259 90.2192 6.44113L 96.654 1.68797C 94.1111 -1.75463 90.0113 -4 85.3877 -4L 85.3877 4ZM 53.8897 13.1775C 56.6208 13.1775 58.8617 12.0306 60.5455 10.7211C 62.2085 9.42773 63.5437 7.81187 64.5562 6.44113L 58.1214 1.68797C 57.2773 2.83074 56.4503 3.77135 55.6342 4.40608C 54.8388 5.02468 54.2834 5.17749 53.8897 5.17749L 53.8897 13.1775ZM 100.886 5.17749C 100.492 5.17749 99.9366 5.02468 99.1412 4.40608C 98.325 3.77135 97.4981 2.83074 96.654 1.68797L 90.2192 6.44113C 91.2317 7.81187 92.5669 9.42773 94.2299 10.7211C 95.9137 12.0306 98.1546 13.1775 100.886 13.1775L 100.886 5.17749Z"/>
<path id="path2_fill" fill-rule="evenodd" d="M 8.00062 12L 8.00037 20L 12.0004 20L 12.0007 12L 20.0003 12L 20 7.99987L 12.0003 7.99985L 12.0005 2.24514e-05L 8.00048 0L 8.00027 7.99985L 0.000115221 7.99991L 0 11.9999L 8.00062 12Z"/>
<path id="path3_fill" d="M 8 4C 8 6.20914 6.20914 8 4 8C 1.79086 8 0 6.20914 0 4C 0 1.79086 1.79086 0 4 0C 6.20914 0 8 1.79086 8 4Z"/>
<path id="path4_stroke" d="M 30.0394 32.9999C 30.0394 34.1045 30.9348 34.9999 32.0394 34.9999C 33.1439 34.9999 34.0394 34.1045 34.0394 32.9999L 30.0394 32.9999ZM 0.0465393 -2C -1.05803 -2 -1.95346 -1.10457 -1.95346 0C -1.95346 1.10457 -1.05803 2 0.0465393 2L 0.0465393 -2ZM 21.9829 32.9999C 21.9829 34.1045 22.8784 34.9999 23.9829 34.9999C 25.0875 34.9999 25.9829 34.1045 25.9829 32.9999L 21.9829 32.9999ZM 0 6.2621C -1.10457 6.2621 -2 7.15753 -2 8.2621C -2 9.36667 -1.10457 10.2621 0 10.2621L 0 6.2621ZM 14.0188 33C 14.0188 34.1046 14.9142 35 16.0188 35C 17.1233 35 18.0188 34.1046 18.0188 33L 14.0188 33ZM 0.0457457 14.5242C -1.05882 14.5242 -1.95425 15.4196 -1.95425 16.5242C -1.95425 17.6288 -1.05882 18.5242 0.045746 18.5242L 0.0457457 14.5242ZM 32.0162 31.7284L 34.0149 31.6554L 32.0162 31.7284ZM 25.9829 32.9999C 25.9829 18.3291 14.3719 6.2621 0 6.2621L 0 10.2621C 12.0468 10.2621 21.9829 20.4205 21.9829 32.9999L 25.9829 32.9999ZM 18.0188 33C 18.0188 22.8709 10.0145 14.5242 0.0457457 14.5242L 0.045746 18.5242C 7.68944 18.5242 14.0188 24.9623 14.0188 33L 18.0188 33ZM 34.0394 32.9999C 34.0394 32.5499 34.0312 32.1016 34.0149 31.6554L 30.0176 31.8013C 30.0321 32.1987 30.0394 32.5983 30.0394 32.9999L 34.0394 32.9999ZM 34.0149 31.6554C 33.3329 12.9682 18.4744 -2 0.0465393 -2L 0.0465393 2C 16.2053 2 29.4098 15.1464 30.0176 31.8013L 34.0149 31.6554Z"/>
</defs>
</svg>
