<svg width="796" height="716" viewBox="0 0 796 716" version="1.1" xmlns="http://www.w3.org/2000/svg" xmlns:xlink="http://www.w3.org/1999/xlink">
<title>connect</title>
<desc>Created using Figma</desc>
<g id="Canvas" transform="matrix(4 0 0 4 -58304 -3704)">
<g id="connect">
<g id="Group">
<g id="Vector">
<use xlink:href="#path0_stroke" transform="matrix(1.00079 0 0 0.999205 14668.5 927.282)" fill="url(#paint0_linear)"/>
</g>
<g id="Vector">
<use xlink:href="#path1_stroke" transform="matrix(1.00079 0 0 0.999205 14602.4 1030.8)" fill="url(#paint1_linear)"/>
</g>
<g id="Group">
<g id="Vector">
<use xlink:href="#path2_stroke" transform="matrix(0.70767 -0.706543 0.70767 0.706543 14648.2 1009.62)" fill="url(#paint2_linear)"/>
</g>
<g id="Vector">
<use xlink:href="#path3_stroke" transform="matrix(0.707666 -0.706548 0.707666 0.706548 14578 1068.24)" fill="url(#paint3_linear)"/>
</g>
<g id="Vector">
<use xlink:href="#path4_stroke" transform="matrix(0.707671 -0.706542 0.707671 0.706542 14653.8 1015.34)" fill="url(#paint4_linear)"/>
</g>
<g id="Vector">
<use xlink:href="#path5_stroke" transform="matrix(0.707667 -0.706546 0.707667 0.706546 14583.8 1074)" fill="url(#paint5_linear)"/>
</g>
<g id="Vector">
<use xlink:href="#path6_stroke" transform="matrix(0.707667 -0.706546 0.707667 0.706546 14589.2 1079.42)" fill="url(#paint6_linear)"/>
</g>
</g>
<g id="Group">
<g id="Vector">
<use xlink:href="#path7_stroke" transform="matrix(0.70767 -0.706544 0.70767 0.706544 14662.7 1029.41)" fill="url(#paint7_linear)"/>
</g>
<g id="Vector">
<use xlink:href="#path8_stroke" transform="matrix(0.707667 -0.706546 0.707667 0.706546 14668.1 1024.05)" fill="url(#paint8_linear)"/>
</g>
<g id="Vector">
<use xlink:href="#path9_stroke" transform="matrix(0.70767 -0.706544 0.70767 0.706544 14674.1 1017.97)" fill="url(#paint9_linear)"/>
</g>
</g>
</g>
</g>
</g>
<defs>
<linearGradient id="paint0_linear" x1="0" y1="0" x2="1" y2="0" gradientUnits="userSpaceOnUse" gradientTransform="matrix(40.9531 -40.9531 43.1321 43.1321 -8.67306 48.892)">
<stop offset="0" stop-color="#C1C3C3"/>
<stop offset="1" stop-color="#C1C3C3" stop-opacity="0"/>
</linearGradient>
<linearGradient id="paint1_linear" x1="0" y1="0" x2="1" y2="0" gradientUnits="userSpaceOnUse" gradientTransform="matrix(-61.4296 60.9643 -64.2675 -64.7581 100.82 36.4719)">
<stop offset="0" stop-color="#C1C3C3"/>
<stop offset="0.624309" stop-color="#C1C3C3" stop-opacity="0"/>
</linearGradient>
<linearGradient id="paint2_linear" x1="0" y1="0" x2="1" y2="0" gradientUnits="userSpaceOnUse" gradientTransform="matrix(26.9138 0 0 26.9138 0.1025 -2.70993)">
<stop offset="0.154696" stop-color="#C1C3C3" stop-opacity="0"/>
<stop offset="1" stop-color="#0AB2AE"/>
</linearGradient>
<linearGradient id="paint3_linear" x1="0" y1="0" x2="1" y2="0" gradientUnits="userSpaceOnUse" gradientTransform="matrix(118.527 -7.98908e-15 -6.33998e-14 31.0691 0.522752 -1.16751)">
<stop offset="0.154696" stop-color="#C1C3C3" stop-opacity="0"/>
<stop offset="1" stop-color="#0AB2AE"/>
</linearGradient>
<linearGradient id="paint4_linear" x1="0" y1="0" x2="1" y2="0" gradientUnits="userSpaceOnUse" gradientTransform="matrix(18.0115 0 0 18.0115 0.0685964 -1.81357)">
<stop offset="0.154696" stop-color="#C1C3C3" stop-opacity="0"/>
<stop offset="1" stop-color="#0AB2AE"/>
</linearGradient>
<linearGradient id="paint5_linear" x1="0" y1="0" x2="1" y2="0" gradientUnits="userSpaceOnUse" gradientTransform="matrix(110.863 9.2629e-14 0 23.2641 0.488454 -0.885095)">
<stop offset="0.154696" stop-color="#C1C3C3" stop-opacity="0"/>
<stop offset="1" stop-color="#0AB2AE"/>
</linearGradient>
<linearGradient id="paint6_linear" x1="0" y1="0" x2="1" y2="0" gradientUnits="userSpaceOnUse" gradientTransform="matrix(103.465 6.12249e-14 -1.55116e-14 15.9491 0.454156 -0.634348)">
<stop offset="0.225427" stop-color="#C1C3C3" stop-opacity="0"/>
<stop offset="1" stop-color="#0AB2AE"/>
</linearGradient>
<linearGradient id="paint7_linear" x1="0" y1="0" x2="1" y2="0" gradientUnits="userSpaceOnUse" gradientTransform="matrix(117.026 -7.97575e-15 0 30.3726 6.8775 2.78335)">
<stop offset="0" stop-color="#EB6153"/>
<stop offset="0.834254" stop-color="#C1C3C3" stop-opacity="0"/>
</linearGradient>
<linearGradient id="paint8_linear" x1="0" y1="0" x2="1" y2="0" gradientUnits="userSpaceOnUse" gradientTransform="matrix(110.539 -3.88444e-14 0 22.9922 5.30176 1.96817)">
<stop offset="0" stop-color="#EB6153"/>
<stop offset="0.834254" stop-color="#C1C3C3" stop-opacity="0"/>
</linearGradient>
<linearGradient id="paint9_linear" x1="0" y1="0" x2="1" y2="0" gradientUnits="userSpaceOnUse" gradientTransform="matrix(103.545 -7.79876e-14 6.68285e-14 15.4916 4.2339 1.26488)">
<stop offset="0" stop-color="#EB6153"/>
<stop offset="0.834254" stop-color="#C1C3C3" stop-opacity="0"/>
</linearGradient>
<path id="path0_stroke" d="M 1.06066 68.3237L 68.3237 1.06066L 66.2024 -1.06066L -1.06066 66.2024L 1.06066 68.3237ZM 11.6992 71.1234L 75.2098 7.61274L 73.0885 5.49142L 9.57787 69.002L 11.6992 71.1234ZM 19.495 75.6458L 81.6893 13.4515L 79.568 11.3301L 17.3737 73.5245L 19.495 75.6458Z"/>
<path id="path1_stroke" d="M 75.7675 6.0045L 9.95334 71.8186L 12.0747 73.9399L 77.8888 8.12582L 75.7675 6.0045ZM 66.7279 3.54633L 4.20447 66.0697L 6.32579 68.1911L 68.8492 5.66765L 66.7279 3.54633ZM 60.8046 -1.06066L -1.06066 60.8046L 1.06066 62.9259L 62.9259 1.06066L 60.8046 -1.06066Z"/>
<path id="path2_stroke" d="M 25.6996 24.1996C 25.6996 9.96455 14.1344 -1.5 1.42022e-06 -1.5L 1.42022e-06 1.5C 12.4851 1.5 22.6996 11.6289 22.6996 24.1996L 25.6996 24.1996Z"/>
<path id="path3_stroke" d="M 91.1207 0.0539682L 91.1198 1.55397L 91.1207 1.55397L 91.1207 0.0539682ZM 124.918 32.3511C 124.918 13.6494 109.724 -1.44603 91.1207 -1.44603L 91.1207 1.55397C 108.072 1.55397 121.918 15.3119 121.918 32.3511L 124.918 32.3511ZM 91.1216 -1.44603L 0.000888407 -1.5L -0.000888407 1.5L 91.1198 1.55397L 91.1216 -1.44603Z"/>
<path id="path4_stroke" d="M 17.6951 16.1951C 17.6951 6.43144 9.76365 -1.5 2.84043e-06 -1.5L 2.84043e-06 1.5C 8.1068 1.5 14.6951 8.08829 14.6951 16.1951L 17.6951 16.1951Z"/>
<path id="path5_stroke" d="M 91.1207 0L 91.1207 -1.5L 91.1207 0ZM 116.82 24.1996C 116.82 9.96454 105.255 -1.5 91.1207 -1.5L 91.1207 1.5C 103.606 1.5 113.82 11.6289 113.82 24.1996L 116.82 24.1996ZM 91.1207 -1.5L -3.65299e-08 -1.5L 3.65299e-08 1.5L 91.1207 1.5L 91.1207 -1.5Z"/>
<path id="path6_stroke" d="M 91.0276 0.333239L 91.0221 1.83324L 91.0276 1.83324L 91.0276 0.333239ZM 108.723 16.5283C 108.723 6.76467 100.791 -1.16676 91.0276 -1.16676L 91.0276 1.83324C 99.1344 1.83324 105.723 8.42153 105.723 16.5283L 108.723 16.5283ZM 91.0331 -1.16675L 0.00549125 -1.49999L -0.00549125 1.49999L 91.0221 1.83323L 91.0331 -1.16675Z"/>
<path id="path7_stroke" d="M -1.5 0C -1.5 18.6989 13.5982 33.7971 32.2971 33.7971L 32.2971 30.7971C 15.2551 30.7971 1.5 17.042 1.5 0L -1.5 0ZM 32.2971 33.7971L 124.442 33.7971L 124.442 30.7971L 32.2971 30.7971L 32.2971 33.7971Z"/>
<path id="path8_stroke" d="M -1.5 0C -1.5 14.2423 10.1286 25.6996 24.3243 25.6996L 24.3243 22.6996C 11.7633 22.6996 1.5 12.5634 1.5 0L -1.5 0ZM 24.3243 25.6996L 116.344 25.6996L 116.344 22.6996L 24.3243 22.6996L 24.3243 25.6996Z"/>
<path id="path9_stroke" d="M -1.5 0C -1.5 9.76365 6.43145 17.6951 16.1951 17.6951L 16.1951 14.6951C 8.0883 14.6951 1.5 8.10679 1.5 0L -1.5 0ZM 16.1951 17.6951L 108.246 17.6951L 108.246 14.6951L 16.1951 14.6951L 16.1951 17.6951Z"/>
</defs>
</svg>
