<svg width="1100" height="496" viewBox="0 0 1100 496" version="1.1" xmlns="http://www.w3.org/2000/svg" xmlns:xlink="http://www.w3.org/1999/xlink">
<title>img_airplane</title>
<desc>Created using Figma</desc>
<g id="Canvas" transform="matrix(4 0 0 4 -42900 2080)">
<g id="img_airplane">
<g id="Vector" filter="url(#filter0_d)">
<use xlink:href="#path0_fill" transform="matrix(1 0 0.000459137 1 10945 -517.34)" fill="#229ECD"/>
<use xlink:href="#path1_stroke" transform="matrix(1 0 0.000459137 1 10945 -517.34)" fill="#FFFFFF"/>
</g>
<g id="Vector" filter="url(#filter1_d)">
<use xlink:href="#path2_fill" transform="matrix(0.965926 -0.258819 0.258924 0.965898 10744 -487.48)" fill="#209FCC"/>
<use xlink:href="#path3_stroke" transform="matrix(0.965926 -0.258819 0.258924 0.965898 10744 -487.48)" fill="#FFFFFF"/>
</g>
<g id="Vector" filter="url(#filter2_d)">
<use xlink:href="#path4_fill" transform="matrix(1 0 0.000459137 1 10728 -456.34)" fill="#229ECD"/>
<use xlink:href="#path5_stroke" transform="matrix(1 0 0.000459137 1 10728 -456.34)" fill="#FFFFFF"/>
</g>
</g>
</g>
<defs>
<filter id="filter0_d" filterUnits="userSpaceOnUse" x="10942" y="-520" width="58" height="44" color-interpolation-filters="sRGB">
<feFlood flood-opacity="0" result="BackgroundImageFix"/>
<feColorMatrix in="SourceAlpha" type="matrix" values="0 0 0 0 0 0 0 0 0 0 0 0 0 0 0 0 0 0 255 0"/>
<feOffset dx="4" dy="5"/>
<feGaussianBlur stdDeviation="2.5"/>
<feColorMatrix type="matrix" values="0 0 0 0 0 0 0 0 0 0 0 0 0 0 0 0 0 0 0.25 0"/>
<feBlend mode="normal" in2="BackgroundImageFix" result="effect1_dropShadow"/>
<feBlend mode="normal" in="SourceGraphic" in2="effect1_dropShadow" result="shape"/>
</filter>
<filter id="filter1_d" filterUnits="userSpaceOnUse" x="10740" y="-507" width="243" height="111" color-interpolation-filters="sRGB">
<feFlood flood-opacity="0" result="BackgroundImageFix"/>
<feColorMatrix in="SourceAlpha" type="matrix" values="0 0 0 0 0 0 0 0 0 0 0 0 0 0 0 0 0 0 255 0"/>
<feOffset dx="4" dy="5"/>
<feGaussianBlur stdDeviation="2.5"/>
<feColorMatrix type="matrix" values="0 0 0 0 0 0 0 0 0 0 0 0 0 0 0 0 0 0 0.25 0"/>
<feBlend mode="normal" in2="BackgroundImageFix" result="effect1_dropShadow"/>
<feBlend mode="normal" in="SourceGraphic" in2="effect1_dropShadow" result="shape"/>
</filter>
<filter id="filter2_d" filterUnits="userSpaceOnUse" x="10725" y="-459" width="77" height="56" color-interpolation-filters="sRGB">
<feFlood flood-opacity="0" result="BackgroundImageFix"/>
<feColorMatrix in="SourceAlpha" type="matrix" values="0 0 0 0 0 0 0 0 0 0 0 0 0 0 0 0 0 0 255 0"/>
<feOffset dx="4" dy="5"/>
<feGaussianBlur stdDeviation="2.5"/>
<feColorMatrix type="matrix" values="0 0 0 0 0 0 0 0 0 0 0 0 0 0 0 0 0 0 0.25 0"/>
<feBlend mode="normal" in2="BackgroundImageFix" result="effect1_dropShadow"/>
<feBlend mode="normal" in="SourceGraphic" in2="effect1_dropShadow" result="shape"/>
</filter>
<path id="path0_fill" d="M 11.7106 28.8564C 5.25528 28.8564 1.70098e-16 23.6655 0 17.2893C -1.70098e-16 10.9131 5.25528 5.72223 11.7106 5.72223C 13.1589 5.72223 14.5658 6.00835 15.8486 6.45795C 16.8417 2.7385 20.2763 1.17033e-16 24.3316 0C 29.173 -1.39723e-16 33.0628 3.88294 33.0628 8.62422C 33.0628 9.85041 32.8145 10.9949 32.3593 12.0576C 33.2697 11.7306 34.2214 11.5671 35.2559 11.5671C 40.0974 11.5671 43.9871 15.45 43.9871 20.1913C 43.9871 24.9735 40.056 28.8155 35.2559 28.8155L 22.5073 28.8564L 11.7106 28.8564Z"/>
<path id="path1_stroke" d="M 15.8486 6.45795L 15.1871 8.34538L 17.2241 9.05933L 17.7809 6.97389L 15.8486 6.45795ZM 32.3593 12.0576L 30.5209 11.2701L 28.7123 15.4926L 33.0354 13.9398L 32.3593 12.0576ZM 35.2559 28.8155L 35.2559 26.8155L 35.2495 26.8155L 35.2559 28.8155ZM 22.5073 28.8564L 22.5073 30.8564L 22.5137 30.8564L 22.5073 28.8564ZM 11.7106 26.8564C 6.33653 26.8564 2 22.5378 2 17.2893L -2 17.2893C -2 24.7933 4.17404 30.8564 11.7106 30.8564L 11.7106 26.8564ZM 2 17.2893C 2 12.0409 6.33653 7.72223 11.7106 7.72223L 11.7106 3.72223C 4.17403 3.72223 -2 9.78538 -2 17.2893L 2 17.2893ZM 11.7106 7.72223C 12.8981 7.72223 14.0806 7.95755 15.1871 8.34538L 16.5101 4.57052C 15.0511 4.05914 13.4197 3.72223 11.7106 3.72223L 11.7106 7.72223ZM 17.7809 6.97389C 18.5424 4.12218 21.1899 2 24.3316 2L 24.3316 -2C 19.3627 -2 15.1411 1.35481 13.9163 5.94201L 17.7809 6.97389ZM 24.3316 2C 28.0856 2 31.0628 5.00455 31.0628 8.62422L 35.0628 8.62422C 35.0628 2.76133 30.2605 -2 24.3316 -2L 24.3316 2ZM 31.0628 8.62422C 31.0628 9.57255 30.8723 10.4496 30.5209 11.2701L 34.1978 12.845C 34.7567 11.5401 35.0628 10.1283 35.0628 8.62422L 31.0628 8.62422ZM 33.0354 13.9398C 33.7186 13.6944 34.4407 13.5671 35.2559 13.5671L 35.2559 9.56709C 34.0022 9.56709 32.8208 9.76671 31.6832 10.1753L 33.0354 13.9398ZM 35.2559 13.5671C 39.01 13.5671 41.9871 16.5716 41.9871 20.1913L 45.9871 20.1913C 45.9871 14.3284 41.1849 9.56709 35.2559 9.56709L 35.2559 13.5671ZM 41.9871 20.1913C 41.9871 23.8396 38.981 26.8155 35.2559 26.8155L 35.2559 30.8155C 41.1311 30.8155 45.9871 26.1073 45.9871 20.1913L 41.9871 20.1913ZM 35.2495 26.8155L 22.5009 26.8564L 22.5137 30.8564L 35.2623 30.8155L 35.2495 26.8155ZM 22.5073 26.8564L 11.7106 26.8564L 11.7106 30.8564L 22.5073 30.8564L 22.5073 26.8564Z"/>
<path id="path2_fill" d="M 10.2378 55.4663L 2.39867 12.9955L 0 2.84157e-16L 21.1905 0L 34.1269 12.9955L 47.3654 26.2943C 49.5664 28.5054 52.5534 29.7478 55.6682 29.7478L 173.079 29.7478C 182.424 29.7478 191.385 33.4751 197.988 40.1082L 216.995 59.2021C 219.948 62.1693 217.854 67.2382 213.674 67.2381L 100.436 67.2381L 63.3546 89.4655L 33.7418 89.4655L 62.5302 67.2381L 21.9719 67.2381C 15.4914 67.2381 10.2378 61.9677 10.2378 55.4663Z"/>
<path id="path3_stroke" d="M 10.2378 55.4663L 12.2378 55.4663L 12.2378 55.2833L 12.2046 55.1033L 10.2378 55.4663ZM 0 2.84157e-16L -2.68193e-17 -2L -2.40294 -2L -1.96678 0.363023L 0 2.84157e-16ZM 21.1905 0L 22.6079 -1.41099L 22.0216 -2L 21.1905 -2L 21.1905 0ZM 47.3654 26.2943L 45.948 27.7053L 47.3654 26.2943ZM 82.826 51.5677L 82.826 49.5677L 82.1437 49.5677L 81.6037 49.9847L 82.826 51.5677ZM 129.07 51.5677L 130.031 53.3222L 136.891 49.5678L 129.07 49.5677L 129.07 51.5677ZM 63.3546 89.4655L 63.3546 91.4655L 63.9081 91.4655L 64.3829 91.181L 63.3546 89.4655ZM 33.7418 89.4655L 32.5196 87.8825L 27.8789 91.4655L 33.7418 91.4655L 33.7418 89.4655ZM 62.5302 67.2381L 63.7525 68.8212L 62.5302 67.2381ZM 216.995 59.2021L 215.577 60.6131L 215.577 60.6131L 216.995 59.2021ZM 197.988 40.1082L 196.57 41.5192L 196.57 41.5192L 197.988 40.1082ZM 21.9719 67.2381L 21.9719 65.2381L 21.9719 67.2381ZM 100.436 67.2381L 99.476 65.4837L 99.4415 65.5025L 99.4079 65.5227L 100.436 67.2381ZM 213.674 67.2381L 213.674 69.2381L 213.674 67.2381ZM 173.079 29.7478L 173.079 31.7478L 173.079 29.7478ZM 55.6682 29.7478L 55.6682 27.7478L 55.6682 29.7478ZM 2.39867 12.9955L 0.431895 13.3585L 2.39867 12.9955ZM 2.68193e-17 2L 21.1905 2L 21.1905 -2L -2.68193e-17 -2L 2.68193e-17 2ZM 82.826 53.5677L 129.07 53.5677L 129.07 49.5677L 82.826 49.5677L 82.826 53.5677ZM 63.3546 87.4655L 33.7418 87.4655L 33.7418 91.4655L 63.3546 91.4655L 63.3546 87.4655ZM 34.9641 91.0486L 63.7525 68.8212L 61.3079 65.6551L 32.5196 87.8825L 34.9641 91.0486ZM 63.7525 68.8212L 84.0482 53.1508L 81.6037 49.9847L 61.3079 65.6551L 63.7525 68.8212ZM 21.9719 69.2381L 62.5302 69.2381L 62.5302 65.2381L 21.9719 65.2381L 21.9719 69.2381ZM 128.11 49.8133L 99.476 65.4837L 101.396 68.9926L 130.031 53.3222L 128.11 49.8133ZM 99.4079 65.5227L 62.3263 87.7501L 64.3829 91.181L 101.464 68.9535L 99.4079 65.5227ZM 173.079 27.7478L 55.6682 27.7478L 55.6682 31.7478L 173.079 31.7478L 173.079 27.7478ZM 199.405 38.6972C 192.427 31.6877 182.957 27.7478 173.079 27.7478L 173.079 31.7478C 181.891 31.7478 190.342 35.2624 196.57 41.5192L 199.405 38.6972ZM 45.948 27.7053C 48.5237 30.2927 52.0204 31.7478 55.6682 31.7478L 55.6682 27.7478C 53.0864 27.7478 50.6092 26.718 48.7829 24.8833L 45.948 27.7053ZM 215.577 60.6131C 217.285 62.3286 216.061 65.2382 213.674 65.2381L 213.674 69.2381C 219.647 69.2382 222.612 62.01 218.412 57.7911L 215.577 60.6131ZM 8.23785 55.4663C 8.23785 63.0662 14.3807 69.2381 21.9719 69.2381L 21.9719 65.2381C 16.602 65.2381 12.2378 60.8692 12.2378 55.4663L 8.23785 55.4663ZM 209.244 49.568L 10.2355 49.5681L 10.2355 53.5681L 209.244 53.568L 209.244 49.568ZM 218.412 57.7911L 199.405 38.6972L 196.57 41.5192L 215.577 60.6131L 218.412 57.7911ZM 100.436 69.2381L 213.674 69.2381L 213.674 65.2381L 100.436 65.2381L 100.436 69.2381ZM -1.96678 0.363023L 0.431895 13.3585L 4.36545 12.6324L 1.96678 -0.363023L -1.96678 0.363023ZM 0.431895 13.3585L 8.27107 55.8293L 12.2046 55.1033L 4.36545 12.6324L 0.431895 13.3585ZM 19.7731 1.41099L 32.7095 14.4065L 35.5444 11.5845L 22.6079 -1.41099L 19.7731 1.41099ZM 32.7095 14.4065L 45.948 27.7053L 48.7829 24.8833L 35.5444 11.5845L 32.7095 14.4065ZM 2.39867 14.9955L 34.1269 14.9955L 34.1269 10.9955L 2.39867 10.9955L 2.39867 14.9955Z"/>
<path id="path4_fill" d="M 16.5104 40.6838C 7.40927 40.6838 2.39816e-16 33.3653 0 24.3757C -2.39816e-16 15.3861 7.40927 8.0676 16.5104 8.0676C 18.5523 8.0676 20.5359 8.47098 22.3445 9.10487C 23.7447 3.86092 28.5869 1.65002e-16 34.3043 0C 41.1302 -1.96992e-16 46.6142 5.47444 46.6142 12.159C 46.6142 13.8878 46.2642 15.5013 45.6224 16.9996C 46.9059 16.5386 48.2477 16.3081 49.7063 16.3081C 56.5321 16.3081 62.0161 21.7825 62.0161 28.4671C 62.0161 35.2093 56.4738 40.6261 49.7063 40.6261L 31.7323 40.6838L 16.5104 40.6838Z"/>
<path id="path5_stroke" d="M 22.3445 9.10487L 21.683 10.9923L 23.72 11.7062L 24.2768 9.62081L 22.3445 9.10487ZM 45.6224 16.9996L 43.784 16.2121L 41.9754 20.4346L 46.2985 18.8819L 45.6224 16.9996ZM 49.7063 40.6261L 49.7063 38.6261L 49.6998 38.6262L 49.7063 40.6261ZM 31.7323 40.6838L 31.7323 42.6838L 31.7387 42.6838L 31.7323 40.6838ZM 16.5104 38.6838C 8.49051 38.6838 2 32.2376 2 24.3757L -2 24.3757C -2 34.4931 6.32802 42.6838 16.5104 42.6838L 16.5104 38.6838ZM 2 24.3757C 2 16.5138 8.49052 10.0676 16.5104 10.0676L 16.5104 6.0676C 6.32801 6.0676 -2 14.2583 -2 24.3757L 2 24.3757ZM 16.5104 10.0676C 18.2915 10.0676 20.0507 10.4202 21.683 10.9923L 23.006 7.21744C 21.0212 6.52178 18.8131 6.0676 16.5104 6.0676L 16.5104 10.0676ZM 24.2768 9.62081C 25.4453 5.24461 29.5005 2 34.3043 2L 34.3043 -2C 27.6734 -2 22.044 2.47724 20.4122 8.58892L 24.2768 9.62081ZM 34.3043 2C 40.0427 2 44.6142 6.59605 44.6142 12.159L 48.6142 12.159C 48.6142 4.35283 42.2176 -2 34.3043 -2L 34.3043 2ZM 44.6142 12.159C 44.6142 13.6099 44.322 14.9561 43.784 16.2121L 47.4609 17.7871C 48.2064 16.0466 48.6142 14.1657 48.6142 12.159L 44.6142 12.159ZM 46.2985 18.8819C 47.3548 18.5025 48.467 18.3081 49.7063 18.3081L 49.7063 14.3081C 48.0285 14.3081 46.457 14.5747 44.9463 15.1173L 46.2985 18.8819ZM 49.7063 18.3081C 55.4447 18.3081 60.0161 22.9041 60.0161 28.4671L 64.0161 28.4671C 64.0161 20.6609 57.6196 14.3081 49.7063 14.3081L 49.7063 18.3081ZM 60.0161 28.4671C 60.0161 34.0754 55.3987 38.6261 49.7063 38.6261L 49.7063 42.6261C 57.5488 42.6261 64.0161 36.3432 64.0161 28.4671L 60.0161 28.4671ZM 49.6998 38.6262L 31.7259 38.6838L 31.7387 42.6838L 49.7127 42.6261L 49.6998 38.6262ZM 31.7323 38.6838L 16.5104 38.6838L 16.5104 42.6838L 31.7323 42.6838L 31.7323 38.6838Z"/>
</defs>
</svg>
