<svg width="1212" height="1300" viewBox="0 0 1212 1300" version="1.1" xmlns="http://www.w3.org/2000/svg" xmlns:xlink="http://www.w3.org/1999/xlink">
<title>img_3</title>
<desc>Created using Figma</desc>
<g id="Canvas" transform="matrix(4 0 0 4 -42204 -192)">
<g id="img_3">
<g id="Ellipse 4.17">
<use xlink:href="#path0_fill" transform="translate(10554.5 68.9678)" fill="#5E35E3" fill-opacity="0.1"/>
</g>
<g id="Ellipse 4.16">
<use xlink:href="#path1_fill" transform="translate(10570.6 85.0969)" fill="#9A84ED" fill-opacity="0.3"/>
</g>
<g id="Ellipse 4.15">
<use xlink:href="#path2_fill" transform="translate(10584 98)" fill="#FFFFFF"/>
<mask id="mask0_outline_ins">
<use xlink:href="#path2_fill" fill="white" transform="translate(10584 98)"/>
</mask>
<g mask="url(#mask0_outline_ins)">
<use xlink:href="#path3_stroke_2x" transform="translate(10584 98)" fill="#5E35E3"/>
</g>
</g>
<g id="Ellipse 3">
<mask id="mask1_outline_ins">
<use xlink:href="#path4_fill" fill="white" transform="translate(10704.1 146.387)"/>
</mask>
<g mask="url(#mask1_outline_ins)">
<use xlink:href="#path5_stroke_2x" transform="translate(10704.1 146.387)" fill="#5E35E3"/>
</g>
</g>
<g id="Ellipse 3.1">
<mask id="mask2_outline_ins">
<use xlink:href="#path4_fill" fill="white" transform="translate(10551 146.387)"/>
</mask>
<g mask="url(#mask2_outline_ins)">
<use xlink:href="#path5_stroke_2x" transform="translate(10551 146.387)" fill="#5E35E3"/>
</g>
</g>
<g id="Ellipse 3.2">
<mask id="mask3_outline_ins">
<use xlink:href="#path6_fill" fill="white" transform="matrix(6.11874e-17 -1 1 6.12773e-17 10627.6 219.774)"/>
</mask>
<g mask="url(#mask3_outline_ins)">
<use xlink:href="#path7_stroke_2x" transform="matrix(6.11874e-17 -1 1 6.12773e-17 10627.6 219.774)" fill="#5E35E3" fill-opacity="0.3"/>
</g>
</g>
<g id="Ellipse 3.3">
<mask id="mask4_outline_ins">
<use xlink:href="#path6_fill" fill="white" transform="matrix(6.11865e-17 -1 1 6.12782e-17 10627.6 373)"/>
</mask>
<g mask="url(#mask4_outline_ins)">
<use xlink:href="#path7_stroke_2x" transform="matrix(6.11865e-17 -1 1 6.12782e-17 10627.6 373)" fill="#5E35E3" fill-opacity="0.3"/>
</g>
</g>
<g id="Group">
<g id="Group">
<g id="Vector">
<use xlink:href="#path8_fill" transform="translate(10657.7 173.807)" fill="#FFFFFF"/>
<use xlink:href="#path9_stroke" transform="translate(10657.7 173.807)" fill="#5E35E3"/>
</g>
<g id="Group">
<g id="Vector">
<use xlink:href="#path10_stroke" transform="translate(10670.5 188.6)" fill="#5E35E3"/>
</g>
<g id="Vector">
<use xlink:href="#path11_stroke" transform="translate(10672.1 242.409)" fill="#5E35E3"/>
</g>
</g>
<g id="Vector">
<use xlink:href="#path12_stroke" transform="translate(10676.3 173.807)" fill="#5E35E3"/>
</g>
<g id="Vector">
<use xlink:href="#path13_stroke" transform="translate(10703.4 173.807)" fill="#5E35E3"/>
</g>
<g id="Vector">
<use xlink:href="#path14_stroke" transform="translate(10657.7 220.688)" fill="#5E35E3"/>
</g>
</g>
</g>
<g id="Group 4">
<g id="Ellipse 3.4">
<use xlink:href="#path15_fill" transform="translate(10771.8 268.968)" fill="#FFFFFF"/>
<mask id="mask5_outline_ins">
<use xlink:href="#path15_fill" fill="white" transform="translate(10771.8 268.968)"/>
</mask>
<g mask="url(#mask5_outline_ins)">
<use xlink:href="#path16_stroke_2x" transform="translate(10771.8 268.968)" fill="#5E35E3"/>
</g>
</g>
<g id="&#239;&#191;&#166;">
<use xlink:href="#path17_fill" transform="translate(10786.2 284.182)" fill="#5E35E3"/>
</g>
</g>
<g id="Group 4">
<g id="Ellipse 3.5">
<use xlink:href="#path18_fill" transform="translate(10773.4 130.258)" fill="#FFFFFF"/>
<mask id="mask6_outline_ins">
<use xlink:href="#path18_fill" fill="white" transform="translate(10773.4 130.258)"/>
</mask>
<g mask="url(#mask6_outline_ins)">
<use xlink:href="#path19_stroke_2x" transform="translate(10773.4 130.258)" fill="#5E35E3"/>
</g>
</g>
<g id="$">
<use xlink:href="#path20_fill" transform="translate(10792.4 144.011)" fill="#5E35E3"/>
</g>
</g>
<clipPath id="clip-0" clip-rule="evenodd">
<path d="M 10676.7 48L 10723 48L 10723 94.3421L 10676.7 94.3421L 10676.7 48Z" fill="#FFFFFF"/>
</clipPath>
<g id="Group 4.1" clip-path="url(#clip-0)">
</g>
<g id="Group 3">
<g id="Ellipse 3.6">
<use xlink:href="#path21_fill" transform="translate(10583.1 129.626)" fill="#FFFFFF"/>
<mask id="mask7_outline_ins">
<use xlink:href="#path21_fill" fill="white" transform="translate(10583.1 129.626)"/>
</mask>
<g mask="url(#mask7_outline_ins)">
<use xlink:href="#path22_stroke_2x" transform="translate(10583.1 129.626)" fill="#5E35E3"/>
</g>
</g>
<g id="&#226;&#130;&#172;">
<use xlink:href="#path23_fill" transform="translate(10601.4 147.935)" fill="#5E35E3"/>
</g>
</g>
<g id="Group 3.1">
<g id="Ellipse 3.6">
<use xlink:href="#path24_fill" transform="translate(10581.6 259.29)" fill="#FFFFFF"/>
<mask id="mask8_outline_ins">
<use xlink:href="#path24_fill" fill="white" transform="translate(10581.6 259.29)"/>
</mask>
<g mask="url(#mask8_outline_ins)">
<use xlink:href="#path25_stroke_2x" transform="translate(10581.6 259.29)" fill="#5E35E3"/>
</g>
</g>
<g id="&#194;&#165;">
<use xlink:href="#path26_fill" transform="translate(10604 280.132)" fill="#5E35E3"/>
</g>
</g>
<g id="Group 4">
<g id="Ellipse 6.1">
<use xlink:href="#path27_fill" transform="translate(10715.4 261.162)" fill="#FFFFFF"/>
<mask id="mask9_outline_ins">
<use xlink:href="#path27_fill" fill="white" transform="translate(10715.4 261.162)"/>
</mask>
<g mask="url(#mask9_outline_ins)">
<use xlink:href="#path28_stroke_2x" transform="translate(10715.4 261.162)" fill="#5E35E3"/>
</g>
</g>
<g id="Ellipse 6">
<use xlink:href="#path29_fill" transform="translate(10715.4 254.339)" fill="#FFFFFF"/>
<mask id="mask10_outline_ins">
<use xlink:href="#path29_fill" fill="white" transform="translate(10715.4 254.339)"/>
</mask>
<g mask="url(#mask10_outline_ins)">
<use xlink:href="#path30_stroke_2x" transform="translate(10715.4 254.339)" fill="#5E35E3"/>
</g>
</g>
<g id="Ellipse 6.2">
<use xlink:href="#path27_fill" transform="translate(10715.4 246.571)" fill="#FFFFFF"/>
<mask id="mask11_outline_ins">
<use xlink:href="#path27_fill" fill="white" transform="translate(10715.4 246.571)"/>
</mask>
<g mask="url(#mask11_outline_ins)">
<use xlink:href="#path28_stroke_2x" transform="translate(10715.4 246.571)" fill="#5E35E3"/>
</g>
</g>
<g id="Ellipse 6.3">
<use xlink:href="#path29_fill" transform="translate(10715.4 239.748)" fill="#FFFFFF"/>
<mask id="mask12_outline_ins">
<use xlink:href="#path29_fill" fill="white" transform="translate(10715.4 239.748)"/>
</mask>
<g mask="url(#mask12_outline_ins)">
<use xlink:href="#path30_stroke_2x" transform="translate(10715.4 239.748)" fill="#5E35E3"/>
</g>
</g>
<g id="Ellipse 6.4">
<use xlink:href="#path27_fill" transform="translate(10715.4 232.242)" fill="#FFFFFF"/>
<mask id="mask13_outline_ins">
<use xlink:href="#path27_fill" fill="white" transform="translate(10715.4 232.242)"/>
</mask>
<g mask="url(#mask13_outline_ins)">
<use xlink:href="#path28_stroke_2x" transform="translate(10715.4 232.242)" fill="#5E35E3"/>
</g>
</g>
<g id="Ellipse 6.5">
<use xlink:href="#path29_fill" transform="translate(10715.4 225.419)" fill="#FFFFFF"/>
<mask id="mask14_outline_ins">
<use xlink:href="#path29_fill" fill="white" transform="translate(10715.4 225.419)"/>
</mask>
<g mask="url(#mask14_outline_ins)">
<use xlink:href="#path30_stroke_2x" transform="translate(10715.4 225.419)" fill="#5E35E3"/>
</g>
</g>
</g>
</g>
</g>
<defs>
<path id="path0_fill" d="M 290.106 145.161C 290.106 225.332 225.163 290.323 145.053 290.323C 64.9424 290.323 0 225.332 0 145.161C 0 64.9909 64.9424 0 145.053 0C 225.163 0 290.106 64.9909 290.106 145.161Z"/>
<path id="path1_fill" d="M 257.872 129.032C 257.872 200.295 200.145 258.065 128.936 258.065C 57.7266 258.065 0 200.295 0 129.032C 0 57.7697 57.7266 0 128.936 0C 200.145 0 257.872 57.7697 257.872 129.032Z"/>
<path id="path2_fill" d="M 232.085 116.129C 232.085 180.265 180.131 232.258 116.042 232.258C 51.9539 232.258 0 180.265 0 116.129C 0 51.9928 51.9539 0 116.042 0C 180.131 0 232.085 51.9928 232.085 116.129Z"/>
<path id="path3_stroke_2x" d="M 229.085 116.129C 229.085 178.611 178.472 229.258 116.042 229.258L 116.042 235.258C 181.79 235.258 235.085 181.92 235.085 116.129L 229.085 116.129ZM 116.042 229.258C 53.6129 229.258 3 178.611 3 116.129L -3 116.129C -3 181.92 50.295 235.258 116.042 235.258L 116.042 229.258ZM 3 116.129C 3 53.6475 53.6129 3 116.042 3L 116.042 -3C 50.295 -3 -3 50.338 -3 116.129L 3 116.129ZM 116.042 3C 178.472 3 229.085 53.6475 229.085 116.129L 235.085 116.129C 235.085 50.338 181.79 -3 116.042 -3L 116.042 3Z"/>
<path id="path4_fill" d="M 149.888 75C 149.888 116.421 116.334 150 74.944 150C 33.5536 150 0 116.421 0 75C 0 33.5787 33.5536 0 74.944 0C 116.334 0 149.888 33.5787 149.888 75Z"/>
<path id="path5_stroke_2x" d="M 151.388 75C 151.388 74.5624 151.384 74.1257 151.377 73.6898L 148.378 73.7402C 148.385 74.1593 148.388 74.5792 148.388 75L 151.388 75ZM 151.29 71.0853C 151.246 70.2116 151.187 69.3417 151.114 68.4759L 148.125 68.7282C 148.195 69.5603 148.251 70.3964 148.293 71.2363L 151.29 71.0853ZM 150.85 65.8783C 150.747 65.0125 150.63 64.151 150.499 63.2942L 147.533 63.7493C 147.66 64.5724 147.772 65.4001 147.871 66.2321L 150.85 65.8783ZM 150.058 60.717C 149.896 59.8593 149.72 59.0066 149.529 58.1592L 146.602 58.8164C 146.785 59.6303 146.954 60.4494 147.11 61.2734L 150.058 60.717ZM 148.914 55.6232C 148.694 54.7785 148.459 53.9395 148.211 53.1064L 145.336 53.963C 145.574 54.7632 145.8 55.5691 146.011 56.3805L 148.914 55.6232ZM 147.422 50.616C 147.145 49.7895 146.853 48.9694 146.549 48.1558L 143.739 49.208C 144.032 49.9894 144.312 50.7772 144.578 51.571L 147.422 50.616ZM 145.591 45.726C 145.257 44.9203 144.91 44.1214 144.55 43.3299L 141.819 44.5724C 142.165 45.3328 142.499 46.1001 142.819 46.8741L 145.591 45.726ZM 143.428 40.9721C 143.04 40.1918 142.639 39.4192 142.226 38.6544L 139.587 40.081C 139.984 40.8157 140.369 41.5579 140.741 42.3074L 143.428 40.9721ZM 140.944 36.3778C 140.504 35.6259 140.051 34.8823 139.587 34.1472L 137.051 35.7505C 137.498 36.4569 137.933 37.1714 138.356 37.8937L 140.944 36.3778ZM 138.154 31.9646C 137.663 31.2447 137.161 30.5335 136.647 29.8315L 134.226 31.6037C 134.72 32.2783 135.203 32.9617 135.674 33.6535L 138.154 31.9646ZM 135.069 27.751C 134.531 27.0664 133.981 26.3912 133.421 25.7257L 131.126 27.6583C 131.665 28.2978 132.193 28.9466 132.71 29.6045L 135.069 27.751ZM 131.705 23.7574C 131.122 23.1109 130.528 22.4745 129.923 21.8483L 127.765 23.9321C 128.346 24.5339 128.917 25.1455 129.477 25.7667L 131.705 23.7574ZM 128.078 20.001C 127.453 19.3957 126.817 18.801 126.171 18.2172L 124.159 20.4426C 124.78 21.0036 125.391 21.5751 125.992 22.1568L 128.078 20.001ZM 124.205 16.4992C 123.54 15.938 122.865 15.3878 122.181 14.8491L 120.325 17.206C 120.982 17.7237 121.631 18.2523 122.27 18.7917L 124.205 16.4992ZM 120.102 13.2686C 119.401 12.7538 118.69 12.2507 117.971 11.7596L 116.279 14.2373C 116.971 14.7092 117.653 15.1926 118.327 15.6872L 120.102 13.2686ZM 115.79 10.3245C 115.055 9.85885 114.312 9.4054 113.56 8.96441L 112.042 11.5517C 112.764 11.9754 113.478 12.4111 114.184 12.8585L 115.79 10.3245ZM 111.285 7.68083C 110.52 7.26672 109.748 6.86526 108.968 6.47673L 107.63 9.16194C 108.38 9.53515 109.121 9.92081 109.856 10.3186L 111.285 7.68083ZM 106.611 5.35256C 105.82 4.99167 105.021 4.64388 104.216 4.30947L 103.066 7.08019C 103.839 7.40139 104.606 7.73544 105.367 8.0821L 106.611 5.35256ZM 101.787 3.34969C 100.973 3.04438 100.154 2.75254 99.3272 2.47444L 98.3703 5.31773C 99.1639 5.58482 99.9514 5.86511 100.733 6.15835L 101.787 3.34969ZM 96.8372 1.6839C 96.0043 1.43515 95.1654 1.20024 94.3207 0.979413L 93.5619 3.88185C 94.3731 4.09394 95.1788 4.31956 95.9788 4.55846L 96.8372 1.6839ZM 91.785 0.362828C 90.9376 0.172162 90.085 -0.00442227 89.2273 -0.166667L 88.6697 2.78106C 89.4935 2.9369 90.3125 3.10652 91.1264 3.28965L 91.785 0.362828ZM 86.6502 -0.608451C 85.7934 -0.740234 84.9319 -0.857777 84.066 -0.960833L 83.7115 2.01814C 84.5434 2.11716 85.371 2.23008 86.1941 2.35668L 86.6502 -0.608451ZM 81.4684 -1.2252C 80.6026 -1.29845 79.7327 -1.35726 78.8589 -1.40138L 78.7076 1.5948C 79.5474 1.63721 80.3835 1.69373 81.2155 1.76412L 81.4684 -1.2252ZM 76.2543 -1.48898C 75.8184 -1.49632 75.3816 -1.5 74.944 -1.5L 74.944 1.5C 75.3648 1.5 75.7848 1.50354 76.2038 1.51059L 76.2543 -1.48898ZM 74.944 -1.5C 74.5064 -1.5 74.0697 -1.49632 73.6338 -1.48898L 73.6842 1.51059C 74.1033 1.50354 74.5233 1.5 74.944 1.5L 74.944 -1.5ZM 71.0292 -1.40138C 70.1554 -1.35726 69.2855 -1.29845 68.4197 -1.2252L 68.6726 1.76412C 69.5046 1.69373 70.3407 1.63721 71.1805 1.5948L 71.0292 -1.40138ZM 65.822 -0.960832C 64.9562 -0.857777 64.0947 -0.740234 63.2379 -0.608451L 63.694 2.35668C 64.5171 2.23008 65.3447 2.11716 66.1766 2.01814L 65.822 -0.960832ZM 60.6608 -0.166666C 59.8031 -0.00442164 58.9505 0.172163 58.1031 0.362829L 58.7617 3.28965C 59.5755 3.10652 60.3945 2.9369 61.2184 2.78106L 60.6608 -0.166666ZM 55.5673 0.979413C 54.7227 1.20024 53.8838 1.43515 53.0508 1.6839L 53.9092 4.55846C 54.7092 4.31956 55.515 4.09394 56.3262 3.88185L 55.5673 0.979413ZM 50.5608 2.47444C 49.7346 2.75254 48.9146 3.04438 48.1012 3.34969L 49.1554 6.15835C 49.9367 5.86511 50.7242 5.58482 51.5178 5.31773L 50.5608 2.47444ZM 45.6721 4.30947C 44.8666 4.64388 44.068 4.99167 43.2767 5.35256L 44.5216 8.0821C 45.2817 7.73545 46.0487 7.40139 46.8224 7.08019L 45.6721 4.30947ZM 40.9198 6.47673C 40.14 6.86526 39.3677 7.26672 38.6033 7.68083L 40.0323 10.3186C 40.7666 9.92081 41.5085 9.53515 42.2576 9.16194L 40.9198 6.47673ZM 36.3278 8.96441C 35.5764 9.4054 34.8332 9.85886 34.0984 10.3245L 35.7044 12.8585C 36.4103 12.4111 37.1243 11.9754 37.8462 11.5517L 36.3278 8.96441ZM 31.9173 11.7596C 31.1979 12.2507 30.4873 12.7538 29.7858 13.2686L 31.5606 15.6872C 32.2347 15.1926 32.9175 14.7092 33.6088 14.2373L 31.9173 11.7596ZM 27.707 14.8491C 27.0229 15.3878 26.3483 15.938 25.6834 16.4992L 27.6185 18.7917C 28.2575 18.2523 28.9058 17.7237 29.5631 17.206L 27.707 14.8491ZM 23.717 18.2172C 23.0712 18.801 22.4354 19.3957 21.81 20.001L 23.8962 22.1568C 24.4973 21.5751 25.1083 21.0036 25.7289 20.4426L 23.717 18.2172ZM 19.9647 21.8483C 19.3601 22.4745 18.7661 23.1109 18.183 23.7574L 20.4106 25.7667C 20.971 25.1455 21.5418 24.5339 22.1228 23.9321L 19.9647 21.8483ZM 16.4672 25.7257C 15.9067 26.3912 15.3573 27.0664 14.8194 27.751L 17.1783 29.6045C 17.6952 28.9466 18.2232 28.2978 18.7618 27.6583L 16.4672 25.7257ZM 13.2411 29.8315C 12.727 30.5335 12.2247 31.2447 11.7343 31.9646L 14.2138 33.6535C 14.685 32.9617 15.1677 32.2783 15.6616 31.6037L 13.2411 29.8315ZM 10.3015 34.1472C 9.83665 34.8823 9.38394 35.6259 8.94369 36.3778L 11.5325 37.8937C 11.9555 37.1714 12.3904 36.4569 12.8371 35.7505L 10.3015 34.1472ZM 7.66232 38.6544C 7.24894 39.4192 6.84819 40.1919 6.46036 40.9721L 9.14676 42.3074C 9.51933 41.5579 9.90432 40.8157 10.3015 40.081L 7.66232 38.6544ZM 5.33828 43.3299C 4.97808 44.1214 4.63096 44.9203 4.29719 45.726L 7.06883 46.8741C 7.38943 46.1001 7.72286 45.3328 8.06887 44.5724L 5.33828 43.3299ZM 3.33928 48.1558C 3.03459 48.9694 2.74335 49.7895 2.46582 50.616L 5.30975 51.571C 5.57632 50.7772 5.85606 49.9894 6.14872 49.208L 3.33928 48.1558ZM 1.67692 53.1064C 1.4287 53.9395 1.19427 54.7785 0.973913 55.6232L 3.87677 56.3805C 4.08843 55.5691 4.3136 54.7632 4.55202 53.963L 1.67692 53.1064ZM 0.35867 58.1592C 0.168423 59.0066 -0.00777246 59.8593 -0.169659 60.717L 2.77829 61.2734C 2.93381 60.4494 3.10306 59.6303 3.28581 58.8164L 0.35867 58.1592ZM -0.610472 63.2942C -0.741957 64.151 -0.859234 65.0125 -0.962056 65.8783L 2.01701 66.2321C 2.11581 65.4001 2.22849 64.5724 2.35481 63.7493L -0.610472 63.2942ZM -1.22582 68.4759C -1.29891 69.3417 -1.35758 70.2116 -1.40161 71.0853L 1.59459 71.2363C 1.63691 70.3964 1.69331 69.5603 1.76355 68.7282L -1.22582 68.4759ZM -1.48901 73.6898C -1.49633 74.1257 -1.5 74.5624 -1.5 75L 1.5 75C 1.5 74.5792 1.50353 74.1593 1.51057 73.7402L -1.48901 73.6898ZM -1.5 75C -1.5 75.4376 -1.49633 75.8744 -1.48901 76.3102L 1.51057 76.2599C 1.50353 75.8408 1.5 75.4208 1.5 75L -1.5 75ZM -1.40161 78.9147C -1.35758 79.7885 -1.29891 80.6583 -1.22582 81.5242L 1.76355 81.2718C 1.69331 80.4397 1.63691 79.6036 1.59459 78.7638L -1.40161 78.9147ZM -0.962056 84.1217C -0.859234 84.9876 -0.741957 85.849 -0.610472 86.7058L 2.35481 86.2507C 2.22849 85.4276 2.11581 84.5999 2.01701 83.768L -0.962056 84.1217ZM -0.169658 89.283C -0.00777204 90.1408 0.168423 90.9935 0.358671 91.8408L 3.28581 91.1837C 3.10306 90.3697 2.93381 89.5506 2.7783 88.7266L -0.169658 89.283ZM 0.973914 94.3768C 1.19427 95.2215 1.4287 96.0606 1.67692 96.8937L 4.55202 96.037C 4.3136 95.2368 4.08843 94.4309 3.87677 93.6195L 0.973914 94.3768ZM 2.46582 99.3841C 2.74335 100.211 3.03459 101.031 3.33928 101.844L 6.14872 100.792C 5.85606 100.011 5.57632 99.2228 5.30975 98.429L 2.46582 99.3841ZM 4.29719 104.274C 4.63096 105.08 4.97808 105.879 5.33828 106.67L 8.06887 105.428C 7.72286 104.667 7.38943 103.9 7.06883 103.126L 4.29719 104.274ZM 6.46036 109.028C 6.84819 109.808 7.24894 110.581 7.66232 111.346L 10.3015 109.919C 9.90432 109.184 9.51933 108.442 9.14676 107.693L 6.46036 109.028ZM 8.94369 113.622C 9.38394 114.374 9.83665 115.118 10.3015 115.853L 12.8371 114.249C 12.3904 113.543 11.9555 112.829 11.5325 112.106L 8.94369 113.622ZM 11.7343 118.035C 12.2247 118.755 12.727 119.467 13.2411 120.169L 15.6616 118.396C 15.1677 117.722 14.685 117.038 14.2138 116.347L 11.7343 118.035ZM 14.8194 122.249C 15.3573 122.934 15.9067 123.609 16.4672 124.274L 18.7618 122.342C 18.2232 121.702 17.6952 121.053 17.1783 120.395L 14.8194 122.249ZM 18.183 126.243C 18.7661 126.889 19.3601 127.526 19.9647 128.152L 22.1228 126.068C 21.5418 125.466 20.971 124.855 20.4106 124.233L 18.183 126.243ZM 21.81 129.999C 22.4354 130.604 23.0712 131.199 23.717 131.783L 25.7289 129.557C 25.1083 128.996 24.4973 128.425 23.8962 127.843L 21.81 129.999ZM 25.6834 133.501C 26.3483 134.062 27.0229 134.612 27.707 135.151L 29.5631 132.794C 28.9058 132.276 28.2575 131.748 27.6185 131.208L 25.6834 133.501ZM 29.7858 136.731C 30.4873 137.246 31.1979 137.749 31.9173 138.24L 33.6088 135.763C 32.9175 135.291 32.2347 134.807 31.5606 134.313L 29.7858 136.731ZM 34.0985 139.676C 34.8332 140.141 35.5764 140.595 36.3278 141.036L 37.8462 138.448C 37.1243 138.025 36.4103 137.589 35.7044 137.142L 34.0985 139.676ZM 38.6033 142.319C 39.3677 142.733 40.14 143.135 40.9198 143.523L 42.2576 140.838C 41.5085 140.465 40.7666 140.079 40.0323 139.681L 38.6033 142.319ZM 43.2767 144.647C 44.068 145.008 44.8666 145.356 45.6721 145.691L 46.8224 142.92C 46.0487 142.599 45.2817 142.265 44.5216 141.918L 43.2767 144.647ZM 48.1012 146.65C 48.9146 146.956 49.7346 147.247 50.5608 147.526L 51.5178 144.682C 50.7242 144.415 49.9367 144.135 49.1554 143.842L 48.1012 146.65ZM 53.0508 148.316C 53.8838 148.565 54.7227 148.8 55.5673 149.021L 56.3262 146.118C 55.515 145.906 54.7092 145.68 53.9092 145.442L 53.0508 148.316ZM 58.1031 149.637C 58.9505 149.828 59.8031 150.004 60.6608 150.167L 61.2184 147.219C 60.3945 147.063 59.5756 146.894 58.7617 146.71L 58.1031 149.637ZM 63.2379 150.608C 64.0947 150.74 64.9562 150.858 65.822 150.961L 66.1766 147.982C 65.3447 147.883 64.5171 147.77 63.694 147.643L 63.2379 150.608ZM 68.4197 151.225C 69.2855 151.298 70.1554 151.357 71.0292 151.401L 71.1805 148.405C 70.3407 148.363 69.5046 148.306 68.6726 148.236L 68.4197 151.225ZM 73.6338 151.489C 74.0697 151.496 74.5064 151.5 74.944 151.5L 74.944 148.5C 74.5233 148.5 74.1033 148.496 73.6842 148.489L 73.6338 151.489ZM 74.944 151.5C 75.3816 151.5 75.8184 151.496 76.2543 151.489L 76.2038 148.489C 75.7848 148.496 75.3648 148.5 74.944 148.5L 74.944 151.5ZM 78.8589 151.401C 79.7327 151.357 80.6026 151.298 81.4684 151.225L 81.2155 148.236C 80.3835 148.306 79.5474 148.363 78.7076 148.405L 78.8589 151.401ZM 84.066 150.961C 84.9319 150.858 85.7934 150.74 86.6502 150.608L 86.1941 147.643C 85.371 147.77 84.5434 147.883 83.7115 147.982L 84.066 150.961ZM 89.2273 150.167C 90.085 150.004 90.9376 149.828 91.785 149.637L 91.1264 146.71C 90.3125 146.894 89.4935 147.063 88.6697 147.219L 89.2273 150.167ZM 94.3207 149.021C 95.1654 148.8 96.0043 148.565 96.8372 148.316L 95.9788 145.442C 95.1788 145.68 94.3731 145.906 93.5619 146.118L 94.3207 149.021ZM 99.3272 147.526C 100.154 147.247 100.973 146.956 101.787 146.65L 100.733 143.842C 99.9514 144.135 99.1639 144.415 98.3703 144.682L 99.3272 147.526ZM 104.216 145.691C 105.021 145.356 105.82 145.008 106.611 144.647L 105.367 141.918C 104.606 142.265 103.839 142.599 103.066 142.92L 104.216 145.691ZM 108.968 143.523C 109.748 143.135 110.52 142.733 111.285 142.319L 109.856 139.681C 109.121 140.079 108.38 140.465 107.63 140.838L 108.968 143.523ZM 113.56 141.036C 114.312 140.595 115.055 140.141 115.79 139.676L 114.184 137.142C 113.478 137.589 112.764 138.025 112.042 138.448L 113.56 141.036ZM 117.971 138.24C 118.69 137.749 119.401 137.246 120.102 136.731L 118.327 134.313C 117.653 134.807 116.971 135.291 116.279 135.763L 117.971 138.24ZM 122.181 135.151C 122.865 134.612 123.54 134.062 124.205 133.501L 122.27 131.208C 121.631 131.748 120.982 132.276 120.325 132.794L 122.181 135.151ZM 126.171 131.783C 126.817 131.199 127.453 130.604 128.078 129.999L 125.992 127.843C 125.391 128.425 124.78 128.996 124.159 129.557L 126.171 131.783ZM 129.923 128.152C 130.528 127.526 131.122 126.889 131.705 126.243L 129.477 124.233C 128.917 124.855 128.346 125.466 127.765 126.068L 129.923 128.152ZM 133.421 124.274C 133.981 123.609 134.531 122.934 135.069 122.249L 132.71 120.395C 132.193 121.053 131.665 121.702 131.126 122.342L 133.421 124.274ZM 136.647 120.169C 137.161 119.467 137.663 118.755 138.154 118.035L 135.674 116.347C 135.203 117.038 134.72 117.722 134.226 118.396L 136.647 120.169ZM 139.587 115.853C 140.051 115.118 140.504 114.374 140.944 113.622L 138.356 112.106C 137.933 112.829 137.498 113.543 137.051 114.249L 139.587 115.853ZM 142.226 111.346C 142.639 110.581 143.04 109.808 143.428 109.028L 140.741 107.693C 140.369 108.442 139.984 109.184 139.587 109.919L 142.226 111.346ZM 144.55 106.67C 144.91 105.879 145.257 105.08 145.591 104.274L 142.819 103.126C 142.499 103.9 142.165 104.667 141.819 105.428L 144.55 106.67ZM 146.549 101.844C 146.853 101.031 147.145 100.211 147.422 99.3841L 144.578 98.429C 144.312 99.2228 144.032 100.011 143.739 100.792L 146.549 101.844ZM 148.211 96.8937C 148.459 96.0606 148.694 95.2215 148.914 94.3768L 146.011 93.6195C 145.8 94.4309 145.574 95.2368 145.336 96.037L 148.211 96.8937ZM 149.529 91.8408C 149.72 90.9934 149.896 90.1408 150.058 89.283L 147.11 88.7266C 146.954 89.5506 146.785 90.3697 146.602 91.1837L 149.529 91.8408ZM 150.499 86.7058C 150.63 85.849 150.747 84.9876 150.85 84.1217L 147.871 83.768C 147.772 84.5999 147.66 85.4276 147.533 86.2507L 150.499 86.7058ZM 151.114 81.5242C 151.187 80.6583 151.246 79.7884 151.29 78.9147L 148.293 78.7638C 148.251 79.6036 148.195 80.4397 148.125 81.2718L 151.114 81.5242ZM 151.377 76.3102C 151.384 75.8743 151.388 75.4376 151.388 75L 148.388 75C 148.388 75.4208 148.385 75.8408 148.378 76.2599L 151.377 76.3102ZM 152.888 75C 152.888 74.554 152.884 74.1089 152.877 73.6646L 146.878 73.7653C 146.885 74.176 146.888 74.5876 146.888 75L 152.888 75ZM 152.788 71.0098C 152.743 70.1192 152.683 69.2324 152.609 68.3497L 146.63 68.8544C 146.699 69.6696 146.754 70.4888 146.795 71.3117L 152.788 71.0098ZM 152.34 65.7014C 152.235 64.8186 152.115 63.9403 151.981 63.0667L 146.051 63.9768C 146.174 64.7831 146.285 65.5939 146.382 66.409L 152.34 65.7014ZM 151.532 60.4388C 151.367 59.5642 151.187 58.6947 150.993 57.8306L 145.139 59.145C 145.318 59.9422 145.483 60.7445 145.636 61.5516L 151.532 60.4388ZM 150.366 55.2446C 150.141 54.3832 149.902 53.5276 149.649 52.678L 143.899 54.3913C 144.132 55.1751 144.353 55.9644 144.56 56.7591L 150.366 55.2446ZM 148.844 50.1385C 148.561 49.2957 148.264 48.4594 147.954 47.6297L 142.335 49.7341C 142.621 50.4995 142.895 51.271 143.156 52.0485L 148.844 50.1385ZM 146.977 45.152C 146.636 44.3303 146.282 43.5158 145.915 42.7086L 140.454 45.1937C 140.793 45.9385 141.119 46.69 141.433 47.4481L 146.977 45.152ZM 144.771 40.3044C 144.375 39.5088 143.967 38.721 143.545 37.9412L 138.267 40.7942C 138.656 41.5139 139.033 42.241 139.398 42.9751L 144.771 40.3044ZM 142.239 35.6198C 141.79 34.8532 141.328 34.095 140.854 33.3455L 135.783 36.5522C 136.221 37.2442 136.647 37.9441 137.061 38.6517L 142.239 35.6198ZM 139.394 31.1202C 138.894 30.3861 138.381 29.6611 137.857 28.9453L 133.016 32.4899C 133.5 33.1508 133.973 33.8202 134.435 34.4979L 139.394 31.1202ZM 136.248 26.8242C 135.7 26.1262 135.14 25.4378 134.568 24.7594L 129.979 28.6246C 130.507 29.2511 131.024 29.8868 131.53 30.5313L 136.248 26.8242ZM 132.819 22.7527C 132.224 22.0936 131.619 21.4448 131.003 20.8064L 126.686 24.974C 127.255 25.5636 127.815 26.1628 128.364 26.7714L 132.819 22.7527ZM 129.121 18.923C 128.484 18.306 127.835 17.6997 127.177 17.1045L 123.153 21.5553C 123.761 22.1049 124.36 22.6649 124.949 23.2347L 129.121 18.923ZM 125.172 15.353C 124.494 14.7808 123.807 14.2199 123.109 13.6707L 119.397 18.3845C 120.041 18.8916 120.676 19.4095 121.302 19.9379L 125.172 15.353ZM 120.99 12.0592C 120.275 11.5344 119.55 11.0215 118.816 10.5207L 115.434 15.4761C 116.111 15.9384 116.78 16.412 117.44 16.8965L 120.99 12.0592ZM 116.593 9.05752C 115.843 8.58275 115.086 8.12039 114.32 7.67074L 111.283 12.8454C 111.99 13.2604 112.689 13.6872 113.381 14.1254L 116.593 9.05752ZM 111.999 6.36193C 111.22 5.93967 110.432 5.53031 109.637 5.13412L 106.962 10.5045C 107.695 10.8701 108.422 11.2479 109.141 11.6375L 111.999 6.36193ZM 107.234 3.98779C 106.427 3.61978 105.613 3.26512 104.791 2.92411L 102.491 8.46555C 103.248 8.78014 104 9.10733 104.744 9.44686L 107.234 3.98779ZM 102.314 1.94536C 101.485 1.63401 100.648 1.3364 99.8057 1.0528L 97.8918 6.73937C 98.6691 7.00096 99.4404 7.27548 100.206 7.56268L 102.314 1.94536ZM 97.2665 0.246613C 96.417 -0.00705196 95.5615 -0.246616 94.7002 -0.471807L 93.1825 5.33307C 93.977 5.54079 94.7661 5.76177 95.5496 5.99575L 97.2665 0.246613ZM 92.1143 -1.10058C 91.2502 -1.29501 90.3807 -1.47508 89.5061 -1.64053L 88.3909 4.25492C 89.1978 4.40757 90 4.57369 90.7971 4.75306L 92.1143 -1.10058ZM 86.8782 -2.09102C 86.0045 -2.22539 85.1262 -2.34524 84.2433 -2.45032L 83.5342 3.50763C 84.3491 3.60462 85.1598 3.71524 85.9661 3.83925L 86.8782 -2.09102ZM 81.5949 -2.71986C 80.7121 -2.79454 79.8253 -2.85449 78.9346 -2.89947L 78.632 3.09289C 79.4548 3.13444 80.2739 3.18982 81.089 3.25878L 81.5949 -2.71986ZM 76.2795 -2.98877C 75.8352 -2.99625 75.3901 -3 74.944 -3L 74.944 3C 75.3564 3 75.7679 3.00347 76.1786 3.01038L 76.2795 -2.98877ZM 74.944 -3C 74.498 -3 74.0528 -2.99625 73.6085 -2.98877L 73.7095 3.01038C 74.1201 3.00347 74.5317 3 74.944 3L 74.944 -3ZM 70.9535 -2.89947C 70.0628 -2.85449 69.176 -2.79454 68.2932 -2.71986L 68.799 3.25878C 69.6142 3.18982 70.4333 3.13444 71.2561 3.09289L 70.9535 -2.89947ZM 65.6448 -2.45032C 64.7619 -2.34524 63.8835 -2.22539 63.0099 -2.09102L 63.922 3.83925C 64.7282 3.71524 65.5389 3.60462 66.3539 3.50763L 65.6448 -2.45032ZM 60.382 -1.64053C 59.5074 -1.47508 58.6379 -1.29501 57.7738 -1.10058L 59.091 4.75306C 59.8881 4.57369 60.6903 4.40757 61.4972 4.25492L 60.382 -1.64053ZM 55.1879 -0.471807C 54.3266 -0.246616 53.4711 -0.00705209 52.6216 0.246613L 54.3384 5.99574C 55.122 5.76177 55.9111 5.54079 56.7056 5.33307L 55.1879 -0.471807ZM 50.0824 1.0528C 49.2397 1.3364 48.4035 1.63401 47.5741 1.94536L 49.6826 7.56268C 50.4477 7.27548 51.219 7.00096 51.9963 6.73937L 50.0824 1.0528ZM 45.097 2.92411C 44.2756 3.26512 43.4612 3.61978 42.6543 3.98779L 45.144 9.44687C 45.8885 9.10733 46.6397 8.78014 47.3975 8.46555L 45.097 2.92411ZM 40.2509 5.13413C 39.4557 5.53031 38.6682 5.93967 37.8888 6.36193L 40.7468 11.6375C 41.4661 11.2479 42.1927 10.8701 42.9265 10.5045L 40.2509 5.13413ZM 35.5686 7.67074C 34.8024 8.12039 34.0446 8.58275 33.2955 9.05752L 36.5074 14.1254C 37.1989 13.6872 37.8983 13.2604 38.6055 12.8454L 35.5686 7.67074ZM 31.0716 10.5207C 30.3381 11.0215 29.6136 11.5344 28.8983 12.0592L 32.448 16.8965C 33.1084 16.412 33.7773 15.9384 34.4545 15.4761L 31.0716 10.5207ZM 26.7789 13.6707C 26.0815 14.2199 25.3937 14.7808 24.7158 15.353L 28.5861 19.9379C 29.2121 19.4095 29.8472 18.8916 30.4911 18.3845L 26.7789 13.6707ZM 22.7111 17.1045C 22.0527 17.6997 21.4045 18.306 20.7668 18.923L 24.9393 23.2347C 25.5282 22.6649 26.1268 22.105 26.7348 21.5553L 22.7111 17.1045ZM 18.8856 20.8064C 18.2692 21.4448 17.6637 22.0936 17.0692 22.7527L 21.5245 26.7714C 22.0735 26.1628 22.6327 25.5636 23.2019 24.974L 18.8856 20.8064ZM 15.32 24.7594C 14.7485 25.4378 14.1884 26.1262 13.6399 26.8242L 18.3577 30.5313C 18.8642 29.8868 19.3814 29.2511 19.9091 28.6246L 15.32 24.7594ZM 12.0308 28.9453C 11.5067 29.6611 10.9946 30.3861 10.4946 31.1202L 15.4535 34.4979C 15.9151 33.8202 16.388 33.1508 16.8719 32.4899L 12.0308 28.9453ZM 9.03374 33.3455C 8.55975 34.095 8.09817 34.8532 7.64928 35.6198L 12.8269 38.6517C 13.2413 37.9441 13.6673 37.2442 14.1049 36.5522L 9.03374 33.3455ZM 6.34275 37.9412C 5.92125 38.721 5.51262 39.5088 5.11715 40.3044L 10.49 42.9751C 10.8549 42.241 11.232 41.5139 11.621 40.7942L 6.34275 37.9412ZM 3.97299 42.7086C 3.60569 43.5158 3.25172 44.3303 2.91138 45.152L 8.45464 47.4481C 8.76866 46.69 9.09525 45.9385 9.43417 45.1937L 3.97299 42.7086ZM 1.93456 47.6297C 1.62386 48.4594 1.32687 49.2957 1.04386 50.1385L 6.73172 52.0485C 6.9928 51.271 7.26679 50.4995 7.55344 49.7341L 1.93456 47.6297ZM 0.239375 52.678C -0.0137522 53.5276 -0.252806 54.3832 -0.477515 55.2446L 5.3282 56.7591C 5.53551 55.9644 5.75605 55.1751 5.98956 54.3913L 0.239375 52.678ZM -1.1049 57.8306C -1.2989 58.6947 -1.47856 59.5642 -1.64364 60.4388L 4.25227 61.5516C 4.4046 60.7445 4.57038 59.9422 4.74937 59.145L -1.1049 57.8306ZM -2.09311 63.0667C -2.22718 63.9403 -2.34676 64.8186 -2.45159 65.7014L 3.50655 66.409C 3.60333 65.5939 3.71371 64.7831 3.83746 63.9768L -2.09311 63.0667ZM -2.7205 68.3497C -2.79502 69.2324 -2.85483 70.1192 -2.89971 71.0098L 3.09269 71.3117C 3.13416 70.4888 3.18941 69.6696 3.25823 68.8544L -2.7205 68.3497ZM -2.9888 73.6646C -2.99626 74.1089 -3 74.554 -3 75L 3 75C 3 74.5876 3.00346 74.176 3.01036 73.7653L -2.9888 73.6646ZM -3 75C -3 75.446 -2.99626 75.8911 -2.9888 76.3354L 3.01036 76.2347C 3.00346 75.824 3 75.4124 3 75L -3 75ZM -2.89971 78.9902C -2.85483 79.8809 -2.79502 80.7676 -2.7205 81.6503L 3.25823 81.1456C 3.18941 80.3304 3.13416 79.5112 3.09269 78.6883L -2.89971 78.9902ZM -2.45159 84.2986C -2.34676 85.1814 -2.22718 86.0597 -2.09311 86.9333L 3.83746 86.0232C 3.71371 85.2169 3.60333 84.4061 3.50655 83.5911L -2.45159 84.2986ZM -1.64364 89.5612C -1.47856 90.4358 -1.2989 91.3053 -1.1049 92.1694L 4.74937 90.8551C 4.57038 90.0578 4.4046 89.2555 4.25227 88.4484L -1.64364 89.5612ZM -0.477515 94.7554C -0.252806 95.6168 -0.0137518 96.4724 0.239376 97.322L 5.98956 95.6087C 5.75605 94.825 5.53551 94.0356 5.3282 93.2409L -0.477515 94.7554ZM 1.04386 99.8616C 1.32687 100.704 1.62386 101.541 1.93456 102.37L 7.55344 100.266C 7.26679 99.5006 6.9928 98.729 6.73172 97.9515L 1.04386 99.8616ZM 2.91138 104.848C 3.25172 105.67 3.60569 106.484 3.97299 107.291L 9.43417 104.806C 9.09525 104.062 8.76866 103.31 8.45465 102.552L 2.91138 104.848ZM 5.11716 109.696C 5.51262 110.491 5.92125 111.279 6.34275 112.059L 11.621 109.206C 11.232 108.486 10.8549 107.759 10.49 107.025L 5.11716 109.696ZM 7.64928 114.38C 8.09817 115.147 8.55975 115.905 9.03374 116.655L 14.1049 113.448C 13.6673 112.756 13.2413 112.056 12.8269 111.348L 7.64928 114.38ZM 10.4946 118.88C 10.9946 119.614 11.5067 120.339 12.0308 121.055L 16.8719 117.51C 16.388 116.849 15.9151 116.18 15.4535 115.502L 10.4946 118.88ZM 13.6399 123.176C 14.1884 123.874 14.7485 124.562 15.32 125.241L 19.9091 121.375C 19.3814 120.749 18.8642 120.113 18.3577 119.469L 13.6399 123.176ZM 17.0692 127.247C 17.6637 127.906 18.2692 128.555 18.8856 129.194L 23.2019 125.026C 22.6327 124.436 22.0735 123.837 21.5245 123.229L 17.0692 127.247ZM 20.7668 131.077C 21.4045 131.694 22.0527 132.3 22.7111 132.896L 26.7348 128.445C 26.1268 127.895 25.5282 127.335 24.9393 126.765L 20.7668 131.077ZM 24.7158 134.647C 25.3937 135.219 26.0815 135.78 26.7789 136.329L 30.4911 131.616C 29.8472 131.108 29.2121 130.591 28.5861 130.062L 24.7158 134.647ZM 28.8983 137.941C 29.6136 138.466 30.3381 138.979 31.0716 139.479L 34.4545 134.524C 33.7773 134.062 33.1084 133.588 32.448 133.103L 28.8983 137.941ZM 33.2955 140.943C 34.0446 141.417 34.8024 141.88 35.5686 142.329L 38.6055 137.155C 37.8983 136.74 37.1989 136.313 36.5074 135.875L 33.2955 140.943ZM 37.8888 143.638C 38.6682 144.06 39.4557 144.47 40.2509 144.866L 42.9265 139.495C 42.1927 139.13 41.4661 138.752 40.7468 138.363L 37.8888 143.638ZM 42.6543 146.012C 43.4612 146.38 44.2756 146.735 45.097 147.076L 47.3975 141.534C 46.6397 141.22 45.8885 140.893 45.144 140.553L 42.6543 146.012ZM 47.5741 148.055C 48.4035 148.366 49.2397 148.664 50.0824 148.947L 51.9963 143.261C 51.219 142.999 50.4477 142.725 49.6826 142.437L 47.5741 148.055ZM 52.6216 149.753C 53.4711 150.007 54.3266 150.247 55.1879 150.472L 56.7056 144.667C 55.9111 144.459 55.122 144.238 54.3384 144.004L 52.6216 149.753ZM 57.7738 151.101C 58.6379 151.295 59.5074 151.475 60.382 151.641L 61.4972 145.745C 60.6903 145.592 59.8881 145.426 59.091 145.247L 57.7738 151.101ZM 63.0099 152.091C 63.8835 152.225 64.7619 152.345 65.6448 152.45L 66.3539 146.492C 65.5389 146.395 64.7282 146.285 63.922 146.161L 63.0099 152.091ZM 68.2932 152.72C 69.176 152.795 70.0628 152.855 70.9535 152.9L 71.2561 146.907C 70.4333 146.866 69.6142 146.81 68.799 146.741L 68.2932 152.72ZM 73.6085 152.989C 74.0528 152.996 74.498 153 74.944 153L 74.944 147C 74.5317 147 74.1201 146.997 73.7095 146.99L 73.6085 152.989ZM 74.944 153C 75.3901 153 75.8352 152.996 76.2795 152.989L 76.1786 146.99C 75.7679 146.997 75.3564 147 74.944 147L 74.944 153ZM 78.9346 152.9C 79.8253 152.855 80.7121 152.795 81.5949 152.72L 81.0891 146.741C 80.2739 146.81 79.4548 146.866 78.632 146.907L 78.9346 152.9ZM 84.2433 152.45C 85.1262 152.345 86.0045 152.225 86.8782 152.091L 85.9661 146.161C 85.1598 146.285 84.3491 146.395 83.5342 146.492L 84.2433 152.45ZM 89.5061 151.641C 90.3807 151.475 91.2502 151.295 92.1143 151.101L 90.7971 145.247C 90 145.426 89.1978 145.592 88.3909 145.745L 89.5061 151.641ZM 94.7002 150.472C 95.5615 150.247 96.417 150.007 97.2665 149.753L 95.5496 144.004C 94.7661 144.238 93.977 144.459 93.1825 144.667L 94.7002 150.472ZM 99.8057 148.947C 100.648 148.664 101.485 148.366 102.314 148.055L 100.206 142.437C 99.4404 142.725 98.6691 142.999 97.8918 143.261L 99.8057 148.947ZM 104.791 147.076C 105.613 146.735 106.427 146.38 107.234 146.012L 104.744 140.553C 104 140.893 103.248 141.22 102.491 141.534L 104.791 147.076ZM 109.637 144.866C 110.432 144.47 111.22 144.06 111.999 143.638L 109.141 138.363C 108.422 138.752 107.695 139.13 106.962 139.495L 109.637 144.866ZM 114.32 142.329C 115.086 141.88 115.843 141.417 116.593 140.943L 113.381 135.875C 112.689 136.313 111.99 136.74 111.283 137.155L 114.32 142.329ZM 118.816 139.479C 119.55 138.979 120.275 138.466 120.99 137.941L 117.44 133.103C 116.78 133.588 116.111 134.062 115.434 134.524L 118.816 139.479ZM 123.109 136.329C 123.807 135.78 124.494 135.219 125.172 134.647L 121.302 130.062C 120.676 130.591 120.041 131.108 119.397 131.616L 123.109 136.329ZM 127.177 132.896C 127.835 132.3 128.484 131.694 129.121 131.077L 124.949 126.765C 124.36 127.335 123.761 127.895 123.153 128.445L 127.177 132.896ZM 131.003 129.194C 131.619 128.555 132.224 127.906 132.819 127.247L 128.364 123.229C 127.815 123.837 127.255 124.436 126.686 125.026L 131.003 129.194ZM 134.568 125.241C 135.14 124.562 135.7 123.874 136.248 123.176L 131.53 119.469C 131.024 120.113 130.507 120.749 129.979 121.375L 134.568 125.241ZM 137.857 121.055C 138.381 120.339 138.894 119.614 139.394 118.88L 134.435 115.502C 133.973 116.18 133.5 116.849 133.016 117.51L 137.857 121.055ZM 140.854 116.655C 141.328 115.905 141.79 115.147 142.239 114.38L 137.061 111.348C 136.647 112.056 136.221 112.756 135.783 113.448L 140.854 116.655ZM 143.545 112.059C 143.967 111.279 144.375 110.491 144.771 109.696L 139.398 107.025C 139.033 107.759 138.656 108.486 138.267 109.206L 143.545 112.059ZM 145.915 107.291C 146.282 106.484 146.636 105.67 146.977 104.848L 141.433 102.552C 141.119 103.31 140.793 104.062 140.454 104.806L 145.915 107.291ZM 147.954 102.37C 148.264 101.541 148.561 100.704 148.844 99.8616L 143.156 97.9515C 142.895 98.729 142.621 99.5006 142.335 100.266L 147.954 102.37ZM 149.649 97.322C 149.902 96.4724 150.141 95.6168 150.366 94.7554L 144.56 93.2409C 144.353 94.0356 144.132 94.825 143.899 95.6087L 149.649 97.322ZM 150.993 92.1694C 151.187 91.3053 151.367 90.4358 151.532 89.5612L 145.636 88.4484C 145.483 89.2555 145.318 90.0578 145.139 90.8551L 150.993 92.1694ZM 151.981 86.9333C 152.115 86.0597 152.235 85.1814 152.34 84.2986L 146.382 83.5911C 146.285 84.4061 146.174 85.2169 146.051 86.0232L 151.981 86.9333ZM 152.609 81.6503C 152.683 80.7676 152.743 79.8809 152.788 78.9902L 146.795 78.6883C 146.754 79.5112 146.699 80.3304 146.63 81.1456L 152.609 81.6503ZM 152.877 76.3354C 152.884 75.8911 152.888 75.446 152.888 75L 146.888 75C 146.888 75.4124 146.885 75.824 146.878 76.2347L 152.877 76.3354Z"/>
<path id="path6_fill" d="M 150 74.944C 150 116.334 116.421 149.888 75 149.888C 33.5787 149.888 0 116.334 0 74.944C 0 33.5536 33.5787 0 75 0C 116.421 0 150 33.5536 150 74.944Z"/>
<path id="path7_stroke_2x" d="M 151.5 74.944C 151.5 74.5064 151.496 74.0697 151.489 73.6338L 148.489 73.6842C 148.496 74.1033 148.5 74.5233 148.5 74.944L 151.5 74.944ZM 151.401 71.0292C 151.357 70.1554 151.298 69.2855 151.225 68.4197L 148.236 68.6726C 148.306 69.5046 148.363 70.3407 148.405 71.1805L 151.401 71.0292ZM 150.961 65.822C 150.858 64.9562 150.74 64.0947 150.608 63.2379L 147.643 63.694C 147.77 64.5171 147.883 65.3447 147.982 66.1766L 150.961 65.822ZM 150.167 60.6608C 150.004 59.8031 149.828 58.9505 149.637 58.1031L 146.71 58.7617C 146.894 59.5755 147.063 60.3945 147.219 61.2184L 150.167 60.6608ZM 149.021 55.5673C 148.8 54.7227 148.565 53.8838 148.316 53.0508L 145.442 53.9092C 145.68 54.7092 145.906 55.515 146.118 56.3262L 149.021 55.5673ZM 147.526 50.5608C 147.247 49.7346 146.956 48.9146 146.65 48.1012L 143.842 49.1554C 144.135 49.9367 144.415 50.7242 144.682 51.5178L 147.526 50.5608ZM 145.691 45.6721C 145.356 44.8666 145.008 44.068 144.647 43.2767L 141.918 44.5216C 142.265 45.2817 142.599 46.0487 142.92 46.8224L 145.691 45.6721ZM 143.523 40.9198C 143.135 40.14 142.733 39.3677 142.319 38.6033L 139.681 40.0323C 140.079 40.7666 140.465 41.5085 140.838 42.2576L 143.523 40.9198ZM 141.036 36.3278C 140.595 35.5764 140.141 34.8332 139.676 34.0984L 137.142 35.7044C 137.589 36.4103 138.025 37.1243 138.448 37.8462L 141.036 36.3278ZM 138.24 31.9173C 137.749 31.1979 137.246 30.4873 136.731 29.7858L 134.313 31.5606C 134.807 32.2347 135.291 32.9175 135.763 33.6088L 138.24 31.9173ZM 135.151 27.707C 134.612 27.0229 134.062 26.3483 133.501 25.6834L 131.208 27.6185C 131.748 28.2575 132.276 28.9058 132.794 29.5631L 135.151 27.707ZM 131.783 23.717C 131.199 23.0712 130.604 22.4354 129.999 21.81L 127.843 23.8962C 128.425 24.4973 128.996 25.1083 129.557 25.7289L 131.783 23.717ZM 128.152 19.9647C 127.526 19.3601 126.889 18.7661 126.243 18.183L 124.233 20.4106C 124.855 20.971 125.466 21.5418 126.068 22.1228L 128.152 19.9647ZM 124.274 16.4672C 123.609 15.9067 122.934 15.3573 122.249 14.8194L 120.395 17.1783C 121.053 17.6952 121.702 18.2232 122.342 18.7618L 124.274 16.4672ZM 120.169 13.2411C 119.467 12.727 118.755 12.2247 118.035 11.7343L 116.347 14.2138C 117.038 14.685 117.722 15.1677 118.396 15.6616L 120.169 13.2411ZM 115.853 10.3015C 115.118 9.83665 114.374 9.38394 113.622 8.94369L 112.106 11.5325C 112.829 11.9555 113.543 12.3904 114.249 12.8371L 115.853 10.3015ZM 111.346 7.66232C 110.581 7.24894 109.808 6.84819 109.028 6.46036L 107.693 9.14676C 108.442 9.51933 109.184 9.90432 109.919 10.3015L 111.346 7.66232ZM 106.67 5.33828C 105.879 4.97808 105.08 4.63096 104.274 4.29719L 103.126 7.06883C 103.9 7.38943 104.667 7.72286 105.428 8.06887L 106.67 5.33828ZM 101.844 3.33928C 101.031 3.03459 100.211 2.74335 99.3841 2.46582L 98.429 5.30975C 99.2228 5.57632 100.011 5.85606 100.792 6.14872L 101.844 3.33928ZM 96.8937 1.67692C 96.0606 1.4287 95.2215 1.19427 94.3768 0.973913L 93.6195 3.87677C 94.4309 4.08843 95.2368 4.3136 96.037 4.55202L 96.8937 1.67692ZM 91.8408 0.35867C 90.9934 0.168423 90.1408 -0.00777246 89.283 -0.169659L 88.7266 2.77829C 89.5506 2.93381 90.3697 3.10306 91.1837 3.28581L 91.8408 0.35867ZM 86.7058 -0.610472C 85.849 -0.741957 84.9876 -0.859234 84.1217 -0.962056L 83.768 2.01701C 84.5999 2.11581 85.4276 2.22849 86.2507 2.35481L 86.7058 -0.610472ZM 81.5242 -1.22582C 80.6583 -1.29891 79.7884 -1.35758 78.9147 -1.40161L 78.7638 1.59459C 79.6036 1.63691 80.4397 1.69331 81.2718 1.76355L 81.5242 -1.22582ZM 76.3102 -1.48901C 75.8743 -1.49633 75.4376 -1.5 75 -1.5L 75 1.5C 75.4208 1.5 75.8408 1.50353 76.2599 1.51057L 76.3102 -1.48901ZM 75 -1.5C 74.5624 -1.5 74.1257 -1.49633 73.6898 -1.48901L 73.7402 1.51057C 74.1593 1.50353 74.5792 1.5 75 1.5L 75 -1.5ZM 71.0853 -1.40161C 70.2116 -1.35758 69.3417 -1.29891 68.4759 -1.22582L 68.7282 1.76355C 69.5603 1.69331 70.3964 1.63691 71.2363 1.59459L 71.0853 -1.40161ZM 65.8783 -0.962056C 65.0125 -0.859234 64.151 -0.741957 63.2942 -0.610472L 63.7493 2.35481C 64.5724 2.22849 65.4001 2.11581 66.2321 2.01701L 65.8783 -0.962056ZM 60.717 -0.169658C 59.8593 -0.00777204 59.0066 0.168423 58.1592 0.358671L 58.8164 3.28581C 59.6303 3.10306 60.4494 2.93381 61.2734 2.7783L 60.717 -0.169658ZM 55.6232 0.973914C 54.7785 1.19427 53.9395 1.4287 53.1064 1.67692L 53.963 4.55202C 54.7632 4.3136 55.5691 4.08843 56.3805 3.87677L 55.6232 0.973914ZM 50.616 2.46582C 49.7895 2.74335 48.9694 3.03459 48.1558 3.33928L 49.208 6.14872C 49.9894 5.85606 50.7772 5.57632 51.571 5.30975L 50.616 2.46582ZM 45.726 4.29719C 44.9203 4.63096 44.1214 4.97808 43.3299 5.33828L 44.5724 8.06887C 45.3328 7.72286 46.1001 7.38943 46.8741 7.06883L 45.726 4.29719ZM 40.9721 6.46036C 40.1918 6.84819 39.4192 7.24894 38.6544 7.66232L 40.081 10.3015C 40.8157 9.90432 41.5579 9.51933 42.3074 9.14676L 40.9721 6.46036ZM 36.3778 8.94369C 35.6259 9.38394 34.8823 9.83665 34.1472 10.3015L 35.7505 12.8371C 36.4569 12.3904 37.1714 11.9555 37.8937 11.5325L 36.3778 8.94369ZM 31.9646 11.7343C 31.2447 12.2247 30.5335 12.727 29.8315 13.2411L 31.6037 15.6616C 32.2783 15.1677 32.9617 14.685 33.6535 14.2138L 31.9646 11.7343ZM 27.751 14.8194C 27.0664 15.3573 26.3912 15.9067 25.7257 16.4672L 27.6583 18.7618C 28.2978 18.2232 28.9466 17.6952 29.6045 17.1783L 27.751 14.8194ZM 23.7574 18.183C 23.1109 18.7661 22.4745 19.3601 21.8483 19.9647L 23.9321 22.1228C 24.5339 21.5418 25.1455 20.971 25.7667 20.4106L 23.7574 18.183ZM 20.001 21.81C 19.3957 22.4354 18.801 23.0712 18.2172 23.717L 20.4426 25.7289C 21.0036 25.1083 21.5751 24.4973 22.1568 23.8962L 20.001 21.81ZM 16.4992 25.6834C 15.938 26.3483 15.3878 27.0229 14.8491 27.707L 17.206 29.5631C 17.7237 28.9058 18.2523 28.2575 18.7917 27.6185L 16.4992 25.6834ZM 13.2686 29.7858C 12.7538 30.4873 12.2507 31.1979 11.7596 31.9173L 14.2373 33.6088C 14.7092 32.9175 15.1926 32.2347 15.6872 31.5606L 13.2686 29.7858ZM 10.3245 34.0985C 9.85885 34.8332 9.4054 35.5764 8.96441 36.3278L 11.5517 37.8462C 11.9754 37.1243 12.4111 36.4103 12.8585 35.7044L 10.3245 34.0985ZM 7.68083 38.6033C 7.26672 39.3677 6.86526 40.14 6.47673 40.9198L 9.16194 42.2576C 9.53515 41.5085 9.92081 40.7666 10.3186 40.0323L 7.68083 38.6033ZM 5.35256 43.2767C 4.99167 44.068 4.64388 44.8666 4.30947 45.6721L 7.08019 46.8224C 7.40139 46.0487 7.73544 45.2817 8.0821 44.5216L 5.35256 43.2767ZM 3.34969 48.1012C 3.04438 48.9146 2.75254 49.7346 2.47444 50.5608L 5.31773 51.5178C 5.58482 50.7242 5.86511 49.9367 6.15835 49.1554L 3.34969 48.1012ZM 1.6839 53.0508C 1.43515 53.8838 1.20024 54.7227 0.979413 55.5673L 3.88185 56.3262C 4.09394 55.515 4.31956 54.7092 4.55846 53.9092L 1.6839 53.0508ZM 0.362828 58.1031C 0.172162 58.9505 -0.00442227 59.8031 -0.166667 60.6608L 2.78106 61.2184C 2.9369 60.3945 3.10652 59.5756 3.28965 58.7617L 0.362828 58.1031ZM -0.608451 63.2379C -0.740234 64.0947 -0.857777 64.9562 -0.960833 65.822L 2.01814 66.1766C 2.11716 65.3447 2.23008 64.5171 2.35668 63.694L -0.608451 63.2379ZM -1.2252 68.4197C -1.29845 69.2855 -1.35726 70.1554 -1.40138 71.0292L 1.5948 71.1805C 1.63721 70.3407 1.69373 69.5046 1.76412 68.6726L -1.2252 68.4197ZM -1.48898 73.6338C -1.49632 74.0697 -1.5 74.5064 -1.5 74.944L 1.5 74.944C 1.5 74.5233 1.50354 74.1033 1.51059 73.6842L -1.48898 73.6338ZM -1.5 74.944C -1.5 75.3816 -1.49632 75.8184 -1.48898 76.2543L 1.51059 76.2038C 1.50354 75.7848 1.5 75.3648 1.5 74.944L -1.5 74.944ZM -1.40138 78.8589C -1.35726 79.7327 -1.29845 80.6026 -1.2252 81.4684L 1.76412 81.2155C 1.69373 80.3835 1.63721 79.5474 1.5948 78.7076L -1.40138 78.8589ZM -0.960832 84.066C -0.857777 84.9319 -0.740234 85.7934 -0.608451 86.6502L 2.35668 86.1941C 2.23008 85.371 2.11716 84.5434 2.01814 83.7115L -0.960832 84.066ZM -0.166666 89.2273C -0.00442164 90.085 0.172163 90.9376 0.362829 91.785L 3.28965 91.1264C 3.10652 90.3125 2.9369 89.4935 2.78106 88.6697L -0.166666 89.2273ZM 0.979413 94.3207C 1.20024 95.1654 1.43515 96.0043 1.6839 96.8372L 4.55846 95.9788C 4.31956 95.1788 4.09394 94.3731 3.88185 93.5619L 0.979413 94.3207ZM 2.47444 99.3272C 2.75254 100.154 3.04438 100.973 3.34969 101.787L 6.15835 100.733C 5.86511 99.9514 5.58482 99.1639 5.31773 98.3703L 2.47444 99.3272ZM 4.30947 104.216C 4.64388 105.021 4.99167 105.82 5.35256 106.611L 8.0821 105.367C 7.73545 104.606 7.40139 103.839 7.08019 103.066L 4.30947 104.216ZM 6.47673 108.968C 6.86526 109.748 7.26672 110.52 7.68083 111.285L 10.3186 109.856C 9.92081 109.121 9.53515 108.38 9.16194 107.63L 6.47673 108.968ZM 8.96441 113.56C 9.4054 114.312 9.85886 115.055 10.3245 115.79L 12.8585 114.184C 12.4111 113.478 11.9754 112.764 11.5517 112.042L 8.96441 113.56ZM 11.7596 117.971C 12.2507 118.69 12.7538 119.401 13.2686 120.102L 15.6872 118.327C 15.1926 117.653 14.7092 116.971 14.2373 116.279L 11.7596 117.971ZM 14.8491 122.181C 15.3878 122.865 15.938 123.54 16.4992 124.205L 18.7917 122.27C 18.2523 121.631 17.7237 120.982 17.206 120.325L 14.8491 122.181ZM 18.2172 126.171C 18.801 126.817 19.3957 127.453 20.001 128.078L 22.1568 125.992C 21.5751 125.391 21.0036 124.78 20.4426 124.159L 18.2172 126.171ZM 21.8483 129.923C 22.4745 130.528 23.1109 131.122 23.7574 131.705L 25.7667 129.477C 25.1455 128.917 24.5339 128.346 23.9321 127.765L 21.8483 129.923ZM 25.7257 133.421C 26.3912 133.981 27.0664 134.531 27.751 135.069L 29.6045 132.71C 28.9466 132.193 28.2978 131.665 27.6583 131.126L 25.7257 133.421ZM 29.8315 136.647C 30.5335 137.161 31.2447 137.663 31.9646 138.154L 33.6535 135.674C 32.9617 135.203 32.2783 134.72 31.6037 134.226L 29.8315 136.647ZM 34.1472 139.587C 34.8823 140.051 35.6259 140.504 36.3778 140.944L 37.8937 138.356C 37.1714 137.933 36.4569 137.498 35.7505 137.051L 34.1472 139.587ZM 38.6544 142.226C 39.4192 142.639 40.1919 143.04 40.9721 143.428L 42.3074 140.741C 41.5579 140.369 40.8157 139.984 40.081 139.587L 38.6544 142.226ZM 43.3299 144.55C 44.1214 144.91 44.9203 145.257 45.726 145.591L 46.8741 142.819C 46.1001 142.499 45.3328 142.165 44.5724 141.819L 43.3299 144.55ZM 48.1558 146.549C 48.9694 146.853 49.7895 147.145 50.616 147.422L 51.571 144.578C 50.7772 144.312 49.9894 144.032 49.208 143.739L 48.1558 146.549ZM 53.1064 148.211C 53.9395 148.459 54.7785 148.694 55.6232 148.914L 56.3805 146.011C 55.5691 145.8 54.7632 145.574 53.963 145.336L 53.1064 148.211ZM 58.1592 149.529C 59.0066 149.72 59.8593 149.896 60.717 150.058L 61.2734 147.11C 60.4494 146.954 59.6303 146.785 58.8164 146.602L 58.1592 149.529ZM 63.2942 150.499C 64.151 150.63 65.0125 150.747 65.8783 150.85L 66.2321 147.871C 65.4001 147.772 64.5724 147.66 63.7493 147.533L 63.2942 150.499ZM 68.4759 151.114C 69.3417 151.187 70.2116 151.246 71.0853 151.29L 71.2363 148.293C 70.3964 148.251 69.5603 148.195 68.7282 148.125L 68.4759 151.114ZM 73.6898 151.377C 74.1257 151.384 74.5624 151.388 75 151.388L 75 148.388C 74.5792 148.388 74.1593 148.385 73.7402 148.378L 73.6898 151.377ZM 75 151.388C 75.4376 151.388 75.8744 151.384 76.3102 151.377L 76.2599 148.378C 75.8408 148.385 75.4208 148.388 75 148.388L 75 151.388ZM 78.9147 151.29C 79.7885 151.246 80.6583 151.187 81.5242 151.114L 81.2718 148.125C 80.4397 148.195 79.6036 148.251 78.7638 148.293L 78.9147 151.29ZM 84.1217 150.85C 84.9876 150.747 85.849 150.63 86.7058 150.499L 86.2507 147.533C 85.4276 147.66 84.5999 147.772 83.768 147.871L 84.1217 150.85ZM 89.283 150.058C 90.1408 149.896 90.9935 149.72 91.8408 149.529L 91.1837 146.602C 90.3697 146.785 89.5506 146.954 88.7266 147.11L 89.283 150.058ZM 94.3768 148.914C 95.2215 148.694 96.0606 148.459 96.8937 148.211L 96.037 145.336C 95.2368 145.574 94.4309 145.8 93.6195 146.011L 94.3768 148.914ZM 99.3841 147.422C 100.211 147.145 101.031 146.853 101.844 146.549L 100.792 143.739C 100.011 144.032 99.2228 144.312 98.429 144.578L 99.3841 147.422ZM 104.274 145.591C 105.08 145.257 105.879 144.91 106.67 144.55L 105.428 141.819C 104.667 142.165 103.9 142.499 103.126 142.819L 104.274 145.591ZM 109.028 143.428C 109.808 143.04 110.581 142.639 111.346 142.226L 109.919 139.587C 109.184 139.984 108.442 140.369 107.693 140.741L 109.028 143.428ZM 113.622 140.944C 114.374 140.504 115.118 140.051 115.853 139.587L 114.249 137.051C 113.543 137.498 112.829 137.933 112.106 138.356L 113.622 140.944ZM 118.035 138.154C 118.755 137.663 119.467 137.161 120.169 136.647L 118.396 134.226C 117.722 134.72 117.038 135.203 116.347 135.674L 118.035 138.154ZM 122.249 135.069C 122.934 134.531 123.609 133.981 124.274 133.421L 122.342 131.126C 121.702 131.665 121.053 132.193 120.395 132.71L 122.249 135.069ZM 126.243 131.705C 126.889 131.122 127.526 130.528 128.152 129.923L 126.068 127.765C 125.466 128.346 124.855 128.917 124.233 129.477L 126.243 131.705ZM 129.999 128.078C 130.604 127.453 131.199 126.817 131.783 126.171L 129.557 124.159C 128.996 124.78 128.425 125.391 127.843 125.992L 129.999 128.078ZM 133.501 124.205C 134.062 123.54 134.612 122.865 135.151 122.181L 132.794 120.325C 132.276 120.982 131.748 121.631 131.208 122.27L 133.501 124.205ZM 136.731 120.102C 137.246 119.401 137.749 118.69 138.24 117.971L 135.763 116.279C 135.291 116.971 134.807 117.653 134.313 118.327L 136.731 120.102ZM 139.676 115.79C 140.141 115.055 140.595 114.312 141.036 113.56L 138.448 112.042C 138.025 112.764 137.589 113.478 137.142 114.184L 139.676 115.79ZM 142.319 111.285C 142.733 110.52 143.135 109.748 143.523 108.968L 140.838 107.63C 140.465 108.38 140.079 109.121 139.681 109.856L 142.319 111.285ZM 144.647 106.611C 145.008 105.82 145.356 105.021 145.691 104.216L 142.92 103.066C 142.599 103.839 142.265 104.606 141.918 105.367L 144.647 106.611ZM 146.65 101.787C 146.956 100.973 147.247 100.154 147.526 99.3272L 144.682 98.3703C 144.415 99.1639 144.135 99.9514 143.842 100.733L 146.65 101.787ZM 148.316 96.8372C 148.565 96.0043 148.8 95.1654 149.021 94.3207L 146.118 93.5619C 145.906 94.3731 145.68 95.1788 145.442 95.9788L 148.316 96.8372ZM 149.637 91.785C 149.828 90.9376 150.004 90.085 150.167 89.2273L 147.219 88.6697C 147.063 89.4935 146.894 90.3125 146.71 91.1264L 149.637 91.785ZM 150.608 86.6502C 150.74 85.7934 150.858 84.9319 150.961 84.066L 147.982 83.7115C 147.883 84.5434 147.77 85.371 147.643 86.1941L 150.608 86.6502ZM 151.225 81.4684C 151.298 80.6026 151.357 79.7327 151.401 78.8589L 148.405 78.7076C 148.363 79.5474 148.306 80.3835 148.236 81.2155L 151.225 81.4684ZM 151.489 76.2543C 151.496 75.8184 151.5 75.3816 151.5 74.944L 148.5 74.944C 148.5 75.3648 148.496 75.7848 148.489 76.2038L 151.489 76.2543ZM 153 74.944C 153 74.498 152.996 74.0528 152.989 73.6085L 146.99 73.7095C 146.997 74.1201 147 74.5317 147 74.944L 153 74.944ZM 152.9 70.9535C 152.855 70.0628 152.795 69.176 152.72 68.2932L 146.741 68.799C 146.81 69.6142 146.866 70.4333 146.907 71.2561L 152.9 70.9535ZM 152.45 65.6448C 152.345 64.7619 152.225 63.8835 152.091 63.0099L 146.161 63.922C 146.285 64.7282 146.395 65.5389 146.492 66.3539L 152.45 65.6448ZM 151.641 60.382C 151.475 59.5074 151.295 58.6379 151.101 57.7738L 145.247 59.091C 145.426 59.8881 145.592 60.6903 145.745 61.4972L 151.641 60.382ZM 150.472 55.1879C 150.247 54.3266 150.007 53.4711 149.753 52.6216L 144.004 54.3384C 144.238 55.122 144.459 55.9111 144.667 56.7056L 150.472 55.1879ZM 148.947 50.0824C 148.664 49.2397 148.366 48.4035 148.055 47.5741L 142.437 49.6826C 142.725 50.4477 142.999 51.219 143.261 51.9963L 148.947 50.0824ZM 147.076 45.097C 146.735 44.2756 146.38 43.4612 146.012 42.6543L 140.553 45.144C 140.893 45.8885 141.22 46.6397 141.534 47.3975L 147.076 45.097ZM 144.866 40.2509C 144.47 39.4557 144.06 38.6682 143.638 37.8888L 138.363 40.7468C 138.752 41.4661 139.13 42.1927 139.495 42.9265L 144.866 40.2509ZM 142.329 35.5686C 141.88 34.8024 141.417 34.0446 140.943 33.2955L 135.875 36.5074C 136.313 37.1989 136.74 37.8983 137.155 38.6055L 142.329 35.5686ZM 139.479 31.0716C 138.979 30.3381 138.466 29.6136 137.941 28.8983L 133.103 32.448C 133.588 33.1084 134.062 33.7773 134.524 34.4545L 139.479 31.0716ZM 136.329 26.7789C 135.78 26.0815 135.219 25.3937 134.647 24.7158L 130.062 28.5861C 130.591 29.2121 131.108 29.8472 131.616 30.4911L 136.329 26.7789ZM 132.896 22.7111C 132.3 22.0527 131.694 21.4045 131.077 20.7668L 126.765 24.9393C 127.335 25.5282 127.895 26.1268 128.445 26.7348L 132.896 22.7111ZM 129.194 18.8856C 128.555 18.2692 127.906 17.6637 127.247 17.0692L 123.229 21.5245C 123.837 22.0735 124.436 22.6327 125.026 23.2019L 129.194 18.8856ZM 125.241 15.32C 124.562 14.7485 123.874 14.1884 123.176 13.6399L 119.469 18.3577C 120.113 18.8642 120.749 19.3814 121.375 19.9091L 125.241 15.32ZM 121.055 12.0308C 120.339 11.5067 119.614 10.9946 118.88 10.4946L 115.502 15.4535C 116.18 15.9151 116.849 16.388 117.51 16.8719L 121.055 12.0308ZM 116.655 9.03374C 115.905 8.55975 115.147 8.09817 114.38 7.64928L 111.348 12.8269C 112.056 13.2413 112.756 13.6673 113.448 14.1049L 116.655 9.03374ZM 112.059 6.34275C 111.279 5.92125 110.491 5.51262 109.696 5.11715L 107.025 10.49C 107.759 10.8549 108.486 11.232 109.206 11.621L 112.059 6.34275ZM 107.291 3.97299C 106.484 3.60569 105.67 3.25172 104.848 2.91138L 102.552 8.45464C 103.31 8.76866 104.062 9.09525 104.806 9.43417L 107.291 3.97299ZM 102.37 1.93456C 101.541 1.62386 100.704 1.32687 99.8616 1.04386L 97.9515 6.73172C 98.729 6.9928 99.5006 7.26679 100.266 7.55344L 102.37 1.93456ZM 97.322 0.239375C 96.4724 -0.0137522 95.6168 -0.252806 94.7554 -0.477515L 93.2409 5.3282C 94.0356 5.53551 94.825 5.75605 95.6087 5.98956L 97.322 0.239375ZM 92.1694 -1.1049C 91.3053 -1.2989 90.4358 -1.47856 89.5612 -1.64364L 88.4484 4.25227C 89.2555 4.4046 90.0578 4.57038 90.8551 4.74937L 92.1694 -1.1049ZM 86.9333 -2.09311C 86.0597 -2.22718 85.1814 -2.34676 84.2986 -2.45159L 83.5911 3.50655C 84.4061 3.60333 85.2169 3.71371 86.0232 3.83746L 86.9333 -2.09311ZM 81.6503 -2.7205C 80.7676 -2.79502 79.8809 -2.85483 78.9902 -2.89971L 78.6883 3.09269C 79.5112 3.13416 80.3304 3.18941 81.1456 3.25823L 81.6503 -2.7205ZM 76.3354 -2.9888C 75.8911 -2.99626 75.446 -3 75 -3L 75 3C 75.4124 3 75.824 3.00346 76.2347 3.01036L 76.3354 -2.9888ZM 75 -3C 74.554 -3 74.1089 -2.99626 73.6646 -2.9888L 73.7653 3.01036C 74.176 3.00346 74.5876 3 75 3L 75 -3ZM 71.0098 -2.89971C 70.1192 -2.85483 69.2324 -2.79502 68.3497 -2.7205L 68.8544 3.25823C 69.6696 3.18941 70.4888 3.13416 71.3117 3.09269L 71.0098 -2.89971ZM 65.7014 -2.45159C 64.8186 -2.34676 63.9403 -2.22718 63.0667 -2.09311L 63.9768 3.83746C 64.7831 3.71371 65.5939 3.60333 66.409 3.50655L 65.7014 -2.45159ZM 60.4388 -1.64364C 59.5642 -1.47856 58.6947 -1.2989 57.8306 -1.1049L 59.145 4.74937C 59.9422 4.57038 60.7445 4.4046 61.5516 4.25227L 60.4388 -1.64364ZM 55.2446 -0.477515C 54.3832 -0.252806 53.5276 -0.0137518 52.678 0.239376L 54.3913 5.98956C 55.1751 5.75605 55.9644 5.53551 56.7591 5.3282L 55.2446 -0.477515ZM 50.1385 1.04386C 49.2957 1.32687 48.4594 1.62386 47.6297 1.93456L 49.7341 7.55344C 50.4995 7.26679 51.271 6.9928 52.0485 6.73172L 50.1385 1.04386ZM 45.152 2.91138C 44.3303 3.25172 43.5158 3.60569 42.7086 3.97299L 45.1937 9.43417C 45.9385 9.09525 46.69 8.76866 47.4481 8.45465L 45.152 2.91138ZM 40.3044 5.11716C 39.5088 5.51262 38.721 5.92125 37.9412 6.34275L 40.7942 11.621C 41.5139 11.232 42.241 10.8549 42.9751 10.49L 40.3044 5.11716ZM 35.6198 7.64928C 34.8532 8.09817 34.095 8.55975 33.3455 9.03374L 36.5522 14.1049C 37.2442 13.6673 37.9441 13.2413 38.6517 12.8269L 35.6198 7.64928ZM 31.1202 10.4946C 30.3861 10.9946 29.6611 11.5067 28.9453 12.0308L 32.4899 16.8719C 33.1508 16.388 33.8202 15.9151 34.4979 15.4535L 31.1202 10.4946ZM 26.8242 13.6399C 26.1262 14.1884 25.4378 14.7485 24.7594 15.32L 28.6246 19.9091C 29.2511 19.3814 29.8868 18.8642 30.5313 18.3577L 26.8242 13.6399ZM 22.7527 17.0692C 22.0936 17.6637 21.4448 18.2692 20.8064 18.8856L 24.974 23.2019C 25.5636 22.6327 26.1628 22.0735 26.7714 21.5245L 22.7527 17.0692ZM 18.923 20.7668C 18.306 21.4045 17.6997 22.0527 17.1045 22.7111L 21.5553 26.7348C 22.1049 26.1268 22.6649 25.5282 23.2347 24.9393L 18.923 20.7668ZM 15.353 24.7158C 14.7808 25.3937 14.2199 26.0815 13.6707 26.7789L 18.3845 30.4911C 18.8916 29.8472 19.4095 29.2121 19.9379 28.5861L 15.353 24.7158ZM 12.0592 28.8983C 11.5344 29.6136 11.0215 30.3381 10.5207 31.0716L 15.4761 34.4545C 15.9384 33.7773 16.412 33.1084 16.8965 32.448L 12.0592 28.8983ZM 9.05752 33.2955C 8.58275 34.0446 8.12039 34.8024 7.67074 35.5686L 12.8454 38.6055C 13.2604 37.8983 13.6872 37.1989 14.1254 36.5074L 9.05752 33.2955ZM 6.36193 37.8888C 5.93967 38.6682 5.53031 39.4557 5.13412 40.2509L 10.5045 42.9265C 10.8701 42.1927 11.2479 41.4661 11.6375 40.7468L 6.36193 37.8888ZM 3.98779 42.6543C 3.61978 43.4612 3.26512 44.2756 2.92411 45.097L 8.46555 47.3975C 8.78014 46.6397 9.10733 45.8885 9.44686 45.144L 3.98779 42.6543ZM 1.94536 47.5741C 1.63401 48.4035 1.3364 49.2397 1.0528 50.0824L 6.73937 51.9963C 7.00096 51.219 7.27548 50.4477 7.56268 49.6826L 1.94536 47.5741ZM 0.246613 52.6216C -0.00705196 53.4711 -0.246616 54.3266 -0.471807 55.1879L 5.33307 56.7056C 5.54079 55.9111 5.76177 55.122 5.99575 54.3384L 0.246613 52.6216ZM -1.10058 57.7738C -1.29501 58.6379 -1.47508 59.5074 -1.64053 60.382L 4.25492 61.4972C 4.40757 60.6903 4.57369 59.8881 4.75306 59.091L -1.10058 57.7738ZM -2.09102 63.0099C -2.22539 63.8835 -2.34524 64.7619 -2.45032 65.6448L 3.50763 66.3539C 3.60462 65.5389 3.71524 64.7282 3.83925 63.922L -2.09102 63.0099ZM -2.71986 68.2932C -2.79454 69.176 -2.85449 70.0628 -2.89947 70.9535L 3.09289 71.2561C 3.13444 70.4333 3.18982 69.6142 3.25878 68.799L -2.71986 68.2932ZM -2.98877 73.6085C -2.99625 74.0528 -3 74.498 -3 74.944L 3 74.944C 3 74.5317 3.00347 74.1201 3.01038 73.7095L -2.98877 73.6085ZM -3 74.944C -3 75.3901 -2.99625 75.8352 -2.98877 76.2795L 3.01038 76.1786C 3.00347 75.7679 3 75.3564 3 74.944L -3 74.944ZM -2.89947 78.9346C -2.85449 79.8253 -2.79454 80.7121 -2.71986 81.5949L 3.25878 81.0891C 3.18982 80.2739 3.13444 79.4548 3.09289 78.632L -2.89947 78.9346ZM -2.45032 84.2433C -2.34524 85.1262 -2.22539 86.0045 -2.09102 86.8782L 3.83925 85.9661C 3.71524 85.1598 3.60462 84.3491 3.50763 83.5342L -2.45032 84.2433ZM -1.64053 89.5061C -1.47508 90.3807 -1.29501 91.2502 -1.10058 92.1143L 4.75306 90.7971C 4.57369 90 4.40757 89.1978 4.25492 88.3909L -1.64053 89.5061ZM -0.471807 94.7002C -0.246616 95.5615 -0.00705209 96.417 0.246613 97.2665L 5.99574 95.5496C 5.76177 94.7661 5.54079 93.977 5.33307 93.1825L -0.471807 94.7002ZM 1.0528 99.8057C 1.3364 100.648 1.63401 101.485 1.94536 102.314L 7.56268 100.206C 7.27548 99.4404 7.00096 98.6691 6.73937 97.8918L 1.0528 99.8057ZM 2.92411 104.791C 3.26512 105.613 3.61978 106.427 3.98779 107.234L 9.44687 104.744C 9.10733 104 8.78014 103.248 8.46555 102.491L 2.92411 104.791ZM 5.13413 109.637C 5.53031 110.432 5.93967 111.22 6.36193 111.999L 11.6375 109.141C 11.2479 108.422 10.8701 107.695 10.5045 106.962L 5.13413 109.637ZM 7.67074 114.32C 8.12039 115.086 8.58275 115.843 9.05752 116.593L 14.1254 113.381C 13.6872 112.689 13.2604 111.99 12.8454 111.283L 7.67074 114.32ZM 10.5207 118.816C 11.0215 119.55 11.5344 120.275 12.0592 120.99L 16.8965 117.44C 16.412 116.78 15.9384 116.111 15.4761 115.434L 10.5207 118.816ZM 13.6707 123.109C 14.2199 123.807 14.7808 124.494 15.353 125.172L 19.9379 121.302C 19.4095 120.676 18.8916 120.041 18.3845 119.397L 13.6707 123.109ZM 17.1045 127.177C 17.6997 127.835 18.306 128.484 18.923 129.121L 23.2347 124.949C 22.6649 124.36 22.105 123.761 21.5553 123.153L 17.1045 127.177ZM 20.8064 131.003C 21.4448 131.619 22.0936 132.224 22.7527 132.819L 26.7714 128.364C 26.1628 127.815 25.5636 127.255 24.974 126.686L 20.8064 131.003ZM 24.7594 134.568C 25.4378 135.14 26.1262 135.7 26.8242 136.248L 30.5313 131.53C 29.8868 131.024 29.2511 130.507 28.6246 129.979L 24.7594 134.568ZM 28.9453 137.857C 29.6611 138.381 30.3861 138.894 31.1202 139.394L 34.4979 134.435C 33.8202 133.973 33.1508 133.5 32.4899 133.016L 28.9453 137.857ZM 33.3455 140.854C 34.095 141.328 34.8532 141.79 35.6198 142.239L 38.6517 137.061C 37.9441 136.647 37.2442 136.221 36.5522 135.783L 33.3455 140.854ZM 37.9412 143.545C 38.721 143.967 39.5088 144.375 40.3044 144.771L 42.9751 139.398C 42.241 139.033 41.5139 138.656 40.7942 138.267L 37.9412 143.545ZM 42.7086 145.915C 43.5158 146.282 44.3303 146.636 45.152 146.977L 47.4481 141.433C 46.69 141.119 45.9385 140.793 45.1937 140.454L 42.7086 145.915ZM 47.6297 147.954C 48.4594 148.264 49.2957 148.561 50.1385 148.844L 52.0485 143.156C 51.271 142.895 50.4995 142.621 49.7341 142.335L 47.6297 147.954ZM 52.678 149.649C 53.5276 149.902 54.3832 150.141 55.2446 150.366L 56.7591 144.56C 55.9644 144.353 55.1751 144.132 54.3913 143.899L 52.678 149.649ZM 57.8306 150.993C 58.6947 151.187 59.5642 151.367 60.4388 151.532L 61.5516 145.636C 60.7445 145.483 59.9422 145.318 59.145 145.139L 57.8306 150.993ZM 63.0667 151.981C 63.9403 152.115 64.8186 152.235 65.7014 152.34L 66.409 146.382C 65.5939 146.285 64.7831 146.174 63.9768 146.051L 63.0667 151.981ZM 68.3497 152.609C 69.2324 152.683 70.1192 152.743 71.0098 152.788L 71.3117 146.795C 70.4888 146.754 69.6696 146.699 68.8544 146.63L 68.3497 152.609ZM 73.6646 152.877C 74.1089 152.884 74.554 152.888 75 152.888L 75 146.888C 74.5876 146.888 74.176 146.885 73.7653 146.878L 73.6646 152.877ZM 75 152.888C 75.446 152.888 75.8911 152.884 76.3354 152.877L 76.2347 146.878C 75.824 146.885 75.4124 146.888 75 146.888L 75 152.888ZM 78.9902 152.788C 79.8809 152.743 80.7676 152.683 81.6503 152.609L 81.1456 146.63C 80.3304 146.699 79.5112 146.754 78.6883 146.795L 78.9902 152.788ZM 84.2986 152.34C 85.1814 152.235 86.0597 152.115 86.9333 151.981L 86.0232 146.051C 85.2169 146.174 84.4061 146.285 83.5911 146.382L 84.2986 152.34ZM 89.5612 151.532C 90.4358 151.367 91.3053 151.187 92.1694 150.993L 90.8551 145.139C 90.0578 145.318 89.2555 145.483 88.4484 145.636L 89.5612 151.532ZM 94.7554 150.366C 95.6168 150.141 96.4724 149.902 97.322 149.649L 95.6087 143.899C 94.825 144.132 94.0356 144.353 93.2409 144.56L 94.7554 150.366ZM 99.8616 148.844C 100.704 148.561 101.541 148.264 102.37 147.954L 100.266 142.335C 99.5006 142.621 98.729 142.895 97.9515 143.156L 99.8616 148.844ZM 104.848 146.977C 105.67 146.636 106.484 146.282 107.291 145.915L 104.806 140.454C 104.062 140.793 103.31 141.119 102.552 141.433L 104.848 146.977ZM 109.696 144.771C 110.491 144.375 111.279 143.967 112.059 143.545L 109.206 138.267C 108.486 138.656 107.759 139.033 107.025 139.398L 109.696 144.771ZM 114.38 142.239C 115.147 141.79 115.905 141.328 116.655 140.854L 113.448 135.783C 112.756 136.221 112.056 136.647 111.348 137.061L 114.38 142.239ZM 118.88 139.394C 119.614 138.894 120.339 138.381 121.055 137.857L 117.51 133.016C 116.849 133.5 116.18 133.973 115.502 134.435L 118.88 139.394ZM 123.176 136.248C 123.874 135.7 124.562 135.14 125.241 134.568L 121.375 129.979C 120.749 130.507 120.113 131.024 119.469 131.53L 123.176 136.248ZM 127.247 132.819C 127.906 132.224 128.555 131.619 129.194 131.003L 125.026 126.686C 124.436 127.255 123.837 127.815 123.229 128.364L 127.247 132.819ZM 131.077 129.121C 131.694 128.484 132.3 127.835 132.896 127.177L 128.445 123.153C 127.895 123.761 127.335 124.36 126.765 124.949L 131.077 129.121ZM 134.647 125.172C 135.219 124.494 135.78 123.807 136.329 123.109L 131.616 119.397C 131.108 120.041 130.591 120.676 130.062 121.302L 134.647 125.172ZM 137.941 120.99C 138.466 120.275 138.979 119.55 139.479 118.816L 134.524 115.434C 134.062 116.111 133.588 116.78 133.103 117.44L 137.941 120.99ZM 140.943 116.593C 141.417 115.843 141.88 115.086 142.329 114.32L 137.155 111.283C 136.74 111.99 136.313 112.689 135.875 113.381L 140.943 116.593ZM 143.638 111.999C 144.06 111.22 144.47 110.432 144.866 109.637L 139.495 106.962C 139.13 107.695 138.752 108.422 138.363 109.141L 143.638 111.999ZM 146.012 107.234C 146.38 106.427 146.735 105.613 147.076 104.791L 141.534 102.491C 141.22 103.248 140.893 104 140.553 104.744L 146.012 107.234ZM 148.055 102.314C 148.366 101.485 148.664 100.648 148.947 99.8057L 143.261 97.8918C 142.999 98.6691 142.725 99.4404 142.437 100.206L 148.055 102.314ZM 149.753 97.2665C 150.007 96.417 150.247 95.5615 150.472 94.7002L 144.667 93.1825C 144.459 93.977 144.238 94.7661 144.004 95.5496L 149.753 97.2665ZM 151.101 92.1143C 151.295 91.2502 151.475 90.3807 151.641 89.5061L 145.745 88.3909C 145.592 89.1978 145.426 90 145.247 90.7971L 151.101 92.1143ZM 152.091 86.8782C 152.225 86.0045 152.345 85.1262 152.45 84.2433L 146.492 83.5342C 146.395 84.3491 146.285 85.1598 146.161 85.9661L 152.091 86.8782ZM 152.72 81.5949C 152.795 80.7121 152.855 79.8253 152.9 78.9346L 146.907 78.632C 146.866 79.4548 146.81 80.2739 146.741 81.089L 152.72 81.5949ZM 152.989 76.2795C 152.996 75.8352 153 75.3901 153 74.944L 147 74.944C 147 75.3564 146.997 75.7679 146.99 76.1786L 152.989 76.2795Z"/>
<path id="path8_fill" d="M 45.7691 93.762C 71.0467 93.762 91.5382 72.7727 91.5382 46.881C 91.5382 20.9893 71.0467 0 45.7691 0C 20.4915 0 0 20.9893 0 46.881C 0 72.7727 20.4915 93.762 45.7691 93.762Z"/>
<path id="path9_stroke" d="M 90.0382 46.881C 90.0382 71.9784 70.1845 92.262 45.7691 92.262L 45.7691 95.262C 71.9088 95.262 93.0382 73.567 93.0382 46.881L 90.0382 46.881ZM 45.7691 92.262C 21.3537 92.262 1.5 71.9784 1.5 46.881L -1.5 46.881C -1.5 73.567 19.6294 95.262 45.7691 95.262L 45.7691 92.262ZM 1.5 46.881C 1.5 21.7836 21.3537 1.5 45.7691 1.5L 45.7691 -1.5C 19.6294 -1.5 -1.5 20.1951 -1.5 46.881L 1.5 46.881ZM 45.7691 1.5C 70.1845 1.5 90.0382 21.7836 90.0382 46.881L 93.0382 46.881C 93.0382 20.1951 71.9088 -1.5 45.7691 -1.5L 45.7691 1.5Z"/>
<path id="path10_stroke" d="M 64.8155 -1.02842C 56.742 7.54381 45.4334 12.8768 32.9029 12.8768L 32.9029 15.8768C 46.3082 15.8768 58.3927 10.1668 66.9994 1.02842L 64.8155 -1.02842ZM 32.9029 12.8768C 20.4212 12.8768 9.16239 7.59428 1.08891 -0.927454L -1.08891 1.13581C 7.5179 10.2205 19.5504 15.8768 32.9029 15.8768L 32.9029 12.8768Z"/>
<path id="path11_stroke" d="M 1.03918 13.7917C 8.96273 6.17974 19.6312 1.5 31.3773 1.5L 31.3773 -1.5C 18.8148 -1.5 7.41244 3.50901 -1.03918 11.6282L 1.03918 13.7917ZM 31.3773 1.5C 43.0742 1.5 53.6914 6.12891 61.6136 13.7396L 63.692 11.5762C 55.2391 3.45565 43.8871 -1.5 31.3773 -1.5L 31.3773 1.5Z"/>
<path id="path12_stroke" d="M 52.8126 46.881C 52.8126 59.6108 49.8206 71.0619 45.0608 79.279C 40.2785 87.5348 33.8951 92.262 27.1563 92.262L 27.1563 95.262C 35.4156 95.262 42.6103 89.4945 47.6567 80.7828C 52.7255 72.0323 55.8126 60.0429 55.8126 46.881L 52.8126 46.881ZM 27.1563 92.262C 20.4176 92.262 14.0341 87.5348 9.25187 79.279C 4.49201 71.0619 1.5 59.6108 1.5 46.881L -1.5 46.881C -1.5 60.0429 1.58714 72.0323 6.65594 80.7828C 11.7023 89.4945 18.897 95.262 27.1563 95.262L 27.1563 92.262ZM 1.5 46.881C 1.5 34.1512 4.49201 22.7001 9.25187 14.483C 14.0341 6.22719 20.4176 1.5 27.1563 1.5L 27.1563 -1.5C 18.897 -1.5 11.7023 4.26748 6.65594 12.9793C 1.58714 21.7297 -1.5 33.7191 -1.5 46.881L 1.5 46.881ZM 27.1563 1.5C 33.8951 1.5 40.2785 6.22719 45.0608 14.483C 49.8206 22.7001 52.8126 34.1512 52.8126 46.881L 55.8126 46.881C 55.8126 33.7191 52.7255 21.7297 47.6567 12.9793C 42.6103 4.26748 35.4156 -1.5 27.1563 -1.5L 27.1563 1.5Z"/>
<path id="path13_stroke" d="M -1.5 0L -1.5 93.762L 1.5 93.762L 1.5 0L -1.5 0Z"/>
<path id="path14_stroke" d="M 91.5382 -1.5L 0 -1.5L 0 1.5L 91.5382 1.5L 91.5382 -1.5Z"/>
<path id="path15_fill" d="M 48.351 23.3871C 48.351 36.3034 37.5273 46.7742 24.1755 46.7742C 10.8237 46.7742 0 36.3034 0 23.3871C 0 10.4708 10.8237 0 24.1755 0C 37.5273 0 48.351 10.4708 48.351 23.3871Z"/>
<path id="path16_stroke_2x" d="M 45.351 23.3871C 45.351 34.5536 35.9649 43.7742 24.1755 43.7742L 24.1755 49.7742C 39.0896 49.7742 51.351 38.0533 51.351 23.3871L 45.351 23.3871ZM 24.1755 43.7742C 12.3861 43.7742 3 34.5536 3 23.3871L -3 23.3871C -3 38.0533 9.26141 49.7742 24.1755 49.7742L 24.1755 43.7742ZM 3 23.3871C 3 12.2206 12.3861 3 24.1755 3L 24.1755 -3C 9.26141 -3 -3 8.72093 -3 23.3871L 3 23.3871ZM 24.1755 3C 35.9649 3 45.351 12.2206 45.351 23.3871L 51.351 23.3871C 51.351 8.72093 39.0896 -3 24.1755 -3L 24.1755 3Z"/>
<path id="path17_fill" d="M 0 5.95501L 2.05088 5.95501L 0.582883 0L 3.19506 0L 4.42559 5.95501L 6.84347 5.95501L 8.16036 0L 10.9237 0L 12.2405 5.95501L 14.6368 5.95501L 15.8889 0L 18.5011 0L 17.0115 5.95501L 19.1056 5.95501L 19.1056 7.9539L 16.6877 7.9539L 14.9175 15.304L 12.0894 15.304L 10.4055 7.93308L 8.67848 7.93308L 6.99459 15.304L 4.18812 15.304L 2.3963 7.9539L 0 7.9539L 0 5.95501ZM 8.98071 5.99666L 10.0817 5.99666L 9.71471 4.01859L 9.542 2.70682L 9.39089 4.01859L 8.98071 5.99666ZM 14.2914 7.91225L 12.5644 7.91225L 13.2336 10.9522L 13.4711 12.4514L 13.7085 10.9522L 14.2914 7.91225ZM 6.47647 7.91225L 4.771 7.91225L 5.37547 10.9522L 5.61294 12.4514L 5.82883 10.9522L 6.47647 7.91225Z"/>
<path id="path18_fill" d="M 46.3076 23.1711C 46.3076 35.9681 35.9413 46.3421 23.1538 46.3421C 10.3663 46.3421 0 35.9681 0 23.1711C 0 10.374 10.3663 0 23.1538 0C 35.9413 0 46.3076 10.374 46.3076 23.1711Z"/>
<path id="path19_stroke_2x" d="M 43.3076 23.1711C 43.3076 34.3134 34.2823 43.3421 23.1538 43.3421L 23.1538 49.3421C 37.6002 49.3421 49.3076 37.6228 49.3076 23.1711L 43.3076 23.1711ZM 23.1538 43.3421C 12.0253 43.3421 3 34.3134 3 23.1711L -3 23.1711C -3 37.6228 8.70733 49.3421 23.1538 49.3421L 23.1538 43.3421ZM 3 23.1711C 3 12.0288 12.0253 3 23.1538 3L 23.1538 -3C 8.70733 -3 -3 8.7193 -3 23.1711L 3 23.1711ZM 23.1538 3C 34.2823 3 43.3076 12.0288 43.3076 23.1711L 49.3076 23.1711C 49.3076 8.7193 37.6002 -3 23.1538 -3L 23.1538 3Z"/>
<path id="path20_fill" d="M 4.07315 7.55036L 4.09382 7.55036L 4.09382 3.507C 3.68031 3.57576 3.30814 3.76143 2.97733 4.06399C 2.6603 4.3528 2.50178 4.75851 2.50178 5.28112C 2.50178 5.84499 2.64651 6.30572 2.93597 6.66329C 3.22544 7.02087 3.60449 7.31656 4.07315 7.55036ZM 0.289462 13.0378C 0.827035 13.6842 1.40596 14.1724 2.02624 14.5025C 2.64651 14.8325 3.26679 15.0182 3.88706 15.0595L 3.88706 9.67518L 3.5149 9.53078C 3.01868 9.32448 2.56381 9.09756 2.15029 8.85001C 1.73677 8.60245 1.37839 8.31364 1.07515 7.98357C 0.771899 7.6535 0.537573 7.2753 0.372166 6.84896C 0.206759 6.42262 0.124055 5.93439 0.124055 5.38427C 0.124055 4.80665 0.220543 4.29779 0.413517 3.8577C 0.620276 3.4176 0.889063 3.04627 1.21988 2.74371C 1.56447 2.42739 1.96421 2.18671 2.41908 2.02168C 2.87395 1.84289 3.35638 1.71912 3.86639 1.65035L 3.86639 0L 6.22344 0L 6.22344 1.67098C 6.76101 1.73974 7.27102 1.84977 7.75345 2.00105C 8.23589 2.15233 8.71143 2.3655 9.18009 2.64056L 9.18009 4.93042C 9.18009 5.01294 9.14563 5.07483 9.07671 5.11609C 9.00779 5.14359 8.94576 5.12984 8.89062 5.07483C 8.44954 4.64849 7.97399 4.30467 7.46399 4.04336C 6.96777 3.7683 6.54047 3.60327 6.18209 3.54825L 6.18209 8.31364C 7.39507 8.86376 8.33927 9.47576 9.01468 10.1497C 9.69009 10.8098 10.0278 11.6281 10.0278 12.6046C 10.0278 13.2509 9.93131 13.8217 9.73834 14.3168C 9.55914 14.7981 9.30414 15.2107 8.97333 15.5546C 8.64252 15.8984 8.24278 16.1803 7.77413 16.4004C 7.30548 16.6067 6.78858 16.7717 6.22344 16.8955L 6.22344 19.2885L 3.86639 19.2885L 3.86639 17.0605C 3.20476 17.033 2.52935 16.9299 1.84015 16.7511C 1.15096 16.5723 0.537573 16.2422 0 15.7609L 0 13.1822C 0 13.0997 0.0344598 13.0378 0.103379 12.9965C 0.172299 12.9553 0.234327 12.969 0.289462 13.0378ZM 5.996 10.521L 5.996 14.9563C 6.39574 14.86 6.74033 14.64 7.0298 14.2962C 7.33304 13.9386 7.48467 13.4297 7.48467 12.7696C 7.48467 12.2882 7.34683 11.8619 7.07115 11.4906C 6.79547 11.1192 6.44398 10.796 6.01668 10.521L 5.996 10.521Z"/>
<path id="path21_fill" d="M 54.7978 27.4194C 54.7978 42.5627 42.5309 54.8387 27.3989 54.8387C 12.2669 54.8387 0 42.5627 0 27.4194C 0 12.2761 12.2669 0 27.3989 0C 42.5309 0 54.7978 12.2761 54.7978 27.4194Z"/>
<path id="path22_stroke_2x" d="M 51.7978 27.4194C 51.7978 40.9079 40.8719 51.8387 27.3989 51.8387L 27.3989 57.8387C 44.1898 57.8387 57.7978 44.2174 57.7978 27.4194L 51.7978 27.4194ZM 27.3989 51.8387C 13.9259 51.8387 3 40.9079 3 27.4194L -3 27.4194C -3 44.2174 10.6079 57.8387 27.3989 57.8387L 27.3989 51.8387ZM 3 27.4194C 3 13.9308 13.9259 3 27.3989 3L 27.3989 -3C 10.6079 -3 -3 10.6213 -3 27.4194L 3 27.4194ZM 27.3989 3C 40.8719 3 51.7978 13.9308 51.7978 27.4194L 57.7978 27.4194C 57.7978 10.6213 44.1898 -3 27.3989 -3L 27.3989 3Z"/>
<path id="path23_fill" d="M 15.1938 13.9635C 15.2591 13.8821 15.3243 13.8658 15.3895 13.9147C 15.4711 13.9635 15.5119 14.0367 15.5119 14.1344L 15.5119 17.2346C 14.7289 17.967 13.8563 18.4959 12.8939 18.8214C 11.9479 19.1469 10.9203 19.3096 9.81114 19.3096C 7.83749 19.3096 6.19823 18.7563 4.89334 17.6496C 3.58845 16.543 2.69949 15.005 2.22647 13.0358L 0 13.0358L 0 10.9853L 1.9084 10.9853C 1.89209 10.7737 1.87578 10.5621 1.85947 10.3505C 1.85947 10.1227 1.85947 9.89486 1.85947 9.66702C 1.85947 9.43918 1.85947 9.21947 1.85947 9.00791C 1.87578 8.78006 1.89209 8.55222 1.9084 8.32438L 0.269133 8.32438L 0.269133 6.2738L 2.2754 6.2738C 2.53638 5.28106 2.91154 4.3941 3.40087 3.61293C 3.90651 2.83175 4.49371 2.17264 5.16247 1.63558C 5.84754 1.09853 6.606 0.691664 7.43787 0.414998C 8.26974 0.138333 9.15869 0 10.1047 0C 11.2302 0 12.2089 0.130196 13.0407 0.390587C 13.8889 0.634703 14.6719 1.09853 15.3895 1.78205L 15.3895 4.85792C 15.3895 4.95557 15.3488 5.0288 15.2672 5.07763C 15.1857 5.12645 15.1204 5.11018 15.0715 5.0288C 14.3375 4.14998 13.579 3.52342 12.7961 3.14911C 12.0295 2.75852 11.1813 2.56323 10.2515 2.56323C 9.12607 2.56323 8.13109 2.88058 7.2666 3.51528C 6.40211 4.13371 5.75783 5.05322 5.33374 6.2738L 10.276 6.2738L 10.276 8.32438L 4.89334 8.32438C 4.87703 8.51967 4.86071 8.7231 4.8444 8.93467C 4.8444 9.12996 4.8444 9.34153 4.8444 9.56937C 4.8444 9.81349 4.8444 10.0576 4.8444 10.3017C 4.86071 10.5296 4.87703 10.7574 4.89334 10.9853L 10.0558 10.9853L 10.0558 13.0358L 5.2848 13.0358C 6.0188 15.477 7.64176 16.6976 10.1537 16.6976C 11.1323 16.6976 12.0376 16.4616 12.8695 15.9896C 13.7013 15.5014 14.4761 14.826 15.1938 13.9635Z"/>
<path id="path24_fill" d="M 59.6329 30.6452C 59.6329 47.57 46.2836 61.2903 29.8164 61.2903C 13.3493 61.2903 0 47.57 0 30.6452C 0 13.7203 13.3493 0 29.8164 0C 46.2836 0 59.6329 13.7203 59.6329 30.6452Z"/>
<path id="path25_stroke_2x" d="M 56.6329 30.6452C 56.6329 45.9912 44.5498 58.2903 29.8164 58.2903L 29.8164 64.2903C 48.0175 64.2903 62.6329 49.1488 62.6329 30.6452L 56.6329 30.6452ZM 29.8164 58.2903C 15.0831 58.2903 3 45.9912 3 30.6452L -3 30.6452C -3 49.1488 11.6154 64.2903 29.8164 64.2903L 29.8164 58.2903ZM 3 30.6452C 3 15.2991 15.0831 3 29.8164 3L 29.8164 -3C 11.6154 -3 -3 12.1415 -3 30.6452L 3 30.6452ZM 29.8164 3C 44.5498 3 56.6329 15.2991 56.6329 30.6452L 62.6329 30.6452C 62.6329 12.1415 48.0175 -3 29.8164 -3L 29.8164 3Z"/>
<path id="path26_fill" d="M 6.541 19.7579L 6.541 14.7809L 1.19593 14.7809L 1.19593 12.43L 6.541 12.43L 6.541 10.6793L 6.34575 10.3791L 1.19593 10.3791L 1.19593 8.0032L 4.90575 8.0032L 0 0L 3.46575 0L 8.07862 7.72809L 12.7159 0L 16.1817 0L 11.2759 8.0032L 14.9857 8.0032L 14.9857 10.3791L 9.83591 10.3791L 9.64065 10.6793L 9.64065 12.43L 14.9857 12.43L 14.9857 14.7809L 9.64065 14.7809L 9.64065 19.7579L 6.541 19.7579Z"/>
<path id="path27_fill" d="M 21.7579 17.4833C 33.7745 17.4833 43.5159 14.0468 43.5159 9.80772L 43.5159 0L 0 0L 0 9.80772C 0 14.0468 9.74136 17.4833 21.7579 17.4833Z"/>
<path id="path28_stroke_2x" d="M 43.5159 0L 46.5159 0L 46.5159 -3L 43.5159 -3L 43.5159 0ZM 0 0L 0 -3L -3 -3L -3 0L 0 0ZM 40.5159 9.80772C 40.5159 9.62663 40.6275 9.87188 39.8845 10.4916C 39.1585 11.0971 37.9286 11.7769 36.1451 12.4061C 32.6052 13.6548 27.5188 14.4833 21.7579 14.4833L 21.7579 20.4833C 28.0137 20.4833 33.8062 19.5936 38.1412 18.0643C 40.2951 17.3045 42.2515 16.3304 43.7276 15.0993C 45.1866 13.8824 46.5159 12.1084 46.5159 9.80772L 40.5159 9.80772ZM 21.7579 14.4833C 15.9971 14.4833 10.9107 13.6548 7.37079 12.4061C 5.58731 11.7769 4.35735 11.0971 3.63137 10.4916C 2.88839 9.87188 3 9.62663 3 9.80772L -3 9.80772C -3 12.1084 -1.67072 13.8824 -0.211677 15.0993C 1.26437 16.3304 3.22078 17.3045 5.37472 18.0643C 9.70968 19.5936 15.5022 20.4833 21.7579 20.4833L 21.7579 14.4833ZM 46.5159 9.80772L 46.5159 0L 40.5159 0L 40.5159 9.80772L 46.5159 9.80772ZM 3 9.80772L 3 0L -3 0L -3 9.80772L 3 9.80772ZM 43.5159 -3L 0 -3L 0 3L 43.5159 3L 43.5159 -3Z"/>
<path id="path29_fill" d="M 43.5159 7.24918C 43.5159 11.2528 33.7745 14.4984 21.7579 14.4984C 9.74136 14.4984 0 11.2528 0 7.24918C 0 3.24557 9.74136 0 21.7579 0C 33.7745 0 43.5159 3.24557 43.5159 7.24918Z"/>
<path id="path30_stroke_2x" d="M 40.5159 7.24918C 40.5159 6.93627 40.7089 7.11615 39.9497 7.71423C 39.2244 8.28553 37.989 8.9312 36.1949 9.52894C 32.6381 10.714 27.5336 11.4984 21.7579 11.4984L 21.7579 17.4984C 27.9988 17.4984 33.7734 16.66 38.0914 15.2213C 40.2347 14.5072 42.1857 13.5908 43.6624 12.4276C 45.1052 11.2911 46.5159 9.5639 46.5159 7.24918L 40.5159 7.24918ZM 21.7579 11.4984C 15.9823 11.4984 10.8778 10.714 7.32103 9.52894C 5.52694 8.9312 4.29149 8.28553 3.56622 7.71423C 2.80697 7.11615 3 6.93627 3 7.24918L -3 7.24918C -3 9.5639 -1.5893 11.2911 -0.146527 12.4276C 1.33022 13.5908 3.28116 14.5072 5.42448 15.2213C 9.74252 16.66 15.5171 17.4984 21.7579 17.4984L 21.7579 11.4984ZM 3 7.24918C 3 7.5621 2.80697 7.38221 3.56622 6.78414C 4.29149 6.21283 5.52694 5.56717 7.32103 4.96942C 10.8778 3.78439 15.9823 3 21.7579 3L 21.7579 -3C 15.5171 -3 9.74252 -2.16161 5.42448 -0.722949C 3.28116 -0.0088497 1.33022 0.907553 -0.146527 2.07081C -1.5893 3.20729 -3 4.93446 -3 7.24918L 3 7.24918ZM 21.7579 3C 27.5336 3 32.6381 3.78439 36.1949 4.96942C 37.989 5.56717 39.2244 6.21283 39.9497 6.78414C 40.7089 7.38221 40.5159 7.5621 40.5159 7.24918L 46.5159 7.24918C 46.5159 4.93446 45.1052 3.20729 43.6624 2.07081C 42.1857 0.907553 40.2347 -0.0088497 38.0914 -0.722949C 33.7734 -2.16161 27.9988 -3 21.7579 -3L 21.7579 3Z"/>
</defs>
</svg>
