<svg width="484" height="484" viewBox="0 0 484 484" version="1.1" xmlns="http://www.w3.org/2000/svg" xmlns:xlink="http://www.w3.org/1999/xlink">
<title>Group 8.1</title>
<desc>Created using Figma</desc>
<g id="Canvas" transform="matrix(4 0 0 4 -43272 1420)">
<g id="Group 8.1" filter="url(#filter0_d)">
<g id="Ellipse">
<use xlink:href="#path0_fill" transform="matrix(0.965926 -0.258819 0.258819 0.965926 10807 -338.53)" fill="#249CCD"/>
<mask id="mask0_outline_ins">
<use xlink:href="#path0_fill" fill="white" transform="matrix(0.965926 -0.258819 0.258819 0.965926 10807 -338.53)"/>
</mask>
<g mask="url(#mask0_outline_ins)">
<use xlink:href="#path1_stroke_2x" transform="matrix(0.965926 -0.258819 0.258819 0.965926 10807 -338.53)" fill="#FFFFFF"/>
</g>
</g>
<g id="Vector 2">
<use xlink:href="#path2_stroke" transform="matrix(0.965926 -0.258819 0.258819 0.965926 10860.4 -351.558)" fill="#FFFFFF"/>
</g>
<g id="Vector 2.1">
<use xlink:href="#path2_stroke" transform="matrix(0.258819 0.965926 -0.965926 0.258819 10926 -313.698)" fill="#FFFFFF"/>
</g>
<g id="Ellipse 2.1">
<use xlink:href="#path3_stroke" transform="matrix(0.965926 -0.258819 0.258819 0.965926 10887.1 -339.081)" fill="#FFFFFF"/>
</g>
<g id="Ellipse 2.2">
<use xlink:href="#path3_stroke" transform="matrix(-0.965926 0.258819 -0.258819 -0.965926 10862.8 -260.521)" fill="#FFFFFF"/>
</g>
</g>
</g>
<defs>
<filter id="filter0_d" filterUnits="userSpaceOnUse" x="10818" y="-355" width="121" height="121" color-interpolation-filters="sRGB">
<feFlood flood-opacity="0" result="BackgroundImageFix"/>
<feColorMatrix in="SourceAlpha" type="matrix" values="0 0 0 0 0 0 0 0 0 0 0 0 0 0 0 0 0 0 255 0"/>
<feOffset dx="4" dy="5"/>
<feGaussianBlur stdDeviation="2.5"/>
<feColorMatrix type="matrix" values="0 0 0 0 0 0 0 0 0 0 0 0 0 0 0 0 0 0 0.25 0"/>
<feBlend mode="normal" in2="BackgroundImageFix" result="effect1_dropShadow"/>
<feBlend mode="normal" in="SourceGraphic" in2="effect1_dropShadow" result="shape"/>
</filter>
<path id="path0_fill" d="M 110 55C 110 85.3757 85.3757 110 55 110C 24.6243 110 0 85.3757 0 55C 0 24.6243 24.6243 0 55 0C 85.3757 0 110 24.6243 110 55Z"/>
<path id="path1_stroke_2x" d="M 106 55C 106 83.1665 83.1665 106 55 106L 55 114C 87.5848 114 114 87.5848 114 55L 106 55ZM 55 106C 26.8335 106 4 83.1665 4 55L -4 55C -4 87.5848 22.4152 114 55 114L 55 106ZM 4 55C 4 26.8335 26.8335 4 55 4L 55 -4C 22.4152 -4 -4 22.4152 -4 55L 4 55ZM 55 4C 83.1665 4 106 26.8335 106 55L 114 55C 114 22.4152 87.5848 -4 55 -4L 55 4Z"/>
<path id="path2_stroke" d="M -2 0L -2 107.083L 2 107.083L 2 0L -2 0Z"/>
<path id="path3_stroke" d="M 2 34.8041C 2 20.9583 9.09227 8.76805 19.8514 1.66939L 17.6486 -1.66939C 5.81513 6.13806 -2 19.5579 -2 34.8041L 2 34.8041ZM 19.8514 67.9388C 9.09227 60.8401 2 48.6498 2 34.8041L -2 34.8041C -2 50.0502 5.81513 63.4701 17.6486 71.2775L 19.8514 67.9388Z"/>
</defs>
</svg>
