<svg width="908" height="412" viewBox="0 0 908 412" version="1.1" xmlns="http://www.w3.org/2000/svg" xmlns:xlink="http://www.w3.org/1999/xlink">
<title>img_food</title>
<desc>Created using Figma</desc>
<g id="Canvas" transform="matrix(4 0 0 4 -41812 1440)">
<g id="img_food" filter="url(#filter0_d)">
<g id="Group 8">
<g id="Ellipse">
<use xlink:href="#path0_fill" transform="matrix(1 0 0 1 10536 -341)" fill="#219FCC"/>
<mask id="mask0_outline_ins">
<use xlink:href="#path0_fill" fill="white" transform="matrix(1 0 0 1 10536 -341)"/>
</mask>
<g mask="url(#mask0_outline_ins)">
<use xlink:href="#path1_stroke_2x" transform="matrix(1 0 0 1 10536 -341)" fill="#FFFFFF"/>
</g>
</g>
<g id="Vector 2">
<use xlink:href="#path2_stroke" transform="translate(10610 -328)" fill="#FFFFFF"/>
</g>
<g id="Rectangle 6">
<use xlink:href="#path3_fill" transform="translate(10528 -282)" fill="#219FCC"/>
<mask id="mask1_outline_ins">
<use xlink:href="#path3_fill" fill="white" transform="translate(10528 -282)"/>
</mask>
<g mask="url(#mask1_outline_ins)">
<use xlink:href="#path4_stroke_2x" transform="translate(10528 -282)" fill="#FFFFFF"/>
</g>
</g>
<g id="Rectangle 6">
<use xlink:href="#path5_fill" transform="translate(10592 -354)" fill="#219FCC"/>
<mask id="mask2_outline_ins">
<use xlink:href="#path5_fill" fill="white" transform="translate(10592 -354)"/>
</mask>
<g mask="url(#mask2_outline_ins)">
<use xlink:href="#path6_stroke_2x" transform="translate(10592 -354)" fill="#FFFFFF"/>
</g>
</g>
</g>
<g id="Group 2">
<g id="Ellipse 6">
<use xlink:href="#path7_fill" transform="matrix(1 0 0 1 10514.2 -356.179)" fill="#239DCD"/>
<mask id="mask3_outline_ins">
<use xlink:href="#path7_fill" fill="white" transform="matrix(1 0 0 1 10514.2 -356.179)"/>
</mask>
<g mask="url(#mask3_outline_ins)">
<use xlink:href="#path8_stroke_2x" transform="matrix(1 0 0 1 10514.2 -356.179)" fill="#FFFFFF"/>
</g>
</g>
<g id="Rectangle 6">
<use xlink:href="#path9_fill" transform="matrix(-0.704664 -0.709541 0.704664 -0.709541 10499.6 -311.83)" fill="#239DCD"/>
<mask id="mask4_outline_ins">
<use xlink:href="#path9_fill" fill="white" transform="matrix(-0.704664 -0.709541 0.704664 -0.709541 10499.6 -311.83)"/>
</mask>
<g mask="url(#mask4_outline_ins)">
<use xlink:href="#path10_stroke_2x" transform="matrix(-0.704664 -0.709541 0.704664 -0.709541 10499.6 -311.83)" fill="#FFFFFF"/>
</g>
</g>
<g id="Vector 2">
<use xlink:href="#path11_stroke" transform="matrix(1 0 0 1 10482.4 -314.589)" fill="#FFFFFF"/>
</g>
<g id="Vector 3">
<use xlink:href="#path12_stroke" transform="matrix(1 0 0 1 10454 -357.912)" fill="#FFFFFF"/>
</g>
</g>
</g>
</g>
<defs>
<filter id="filter0_d" filterUnits="userSpaceOnUse" x="10453" y="-360" width="227" height="104" color-interpolation-filters="sRGB">
<feFlood flood-opacity="0" result="BackgroundImageFix"/>
<feColorMatrix in="SourceAlpha" type="matrix" values="0 0 0 0 0 0 0 0 0 0 0 0 0 0 0 0 0 0 255 0"/>
<feOffset dx="4" dy="5"/>
<feGaussianBlur stdDeviation="2.5"/>
<feColorMatrix type="matrix" values="0 0 0 0 0 0 0 0 0 0 0 0 0 0 0 0 0 0 0.25 0"/>
<feBlend mode="normal" in2="BackgroundImageFix" result="effect1_dropShadow"/>
<feBlend mode="normal" in="SourceGraphic" in2="effect1_dropShadow" result="shape"/>
</filter>
<path id="path0_fill" d="M 64 0C 28.6538 0 0 28.6538 0 64L 128 64C 128 28.6538 99.3462 0 64 0Z"/>
<path id="path1_stroke_2x" d="M 0 64L -4 64L -4 68L 0 68L 0 64ZM 128 64L 128 68L 132 68L 132 64L 128 64ZM 4 64C 4 30.8629 30.8629 4 64 4L 64 -4C 26.4446 -4 -4 26.4446 -4 64L 4 64ZM 64 4C 97.1371 4 124 30.8629 124 64L 132 64C 132 26.4446 101.555 -4 64 -4L 64 4ZM 0 68L 128 68L 128 60L 0 60L 0 68Z"/>
<path id="path2_stroke" d="M 0.18349 -1.99157C -0.916421 -2.0929 -1.89023 -1.2834 -1.99157 -0.18349C -2.0929 0.916421 -1.2834 1.89023 -0.18349 1.99157L 0.18349 -1.99157ZM 24.5704 14.3987C 25.3429 15.1882 26.6092 15.202 27.3987 14.4296C 28.1882 13.6571 28.202 12.3908 27.4296 11.6013L 24.5704 14.3987ZM -0.18349 1.99157C 4.33066 2.40747 15.8557 5.49163 24.5704 14.3987L 27.4296 11.6013C 17.8987 1.86009 5.40034 -1.51092 0.18349 -1.99157L -0.18349 1.99157Z"/>
<path id="path3_fill" d="M 0 0L 143 0L 143 15L 0 15L 0 0Z"/>
<path id="path4_stroke_2x" d="M 0 0L 0 -5L -5 -5L -5 0L 0 0ZM 143 0L 148 0L 148 -5L 143 -5L 143 0ZM 143 15L 143 20L 148 20L 148 15L 143 15ZM 0 15L -5 15L -5 20L 0 20L 0 15ZM 0 5L 143 5L 143 -5L 0 -5L 0 5ZM 138 0L 138 15L 148 15L 148 0L 138 0ZM 143 10L 0 10L 0 20L 143 20L 143 10ZM 5 15L 5 0L -5 0L -5 15L 5 15Z"/>
<path id="path5_fill" d="M 0 0L 18 0L 18 16L 0 16L 0 0Z"/>
<path id="path6_stroke_2x" d="M 0 0L 0 -4L -4 -4L -4 0L 0 0ZM 18 0L 22 0L 22 -4L 18 -4L 18 0ZM 18 16L 18 20L 22 20L 22 16L 18 16ZM 0 16L -4 16L -4 20L 0 20L 0 16ZM 0 4L 18 4L 18 -4L 0 -4L 0 4ZM 14 0L 14 16L 22 16L 22 0L 14 0ZM 18 12L 0 12L 0 20L 18 20L 18 12ZM 4 16L 4 0L -4 0L -4 16L 4 16Z"/>
<path id="path7_fill" d="M 25.8155 12.9969C 25.8155 20.1749 20.0365 25.9938 12.9077 25.9938C 5.77899 25.9938 0 20.1749 0 12.9969C 0 5.81892 5.77899 0 12.9077 0C 20.0365 0 25.8155 5.81892 25.8155 12.9969Z"/>
<path id="path8_stroke_2x" d="M 21.8155 12.9969C 21.8155 17.9918 17.8014 21.9938 12.9077 21.9938L 12.9077 29.9938C 22.2715 29.9938 29.8155 22.358 29.8155 12.9969L 21.8155 12.9969ZM 12.9077 21.9938C 8.01405 21.9938 4 17.9918 4 12.9969L -4 12.9969C -4 22.358 3.54393 29.9938 12.9077 29.9938L 12.9077 21.9938ZM 4 12.9969C 4 8.00204 8.01405 4 12.9077 4L 12.9077 -4C 3.54393 -4 -4 3.63579 -4 12.9969L 4 12.9969ZM 12.9077 4C 17.8014 4 21.8155 8.00204 21.8155 12.9969L 29.8155 12.9969C 29.8155 3.63579 22.2715 -4 12.9077 -4L 12.9077 4Z"/>
<path id="path9_fill" d="M 46.6286 0L 0 0L 0 46.6286L 46.6286 0Z"/>
<path id="path10_stroke_2x" d="M 0 0L 0 -4L -4 -4L -4 0L 0 0ZM 46.6286 0L 49.4571 2.82843L 56.2855 -4L 46.6286 -4L 46.6286 0ZM 0 46.6286L -4 46.6286L -4 56.2855L 2.82843 49.4571L 0 46.6286ZM 0 4L 46.6286 4L 46.6286 -4L 0 -4L 0 4ZM 4 46.6286L 4 0L -4 0L -4 46.6286L 4 46.6286ZM 2.82843 49.4571L 49.4571 2.82843L 43.8002 -2.82843L -2.82843 43.8002L 2.82843 49.4571Z"/>
<path id="path11_stroke" d="M 17.2103 45.5891L 17.2103 47.5891L 19.2103 47.5891L 19.2103 45.5891L 17.2103 45.5891ZM 15.2103 0L 15.2103 45.5891L 19.2103 45.5891L 19.2103 0L 15.2103 0ZM 17.2103 43.5891L 0 43.5891L 0 47.5891L 17.2103 47.5891L 17.2103 43.5891ZM 0 47.5891L 33.5601 47.5891L 33.5601 43.5891L 0 43.5891L 0 47.5891Z"/>
<path id="path12_stroke" d="M 21.5129 0L 22.974 -1.36572L 22.3811 -2L 21.5129 -2L 21.5129 0ZM 36.7422 13.3641L 22.974 -1.36572L 20.0518 1.36572L 33.82 16.0956L 36.7422 13.3641ZM 21.5129 -2L 0 -2L 0 2L 21.5129 2L 21.5129 -2Z"/>
</defs>
</svg>
