<svg width="1424" height="1268" viewBox="0 0 1424 1268" version="1.1" xmlns="http://www.w3.org/2000/svg" xmlns:xlink="http://www.w3.org/1999/xlink">
<title>img_4</title>
<desc>Created using Figma</desc>
<g id="Canvas" transform="matrix(4 0 0 4 -42072 -1824)">
<g id="img_4">
<g id="Ellipse 4.14">
<use xlink:href="#path0_fill" transform="translate(10573.8 505.547)" fill="#00B1AD" fill-opacity="0.1"/>
</g>
<g id="Ellipse 4.12">
<use xlink:href="#path1_fill" transform="translate(10588.6 520.406)" fill="#00B1AD" fill-opacity="0.3"/>
</g>
<g id="Ellipse 4.13">
<use xlink:href="#path2_fill" transform="translate(10600.5 532.292)" fill="#FFFFFF"/>
<mask id="mask0_outline_ins">
<use xlink:href="#path2_fill" fill="white" transform="translate(10600.5 532.292)"/>
</mask>
<g mask="url(#mask0_outline_ins)">
<use xlink:href="#path3_stroke_2x" transform="translate(10600.5 532.292)" fill="#00B1AD"/>
</g>
</g>
<g id="Group 2">
<g id="Rectangle 5">
<use xlink:href="#path4_fill" transform="translate(10710 499.604)" fill="#FFFFFF"/>
<mask id="mask1_outline_ins">
<use xlink:href="#path4_fill" fill="white" transform="translate(10710 499.604)"/>
</mask>
<g mask="url(#mask1_outline_ins)">
<use xlink:href="#path5_stroke_2x" transform="translate(10710 499.604)" fill="#00B1AD"/>
</g>
</g>
<g id="Rectangle 5.1">
<use xlink:href="#path6_fill" transform="translate(10717.2 512.605)" fill="#FFFFFF"/>
<mask id="mask2_outline_ins">
<use xlink:href="#path6_fill" fill="white" transform="translate(10717.2 512.605)"/>
</mask>
<g mask="url(#mask2_outline_ins)">
<use xlink:href="#path7_stroke_2x" transform="translate(10717.2 512.605)" fill="#00B1AD"/>
</g>
</g>
<g id="Rectangle 6">
<use xlink:href="#path8_fill" transform="translate(10727.8 524.863)" fill="#00B1AD"/>
</g>
<g id="Rectangle 6.1">
<use xlink:href="#path8_fill" transform="translate(10727.8 530.807)" fill="#00B1AD"/>
</g>
<g id="Rectangle 6.2">
<use xlink:href="#path9_fill" transform="translate(10727.8 536.75)" fill="#00B1AD"/>
</g>
<g id="Rectangle 6.3">
<use xlink:href="#path10_fill" transform="translate(10745.6 536.75)" fill="#00B1AD"/>
</g>
<g id="Rectangle 6.4">
<use xlink:href="#path11_fill" transform="translate(10727.8 542.694)" fill="#00B1AD"/>
</g>
<g id="Ellipse 2">
<mask id="mask3_outline_ins">
<use xlink:href="#path12_fill" fill="white" transform="translate(10750.5 637.974)"/>
</mask>
<g mask="url(#mask3_outline_ins)">
<use xlink:href="#path13_stroke_2x" transform="translate(10750.5 637.974)" fill="#00B1AD"/>
</g>
</g>
</g>
<g id="Vector">
<use xlink:href="#path14_fill" transform="translate(10622.4 560.524)" fill="#FFFFFF"/>
<use xlink:href="#path15_stroke" transform="translate(10622.4 560.524)" fill="#00B1AD"/>
</g>
<g id="Group 4">
<g id="Rectangle 4.1">
<use xlink:href="#path16_fill" transform="translate(10620.6 502.164)" fill="#FFFFFF"/>
<mask id="mask4_outline_ins">
<use xlink:href="#path16_fill" fill="white" transform="translate(10620.6 502.164)"/>
</mask>
<g mask="url(#mask4_outline_ins)">
<use xlink:href="#path17_stroke_2x" transform="translate(10620.6 502.164)" fill="#00B1AD"/>
</g>
</g>
<g id="Rectangle 6">
<use xlink:href="#path18_fill" transform="translate(10644.7 599.156)" fill="#FFFFFF"/>
<mask id="mask5_outline_ins">
<use xlink:href="#path18_fill" fill="white" transform="translate(10644.7 599.156)"/>
</mask>
<g mask="url(#mask5_outline_ins)">
<use xlink:href="#path19_stroke_2x" transform="translate(10644.7 599.156)" fill="#00B1AD"/>
</g>
</g>
<g id="Rectangle 5.1">
<use xlink:href="#path20_fill" transform="translate(10639.4 592.511)" fill="#FFFFFF"/>
<mask id="mask6_outline_ins">
<use xlink:href="#path20_fill" fill="white" transform="translate(10639.4 592.511)"/>
</mask>
<g mask="url(#mask6_outline_ins)">
<use xlink:href="#path21_stroke_2x" transform="translate(10639.4 592.511)" fill="#00B1AD"/>
</g>
</g>
<g id="Vector 4.4">
<use xlink:href="#path22_stroke" transform="matrix(6.15834e-17 -1 1 6.08834e-17 10622.1 564)" fill="#00B1AD"/>
</g>
<clipPath id="clip-0" clip-rule="evenodd">
<path d="M 10653.6 600.642L 10653.6 618.922L 10653.6 600.642Z" fill="#FFFFFF"/>
</clipPath>
<g id="Group 3.1" clip-path="url(#clip-0)">
</g>
</g>
<g id="Vector">
<use xlink:href="#path23_fill" transform="translate(10779.7 575.382)" fill="#FFFFFF"/>
<use xlink:href="#path24_stroke" transform="translate(10779.7 575.382)" fill="#00B1AD"/>
</g>
<g id="Group 2.2">
<g id="Group 2">
<g id="Ellipse 6">
<use xlink:href="#path25_fill" transform="translate(10722.7 615.033)" fill="#FFFFFF"/>
<mask id="mask7_outline_ins">
<use xlink:href="#path25_fill" fill="white" transform="translate(10722.7 615.033)"/>
</mask>
<g mask="url(#mask7_outline_ins)">
<use xlink:href="#path26_stroke_2x" transform="translate(10722.7 615.033)" fill="#00B1AD"/>
</g>
</g>
<g id="Rectangle 6">
<use xlink:href="#path27_fill" transform="matrix(-0.704664 -0.709541 0.704664 -0.709541 10708.1 659.382)" fill="#FFFFFF"/>
<mask id="mask8_outline_ins">
<use xlink:href="#path27_fill" fill="white" transform="matrix(-0.704664 -0.709541 0.704664 -0.709541 10708.1 659.382)"/>
</mask>
<g mask="url(#mask8_outline_ins)">
<use xlink:href="#path28_stroke_2x" transform="matrix(-0.704664 -0.709541 0.704664 -0.709541 10708.1 659.382)" fill="#00B1AD"/>
</g>
</g>
<g id="Vector 2">
<use xlink:href="#path29_stroke" transform="translate(10690.9 656.623)" fill="#00B1AD"/>
</g>
<g id="Vector 3">
<use xlink:href="#path30_stroke" transform="translate(10662.5 613.3)" fill="#00B1AD"/>
</g>
</g>
<g id="Ellipse 7">
<use xlink:href="#path31_fill" transform="translate(10572 618.471)" fill="#FFFFFF"/>
</g>
<g id="Ellipse 6">
<use xlink:href="#path32_stroke" transform="translate(10573.3 619.82)" fill="#00B1AD"/>
</g>
<g id="Ellipse 6.1">
<use xlink:href="#path33_fill" transform="matrix(1 0 0 -1 10612.3 669.659)" fill="#FFFFFF"/>
<mask id="mask9_outline_ins">
<use xlink:href="#path33_fill" fill="white" transform="matrix(1 0 0 -1 10612.3 669.659)"/>
</mask>
<g mask="url(#mask9_outline_ins)">
<use xlink:href="#path34_stroke_2x" transform="matrix(1 0 0 -1 10612.3 669.659)" fill="#00B1AD"/>
</g>
</g>
<g id="Ellipse 6.7">
<use xlink:href="#path35_fill" transform="matrix(1 0 0 -1 10594.6 641.18)" fill="#00B1AD"/>
</g>
<g id="Ellipse 6.8">
<use xlink:href="#path35_fill" transform="matrix(1 0 0 -1 10584 680.339)" fill="#00B1AD"/>
</g>
<g id="Ellipse 6.9">
<use xlink:href="#path35_fill" transform="matrix(1 0 0 -1 10615.9 703.479)" fill="#00B1AD"/>
</g>
<g id="Ellipse 6.10">
<use xlink:href="#path35_fill" transform="matrix(1 0 0 -1 10649.5 680.339)" fill="#00B1AD"/>
</g>
<g id="Ellipse 6.11">
<use xlink:href="#path35_fill" transform="matrix(1 0 0 -1 10635.3 641.18)" fill="#00B1AD"/>
</g>
<g id="Ellipse 6.2">
<use xlink:href="#path36_fill" transform="matrix(1 0 0 -1 10607 651.86)" fill="#FFFFFF"/>
<mask id="mask10_outline_ins">
<use xlink:href="#path36_fill" fill="white" transform="matrix(1 0 0 -1 10607 651.86)"/>
</mask>
<g mask="url(#mask10_outline_ins)">
<use xlink:href="#path37_stroke_2x" transform="matrix(1 0 0 -1 10607 651.86)" fill="#00B1AD"/>
</g>
</g>
<g id="Ellipse 6.4">
<use xlink:href="#path36_fill" transform="matrix(1 0 0 -1 10582.2 669.659)" fill="#FFFFFF"/>
<mask id="mask11_outline_ins">
<use xlink:href="#path36_fill" fill="white" transform="matrix(1 0 0 -1 10582.2 669.659)"/>
</mask>
<g mask="url(#mask11_outline_ins)">
<use xlink:href="#path37_stroke_2x" transform="matrix(1 0 0 -1 10582.2 669.659)" fill="#00B1AD"/>
</g>
</g>
<g id="Ellipse 6.6">
<use xlink:href="#path36_fill" transform="matrix(1 0 0 -1 10592.8 698.139)" fill="#FFFFFF"/>
<mask id="mask12_outline_ins">
<use xlink:href="#path36_fill" fill="white" transform="matrix(1 0 0 -1 10592.8 698.139)"/>
</mask>
<g mask="url(#mask12_outline_ins)">
<use xlink:href="#path37_stroke_2x" transform="matrix(1 0 0 -1 10592.8 698.139)" fill="#00B1AD"/>
</g>
</g>
<g id="Ellipse 6.5">
<use xlink:href="#path36_fill" transform="matrix(1 0 0 -1 10630 669.659)" fill="#FFFFFF"/>
<mask id="mask13_outline_ins">
<use xlink:href="#path36_fill" fill="white" transform="matrix(1 0 0 -1 10630 669.659)"/>
</mask>
<g mask="url(#mask13_outline_ins)">
<use xlink:href="#path37_stroke_2x" transform="matrix(1 0 0 -1 10630 669.659)" fill="#00B1AD"/>
</g>
</g>
<g id="Ellipse 6.3">
<use xlink:href="#path36_fill" transform="matrix(1 0 0 -1 10619.4 698.139)" fill="#FFFFFF"/>
<mask id="mask14_outline_ins">
<use xlink:href="#path36_fill" fill="white" transform="matrix(1 0 0 -1 10619.4 698.139)"/>
</mask>
<g mask="url(#mask14_outline_ins)">
<use xlink:href="#path37_stroke_2x" transform="matrix(1 0 0 -1 10619.4 698.139)" fill="#00B1AD"/>
</g>
</g>
</g>
<g id="Group 2.1">
<g id="Vector 4">
<use xlink:href="#path38_fill" transform="matrix(0.865704 -0.500557 0.499444 0.866346 10631.3 680.167)" fill="#FFFFFF"/>
<use xlink:href="#path39_stroke" transform="matrix(0.865704 -0.500557 0.499444 0.866346 10631.3 680.167)" fill="#00B1AD"/>
</g>
<g id="Vector 5">
<use xlink:href="#path40_stroke" transform="matrix(0.865704 -0.500556 0.499444 0.866346 10660 729.904)" fill="#00B1AD"/>
</g>
</g>
<g id="Group 4">
<g id="Rectangle 3.6">
<use xlink:href="#path41_fill" transform="matrix(-1 -1.231e-16 1.21832e-16 -1 10707.8 575.633)" fill="#FFFFFF"/>
<mask id="mask15_outline_ins">
<use xlink:href="#path41_fill" fill="white" transform="matrix(-1 -1.231e-16 1.21832e-16 -1 10707.8 575.633)"/>
</mask>
<g mask="url(#mask15_outline_ins)">
<use xlink:href="#path42_stroke_2x" transform="matrix(-1 -1.231e-16 1.21832e-16 -1 10707.8 575.633)" fill="#00B1AD"/>
</g>
</g>
<g id="Ellipse 2.1">
<use xlink:href="#path43_fill" transform="matrix(-1 -1.23099e-16 1.21834e-16 -1 10723.9 564.487)" fill="#FFFFFF"/>
<mask id="mask16_outline_ins">
<use xlink:href="#path43_fill" fill="white" transform="matrix(-1 -1.23099e-16 1.21834e-16 -1 10723.9 564.487)"/>
</mask>
<g mask="url(#mask16_outline_ins)">
<use xlink:href="#path44_stroke_2x" transform="matrix(-1 -1.23099e-16 1.21834e-16 -1 10723.9 564.487)" fill="#00B1AD"/>
</g>
</g>
<g id="Rectangle 3.7">
<use xlink:href="#path45_fill" transform="matrix(1 2.46508e-16 -2.43361e-16 1 10591.5 516.064)" fill="#FFFFFF"/>
<mask id="mask17_outline_ins">
<use xlink:href="#path45_fill" fill="white" transform="matrix(1 2.46508e-16 -2.43361e-16 1 10591.5 516.064)"/>
</mask>
<g mask="url(#mask17_outline_ins)">
<use xlink:href="#path46_stroke_2x" transform="matrix(1 2.46508e-16 -2.43361e-16 1 10591.5 516.064)" fill="#00B1AD"/>
</g>
</g>
<g id="Ellipse 2.2">
<use xlink:href="#path47_fill" transform="matrix(1 2.46528e-16 -2.43342e-16 1 10576 526.844)" fill="#FFFFFF"/>
<mask id="mask18_outline_ins">
<use xlink:href="#path47_fill" fill="white" transform="matrix(1 2.46528e-16 -2.43342e-16 1 10576 526.844)"/>
</mask>
<g mask="url(#mask18_outline_ins)">
<use xlink:href="#path48_stroke_2x" transform="matrix(1 2.46528e-16 -2.43342e-16 1 10576 526.844)" fill="#00B1AD"/>
</g>
</g>
<g id="Vector 5">
<use xlink:href="#path49_stroke" transform="translate(10600.7 465.429)" fill="#00B1AD"/>
</g>
</g>
<g id="Group 5">
<g id="Vector 2">
<use xlink:href="#path50_stroke" transform="translate(10698.3 458)" fill="#00B1AD"/>
</g>
<g id="Ellipse 5">
<use xlink:href="#path51_fill" transform="matrix(1 0 0 -1 10686.2 496.632)" fill="#FFFFFF"/>
<mask id="mask19_outline_ins">
<use xlink:href="#path51_fill" fill="white" transform="matrix(1 0 0 -1 10686.2 496.632)"/>
</mask>
<g mask="url(#mask19_outline_ins)">
<use xlink:href="#path52_stroke_2x" transform="matrix(1 0 0 -1 10686.2 496.632)" fill="#00B1AD"/>
</g>
</g>
<g id="Ellipse 5.1">
<use xlink:href="#path51_fill" transform="matrix(1 0 0 -1 10708.8 496.632)" fill="#FFFFFF"/>
<mask id="mask20_outline_ins">
<use xlink:href="#path51_fill" fill="white" transform="matrix(1 0 0 -1 10708.8 496.632)"/>
</mask>
<g mask="url(#mask20_outline_ins)">
<use xlink:href="#path52_stroke_2x" transform="matrix(1 0 0 -1 10708.8 496.632)" fill="#00B1AD"/>
</g>
</g>
<g id="Vector 3.1">
<use xlink:href="#path53_stroke" transform="translate(10698.3 463.754)" fill="#00B1AD"/>
</g>
</g>
<g id="Group 5.1">
<g id="Vector 2">
<use xlink:href="#path54_stroke" transform="translate(10581.1 572.411)" fill="#00B1AD"/>
</g>
<g id="Ellipse 5">
<use xlink:href="#path51_fill" transform="matrix(1 0 0 -1 10569 611.042)" fill="#FFFFFF"/>
<mask id="mask21_outline_ins">
<use xlink:href="#path51_fill" fill="white" transform="matrix(1 0 0 -1 10569 611.042)"/>
</mask>
<g mask="url(#mask21_outline_ins)">
<use xlink:href="#path52_stroke_2x" transform="matrix(1 0 0 -1 10569 611.042)" fill="#00B1AD"/>
</g>
</g>
</g>
<g id="Group 5.2">
<g id="Vector 2">
<use xlink:href="#path54_stroke" transform="translate(10530.1 629.702)" fill="#00B1AD"/>
</g>
<g id="Ellipse 5">
<use xlink:href="#path51_fill" transform="matrix(1 0 0 -1 10518 668.334)" fill="#FFFFFF"/>
<mask id="mask22_outline_ins">
<use xlink:href="#path51_fill" fill="white" transform="matrix(1 0 0 -1 10518 668.334)"/>
</mask>
<g mask="url(#mask22_outline_ins)">
<use xlink:href="#path52_stroke_2x" transform="matrix(1 0 0 -1 10518 668.334)" fill="#00B1AD"/>
</g>
</g>
</g>
<g id="Vector">
<use xlink:href="#path55_fill" transform="translate(10772.3 688.307)" fill="#FFFFFF"/>
<use xlink:href="#path56_stroke" transform="translate(10772.3 688.307)" fill="#00B1AD"/>
</g>
<g id="Ellipse 5">
<mask id="mask23_outline_ins">
<use xlink:href="#path57_fill" fill="white" transform="translate(10797.5 628.872)"/>
</mask>
<g mask="url(#mask23_outline_ins)">
<use xlink:href="#path58_stroke_2x" transform="translate(10797.5 628.872)" fill="#00B1AD"/>
</g>
</g>
<g id="Ellipse 5.1">
<mask id="mask24_outline_ins">
<use xlink:href="#path57_fill" fill="white" transform="translate(10784.1 636.302)"/>
</mask>
<g mask="url(#mask24_outline_ins)">
<use xlink:href="#path58_stroke_2x" transform="translate(10784.1 636.302)" fill="#00B1AD"/>
</g>
</g>
<g id="Ellipse 5.2">
<mask id="mask25_outline_ins">
<use xlink:href="#path57_fill" fill="white" transform="translate(10770.8 643.731)"/>
</mask>
<g mask="url(#mask25_outline_ins)">
<use xlink:href="#path58_stroke_2x" transform="translate(10770.8 643.731)" fill="#00B1AD"/>
</g>
</g>
</g>
</g>
<defs>
<path id="path0_fill" d="M 267.057 133.726C 267.057 207.581 207.274 267.453 133.528 267.453C 59.7826 267.453 0 207.581 0 133.726C 0 59.8713 59.7826 0 133.528 0C 207.274 0 267.057 59.8713 267.057 133.726Z"/>
<path id="path1_fill" d="M 237.384 118.868C 237.384 184.517 184.243 237.736 118.692 237.736C 53.1401 237.736 0 184.517 0 118.868C 0 53.2189 53.1401 0 118.692 0C 184.243 0 237.384 53.2189 237.384 118.868Z"/>
<path id="path2_fill" d="M 213.645 106.981C 213.645 166.065 165.819 213.962 106.823 213.962C 47.8261 213.962 0 166.065 0 106.981C 0 47.897 47.8261 0 106.823 0C 165.819 0 213.645 47.897 213.645 106.981Z"/>
<path id="path3_stroke_2x" d="M 210.645 106.981C 210.645 164.412 164.158 210.962 106.823 210.962L 106.823 216.962C 167.48 216.962 216.645 167.718 216.645 106.981L 210.645 106.981ZM 106.823 210.962C 49.4872 210.962 3 164.412 3 106.981L -3 106.981C -3 167.718 46.1651 216.962 106.823 216.962L 106.823 210.962ZM 3 106.981C 3 49.5497 49.4872 3 106.823 3L 106.823 -3C 46.1651 -3 -3 46.2444 -3 106.981L 3 106.981ZM 106.823 3C 164.158 3 210.645 49.5497 210.645 106.981L 216.645 106.981C 216.645 46.2444 167.48 -3 106.823 -3L 106.823 3Z"/>
<path id="path4_fill" d="M 0 8C 0 3.58172 3.58172 0 8 0L 83.9861 0C 88.4044 0 91.9861 3.58172 91.9861 8L 91.9861 148.014C 91.9861 152.432 88.4044 156.014 83.9861 156.014L 8 156.014C 3.58172 156.014 0 152.432 0 148.014L 0 8Z"/>
<path id="path5_stroke_2x" d="M 8 3L 83.9861 3L 83.9861 -3L 8 -3L 8 3ZM 88.9861 8L 88.9861 148.014L 94.9861 148.014L 94.9861 8L 88.9861 8ZM 83.9861 153.014L 8 153.014L 8 159.014L 83.9861 159.014L 83.9861 153.014ZM 3 148.014L 3 8L -3 8L -3 148.014L 3 148.014ZM 8 153.014C 5.23858 153.014 3 150.775 3 148.014L -3 148.014C -3 154.089 1.92487 159.014 8 159.014L 8 153.014ZM 88.9861 148.014C 88.9861 150.775 86.7476 153.014 83.9861 153.014L 83.9861 159.014C 90.0613 159.014 94.9861 154.089 94.9861 148.014L 88.9861 148.014ZM 83.9861 3C 86.7476 3 88.9861 5.23858 88.9861 8L 94.9861 8C 94.9861 1.92487 90.0613 -3 83.9861 -3L 83.9861 3ZM 8 -3C 1.92487 -3 -3 1.92487 -3 8L 3 8C 3 5.23858 5.23858 3 8 3L 8 -3Z"/>
<path id="path6_fill" d="M 0 8C 0 3.58172 3.58172 0 8 0L 69.5569 0C 73.9752 0 77.5569 3.58172 77.5569 8L 77.5569 112.725C 77.5569 117.143 73.9752 120.725 69.5569 120.725L 8 120.725C 3.58172 120.725 0 117.143 0 112.725L 0 8Z"/>
<path id="path7_stroke_2x" d="M 8 3L 69.5569 3L 69.5569 -3L 8 -3L 8 3ZM 74.5569 8L 74.5569 112.725L 80.5569 112.725L 80.5569 8L 74.5569 8ZM 69.5569 117.725L 8 117.725L 8 123.725L 69.5569 123.725L 69.5569 117.725ZM 3 112.725L 3 8L -3 8L -3 112.725L 3 112.725ZM 8 117.725C 5.23858 117.725 3 115.487 3 112.725L -3 112.725C -3 118.8 1.92487 123.725 8 123.725L 8 117.725ZM 74.5569 112.725C 74.5569 115.487 72.3184 117.725 69.5569 117.725L 69.5569 123.725C 75.6321 123.725 80.5569 118.8 80.5569 112.725L 74.5569 112.725ZM 69.5569 3C 72.3184 3 74.5569 5.23858 74.5569 8L 80.5569 8C 80.5569 1.92487 75.6321 -3 69.5569 -3L 69.5569 3ZM 8 -3C 1.92487 -3 -3 1.92487 -3 8L 3 8C 3 5.23858 5.23858 3 8 3L 8 -3Z"/>
<path id="path8_fill" d="M 0 0L 57.8622 0L 57.8622 2.9717L 0 2.9717L 0 0Z"/>
<path id="path9_fill" d="M 0 0L 14.8365 0L 14.8365 2.9717L 0 2.9717L 0 0Z"/>
<path id="path10_fill" d="M 0 0L 40.0585 0L 40.0585 2.9717L 0 2.9717L 0 0Z"/>
<path id="path11_fill" d="M 0 0L 35.6075 0L 35.6075 2.9717L 0 2.9717L 0 0Z"/>
<path id="path12_fill" d="M 9.92007 5.1076C 9.92007 7.92845 7.69939 10.2152 4.96004 10.2152C 2.22068 10.2152 0 7.92845 0 5.1076C 0 2.28675 2.22068 0 4.96004 0C 7.69939 0 9.92007 2.28675 9.92007 5.1076Z"/>
<path id="path13_stroke_2x" d="M 6.92007 5.1076C 6.92007 6.35511 5.96024 7.2152 4.96004 7.2152L 4.96004 13.2152C 9.43854 13.2152 12.9201 9.50179 12.9201 5.1076L 6.92007 5.1076ZM 4.96004 7.2152C 3.95984 7.2152 3 6.35511 3 5.1076L -3 5.1076C -3 9.50179 0.481532 13.2152 4.96004 13.2152L 4.96004 7.2152ZM 3 5.1076C 3 3.86009 3.95984 3 4.96004 3L 4.96004 -3C 0.481532 -3 -3 0.71341 -3 5.1076L 3 5.1076ZM 4.96004 3C 5.96024 3 6.92007 3.86009 6.92007 5.1076L 12.9201 5.1076C 12.9201 0.71341 9.43854 -3 4.96004 -3L 4.96004 3Z"/>
<path id="path14_fill" d="M 35.6075 118.868C 9.47971 118.868 0 97.4851 0 71.2197C 0 44.9543 21.2707 23.5715 47.3986 23.5715C 53.2606 23.5715 58.9551 24.7501 64.1472 26.6021C 68.1668 11.2807 82.0682 0 98.4818 0C 118.078 0 133.821 15.995 133.821 35.5256C 133.821 40.5767 132.816 45.291 130.974 49.6686C 134.659 48.3216 138.511 47.6481 142.698 47.6481C 162.294 47.6481 178.038 63.6431 178.038 83.1738C 178.038 102.873 162.126 118.699 142.698 118.699L 64.5387 132.983L 45.2512 121.839L 35.6075 118.868Z"/>
<path id="path15_stroke" d="M 35.6075 118.868L 36.0493 117.434L 35.8334 117.368L 35.6075 117.368L 35.6075 118.868ZM 64.1472 26.6021L 63.6432 28.0149L 65.1831 28.5643L 65.5981 26.9828L 64.1472 26.6021ZM 130.974 49.6686L 129.592 49.0867L 128.256 52.2591L 131.489 51.0774L 130.974 49.6686ZM 142.698 118.699L 142.698 117.199L 142.562 117.199L 142.428 117.224L 142.698 118.699ZM 45.2512 121.839L 46.0017 120.541L 45.8549 120.456L 45.693 120.406L 45.2512 121.839ZM 64.5387 132.983L 63.7882 134.282L 64.2658 134.558L 64.8083 134.459L 64.5387 132.983ZM 35.6075 117.368C 23.0288 117.368 14.6091 112.26 9.26169 104.073C 3.85156 95.7898 1.5 84.2126 1.5 71.2197L -1.5 71.2197C -1.5 84.4921 0.8883 96.739 6.74998 105.714C 12.6744 114.784 22.0585 120.368 35.6075 120.368L 35.6075 117.368ZM 1.5 71.2197C 1.5 45.7752 22.1066 25.0715 47.3986 25.0715L 47.3986 22.0715C 20.4349 22.0715 -1.5 44.1333 -1.5 71.2197L 1.5 71.2197ZM 47.3986 25.0715C 53.0614 25.0715 58.5849 26.2106 63.6432 28.0149L 64.6511 25.1893C 59.3253 23.2896 53.4597 22.0715 47.3986 22.0715L 47.3986 25.0715ZM 65.5981 26.9828C 69.4503 12.2996 82.7717 1.5 98.4818 1.5L 98.4818 -1.5C 81.3646 -1.5 66.8834 10.2617 62.6963 26.2215L 65.5981 26.9828ZM 98.4818 1.5C 117.237 1.5 132.321 16.8113 132.321 35.5256L 135.321 35.5256C 135.321 15.1786 118.918 -1.5 98.4818 -1.5L 98.4818 1.5ZM 132.321 35.5256C 132.321 40.3721 131.358 44.8889 129.592 49.0867L 132.357 50.2504C 134.275 45.6931 135.321 40.7813 135.321 35.5256L 132.321 35.5256ZM 131.489 51.0774C 135.001 49.7935 138.678 49.1481 142.698 49.1481L 142.698 46.1481C 138.343 46.1481 134.316 46.8497 130.459 48.2597L 131.489 51.0774ZM 142.698 49.1481C 161.454 49.1481 176.538 64.4594 176.538 83.1738L 179.538 83.1738C 179.538 62.8268 163.134 46.1481 142.698 46.1481L 142.698 49.1481ZM 176.538 83.1738C 176.538 102.047 161.295 117.199 142.698 117.199L 142.698 120.199C 162.958 120.199 179.538 103.698 179.538 83.1738L 176.538 83.1738ZM 45.693 120.406L 36.0493 117.434L 35.1658 120.301L 44.8095 123.273L 45.693 120.406ZM 142.428 117.224L 64.269 131.508L 64.8083 134.459L 142.968 120.175L 142.428 117.224ZM 65.2891 131.685L 46.0017 120.541L 44.5008 123.138L 63.7882 134.282L 65.2891 131.685Z"/>
<path id="path16_fill" d="M 0 22C 0 9.84974 9.84974 0 22 0L 36.49 0C 48.6403 0 58.49 9.84974 58.49 22L 58.49 70.7466C 58.49 82.8968 48.6403 92.7466 36.49 92.7466L 22 92.7466C 9.84974 92.7466 0 82.8968 0 70.7466L 0 22Z"/>
<path id="path17_stroke_2x" d="M 22 3L 36.49 3L 36.49 -3L 22 -3L 22 3ZM 55.49 22L 55.49 70.7466L 61.49 70.7466L 61.49 22L 55.49 22ZM 36.49 89.7466L 22 89.7466L 22 95.7466L 36.49 95.7466L 36.49 89.7466ZM 3 70.7466L 3 22L -3 22L -3 70.7466L 3 70.7466ZM 22 89.7466C 11.5066 89.7466 3 81.24 3 70.7466L -3 70.7466C -3 84.5537 8.19288 95.7466 22 95.7466L 22 89.7466ZM 55.49 70.7466C 55.49 81.24 46.9835 89.7466 36.49 89.7466L 36.49 95.7466C 50.2972 95.7466 61.49 84.5537 61.49 70.7466L 55.49 70.7466ZM 36.49 3C 46.9835 3 55.49 11.5066 55.49 22L 61.49 22C 61.49 8.19288 50.2972 -3 36.49 -3L 36.49 3ZM 22 -3C 8.19288 -3 -3 8.19288 -3 22L 3 22C 3 11.5066 11.5066 3 22 3L 22 -3Z"/>
<path id="path18_fill" d="M 0 0L 10.3855 0L 10.3855 53.4905L 0 53.4905L 0 0Z"/>
<path id="path19_stroke_2x" d="M 0 0L 0 -3L -3 -3L -3 0L 0 0ZM 10.3855 0L 13.3855 0L 13.3855 -3L 10.3855 -3L 10.3855 0ZM 10.3855 53.4905L 10.3855 56.4905L 13.3855 56.4905L 13.3855 53.4905L 10.3855 53.4905ZM 0 53.4905L -3 53.4905L -3 56.4905L 0 56.4905L 0 53.4905ZM 0 3L 10.3855 3L 10.3855 -3L 0 -3L 0 3ZM 7.38553 0L 7.38553 53.4905L 13.3855 53.4905L 13.3855 0L 7.38553 0ZM 10.3855 50.4905L 0 50.4905L 0 56.4905L 10.3855 56.4905L 10.3855 50.4905ZM 3 53.4905L 3 0L -3 0L -3 53.4905L 3 53.4905Z"/>
<path id="path20_fill" d="M 0 2C 0 0.895431 0.895431 0 2 0L 18.8185 0C 19.9231 0 20.8185 0.895431 20.8185 2L 20.8185 7.92827C 20.8185 9.03284 19.9231 9.92827 18.8185 9.92827L 2 9.92827C 0.895431 9.92827 0 9.03284 0 7.92827L 0 2Z"/>
<path id="path21_stroke_2x" d="M 2 3L 18.8185 3L 18.8185 -3L 2 -3L 2 3ZM 17.8185 2L 17.8185 7.92827L 23.8185 7.92827L 23.8185 2L 17.8185 2ZM 18.8185 6.92827L 2 6.92827L 2 12.9283L 18.8185 12.9283L 18.8185 6.92827ZM 3 7.92827L 3 2L -3 2L -3 7.92827L 3 7.92827ZM 2 6.92827C 2.55228 6.92827 3 7.37598 3 7.92827L -3 7.92827C -3 10.6897 -0.761422 12.9283 2 12.9283L 2 6.92827ZM 17.8185 7.92827C 17.8185 7.37598 18.2662 6.92827 18.8185 6.92827L 18.8185 12.9283C 21.5799 12.9283 23.8185 10.6897 23.8185 7.92827L 17.8185 7.92827ZM 18.8185 3C 18.2662 3 17.8185 2.55229 17.8185 2L 23.8185 2C 23.8185 -0.761425 21.5799 -3 18.8185 -3L 18.8185 3ZM 2 -3C -0.761424 -3 -3 -0.761424 -3 2L 3 2C 3 2.55228 2.55228 3 2 3L 2 -3Z"/>
<path id="path22_stroke" d="M 1.50003 2.78966e-06C 1.50003 -0.828424 0.828457 -1.5 2.94925e-05 -1.5C -0.828398 -1.5 -1.49997 -0.82843 -1.49997 -2.78966e-06L 1.50003 2.78966e-06ZM -1.5 14.3582C -1.5 15.1866 -0.82843 15.8582 -2.78966e-06 15.8582C 0.828424 15.8582 1.5 15.1866 1.5 14.3582L -1.5 14.3582ZM 12 2.78966e-06C 12 -0.828424 11.3285 -1.5 10.5 -1.5C 9.6716 -1.5 9.00003 -0.82843 9.00003 -2.78966e-06L 12 2.78966e-06ZM 9 14.3582C 9 15.1866 9.67157 15.8582 10.5 15.8582C 11.3284 15.8582 12 15.1866 12 14.3582L 9 14.3582ZM 21.5 2.5904e-06C 21.5 -0.828425 20.8285 -1.5 20 -1.5C 19.1716 -1.5 18.5 -0.82843 18.5 -2.5904e-06L 21.5 2.5904e-06ZM 18.5 14.3582C 18.5 15.1866 19.1716 15.8582 20 15.8582C 20.8284 15.8582 21.5 15.1866 21.5 14.3582L 18.5 14.3582ZM 31.2333 3.18818e-06C 31.2333 -0.828424 30.5617 -1.5 29.7333 -1.5C 28.9048 -1.5 28.2333 -0.82843 28.2333 -3.18818e-06L 31.2333 3.18818e-06ZM 28.2332 14.3582C 28.2332 15.1866 28.9048 15.8582 29.7332 15.8582C 30.5617 15.8582 31.2332 15.1866 31.2332 14.3582L 28.2332 14.3582ZM 1.50003 40.5C 1.50003 39.6716 0.828457 39 2.94925e-05 39C -0.828398 39 -1.49997 39.6716 -1.49997 40.5L 1.50003 40.5ZM -1.5 54.8582C -1.5 55.6866 -0.82843 56.3582 -2.78966e-06 56.3582C 0.828424 56.3582 1.5 55.6866 1.5 54.8582L -1.5 54.8582ZM 12 40.5C 12 39.6716 11.3285 39 10.5 39C 9.6716 39 9.00003 39.6716 9.00003 40.5L 12 40.5ZM 9 54.8582C 9 55.6866 9.67157 56.3582 10.5 56.3582C 11.3284 56.3582 12 55.6866 12 54.8582L 9 54.8582ZM 21.5 40.5C 21.5 39.6716 20.8284 39 20 39C 19.1716 39 18.5 39.6716 18.5 40.5L 21.5 40.5ZM 18.5 54.8582C 18.5 55.6866 19.1715 56.3582 20 56.3582C 20.8284 56.3582 21.5 55.6866 21.5 54.8582L 18.5 54.8582ZM 31.2333 40.5C 31.2333 39.6716 30.5617 39 29.7333 39C 28.9049 39 28.2333 39.6716 28.2333 40.5L 31.2333 40.5ZM 28.2333 54.8582C 28.2333 55.6866 28.9048 56.3582 29.7333 56.3582C 30.5617 56.3582 31.2333 55.6866 31.2333 54.8582L 28.2333 54.8582ZM -1.49997 -2.78966e-06L -1.5 14.3582L 1.5 14.3582L 1.50003 2.78966e-06L -1.49997 -2.78966e-06ZM 9.00003 -2.78966e-06L 9 14.3582L 12 14.3582L 12 2.78966e-06L 9.00003 -2.78966e-06ZM 18.5 -2.5904e-06L 18.5 14.3582L 21.5 14.3582L 21.5 2.5904e-06L 18.5 -2.5904e-06ZM 28.2333 -3.18818e-06L 28.2332 14.3582L 31.2332 14.3582L 31.2333 3.18818e-06L 28.2333 -3.18818e-06ZM -1.49997 40.5L -1.5 54.8582L 1.5 54.8582L 1.50003 40.5L -1.49997 40.5ZM 9.00003 40.5L 9 54.8582L 12 54.8582L 12 40.5L 9.00003 40.5ZM 18.5 40.5L 18.5 54.8582L 21.5 54.8582L 21.5 40.5L 18.5 40.5ZM 28.2333 40.5L 28.2333 54.8582L 31.2333 54.8582L 31.2333 40.5L 28.2333 40.5Z"/>
<path id="path23_fill" d="M 11.4546 28.2311C 5.14043 28.2311 0 23.1527 0 16.9147C 0 10.6766 5.14043 5.59824 11.4546 5.59824C 12.8713 5.59824 14.2475 5.87815 15.5022 6.31801C 16.4736 2.67916 19.8331 0 23.7998 0C 28.5354 0 32.3402 3.7988 32.3402 8.43734C 32.3402 9.63696 32.0973 10.7566 31.6521 11.7963C 32.5425 11.4764 33.4735 11.3164 34.4854 11.3164C 39.221 11.3164 43.0258 15.1152 43.0258 19.7538C 43.0258 24.4323 39.1806 28.1911 34.4854 28.1911L 11.4546 28.1911L 11.4546 28.2311Z"/>
<path id="path24_stroke" d="M 11.4546 28.2311L 11.4546 29.7311L 12.9546 29.7311L 12.9546 28.2311L 11.4546 28.2311ZM 15.5022 6.31801L 15.006 7.73355L 16.5339 8.26916L 16.9515 6.7049L 15.5022 6.31801ZM 31.6521 11.7963L 30.2732 11.2058L 28.917 14.3727L 32.1592 13.208L 31.6521 11.7963ZM 11.4546 28.1911L 11.4546 26.6911L 9.95465 26.6911L 9.95465 28.1911L 11.4546 28.1911ZM 11.4546 26.7311C 5.95163 26.7311 1.5 22.3072 1.5 16.9147L -1.5 16.9147C -1.5 23.9982 4.32922 29.7311 11.4546 29.7311L 11.4546 26.7311ZM 1.5 16.9147C 1.5 11.5222 5.95163 7.09824 11.4546 7.09824L 11.4546 4.09824C 4.32922 4.09824 -1.5 9.83109 -1.5 16.9147L 1.5 16.9147ZM 11.4546 7.09824C 12.6757 7.09824 13.8835 7.34004 15.006 7.73355L 15.9985 4.90247C 14.6115 4.41626 13.0669 4.09824 11.4546 4.09824L 11.4546 7.09824ZM 16.9515 6.7049C 17.7492 3.71672 20.5185 1.5 23.7998 1.5L 23.7998 -1.5C 19.1478 -1.5 15.1981 1.64159 14.053 5.93112L 16.9515 6.7049ZM 23.7998 1.5C 27.7196 1.5 30.8402 4.63974 30.8402 8.43734L 33.8402 8.43734C 33.8402 2.95786 29.3513 -1.5 23.7998 -1.5L 23.7998 1.5ZM 30.8402 8.43734C 30.8402 9.42861 30.6406 10.3477 30.2732 11.2058L 33.0309 12.3868C 33.554 11.1655 33.8402 9.84532 33.8402 8.43734L 30.8402 8.43734ZM 32.1592 13.208C 32.8793 12.9493 33.638 12.8164 34.4854 12.8164L 34.4854 9.81643C 33.309 9.81643 32.2058 10.0035 31.1449 10.3846L 32.1592 13.208ZM 34.4854 12.8164C 38.4052 12.8164 41.5258 15.9562 41.5258 19.7538L 44.5258 19.7538C 44.5258 14.2743 40.0369 9.81643 34.4854 9.81643L 34.4854 12.8164ZM 41.5258 19.7538C 41.5258 23.5822 38.374 26.6911 34.4854 26.6911L 34.4854 29.6911C 39.9871 29.6911 44.5258 25.2824 44.5258 19.7538L 41.5258 19.7538ZM 34.4854 26.6911L 11.4546 26.6911L 11.4546 29.6911L 34.4854 29.6911L 34.4854 26.6911ZM 9.95465 28.1911L 9.95465 28.2311L 12.9546 28.2311L 12.9546 28.1911L 9.95465 28.1911Z"/>
<path id="path25_fill" d="M 25.8155 12.9969C 25.8155 20.1749 20.0365 25.9938 12.9077 25.9938C 5.77899 25.9938 0 20.1749 0 12.9969C 0 5.81892 5.77899 0 12.9077 0C 20.0365 0 25.8155 5.81892 25.8155 12.9969Z"/>
<path id="path26_stroke_2x" d="M 22.8155 12.9969C 22.8155 18.5376 18.3602 22.9938 12.9077 22.9938L 12.9077 28.9938C 21.7128 28.9938 28.8155 21.8123 28.8155 12.9969L 22.8155 12.9969ZM 12.9077 22.9938C 7.45528 22.9938 3 18.5376 3 12.9969L -3 12.9969C -3 21.8123 4.10269 28.9938 12.9077 28.9938L 12.9077 22.9938ZM 3 12.9969C 3 7.45626 7.45528 3 12.9077 3L 12.9077 -3C 4.10269 -3 -3 4.18157 -3 12.9969L 3 12.9969ZM 12.9077 3C 18.3602 3 22.8155 7.45626 22.8155 12.9969L 28.8155 12.9969C 28.8155 4.18157 21.7128 -3 12.9077 -3L 12.9077 3Z"/>
<path id="path27_fill" d="M 46.6286 0L 0 0L 0 46.6286L 46.6286 0Z"/>
<path id="path28_stroke_2x" d="M 0 0L 0 -3L -3 -3L -3 0L 0 0ZM 46.6286 0L 48.75 2.12132L 53.8713 -3L 46.6286 -3L 46.6286 0ZM 0 46.6286L -3 46.6286L -3 53.8713L 2.12132 48.75L 0 46.6286ZM 0 3L 46.6286 3L 46.6286 -3L 0 -3L 0 3ZM 3 46.6286L 3 0L -3 0L -3 46.6286L 3 46.6286ZM 2.12132 48.75L 48.75 2.12132L 44.5073 -2.12132L -2.12132 44.5073L 2.12132 48.75Z"/>
<path id="path29_stroke" d="M 17.2103 45.056L 17.2103 46.556L 18.7103 46.556L 18.7103 45.056L 17.2103 45.056ZM 15.7103 0L 15.7103 45.056L 18.7103 45.056L 18.7103 0L 15.7103 0ZM 17.2103 43.556L 0 43.556L 0 46.556L 17.2103 46.556L 17.2103 43.556ZM 0 46.556L 33.5601 46.556L 33.5601 43.556L 0 43.556L 0 46.556Z"/>
<path id="path30_stroke" d="M 21.5129 0L 22.6087 -1.02429L 22.1641 -1.5L 21.5129 -1.5L 21.5129 0ZM 36.377 13.7056L 22.6087 -1.02429L 20.4171 1.02429L 34.1853 15.7541L 36.377 13.7056ZM 21.5129 -1.5L 0 -1.5L 0 1.5L 21.5129 1.5L 21.5129 -1.5Z"/>
<path id="path31_fill" d="M 90.574 45.1736C 90.574 70.1223 70.2983 90.3472 45.287 90.3472C 20.2757 90.3472 0 70.1223 0 45.1736C 0 20.2249 20.2757 0 45.287 0C 70.2983 0 90.574 20.2249 90.574 45.1736Z"/>
<path id="path32_stroke" d="M 44.2847 88.9988L 44.2847 90.4988L 44.2883 90.4988L 44.2847 88.9988ZM 44.2847 87.4988C 20.6622 87.4988 1.5 68.2541 1.5 44.4994L -1.5 44.4994C -1.5 69.8973 18.9917 90.4988 44.2847 90.4988L 44.2847 87.4988ZM 1.5 44.4994C 1.5 20.7446 20.6622 1.5 44.2847 1.5L 44.2847 -1.5C 18.9917 -1.5 -1.5 19.1015 -1.5 44.4994L 1.5 44.4994ZM 44.2847 1.5C 67.9073 1.5 87.0695 20.7446 87.0695 44.4994L 90.0695 44.4994C 90.0695 19.1015 69.5778 -1.5 44.2847 -1.5L 44.2847 1.5ZM 87.0695 44.4994C 87.0695 53.8006 84.1327 62.4076 79.1409 69.4409L 81.5873 71.1772C 86.928 63.6524 90.0695 54.442 90.0695 44.4994L 87.0695 44.4994ZM 44.2883 90.4988L 237.519 90.0453L 237.512 87.0453L 44.2812 87.4988L 44.2883 90.4988Z"/>
<path id="path33_fill" d="M 10.6283 5.33993C 10.6283 8.28909 8.2491 10.6799 5.31417 10.6799C 2.37923 10.6799 0 8.28909 0 5.33993C 0 2.39077 2.37923 0 5.31417 0C 8.2491 0 10.6283 2.39077 10.6283 5.33993Z"/>
<path id="path34_stroke_2x" d="M 7.62834 5.33993C 7.62834 6.64593 6.57859 7.67985 5.31417 7.67985L 5.31417 13.6799C 9.91962 13.6799 13.6283 9.93225 13.6283 5.33993L 7.62834 5.33993ZM 5.31417 7.67985C 4.04975 7.67985 3 6.64593 3 5.33993L -3 5.33993C -3 9.93225 0.708721 13.6799 5.31417 13.6799L 5.31417 7.67985ZM 3 5.33993C 3 4.03393 4.04975 3 5.31417 3L 5.31417 -3C 0.708721 -3 -3 0.747605 -3 5.33993L 3 5.33993ZM 5.31417 3C 6.57859 3 7.62834 4.03393 7.62834 5.33993L 13.6283 5.33993C 13.6283 0.747605 9.91962 -3 5.31417 -3L 5.31417 3Z"/>
<path id="path35_fill" d="M 3.54278 1.77998C 3.54278 2.76303 2.7497 3.55995 1.77139 3.55995C 0.793078 3.55995 0 2.76303 0 1.77998C 0 0.796922 0.793078 0 1.77139 0C 2.7497 0 3.54278 0.796922 3.54278 1.77998Z"/>
<path id="path36_fill" d="M 23.0281 11.5698C 23.0281 17.9597 17.8731 23.1397 11.514 23.1397C 5.15501 23.1397 0 17.9597 0 11.5698C 0 5.17999 5.15501 0 11.514 0C 17.8731 0 23.0281 5.17999 23.0281 11.5698Z"/>
<path id="path37_stroke_2x" d="M 20.0281 11.5698C 20.0281 16.3165 16.2025 20.1397 11.514 20.1397L 11.514 26.1397C 19.5436 26.1397 26.0281 19.6028 26.0281 11.5698L 20.0281 11.5698ZM 11.514 20.1397C 6.82552 20.1397 3 16.3165 3 11.5698L -3 11.5698C -3 19.6028 3.48449 26.1397 11.514 26.1397L 11.514 20.1397ZM 3 11.5698C 3 6.82316 6.82552 3 11.514 3L 11.514 -3C 3.48449 -3 -3 3.53683 -3 11.5698L 3 11.5698ZM 11.514 3C 16.2025 3 20.0281 6.82316 20.0281 11.5698L 26.0281 11.5698C 26.0281 3.53683 19.5436 -3 11.514 -3L 11.514 3Z"/>
<path id="path38_fill" d="M 0 69.8537L 0 33.1171L 0 0L 12.1903 0L 43.6832 31.6442C 44.6216 32.587 45.897 33.1171 47.2272 33.1171L 191.252 33.1171C 195.243 33.1171 199.069 34.7074 201.884 37.536L 221.867 57.6147L 235.629 71.4429C 236.884 72.7042 235.991 74.8538 234.211 74.8538L 116.749 74.8538L 100.39 74.8537L 59.1188 99.5988L 26.1599 99.5988L 58.2012 74.8537L 5 74.8537C 2.23858 74.8537 0 72.6152 0 69.8537Z"/>
<path id="path39_stroke" d="M 0 0L 0 -1.5L -1.5 -1.5L -1.5 0L 0 0ZM 12.1903 0L 13.2535 -1.05812L 12.8137 -1.5L 12.1903 -1.5L 12.1903 0ZM 43.6832 31.6442L 44.7464 30.5861L 43.6832 31.6442ZM 80.7904 57.4085L 80.7904 55.9085L 80.2786 55.9085L 79.8736 56.2213L 80.7904 57.4085ZM 132.26 57.4085L 132.981 58.7243L 132.26 55.9085L 132.26 57.4085ZM 59.1188 99.5988L 59.1188 101.099L 59.534 101.099L 59.8901 100.885L 59.1188 99.5988ZM 26.1599 99.5988L 25.243 98.4116L 21.7635 101.099L 26.1599 101.099L 26.1599 99.5988ZM 235.629 71.4429L 236.692 70.3848L 236.692 70.3848L 235.629 71.4429ZM 221.867 57.6147L 220.804 58.6728L 220.804 58.6728L 221.867 57.6147ZM 201.884 37.536L 202.947 36.4779L 201.884 37.536ZM 100.39 74.8537L 99.6702 73.538L 99.6444 73.5521L 99.6191 73.5673L 100.39 74.8537ZM 116.749 74.8538L 116.749 76.3538L 116.749 74.8538ZM 191.252 33.1171L 191.252 34.6171L 191.252 33.1171ZM 47.2272 33.1171L 47.2272 31.6171L 47.2272 33.1171ZM -1.5 33.1171L -1.5 69.8537L 1.5 69.8537L 1.5 33.1171L -1.5 33.1171ZM 1.5 33.1171L 1.5 0L -1.5 0L -1.5 33.1171L 1.5 33.1171ZM 0 1.5L 12.1903 1.5L 12.1903 -1.5L 0 -1.5L 0 1.5ZM 11.1271 1.05812L 42.62 32.7023L 44.7464 30.5861L 13.2535 -1.05812L 11.1271 1.05812ZM 80.7904 58.9085L 132.26 58.9085L 132.26 55.9085L 80.7904 55.9085L 80.7904 58.9085ZM 59.1188 98.0988L 26.1599 98.0988L 26.1599 101.099L 59.1188 101.099L 59.1188 98.0988ZM 27.0767 100.786L 59.1181 76.0409L 57.2844 73.6666L 25.243 98.4116L 27.0767 100.786ZM 59.1181 76.0409L 81.7072 58.5957L 79.8736 56.2213L 57.2844 73.6666L 59.1181 76.0409ZM 236.692 70.3848L 222.93 56.5566L 220.804 58.6728L 234.566 72.5011L 236.692 70.3848ZM 222.93 56.5566L 202.947 36.4779L 200.821 38.5941L 220.804 58.6728L 222.93 56.5566ZM 5 76.3537L 58.2012 76.3537L 58.2012 73.3537L 5 73.3537L 5 76.3537ZM 131.54 56.0927L 99.6702 73.538L 101.111 76.1695L 132.981 58.7243L 131.54 56.0927ZM 99.6191 73.5673L 58.3475 98.3123L 59.8901 100.885L 101.162 76.1402L 99.6191 73.5673ZM 100.39 76.3537L 116.749 76.3538L 116.749 73.3538L 100.39 73.3537L 100.39 76.3537ZM 116.749 76.3538L 234.211 76.3538L 234.211 73.3538L 116.749 73.3538L 116.749 76.3538ZM 191.252 31.6171L 47.2272 31.6171L 47.2272 34.6171L 191.252 34.6171L 191.252 31.6171ZM 202.947 36.4779C 199.851 33.3664 195.642 31.6171 191.252 31.6171L 191.252 34.6171C 194.844 34.6171 198.287 36.0483 200.821 38.5941L 202.947 36.4779ZM 42.62 32.7023C 43.8399 33.928 45.4979 34.6171 47.2272 34.6171L 47.2272 31.6171C 46.2961 31.6171 45.4033 31.2461 44.7464 30.5861L 42.62 32.7023ZM 234.566 72.5011C 234.88 72.8164 234.656 73.3538 234.211 73.3538L 234.211 76.3538C 237.326 76.3538 238.889 72.5921 236.692 70.3848L 234.566 72.5011ZM -1.5 69.8537C -1.5 73.4436 1.41015 76.3537 5 76.3537L 5 73.3537C 3.067 73.3537 1.5 71.7867 1.5 69.8537L -1.5 69.8537Z"/>
<path id="path40_stroke" d="M 221.496 -1.5L 0 -1.5L 0 1.5L 221.496 1.5L 221.496 -1.5Z"/>
<path id="path41_fill" d="M 0 9.91357C 0 4.43845 4.43846 0 9.91357 0C 15.3887 0 19.8271 4.43845 19.8271 9.91357L 19.8271 50.6489C 19.8271 56.124 15.3887 60.5624 9.91357 60.5624C 4.43846 60.5624 0 56.124 0 50.6489L 0 9.91357Z"/>
<path id="path42_stroke_2x" d="M 16.8271 9.91357L 16.8271 50.6489L 22.8271 50.6489L 22.8271 9.91357L 16.8271 9.91357ZM 3 50.6489L 3 9.91357L -3 9.91357L -3 50.6489L 3 50.6489ZM 9.91357 57.5624C 6.09531 57.5624 3 54.4671 3 50.6489L -3 50.6489C -3 57.7808 2.7816 63.5624 9.91357 63.5624L 9.91357 57.5624ZM 16.8271 50.6489C 16.8271 54.4671 13.7318 57.5624 9.91357 57.5624L 9.91357 63.5624C 17.0455 63.5624 22.8271 57.7808 22.8271 50.6489L 16.8271 50.6489ZM 9.91357 3C 13.7318 3 16.8271 6.09531 16.8271 9.91357L 22.8271 9.91357C 22.8271 2.7816 17.0455 -3 9.91357 -3L 9.91357 3ZM 9.91357 -3C 2.7816 -3 -3 2.7816 -3 9.91357L 3 9.91357C 3 6.09531 6.09531 3 9.91357 3L 9.91357 -3Z"/>
<path id="path43_fill" d="M 0 19.0418C 0 29.5582 8.54927 38.0835 19.0953 38.0835L 19.0953 0C 8.54927 0 0 8.52528 0 19.0418Z"/>
<path id="path44_stroke_2x" d="M 19.0953 38.0835L 19.0953 41.0835L 22.0953 41.0835L 22.0953 38.0835L 19.0953 38.0835ZM 19.0953 0L 22.0953 0L 22.0953 -3L 19.0953 -3L 19.0953 0ZM 19.0953 35.0835C 10.1982 35.0835 3 27.8934 3 19.0418L -3 19.0418C -3 31.223 6.90037 41.0835 19.0953 41.0835L 19.0953 35.0835ZM 3 19.0418C 3 10.1901 10.1982 3 19.0953 3L 19.0953 -3C 6.90037 -3 -3 6.86049 -3 19.0418L 3 19.0418ZM 22.0953 38.0835L 22.0953 0L 16.0953 0L 16.0953 38.0835L 22.0953 38.0835Z"/>
<path id="path45_fill" d="M 0 9.55882C 0 4.27963 4.27963 0 9.55882 0C 14.838 0 19.1176 4.27963 19.1176 9.55882L 19.1176 49.018C 19.1176 54.2972 14.838 58.5768 9.55882 58.5768C 4.27963 58.5768 0 54.2972 0 49.018L 0 9.55882Z"/>
<path id="path46_stroke_2x" d="M 16.1176 9.55882L 16.1176 49.018L 22.1176 49.018L 22.1176 9.55882L 16.1176 9.55882ZM 3 49.018L 3 9.55882L -3 9.55882L -3 49.018L 3 49.018ZM 9.55882 55.5768C 5.93648 55.5768 3 52.6403 3 49.018L -3 49.018C -3 55.954 2.62277 61.5768 9.55882 61.5768L 9.55882 55.5768ZM 16.1176 49.018C 16.1176 52.6403 13.1811 55.5768 9.55882 55.5768L 9.55882 61.5768C 16.4949 61.5768 22.1176 55.954 22.1176 49.018L 16.1176 49.018ZM 9.55882 3C 13.1811 3 16.1176 5.93648 16.1176 9.55882L 22.1176 9.55882C 22.1176 2.62277 16.4949 -3 9.55882 -3L 9.55882 3ZM 9.55882 -3C 2.62277 -3 -3 2.62277 -3 9.55882L 3 9.55882C 3 5.93648 5.93648 3 9.55882 3L 9.55882 -3Z"/>
<path id="path47_fill" d="M 0 18.4174C 0 28.5891 8.24334 36.8349 18.412 36.8349L 18.412 0C 8.24334 0 0 8.24577 0 18.4174Z"/>
<path id="path48_stroke_2x" d="M 18.412 36.8349L 18.412 39.8349L 21.412 39.8349L 21.412 36.8349L 18.412 36.8349ZM 18.412 0L 21.412 0L 21.412 -3L 18.412 -3L 18.412 0ZM 18.412 33.8349C 9.90103 33.8349 3 26.9331 3 18.4174L -3 18.4174C -3 30.2451 6.58566 39.8349 18.412 39.8349L 18.412 33.8349ZM 3 18.4174C 3 9.90179 9.90103 3 18.412 3L 18.412 -3C 6.58566 -3 -3 6.58974 -3 18.4174L 3 18.4174ZM 21.412 36.8349L 21.412 0L 15.412 0L 15.412 36.8349L 21.412 36.8349Z"/>
<path id="path49_stroke" d="M 1.5 51.627L 1.5 49.0722L -1.5 49.0722L -1.5 51.627L 1.5 51.627ZM 96.6443 49.0722L 96.6443 51.627L 99.6443 51.627L 99.6443 49.0722L 96.6443 49.0722ZM 49.0722 1.5C 75.3455 1.5 96.6443 22.7988 96.6443 49.0722L 99.6443 49.0722C 99.6443 21.1419 77.0024 -1.5 49.0722 -1.5L 49.0722 1.5ZM 1.5 49.0722C 1.5 22.7988 22.7988 1.5 49.0722 1.5L 49.0722 -1.5C 21.1419 -1.5 -1.5 21.1419 -1.5 49.0722L 1.5 49.0722Z"/>
<path id="path50_stroke" d="M 1.5 27.9466L 1.5 2L -1.5 2L -1.5 27.9466L 1.5 27.9466ZM 2 1.5L 19.7709 1.5L 19.7709 -1.5L 2 -1.5L 2 1.5ZM 20.2709 2L 20.2709 27.9466L 23.2709 27.9466L 23.2709 2L 20.2709 2ZM 19.7709 1.5C 20.0471 1.5 20.2709 1.72386 20.2709 2L 23.2709 2C 23.2709 0.0670036 21.7039 -1.5 19.7709 -1.5L 19.7709 1.5ZM 1.5 2C 1.5 1.72386 1.72386 1.5 2 1.5L 2 -1.5C 0.0670039 -1.5 -1.5 0.0670023 -1.5 2L 1.5 2Z"/>
<path id="path51_fill" d="M 14.5139 7.39762C 14.5139 11.4832 11.2649 14.7952 7.25697 14.7952C 3.24906 14.7952 0 11.4832 0 7.39762C 0 3.31203 3.24906 0 7.25697 0C 11.2649 0 14.5139 3.31203 14.5139 7.39762Z"/>
<path id="path52_stroke_2x" d="M 11.5139 7.39762C 11.5139 9.88092 9.554 11.7952 7.25697 11.7952L 7.25697 17.7952C 12.9758 17.7952 17.5139 13.0855 17.5139 7.39762L 11.5139 7.39762ZM 7.25697 11.7952C 4.95994 11.7952 3 9.88092 3 7.39762L -3 7.39762C -3 13.0855 1.53817 17.7952 7.25697 17.7952L 7.25697 11.7952ZM 3 7.39762C 3 4.91433 4.95994 3 7.25697 3L 7.25697 -3C 1.53817 -3 -3 1.70973 -3 7.39762L 3 7.39762ZM 7.25697 3C 9.554 3 11.5139 4.91433 11.5139 7.39762L 17.5139 7.39762C 17.5139 1.70973 12.9758 -3 7.25697 -3L 7.25697 3Z"/>
<path id="path53_stroke" d="M 0 1.5L 21.7709 1.5L 21.7709 -1.5L 0 -1.5L 0 1.5Z"/>
<path id="path54_stroke" d="M 1.5 27.9466L 1.5 0L -1.5 0L -1.5 27.9466L 1.5 27.9466Z"/>
<path id="path55_fill" d="M 11.0597 26.7453C 4.96317 26.7453 0 21.9341 0 16.0244C 0 10.1147 4.96317 5.30359 11.0597 5.30359C 12.4275 5.30359 13.7562 5.56877 14.9677 5.98548C 15.9056 2.53815 19.1492 0 22.9791 0C 27.5515 0 31.225 3.59887 31.225 7.99327C 31.225 9.12976 30.9905 10.1905 30.5606 11.1754C 31.4204 10.8724 32.3192 10.7208 33.2962 10.7208C 37.8686 10.7208 41.5421 14.3197 41.5421 18.7141C 41.5421 23.1464 37.8295 26.7074 33.2962 26.7074L 11.0597 26.7074L 11.0597 26.7453Z"/>
<path id="path56_stroke" d="M 11.0597 26.7453L 11.0597 28.2453L 12.5597 28.2453L 12.5597 26.7453L 11.0597 26.7453ZM 14.9677 5.98548L 14.4798 7.40392L 15.9945 7.92494L 16.4151 6.37928L 14.9677 5.98548ZM 30.5606 11.1754L 29.1859 10.5754L 27.806 13.7369L 31.0593 12.5901L 30.5606 11.1754ZM 11.0597 26.7074L 11.0597 25.2074L 9.55966 25.2074L 9.55966 26.7074L 11.0597 26.7074ZM 11.0597 25.2453C 5.74726 25.2453 1.5 21.0621 1.5 16.0244L -1.5 16.0244C -1.5 22.8062 4.17908 28.2453 11.0597 28.2453L 11.0597 25.2453ZM 1.5 16.0244C 1.5 10.9868 5.74726 6.80359 11.0597 6.80359L 11.0597 3.80359C 4.17908 3.80359 -1.5 9.24263 -1.5 16.0244L 1.5 16.0244ZM 11.0597 6.80359C 12.2356 6.80359 13.3988 7.03211 14.4798 7.40392L 15.4556 4.56705C 14.1135 4.10544 12.6193 3.80359 11.0597 3.80359L 11.0597 6.80359ZM 16.4151 6.37928C 17.1724 3.59565 19.8149 1.5 22.9791 1.5L 22.9791 -1.5C 18.4836 -1.5 14.6388 1.48064 13.5203 5.59169L 16.4151 6.37928ZM 22.9791 1.5C 26.7627 1.5 29.725 4.46639 29.725 7.99327L 32.725 7.99327C 32.725 2.73134 28.3402 -1.5 22.9791 -1.5L 22.9791 1.5ZM 29.725 7.99327C 29.725 8.91718 29.5356 9.77406 29.1859 10.5754L 31.9354 11.7754C 32.4454 10.6069 32.725 9.34233 32.725 7.99327L 29.725 7.99327ZM 31.0593 12.5901C 31.7509 12.3463 32.4805 12.2208 33.2962 12.2208L 33.2962 9.22083C 32.158 9.22083 31.0898 9.39842 30.062 9.76074L 31.0593 12.5901ZM 33.2962 12.2208C 37.0798 12.2208 40.0421 15.1872 40.0421 18.7141L 43.0421 18.7141C 43.0421 13.4522 38.6574 9.22083 33.2962 9.22083L 33.2962 12.2208ZM 40.0421 18.7141C 40.0421 22.2698 37.0501 25.2074 33.2962 25.2074L 33.2962 28.2074C 38.6089 28.2074 43.0421 24.023 43.0421 18.7141L 40.0421 18.7141ZM 33.2962 25.2074L 11.0597 25.2074L 11.0597 28.2074L 33.2962 28.2074L 33.2962 25.2074ZM 9.55966 26.7074L 9.55966 26.7453L 12.5597 26.7453L 12.5597 26.7074L 9.55966 26.7074Z"/>
<path id="path57_fill" d="M 10.3855 5.20047C 10.3855 8.07261 8.06065 10.4009 5.19277 10.4009C 2.32488 10.4009 0 8.07261 0 5.20047C 0 2.32833 2.32488 0 5.19277 0C 8.06065 0 10.3855 2.32833 10.3855 5.20047Z"/>
<path id="path58_stroke_2x" d="M 7.38553 5.20047C 7.38553 6.41994 6.39961 7.40093 5.19277 7.40093L 5.19277 13.4009C 9.7217 13.4009 13.3855 9.72527 13.3855 5.20047L 7.38553 5.20047ZM 5.19277 7.40093C 3.98592 7.40093 3 6.41994 3 5.20047L -3 5.20047C -3 9.72527 0.663836 13.4009 5.19277 13.4009L 5.19277 7.40093ZM 3 5.20047C 3 3.98099 3.98592 3 5.19277 3L 5.19277 -3C 0.663836 -3 -3 0.675667 -3 5.20047L 3 5.20047ZM 5.19277 3C 6.39961 3 7.38553 3.98099 7.38553 5.20047L 13.3855 5.20047C 13.3855 0.675667 9.7217 -3 5.19277 -3L 5.19277 3Z"/>
</defs>
</svg>
