<svg width="1232" height="800" viewBox="0 0 1232 800" version="1.1" xmlns="http://www.w3.org/2000/svg" xmlns:xlink="http://www.w3.org/1999/xlink">
<title>multicahin_img_1</title>
<desc>Created using Figma</desc>
<g id="Canvas" transform="matrix(4 0 0 4 -85912 -6780)">
<g id="multicahin_img_1">
<g id="Rectangle 6">
<use xlink:href="#path0_fill" transform="translate(21478 1695)" fill="#FFFFFF"/>
</g>
<g id="Group 2">
<g id="Vector">
<use xlink:href="#path1_stroke" transform="translate(21520 1735)" fill="url(#paint1_linear)"/>
</g>
<g id="Ellipse">
<use xlink:href="#path2_fill" transform="translate(21648 1783)" fill="url(#paint2_linear)"/>
<mask id="mask0_outline_ins">
<use xlink:href="#path2_fill" fill="white" transform="translate(21648 1783)"/>
</mask>
<g mask="url(#mask0_outline_ins)">
<use xlink:href="#path3_stroke_2x" transform="translate(21648 1783)" fill="#0AB2AE"/>
</g>
</g>
<g id="1 Minute">
<use xlink:href="#path4_fill" transform="translate(21661 1800)" fill="#FFFFFF"/>
</g>
</g>
</g>
</g>
<defs>
<linearGradient id="paint1_linear" x1="0" y1="0" x2="1" y2="0" gradientUnits="userSpaceOnUse" gradientTransform="matrix(-199.399 1.96646e-15 43.4672 -194.604 201.266 181.217)">
<stop offset="0" stop-color="#C1C3C3" stop-opacity="0"/>
<stop offset="0.536612" stop-color="#C1C3C3"/>
<stop offset="1" stop-color="#0AB2AE"/>
</linearGradient>
<linearGradient id="paint2_linear" x1="0" y1="0" x2="1" y2="0" gradientUnits="userSpaceOnUse" gradientTransform="matrix(72 0 -7.99361e-15 72 1.19904e-14 0)">
<stop offset="0" stop-color="#00B1AD"/>
<stop offset="1" stop-color="#5E35E3"/>
</linearGradient>
<path id="path0_fill" d="M 0 0L 308 0L 308 200L 0 200L 0 0Z"/>
<path id="path1_stroke" d="M 120.689 26.2835L 120.688 27.2835L 120.689 26.2835ZM 120.718 30.0433L 120.719 29.0433L 120.718 30.0433ZM 120.714 22.5787L 120.713 23.5787L 120.714 22.5787ZM 107.448 3.77236L 107.449 2.77236L 107.448 3.77236ZM 107.419 0.0126016L 107.418 1.0126L 107.419 0.0126016ZM 107.395 7.50468L 107.395 8.50468L 107.395 7.50468ZM 178.58 48.8473L 178.58 47.8473L 178.58 48.8473ZM 178.609 52.6071L 178.61 51.6071L 178.609 52.6071ZM 178.605 45.0876L 178.605 46.0876L 178.605 45.0876ZM 165.339 26.3362L 165.34 25.3362L 165.339 26.3362ZM 165.31 22.5764L 165.31 21.5764L 165.31 22.5764ZM 165.287 30.0685L 165.286 31.0685L 165.287 30.0685ZM 176.979 80.5985L 176.979 79.5985L 176.979 80.5985ZM 176.981 84.3857L 176.98 85.3857L 176.981 84.3857ZM 176.976 76.8662L 176.977 75.8662L 176.976 76.8662ZM 163.711 58.1149L 163.709 59.1149L 163.71 59.1149L 163.711 58.1149ZM 163.709 54.3276L 163.708 55.3276L 163.709 54.3276ZM 163.685 61.8197L 163.686 60.8197L 163.685 61.8197ZM 141.399 58.0748L 141.401 57.0748L 141.4 57.0748L 141.399 58.0748ZM 119.06 58.0621L 119.061 57.0621L 119.06 58.0621ZM 119.062 61.7945L 119.062 62.7945L 119.062 61.7945ZM 119.085 54.3024L 119.086 53.3024L 119.085 54.3024ZM 105.792 35.5236L 105.792 36.5236L 105.792 35.5236ZM 105.79 31.7912L 105.789 32.7912L 105.79 31.7912ZM 105.767 39.2833L 105.767 38.2833L 105.767 39.2833ZM 117.404 89.8133L 117.403 90.8133L 117.404 89.8133ZM 117.434 93.5731L 117.433 94.5731L 117.434 93.5731ZM 117.429 86.0536L 117.43 85.0536L 117.429 86.0536ZM 104.163 67.3022L 104.164 66.3022L 104.163 67.3022ZM 104.161 63.515L 104.162 62.515L 104.161 63.515ZM 104.138 71.007L 104.139 70.007L 104.138 71.007ZM 61.169 35.4983L 61.1696 34.4983L 61.169 35.4983ZM 61.1437 39.258L 61.1431 40.258L 61.1437 39.258ZM 61.1669 31.7659L 61.1675 30.7659L 61.1669 31.7659ZM 47.901 12.9597L 47.9016 11.9597L 47.901 12.9597ZM 47.8989 9.22738L 47.8971 10.2274L 47.8984 10.2274L 47.8989 9.22738ZM 47.8757 16.7194L 47.8763 15.7194L 47.8757 16.7194ZM 59.5129 67.2495L 59.5134 66.2495L 59.5129 67.2495ZM 59.5424 71.0093L 59.543 70.0093L 59.5424 71.0093ZM 59.5382 63.4898L 59.5376 64.4898L 59.5382 63.4898ZM 46.2724 44.7384L 46.2718 45.7384L 46.2724 44.7384ZM 46.2428 40.9786L 46.2434 39.9786L 46.2428 40.9786ZM 46.247 48.4432L 46.2476 47.4432L 46.247 48.4432ZM 57.8568 99.0007L 57.8573 98.0007L 57.8573 98.0007L 57.8568 99.0007ZM 57.8589 102.788L 57.8595 101.788L 57.8589 102.788ZM 57.8821 95.2959L 57.8815 96.2959L 57.8821 95.2959ZM 44.6163 76.4895L 44.6168 75.4895L 44.6163 76.4895ZM 44.5867 72.7298L 44.5861 73.7298L 44.5867 72.7298ZM 44.591 80.2493L 44.5915 79.2493L 44.591 80.2493ZM 108.256 22.3949L 62.8642 22.3692L 62.863 24.3692L 108.255 24.3949L 108.256 22.3949ZM 106.25 18.634L 62.2857 18.6092L 62.2846 20.6092L 106.249 20.634L 106.25 18.634ZM 105.644 14.9014L 60.5272 14.8758L 60.5261 16.8758L 105.643 16.9014L 105.644 14.9014ZM 119.799 7.68837L 165.164 7.68657L 165.163 5.68657L 119.799 5.68837L 119.799 7.68837ZM 121.777 11.4218L 165.193 11.4463L 165.194 9.44634L 121.778 9.42179L 121.777 11.4218ZM 122.41 15.1819L 165.222 15.2061L 165.223 13.2061L 122.411 13.1819L 122.41 15.1819ZM 108.431 15.0259C 108.434 21.78 113.934 27.2797 120.688 27.2835L 120.689 25.2835C 115.039 25.2803 110.434 20.6751 110.431 15.0248L 108.431 15.0259ZM 104.698 15.0238C 104.703 23.8635 111.878 31.0383 120.718 31.0433L 120.719 29.0433C 112.983 29.0389 106.703 22.7587 106.698 15.0226L 104.698 15.0238ZM 120.718 31.0433L 143.057 31.0559L 143.058 29.0559L 120.719 29.0433L 120.718 31.0433ZM 112.19 15.0555C 112.193 19.7787 115.99 23.576 120.713 23.5787L 120.715 21.5787C 117.095 21.5766 114.192 18.6739 114.19 15.0543L 112.19 15.0555ZM 120.688 27.2835L 143.027 27.2961L 143.028 25.2961L 120.689 25.2835L 120.688 27.2835ZM 120.713 23.5787L 143.052 23.5913L 143.054 21.5913L 120.715 21.5787L 120.713 23.5787ZM 119.706 15.03C 119.703 8.27592 114.203 2.77618 107.449 2.77236L 107.448 4.77236C 113.098 4.77555 117.703 9.38073 117.706 15.0311L 119.706 15.03ZM 123.439 15.0321C 123.434 6.19234 116.259 -0.9824 107.419 -0.987398L 107.418 1.0126C 115.154 1.01698 121.434 7.29715 121.439 15.0332L 123.439 15.0321ZM 107.419 -0.987398L 85.1351 -1L 85.134 1L 107.418 1.0126L 107.419 -0.987398ZM 115.919 15.0279C 115.917 10.3046 112.119 6.50735 107.396 6.50468L 107.395 8.50468C 111.014 8.50672 113.917 11.4094 113.919 15.029L 115.919 15.0279ZM 107.449 2.77236L 85.1647 2.75978L 85.1635 4.75978L 107.448 4.77236L 107.449 2.77236ZM 107.396 6.50468L 85.057 6.49202L 85.0559 8.49202L 107.395 8.50468L 107.396 6.50468ZM 166.147 44.9588L 120.755 44.9331L 120.754 46.9331L 166.146 46.9588L 166.147 44.9588ZM 164.141 41.1978L 120.122 41.173L 120.121 43.173L 164.14 43.1978L 164.141 41.1978ZM 163.535 37.4652L 118.363 37.4396L 118.362 39.4396L 163.534 39.4652L 163.535 37.4652ZM 177.717 30.2248L 223.109 30.2504L 223.11 28.2504L 177.719 28.2248L 177.717 30.2248ZM 179.668 33.9856L 223.084 34.0102L 223.085 32.0102L 179.669 31.9856L 179.668 33.9856ZM 180.301 37.7458L 223.113 37.77L 223.114 35.77L 180.302 35.7458L 180.301 37.7458ZM 166.322 37.5897C 166.325 44.3438 171.825 49.8435 178.579 49.8473L 178.58 47.8473C 172.93 47.8441 168.325 43.239 168.322 37.5886L 166.322 37.5897ZM 162.589 37.5876C 162.594 46.4274 169.769 53.6021 178.609 53.6071L 178.61 51.6071C 170.874 51.6027 164.594 45.3226 164.589 37.5865L 162.589 37.5876ZM 178.609 53.6071L 200.948 53.6198L 200.949 51.6198L 178.61 51.6071L 178.609 53.6071ZM 170.081 37.5644C 170.084 42.2877 173.881 46.0849 178.605 46.0876L 178.606 44.0876C 174.986 44.0856 172.083 41.1828 172.081 37.5633L 170.081 37.5644ZM 178.579 49.8473L 200.918 49.86L 200.919 47.86L 178.58 47.8473L 178.579 49.8473ZM 178.605 46.0876L 200.944 46.1002L 200.945 44.1002L 178.606 44.0876L 178.605 46.0876ZM 177.597 37.5938C 177.594 30.8397 172.094 25.34 165.34 25.3362L 165.339 27.3362C 170.989 27.3394 175.594 31.9445 175.597 37.5949L 177.597 37.5938ZM 181.33 37.5959C 181.325 28.7562 174.15 21.5814 165.31 21.5764L 165.309 23.5764C 173.045 23.5808 179.325 29.861 179.33 37.5971L 181.33 37.5959ZM 165.31 21.5764L 143.026 21.5638L 143.025 23.5638L 165.309 23.5764L 165.31 21.5764ZM 173.81 37.5917C 173.808 32.8684 170.01 29.0712 165.287 29.0685L 165.286 31.0685C 168.906 31.0705 171.808 33.9733 171.81 37.5928L 173.81 37.5917ZM 165.34 25.3362L 143.056 25.3236L 143.055 27.3236L 165.339 27.3362L 165.34 25.3362ZM 165.287 29.0685L 143.003 29.0559L 143.002 31.0559L 165.286 31.0685L 165.287 29.0685ZM 164.546 76.7099L 119.154 76.6843L 119.153 78.6843L 164.544 78.7099L 164.546 76.7099ZM 162.54 72.9491L 118.521 72.9242L 118.52 74.9242L 162.539 74.9491L 162.54 72.9491ZM 161.935 69.2164L 116.735 69.1634L 116.733 71.1634L 161.933 71.2164L 161.935 69.2164ZM 176.061 61.9759L 221.453 62.0016L 221.454 60.0016L 176.062 59.9759L 176.061 61.9759ZM 178.067 65.7368L 221.456 65.7339L 221.455 63.7339L 178.067 63.7368L 178.067 65.7368ZM 178.673 69.4695L 221.484 69.4937L 221.486 67.4937L 178.674 67.4695L 178.673 69.4695ZM 164.72 69.3409C 164.724 76.095 170.224 81.5947 176.978 81.5985L 176.979 79.5985C 171.329 79.5954 166.724 74.9902 166.72 69.3398L 164.72 69.3409ZM 160.961 69.3662C 160.966 78.206 168.14 85.3808 176.98 85.3857L 176.981 83.3857C 169.245 83.3814 162.965 77.1012 162.961 69.3651L 160.961 69.3662ZM 176.98 85.3857L 199.319 85.3984L 199.32 83.3984L 176.981 83.3857L 176.98 85.3857ZM 168.453 69.343C 168.455 74.0663 172.253 77.8636 176.976 77.8662L 176.977 75.8662C 173.357 75.8642 170.455 72.9615 170.453 69.3419L 168.453 69.343ZM 176.978 81.5985L 199.317 81.6112L 199.318 79.6112L 176.979 79.5985L 176.978 81.5985ZM 176.976 77.8662L 199.315 77.8789L 199.316 75.8789L 176.977 75.8662L 176.976 77.8662ZM 175.969 69.3725C 175.965 62.6184 170.465 57.1187 163.711 57.1149L 163.71 59.1149C 169.36 59.118 173.966 63.7232 173.969 69.3736L 175.969 69.3725ZM 179.729 69.3472C 179.724 60.5074 172.549 53.3326 163.709 53.3276L 163.708 55.3276C 171.444 55.332 177.724 61.6122 177.729 69.3483L 179.729 69.3472ZM 172.209 69.3429C 172.206 64.6197 168.409 60.8224 163.686 60.8197L 163.685 62.8197C 167.304 62.8218 170.207 65.7245 170.209 69.344L 172.209 69.3429ZM 163.712 57.1149L 141.401 57.0748L 141.397 59.0748L 163.709 59.1149L 163.712 57.1149ZM 163.686 60.8197L 141.347 60.8071L 141.346 62.8071L 163.685 62.8197L 163.686 60.8197ZM 106.6 54.1461L 61.2081 54.1204L 61.207 56.1204L 106.599 56.1461L 106.6 54.1461ZM 104.622 50.4127L 61.206 50.3881L 61.2048 52.3881L 104.62 52.4127L 104.622 50.4127ZM 103.988 46.6526L 58.9809 46.6271L 58.9798 48.6271L 103.987 48.6526L 103.988 46.6526ZM 106.802 46.8045C 106.806 53.5586 112.305 59.0583 119.06 59.0621L 119.061 57.0621C 113.41 57.059 108.805 52.4538 108.802 46.8034L 106.802 46.8045ZM 103.042 46.775C 103.047 55.6147 110.222 62.7895 119.062 62.7945L 119.063 60.7945C 111.327 60.7901 105.046 54.5099 105.042 46.7738L 103.042 46.775ZM 119.062 62.7945L 141.401 62.8071L 141.402 60.8071L 119.063 60.7945L 119.062 62.7945ZM 110.562 46.7792C 110.564 51.5024 114.362 55.2997 119.085 55.3024L 119.086 53.3024C 115.466 53.3004 112.564 50.3976 112.562 46.7781L 110.562 46.7792ZM 119.06 59.0621L 141.399 59.0748L 141.4 57.0748L 119.061 57.0621L 119.06 59.0621ZM 118.05 46.7812C 118.046 40.0271 112.547 34.5274 105.793 34.5236L 105.792 36.5236C 111.442 36.5267 116.047 41.1319 116.05 46.7823L 118.05 46.7812ZM 121.81 46.8107C 121.805 37.971 114.63 30.7962 105.791 30.7912L 105.789 32.7912C 113.526 32.7956 119.806 39.0758 119.81 46.8119L 121.81 46.8107ZM 114.291 46.8065C 114.288 42.0832 110.491 38.286 105.767 38.2833L 105.766 40.2833C 109.386 40.2853 112.289 43.1881 112.291 46.8076L 114.291 46.8065ZM 105.767 38.2833L 83.4284 38.2707L 83.4272 40.2707L 105.766 40.2833L 105.767 38.2833ZM 104.971 85.9248L 59.5794 85.8991L 59.5783 87.8991L 104.97 87.9248L 104.971 85.9248ZM 102.965 82.1638L 59.0559 82.139L 59.0548 84.139L 102.964 84.1638L 102.965 82.1638ZM 102.387 78.4038L 57.3248 78.3783L 57.3237 80.3783L 102.386 80.4038L 102.387 78.4038ZM 105.146 78.5557C 105.15 85.3098 110.649 90.8095 117.403 90.8133L 117.405 88.8133C 111.754 88.8101 107.149 84.205 107.146 78.5546L 105.146 78.5557ZM 101.413 78.5536C 101.418 87.3934 108.593 94.5681 117.433 94.5731L 117.434 92.5731C 109.698 92.5687 103.418 86.2885 103.413 78.5524L 101.413 78.5536ZM 117.433 94.5731L 139.772 94.5857L 139.773 92.5857L 117.434 92.5731L 117.433 94.5731ZM 108.905 78.5304C 108.908 83.2536 112.705 87.0509 117.429 87.0536L 117.43 85.0536C 113.81 85.0515 110.908 82.1488 110.905 78.5293L 108.905 78.5304ZM 117.403 90.8133L 139.742 90.8259L 139.744 88.8259L 117.405 88.8133L 117.403 90.8133ZM 117.429 87.0536L 139.768 87.0662L 139.769 85.0662L 117.43 85.0536L 117.429 87.0536ZM 116.422 78.5598C 116.418 71.8057 110.918 66.306 104.164 66.3022L 104.163 68.3022C 109.813 68.3054 114.418 72.9106 114.422 78.5609L 116.422 78.5598ZM 120.181 78.5345C 120.176 69.6947 113.002 62.52 104.162 62.515L 104.161 64.515C 111.897 64.5193 118.177 70.7995 118.181 78.5356L 120.181 78.5345ZM 112.662 78.5302C 112.659 73.807 108.862 70.0097 104.139 70.007L 104.138 72.007C 107.757 72.0091 110.66 74.9118 110.662 78.5314L 112.662 78.5302ZM 104.164 66.3022L 81.8799 66.2896L 81.8788 68.2896L 104.163 68.3022L 104.164 66.3022ZM 104.139 70.007L 81.7997 69.9944L 81.7985 71.9944L 104.138 72.007L 104.139 70.007ZM 48.7086 31.5822L 3.31701 31.5566L 3.31588 33.5566L 48.7074 33.5822L 48.7086 31.5822ZM 46.7305 27.8488L 3.3149 27.8242L 3.31377 29.8242L 46.7294 29.8488L 46.7305 27.8488ZM 46.0972 24.0887L 3.28532 24.0645L 3.28419 26.0645L 46.0961 26.0887L 46.0972 24.0887ZM 48.9108 24.2406C 48.9146 30.9947 54.4144 36.4945 61.1684 36.4983L 61.1696 34.4983C 55.5192 34.4951 50.914 29.8899 50.9108 24.2395L 48.9108 24.2406ZM 45.1236 24.2385C 45.1286 33.0783 52.3033 40.253 61.1431 40.258L 61.1442 38.258C 53.4081 38.2537 47.128 31.9735 47.1236 24.2374L 45.1236 24.2385ZM 61.1431 40.258L 83.4821 40.2707L 83.4833 38.2707L 61.1442 38.258L 61.1431 40.258ZM 52.6431 24.2427C 52.6458 28.966 56.4431 32.7633 61.1663 32.7659L 61.1675 30.7659C 57.5479 30.7639 54.6452 27.8612 54.6431 24.2416L 52.6431 24.2427ZM 60.1592 24.2173C 60.1554 17.4632 54.6557 11.9635 47.9016 11.9597L 47.9005 13.9597C 53.5509 13.9629 58.156 18.5681 58.1592 24.2184L 60.1592 24.2173ZM 63.919 24.2469C 63.914 15.4071 56.7393 8.23237 47.8995 8.22738L 47.8984 10.2274C 55.6344 10.2317 61.9146 16.5119 61.919 24.248L 63.919 24.2469ZM 47.9007 8.22738L 25.5891 8.18732L 25.5855 10.1873L 47.8971 10.2274L 47.9007 8.22738ZM 56.3995 24.2426C 56.3968 19.5194 52.5995 15.7221 47.8763 15.7194L 47.8752 17.7194C 51.4947 17.7215 54.3974 20.6242 54.3995 24.2438L 56.3995 24.2426ZM 47.9016 11.9597L 25.6175 11.9471L 25.6164 13.9471L 47.9005 13.9597L 47.9016 11.9597ZM 47.8763 15.7194L 25.5373 15.7068L 25.5362 17.7068L 47.8752 17.7194L 47.8763 15.7194ZM 47.0799 63.3609L 1.68836 63.3353L 1.68723 65.3353L 47.0788 65.3609L 47.0799 63.3609ZM 45.0744 59.6001L 1.65878 59.5755L 1.65765 61.5755L 45.0733 61.6001L 45.0744 59.6001ZM 44.4685 55.8674L 1.65669 55.8432L 1.65556 57.8432L 44.4674 57.8674L 44.4685 55.8674ZM 47.2547 55.9919C 47.2585 62.746 52.7582 68.2457 59.5123 68.2495L 59.5134 66.2495C 53.8631 66.2463 49.2579 61.6411 49.2547 55.9908L 47.2547 55.9919ZM 43.5224 55.9898C 43.5274 64.8296 50.7021 72.0043 59.5419 72.0093L 59.543 70.0093C 51.8069 70.0049 45.5267 63.7248 45.5224 55.9887L 43.5224 55.9898ZM 59.5419 72.0093L 81.8809 72.0219L 81.882 70.0219L 59.543 70.0093L 59.5419 72.0093ZM 51.0144 55.9666C 51.0171 60.6898 54.8144 64.4871 59.5376 64.4898L 59.5387 62.4898C 55.9192 62.4878 53.0165 59.585 53.0144 55.9655L 51.0144 55.9666ZM 59.5123 68.2495L 81.8513 68.2622L 81.8524 66.2622L 59.5134 66.2495L 59.5123 68.2495ZM 58.5306 55.996C 58.5268 49.2419 53.027 43.7422 46.273 43.7384L 46.2718 45.7384C 51.9222 45.7416 56.5274 50.3467 56.5306 55.9971L 58.5306 55.996ZM 62.2629 55.9981C 62.2579 47.1583 55.0832 39.9836 46.2434 39.9786L 46.2423 41.9786C 53.9783 41.983 60.2585 48.2632 60.2629 55.9992L 62.2629 55.9981ZM 46.2434 39.9786L 23.9593 39.966L 23.9581 41.966L 46.2423 41.9786L 46.2434 39.9786ZM 54.7708 55.9664C 54.7681 51.2432 50.9709 47.4459 46.2476 47.4432L 46.2465 49.4432C 49.866 49.4453 52.7688 52.348 52.7708 55.9676L 54.7708 55.9664ZM 46.273 43.7384L 23.9888 43.7258L 23.9877 45.7258L 46.2718 45.7384L 46.273 43.7384ZM 46.2476 47.4432L 23.9086 47.4306L 23.9075 49.4306L 46.2465 49.4432L 46.2476 47.4432ZM 45.4232 95.1121L 0.0591052 95.1139L 0.0591845 97.1139L 45.4233 97.1121L 45.4232 95.1121ZM 43.4458 91.3787L 0.0301357 91.3541L 0.0290051 93.3541L 43.4446 93.3787L 43.4458 91.3787ZM 42.8124 87.6186L 0.000565096 87.5944L -0.000565096 89.5944L 42.8113 89.6186L 42.8124 87.6186ZM 45.5986 87.7431C 45.6024 94.4972 51.1021 99.9969 57.8562 100.001L 57.8573 98.0007C 52.2069 97.9975 47.6018 93.3923 47.5986 87.742L 45.5986 87.7431ZM 41.8388 87.7684C 41.8438 96.6082 49.0186 103.783 57.8583 103.788L 57.8595 101.788C 50.1234 101.784 43.8432 95.5033 43.8388 87.7673L 41.8388 87.7684ZM 57.8583 103.788L 80.1973 103.801L 80.1985 101.801L 57.8595 101.788L 57.8583 103.788ZM 49.3583 87.7727C 49.361 92.4959 53.1583 96.2932 57.8815 96.2959L 57.8827 94.2959C 54.2631 94.2938 51.3604 91.3911 51.3583 87.7715L 49.3583 87.7727ZM 57.8562 100.001L 80.1952 100.013L 80.1963 98.0134L 57.8573 98.0007L 57.8562 100.001ZM 57.8815 96.2959L 80.2206 96.3085L 80.2217 94.3085L 57.8827 94.2959L 57.8815 96.2959ZM 56.8745 87.7472C 56.8707 80.9931 51.3709 75.4933 44.6168 75.4895L 44.6157 77.4895C 50.2661 77.4927 54.8713 82.0979 54.8745 87.7483L 56.8745 87.7472ZM 60.6068 87.7493C 60.6018 78.9095 53.4271 71.7348 44.5873 71.7298L 44.5861 73.7298C 52.3222 73.7341 58.6024 80.0143 58.6068 87.7504L 60.6068 87.7493ZM 44.5873 71.7298L 22.3032 71.7172L 22.302 73.7172L 44.5861 73.7298L 44.5873 71.7298ZM 53.1147 87.7725C 53.1121 83.0492 49.3148 79.2519 44.5915 79.2493L 44.5904 81.2493C 48.21 81.2513 51.1127 84.154 51.1147 87.7736L 53.1147 87.7725ZM 44.6168 75.4895L 22.3327 75.4769L 22.3316 77.4769L 44.6157 77.4895L 44.6168 75.4895ZM 44.5915 79.2493L 22.2525 79.2366L 22.2514 81.2366L 44.5904 81.2493L 44.5915 79.2493ZM 163.709 53.3276L 119.086 53.3024L 119.085 55.3024L 163.708 55.3276L 163.709 53.3276ZM 105.791 30.7912L 61.1675 30.7659L 61.1663 32.7659L 105.789 32.7912L 105.791 30.7912ZM 105.793 34.5236L 61.1696 34.4983L 61.1684 36.4983L 105.792 36.5236L 105.793 34.5236ZM 104.162 62.515L 59.5387 62.4898L 59.5376 64.4898L 104.161 64.515L 104.162 62.515Z"/>
<path id="path2_fill" d="M 72 36C 72 55.8823 55.8823 72 36 72C 16.1177 72 0 55.8823 0 36C 0 16.1177 16.1177 0 36 0C 55.8823 0 72 16.1177 72 36Z"/>
<path id="path3_stroke_2x" d="M 70 36C 70 54.7777 54.7777 70 36 70L 36 74C 56.9868 74 74 56.9868 74 36L 70 36ZM 36 70C 17.2223 70 2 54.7777 2 36L -2 36C -2 56.9868 15.0132 74 36 74L 36 70ZM 2 36C 2 17.2223 17.2223 2 36 2L 36 -2C 15.0132 -2 -2 15.0132 -2 36L 2 36ZM 36 2C 54.7777 2 70 17.2223 70 36L 74 36C 74 15.0132 56.9868 -2 36 -2L 36 2Z"/>
<path id="path4_fill" d="M 23.2915 12.364L 23.2915 3.894L 20.9255 5.294L 20.2675 4.174L 23.5155 2.27L 24.6775 2.27L 24.6775 12.364L 23.2915 12.364ZM 3.21833 21.084C 3.17166 20.9813 3.12966 20.8833 3.09233 20.79C 3.05499 20.6873 3.01766 20.5847 2.98033 20.482C 2.94299 20.3793 2.90099 20.2627 2.85433 20.132C 2.80766 20.0013 2.75633 19.852 2.70033 19.684L 2.70033 28.364L 1.38433 28.364L 1.38433 18.27L 3.42833 18.27L 6.22833 24.878L 8.95833 18.27L 10.9883 18.27L 10.9883 28.364L 9.65833 28.364L 9.65833 19.684C 9.61166 19.8707 9.56499 20.0293 9.51833 20.16C 9.48099 20.2813 9.44366 20.3933 9.40633 20.496C 9.37833 20.5987 9.34566 20.6967 9.30833 20.79C 9.27099 20.8833 9.22899 20.9813 9.18233 21.084L 6.77433 26.684L 5.59833 26.684L 3.21833 21.084ZM 14.6229 20.706L 14.6229 28.364L 13.2649 28.364L 13.2649 20.706L 14.6229 20.706ZM 14.6649 17.962L 14.6649 19.446L 13.2229 19.446L 13.2229 17.962L 14.6649 17.962ZM 23.1599 28.364L 21.8019 28.364L 21.8019 23.604C 21.8019 22.96 21.6666 22.4933 21.3959 22.204C 21.1252 21.9147 20.7052 21.77 20.1359 21.77C 19.9026 21.77 19.6692 21.812 19.4359 21.896C 19.2119 21.9707 19.0066 22.0873 18.8199 22.246C 18.6426 22.3953 18.4932 22.5867 18.3719 22.82C 18.2599 23.0533 18.2039 23.3193 18.2039 23.618L 18.2039 28.364L 16.8459 28.364L 16.8459 20.706L 18.1619 20.706L 18.1619 21.672L 18.1759 21.672C 18.4092 21.3173 18.7172 21.0467 19.0999 20.86C 19.4826 20.664 19.9399 20.566 20.4719 20.566C 20.8452 20.566 21.1952 20.622 21.5219 20.734C 21.8486 20.846 22.1332 21.014 22.3759 21.238C 22.6186 21.462 22.8099 21.7467 22.9499 22.092C 23.0899 22.4373 23.1599 22.8387 23.1599 23.296L 23.1599 28.364ZM 25.1148 20.706L 26.4728 20.706L 26.4728 25.466C 26.4728 26.11 26.6034 26.5767 26.8648 26.866C 27.1261 27.1553 27.5414 27.3 28.1108 27.3C 28.3441 27.3 28.5728 27.2627 28.7968 27.188C 29.0208 27.104 29.2214 26.9873 29.3988 26.838C 29.5854 26.6793 29.7348 26.4833 29.8468 26.25C 29.9588 26.0167 30.0148 25.7507 30.0148 25.452L 30.0148 20.706L 31.3728 20.706L 31.3728 28.364L 30.0568 28.364L 30.0568 27.398L 30.0428 27.398C 29.8094 27.7527 29.5061 28.0233 29.1328 28.21C 28.7594 28.406 28.3068 28.504 27.7748 28.504C 27.4014 28.504 27.0514 28.448 26.7248 28.336C 26.4074 28.224 26.1274 28.056 25.8848 27.832C 25.6514 27.608 25.4648 27.328 25.3248 26.992C 25.1848 26.6467 25.1148 26.2407 25.1148 25.774L 25.1148 20.706ZM 34.0289 21.868L 32.7689 21.868L 32.7689 20.706L 34.0289 20.706L 34.0289 18.774L 35.3869 18.774L 35.3869 20.706L 37.4029 20.706L 37.4029 21.868L 35.3869 21.868L 35.3869 26.222C 35.3869 26.4553 35.4103 26.6467 35.4569 26.796C 35.5036 26.936 35.5689 27.0433 35.6529 27.118C 35.7463 27.1927 35.8536 27.244 35.9749 27.272C 36.0963 27.3 36.2269 27.314 36.3669 27.314C 36.7029 27.314 37.0389 27.2533 37.3749 27.132L 37.5849 28.224C 37.4263 28.2893 37.2163 28.3453 36.9549 28.392C 36.6936 28.448 36.4276 28.476 36.1569 28.476C 35.4289 28.476 34.8923 28.294 34.5469 27.93C 34.2016 27.566 34.0289 26.9967 34.0289 26.222L 34.0289 21.868ZM 41.8923 21.728C 41.6123 21.728 41.351 21.7793 41.1083 21.882C 40.875 21.9753 40.6697 22.1107 40.4923 22.288C 40.3243 22.456 40.189 22.666 40.0863 22.918C 39.993 23.1607 39.9463 23.4267 39.9463 23.716L 39.9463 23.912L 43.7823 23.912L 43.7823 23.66C 43.7823 23.072 43.6143 22.6053 43.2783 22.26C 42.9423 21.9053 42.4803 21.728 41.8923 21.728ZM 44.9163 27.636C 44.5803 27.8693 44.179 28.0653 43.7123 28.224C 43.2457 28.392 42.6623 28.476 41.9623 28.476C 41.4863 28.476 41.043 28.406 40.6323 28.266C 40.231 28.1353 39.8763 27.93 39.5683 27.65C 39.2697 27.3607 39.0317 26.992 38.8543 26.544C 38.6863 26.096 38.6023 25.564 38.6023 24.948L 38.6023 24.08C 38.6023 23.5013 38.6817 22.9927 38.8403 22.554C 39.0083 22.1153 39.237 21.7513 39.5263 21.462C 39.825 21.1633 40.175 20.9393 40.5763 20.79C 40.9777 20.6407 41.4163 20.566 41.8923 20.566C 42.8723 20.566 43.6517 20.8647 44.2303 21.462C 44.809 22.0593 45.0983 22.904 45.0983 23.996L 45.0983 25.018L 39.9463 25.018L 39.9463 25.074C 39.9463 25.802 40.1377 26.3573 40.5203 26.74C 40.903 27.1133 41.4023 27.3 42.0183 27.3C 42.5223 27.3 42.9517 27.2393 43.3063 27.118C 43.6703 26.9967 44.0157 26.8287 44.3423 26.614L 44.9163 27.636Z"/>
</defs>
</svg>
