<svg width="792" height="828" viewBox="0 0 792 828" version="1.1" xmlns="http://www.w3.org/2000/svg" xmlns:xlink="http://www.w3.org/1999/xlink">
<title>img_4</title>
<desc>Created using Figma</desc>
<g id="Canvas" transform="matrix(4 0 0 4 -43408 -1064)">
<g id="img_4">
<use xlink:href="#path0_stroke" transform="matrix(1 0 -3.37176e-07 1 10854 268)" fill="url(#paint0_linear)"/>
</g>
</g>
<defs>
<linearGradient id="paint0_linear" x1="0" y1="0" x2="1" y2="0" gradientUnits="userSpaceOnUse" gradientTransform="matrix(130.596 -130.659 124.881 124.941 -33.419 93.4658)">
<stop offset="0" stop-color="#00B1AD" stop-opacity="0"/>
<stop offset="0.320442" stop-color="#00B1AD"/>
<stop offset="0.685083" stop-color="#5E35E3"/>
<stop offset="0.950276" stop-color="#5E35E3" stop-opacity="0"/>
</linearGradient>
<path id="path0_stroke" d="M 64.2842 94.1878L 65.3425 95.2508L 65.3451 95.2482L 64.2842 94.1878ZM 57.7847 87.6851L 56.7237 86.6247L 56.7191 86.6293L 57.7847 87.6851ZM 70.6344 100.69L 71.6864 101.76L 71.6953 101.751L 70.6344 100.69ZM 125.993 110.183L 127.054 111.243L 127.061 111.236L 125.993 110.183ZM 132.492 116.686L 133.553 117.746L 133.56 117.739L 132.492 116.686ZM 119.643 103.68L 120.704 104.741L 120.705 104.739L 119.643 103.68ZM 93.018 78.6239L 170.544 1.0604L 168.422 -1.0604L 90.8962 76.5031L 93.018 78.6239ZM 102.037 82.6059L 176.969 7.63787L 174.847 5.51706L 99.9152 80.4851L 102.037 82.6059ZM 109.657 87.9875L 183.543 14.0658L 181.421 11.945L 107.535 85.8667L 109.657 87.9875ZM 97.3553 125.403L 20.3395 202.701L 22.4647 204.818L 99.4805 127.521L 97.3553 125.403ZM 88.6987 121.303L 13.7669 196.271L 15.8887 198.392L 90.8205 123.424L 88.6987 121.303ZM 81.1532 115.847L 7.26732 189.768L 9.38915 191.889L 83.275 117.968L 81.1532 115.847ZM 104.193 93.1274C 92.8467 81.7755 74.4897 81.8556 63.2233 93.1274L 65.3451 95.2482C 75.4452 85.1433 91.9019 85.0739 102.071 95.2482L 104.193 93.1274ZM 110.693 86.6246C 95.761 71.6857 71.5768 71.7645 56.7237 86.6247L 58.8456 88.7455C 72.5309 75.0535 94.8148 74.9828 108.571 88.7455L 110.693 86.6246ZM 56.7191 86.6293L -1.06552 144.947L 1.06552 147.059L 58.8502 88.7408L 56.7191 86.6293ZM 97.6936 99.6301C 89.9358 91.8685 77.3313 91.8685 69.5735 99.6301L 71.6953 101.751C 78.2814 95.1616 88.9856 95.1616 95.5717 101.751L 97.6936 99.6301ZM 63.2259 93.1248L 7.34246 148.761L 9.45907 150.887L 65.3425 95.2508L 63.2259 93.1248ZM 69.5824 99.6212L 14.9859 153.339L 17.09 155.477L 71.6864 101.76L 69.5824 99.6212ZM 86.0839 111.243C 97.4303 122.595 115.787 122.515 127.054 111.243L 124.932 109.123C 114.832 119.227 98.3751 119.297 88.2057 109.123L 86.0839 111.243ZM 79.5843 117.746C 94.514 132.683 118.624 132.683 133.553 117.746L 131.431 115.625C 117.673 129.39 95.4642 129.39 81.7062 115.625L 79.5843 117.746ZM 133.56 117.739L 195.816 54.6017L 193.68 52.4954L 131.424 115.632L 133.56 117.739ZM 92.5834 104.741C 100.341 112.502 112.946 112.502 120.704 104.741L 118.582 102.62C 111.996 109.209 101.291 109.209 94.7052 102.62L 92.5834 104.741ZM 127.061 111.236L 187.415 50.0171L 185.279 47.911L 124.925 109.13L 127.061 111.236ZM 120.705 104.739L 179.773 45.4381L 177.647 43.3209L 118.58 102.622L 120.705 104.739Z"/>
</defs>
</svg>
