<svg width="3268" height="716" viewBox="0 0 3268 716" version="1.1" xmlns="http://www.w3.org/2000/svg" xmlns:xlink="http://www.w3.org/1999/xlink">
<title>img_5</title>
<desc>Created using Figma</desc>
<g id="Canvas" transform="matrix(4 0 0 4 -41292 -3640)">
<g id="img_5">
<g id="kaicoin logo">
<g id="Group">
<g id="Vector">
<use xlink:href="#path0_fill" transform="translate(10537.7 985.892)" fill="#C1C3C3"/>
</g>
<g id="Vector">
<use xlink:href="#path1_fill" transform="translate(10566.4 986.18)" fill="#C1C3C3"/>
</g>
<g id="Vector">
<use xlink:href="#path2_fill" transform="translate(10472.9 986.084)" fill="#00B1AD"/>
</g>
<g id="Vector">
<use xlink:href="#path3_fill" transform="translate(10622 986.084)" fill="#C1C3C3"/>
</g>
<g id="Group">
<g id="Vector">
<use xlink:href="#path4_fill" transform="translate(10513.9 986.084)" fill="#00B1AD"/>
</g>
<g id="Vector">
<use xlink:href="#path5_fill" transform="translate(10513.8 972.519)" fill="#00B1AD"/>
</g>
</g>
<g id="Group">
<g id="Vector">
<use xlink:href="#path6_fill" transform="translate(10605.9 986.084)" fill="#C1C3C3"/>
</g>
<g id="Vector">
<use xlink:href="#path7_fill" transform="translate(10605.8 972.519)" fill="#C1C3C3"/>
</g>
</g>
<g id="Vector">
<use xlink:href="#path8_fill" transform="translate(10440.7 964.727)" fill="#00B1AD"/>
</g>
<g id="Group">
<g id="Vector">
<use xlink:href="#path9_fill" transform="translate(10323 970.018)" fill="#00B1AD"/>
</g>
<g id="Vector">
<use xlink:href="#path10_fill" transform="translate(10345.5 953.375)" fill="#00B1AD"/>
</g>
<g id="Vector">
<use xlink:href="#path11_fill" transform="translate(10334.2 960.59)" fill="#00B1AD"/>
</g>
<g id="Vector">
<use xlink:href="#path12_fill" transform="translate(10388.6 969.825)" fill="#C1C3C3"/>
</g>
<g id="Vector">
<use xlink:href="#path13_fill" transform="translate(10380.4 978.003)" fill="#C1C3C3"/>
</g>
<g id="Vector">
<use xlink:href="#path14_fill" transform="translate(10372.6 985.603)" fill="#C1C3C3"/>
</g>
</g>
</g>
</g>
<g id="connect">
<g id="Group">
<g id="Vector">
<use xlink:href="#path15_stroke" transform="matrix(1.00079 0 0 0.999205 10740.3 911.282)" fill="url(#paint15_linear)"/>
</g>
<g id="Vector">
<use xlink:href="#path16_stroke" transform="matrix(1.00079 0 0 0.999205 10674.3 1014.8)" fill="url(#paint16_linear)"/>
</g>
<g id="Group">
<g id="Vector">
<use xlink:href="#path17_stroke" transform="matrix(0.70767 -0.706543 0.70767 0.706543 10720.1 993.62)" fill="url(#paint17_linear)"/>
</g>
<g id="Vector">
<use xlink:href="#path18_stroke" transform="matrix(0.707666 -0.706548 0.707666 0.706548 10649.9 1052.24)" fill="url(#paint18_linear)"/>
</g>
<g id="Vector">
<use xlink:href="#path19_stroke" transform="matrix(0.707671 -0.706542 0.707671 0.706542 10725.7 999.341)" fill="url(#paint19_linear)"/>
</g>
<g id="Vector">
<use xlink:href="#path20_stroke" transform="matrix(0.707667 -0.706546 0.707667 0.706546 10655.6 1058)" fill="url(#paint20_linear)"/>
</g>
<g id="Vector">
<use xlink:href="#path21_stroke" transform="matrix(0.707667 -0.706546 0.707667 0.706546 10661.1 1063.42)" fill="url(#paint21_linear)"/>
</g>
</g>
<g id="Group">
<g id="Vector">
<use xlink:href="#path22_stroke" transform="matrix(0.70767 -0.706544 0.70767 0.706544 10734.5 1013.41)" fill="url(#paint22_linear)"/>
</g>
<g id="Vector">
<use xlink:href="#path23_stroke" transform="matrix(0.707667 -0.706546 0.707667 0.706546 10740 1008.04)" fill="url(#paint23_linear)"/>
</g>
<g id="Vector">
<use xlink:href="#path24_stroke" transform="matrix(0.70767 -0.706544 0.70767 0.706544 10746 1001.97)" fill="url(#paint24_linear)"/>
</g>
</g>
</g>
</g>
<g id="kairexlogo">
<g id="Group">
<g id="Vector">
<use xlink:href="#path25_fill" transform="matrix(1 0 0 1 10930.7 983.978)" fill="#EB6153"/>
</g>
<g id="Vector">
<use xlink:href="#path26_fill" transform="matrix(1 0 0 1 11013.1 983.978)" fill="#EB6153"/>
</g>
<g id="Vector">
<use xlink:href="#path27_fill" transform="matrix(1 0 0 1 11013.1 993.405)" fill="#EB6153"/>
</g>
<g id="Vector">
<use xlink:href="#path28_fill" transform="matrix(1 0 0 1 10967.4 983.978)" fill="#EB6153"/>
</g>
<g id="Vector">
<use xlink:href="#path29_fill" transform="matrix(1 0 0 1 11030.7 984.303)" fill="#EB6153"/>
</g>
<g id="Vector">
<use xlink:href="#path30_fill" transform="matrix(1 0 0 1 11069.1 983.978)" fill="#EB6153"/>
</g>
<g id="Vector">
<use xlink:href="#path31_fill" transform="matrix(1 0 0 1 11103.6 983.978)" fill="#EB6153"/>
</g>
<g id="Group">
<g id="Vector">
<use xlink:href="#path32_fill" transform="matrix(1 0 0 1 10843.9 972.111)" fill="#EB6153"/>
</g>
<g id="Vector">
<use xlink:href="#path33_fill" transform="matrix(1 0 0 1 10879.8 990.218)" fill="#EB6153"/>
</g>
<g id="Vector">
<use xlink:href="#path34_fill" transform="matrix(1 0 0 1 10865.1 969.673)" fill="#EB6153"/>
</g>
<g id="Vector">
<use xlink:href="#path35_fill" transform="matrix(1 0 0 1 10846.4 1005.19)" fill="#F08437"/>
</g>
</g>
</g>
</g>
</g>
</g>
<defs>
<linearGradient id="paint15_linear" x1="0" y1="0" x2="1" y2="0" gradientUnits="userSpaceOnUse" gradientTransform="matrix(40.9531 -40.9531 43.1321 43.1321 -8.67306 48.892)">
<stop offset="0" stop-color="#C1C3C3"/>
<stop offset="1" stop-color="#C1C3C3" stop-opacity="0"/>
</linearGradient>
<linearGradient id="paint16_linear" x1="0" y1="0" x2="1" y2="0" gradientUnits="userSpaceOnUse" gradientTransform="matrix(-61.4296 60.9643 -64.2675 -64.7581 100.82 36.4719)">
<stop offset="0" stop-color="#C1C3C3"/>
<stop offset="0.624309" stop-color="#C1C3C3" stop-opacity="0"/>
</linearGradient>
<linearGradient id="paint17_linear" x1="0" y1="0" x2="1" y2="0" gradientUnits="userSpaceOnUse" gradientTransform="matrix(26.9138 0 0 26.9138 0.1025 -2.70993)">
<stop offset="0.154696" stop-color="#C1C3C3" stop-opacity="0"/>
<stop offset="1" stop-color="#0AB2AE"/>
</linearGradient>
<linearGradient id="paint18_linear" x1="0" y1="0" x2="1" y2="0" gradientUnits="userSpaceOnUse" gradientTransform="matrix(118.527 -7.98908e-15 -6.33998e-14 31.0691 0.522752 -1.16751)">
<stop offset="0.154696" stop-color="#C1C3C3" stop-opacity="0"/>
<stop offset="1" stop-color="#0AB2AE"/>
</linearGradient>
<linearGradient id="paint19_linear" x1="0" y1="0" x2="1" y2="0" gradientUnits="userSpaceOnUse" gradientTransform="matrix(18.0115 0 0 18.0115 0.0685964 -1.81357)">
<stop offset="0.154696" stop-color="#C1C3C3" stop-opacity="0"/>
<stop offset="1" stop-color="#0AB2AE"/>
</linearGradient>
<linearGradient id="paint20_linear" x1="0" y1="0" x2="1" y2="0" gradientUnits="userSpaceOnUse" gradientTransform="matrix(110.863 9.2629e-14 0 23.2641 0.488454 -0.885095)">
<stop offset="0.154696" stop-color="#C1C3C3" stop-opacity="0"/>
<stop offset="1" stop-color="#0AB2AE"/>
</linearGradient>
<linearGradient id="paint21_linear" x1="0" y1="0" x2="1" y2="0" gradientUnits="userSpaceOnUse" gradientTransform="matrix(103.465 6.12249e-14 -1.55116e-14 15.9491 0.454156 -0.634348)">
<stop offset="0.225427" stop-color="#C1C3C3" stop-opacity="0"/>
<stop offset="1" stop-color="#0AB2AE"/>
</linearGradient>
<linearGradient id="paint22_linear" x1="0" y1="0" x2="1" y2="0" gradientUnits="userSpaceOnUse" gradientTransform="matrix(117.026 -7.97575e-15 0 30.3726 6.8775 2.78335)">
<stop offset="0" stop-color="#EB6153"/>
<stop offset="0.834254" stop-color="#C1C3C3" stop-opacity="0"/>
</linearGradient>
<linearGradient id="paint23_linear" x1="0" y1="0" x2="1" y2="0" gradientUnits="userSpaceOnUse" gradientTransform="matrix(110.539 -3.88444e-14 0 22.9922 5.30176 1.96817)">
<stop offset="0" stop-color="#EB6153"/>
<stop offset="0.834254" stop-color="#C1C3C3" stop-opacity="0"/>
</linearGradient>
<linearGradient id="paint24_linear" x1="0" y1="0" x2="1" y2="0" gradientUnits="userSpaceOnUse" gradientTransform="matrix(103.545 -7.79876e-14 6.68285e-14 15.4916 4.2339 1.26488)">
<stop offset="0" stop-color="#EB6153"/>
<stop offset="0.834254" stop-color="#C1C3C3" stop-opacity="0"/>
</linearGradient>
<path id="path0_fill" d="M 16.4984 25.2052C 11.7983 25.2052 7.96144 21.3571 7.96144 16.6432C 7.96144 11.9292 11.7983 8.08107 16.4984 8.08107C 18.0331 8.08107 19.4719 8.46588 20.623 9.1393L 26.3783 3.36711C 23.5965 1.25064 20.1434 -7.33972e-07 16.4984 -7.33972e-07C 7.38591 -7.33972e-07 -2.92727e-06 7.40765 -2.92727e-06 16.547C -2.92727e-06 25.6863 7.38591 33.0939 16.4984 33.0939C 20.2393 33.0939 23.5965 31.8433 26.3783 29.823L 20.623 24.0508C 19.376 24.8204 17.9372 25.2052 16.4984 25.2052Z"/>
<path id="path1_fill" d="M 16.4025 7.98487C 21.1026 7.98487 24.8435 11.833 24.8435 16.4507C 24.8435 21.0685 21.0067 24.9166 16.4025 24.9166C 11.7983 24.9166 7.96143 21.0685 7.96143 16.4507C 7.96143 11.833 11.7024 7.98487 16.4025 7.98487ZM 16.4025 -1.46794e-06C 7.38592 -1.46794e-06 5.85455e-06 7.40765 5.85455e-06 16.4507C 5.85455e-06 25.4938 7.38592 32.9015 16.4025 32.9015C 25.4191 32.9015 32.8049 25.4938 32.8049 16.4507C 32.8049 7.40765 25.4191 -1.46794e-06 16.4025 -1.46794e-06Z"/>
<path id="path2_fill" d="M 32.9968 16.5469C 32.9968 16.4507 32.9968 16.4507 32.9968 16.3545L 32.9968 0L 25.0354 0L 25.0354 2.40508C 22.5414 0.865829 19.6638 0 16.4984 0C 7.3859 0 -2.92727e-06 7.40765 -2.92727e-06 16.5469C -2.92727e-06 25.6863 7.3859 33.0939 16.4984 33.0939C 19.6638 33.0939 22.5414 32.2281 25.0354 30.6888L 25.0354 33.0939L 32.9968 33.0939L 32.9968 16.7394C 32.9968 16.6432 32.9968 16.5469 32.9968 16.5469ZM 16.4984 25.0128C 11.7983 25.0128 7.96143 21.1647 7.96143 16.4507C 7.96143 11.7368 11.7983 7.88866 16.4984 7.88866C 21.1985 7.88866 25.0354 11.7368 25.0354 16.4507C 25.0354 21.1647 21.1985 25.0128 16.4984 25.0128Z"/>
<path id="path3_fill" d="M 14.3881 0C 11.7983 0 9.40026 0.673422 7.29 1.92406L 7.29 0L 5.85455e-06 0L 5.85455e-06 32.9977L 7.29 32.9977L 7.29 14.3343C 7.38592 10.4861 10.5513 7.31144 14.3881 7.31144C 18.3209 7.31144 21.5822 10.4861 21.5822 14.5267L 21.5822 33.0939L 28.8722 33.0939L 28.8722 14.5267C 28.7763 6.54182 22.2537 0 14.3881 0Z"/>
<path id="path4_fill" d="M 7.86552 0L -5.85455e-06 0L -5.85455e-06 32.9977L 7.86552 32.9977L 7.86552 0Z"/>
<path id="path5_fill" d="M 4.02868 8.08107C 6.25366 8.08107 8.05735 6.27206 8.05735 4.04053C 8.05735 1.80901 6.25366 0 4.02868 0C 1.8037 0 2.92727e-06 1.80901 2.92727e-06 4.04053C 2.92727e-06 6.27206 1.8037 8.08107 4.02868 8.08107Z"/>
<path id="path6_fill" d="M 7.86551 0L -1.17091e-05 0L -1.17091e-05 32.9977L 7.86551 32.9977L 7.86551 0Z"/>
<path id="path7_fill" d="M 4.02867 8.08107C 6.25365 8.08107 8.05736 6.27206 8.05736 4.04053C 8.05736 1.80901 6.25365 0 4.02867 0C 1.80369 0 1.17091e-05 1.80901 1.17091e-05 4.04053C 1.17091e-05 6.27206 1.80369 8.08107 4.02867 8.08107Z"/>
<path id="path8_fill" d="M 15.731 37.9041L 32.2294 21.3571L 21.0067 21.3571L 7.86552 34.5369L 7.86552 1.83493e-07L -1.46364e-06 7.98486L -1.46364e-06 54.3548L 7.86552 54.3548L 7.86552 41.2712L 20.9108 54.3548L 32.1335 54.3548L 15.731 37.9041Z"/>
<path id="path9_fill" d="M 0.0959209 58.6839C 1.91842 61.9548 5.17973 65.6106 5.17973 65.6106L 5.17973 64.4561L 5.17973 2.02027L 5.17973 -7.33972e-07C 1.72658 3.84813 -1.42933e-09 7.02283 -1.42933e-09 7.02283L -1.42933e-09 58.6839L 0.0959209 58.6839Z"/>
<path id="path10_fill" d="M 42.9726 78.9828L 38.4643 74.4613L 34.8193 70.8055L 30.8865 66.8612L 27.1456 63.1093L 13.7167 49.6408L 27.3375 35.98L 31.0784 32.2281L 35.0111 28.2837L 38.6561 24.628L 43.1644 20.1065L 46.8094 16.4507L 51.7973 11.4482C 51.7973 11.4482 49.8789 9.81273 47.6727 8.27347L 5.17973 50.8915L 5.17973 42.137L 42.1093 5.09877C 42.1093 5.09877 38.752 3.46331 37.0255 2.8861L 5.17973 34.8256L 5.17973 26.3597L 30.4069 0.962032C 28.2967 0.384813 24.0761 0 24.0761 0L 5.17973 19.0482L 5.17973 2.02027C 3.06947 2.59749 -3.65909e-07 3.94433 -3.65909e-07 3.94433L -3.65909e-07 94.6639L -3.65909e-07 94.8563C -3.65909e-07 94.8563 2.58986 96.107 5.17973 96.7804L 5.17973 80.2335L 23.5006 98.6083L 23.8843 98.9931C 23.8843 98.9931 27.7211 98.7045 30.2151 98.0311L 5.17973 72.922L 5.17973 64.1675L 37.0255 96.107C 37.0255 96.107 40.2868 94.8563 42.1093 93.8943L 5.75525 57.5295L 9.97577 53.2966L 47.0972 90.5272L 47.3849 90.8158C 49.3993 89.5652 51.5095 87.6411 51.5095 87.6411L 46.6176 82.7347L 42.9726 78.9828Z"/>
<path id="path11_fill" d="M 3.65909e-07 3.75192L 3.65909e-07 80.9069C 1.72658 82.4461 5.17973 84.5626 5.17973 84.5626L 5.17973 0.865828L 5.17973 -5.12674e-15C 3.54907 0.865829 3.65909e-07 3.75192 3.65909e-07 3.75192Z"/>
<path id="path12_fill" d="M 19.376 33.0939C 19.376 19.7217 13.2371 7.88866 3.74091 3.66986e-07L 0.0959224 3.65572C 8.7288 10.4861 14.2922 21.1647 14.2922 33.0939C 14.2922 45.0231 8.7288 55.7016 2.92727e-06 62.6283L 3.54907 66.284C 13.1412 58.3953 19.376 46.4661 19.376 33.0939Z"/>
<path id="path13_fill" d="M 11.0309 24.9166C 11.0309 33.7673 6.71447 41.4636 7.31819e-07 46.2737L 3.64499 49.9295C 11.2227 44.2535 16.1147 35.1142 16.1147 24.9166C 16.1147 14.7191 11.2227 5.67599 3.74091 3.66986e-07L 0.0959202 3.65572C 6.71446 8.36968 11.0309 16.1621 11.0309 24.9166Z"/>
<path id="path14_fill" d="M 13.333 17.3166C 13.333 10.1013 9.59209 3.65572 3.93276 0L 0.191841 3.75193C 4.98789 6.34941 8.15327 11.4482 8.15327 17.3166C 8.15327 23.185 4.89196 28.2837 -1.46364e-06 30.9774L 3.74091 34.7293C 9.49617 30.9774 13.333 24.628 13.333 17.3166Z"/>
<path id="path15_stroke" d="M 1.06066 68.3237L 68.3237 1.06066L 66.2024 -1.06066L -1.06066 66.2024L 1.06066 68.3237ZM 11.6992 71.1234L 75.2098 7.61274L 73.0885 5.49142L 9.57787 69.002L 11.6992 71.1234ZM 19.495 75.6458L 81.6893 13.4515L 79.568 11.3301L 17.3737 73.5245L 19.495 75.6458Z"/>
<path id="path16_stroke" d="M 75.7675 6.0045L 9.95334 71.8186L 12.0747 73.9399L 77.8888 8.12582L 75.7675 6.0045ZM 66.7279 3.54633L 4.20447 66.0697L 6.32579 68.1911L 68.8492 5.66765L 66.7279 3.54633ZM 60.8046 -1.06066L -1.06066 60.8046L 1.06066 62.9259L 62.9259 1.06066L 60.8046 -1.06066Z"/>
<path id="path17_stroke" d="M 25.6996 24.1996C 25.6996 9.96455 14.1344 -1.5 1.42022e-06 -1.5L 1.42022e-06 1.5C 12.4851 1.5 22.6996 11.6289 22.6996 24.1996L 25.6996 24.1996Z"/>
<path id="path18_stroke" d="M 91.1207 0.0539682L 91.1198 1.55397L 91.1207 1.55397L 91.1207 0.0539682ZM 124.918 32.3511C 124.918 13.6494 109.724 -1.44603 91.1207 -1.44603L 91.1207 1.55397C 108.072 1.55397 121.918 15.3119 121.918 32.3511L 124.918 32.3511ZM 91.1216 -1.44603L 0.000888407 -1.5L -0.000888407 1.5L 91.1198 1.55397L 91.1216 -1.44603Z"/>
<path id="path19_stroke" d="M 17.6951 16.1951C 17.6951 6.43144 9.76365 -1.5 2.84043e-06 -1.5L 2.84043e-06 1.5C 8.1068 1.5 14.6951 8.08829 14.6951 16.1951L 17.6951 16.1951Z"/>
<path id="path20_stroke" d="M 91.1207 0L 91.1207 -1.5L 91.1207 0ZM 116.82 24.1996C 116.82 9.96454 105.255 -1.5 91.1207 -1.5L 91.1207 1.5C 103.606 1.5 113.82 11.6289 113.82 24.1996L 116.82 24.1996ZM 91.1207 -1.5L -3.65299e-08 -1.5L 3.65299e-08 1.5L 91.1207 1.5L 91.1207 -1.5Z"/>
<path id="path21_stroke" d="M 91.0276 0.333239L 91.0221 1.83324L 91.0276 1.83324L 91.0276 0.333239ZM 108.723 16.5283C 108.723 6.76467 100.791 -1.16676 91.0276 -1.16676L 91.0276 1.83324C 99.1344 1.83324 105.723 8.42153 105.723 16.5283L 108.723 16.5283ZM 91.0331 -1.16675L 0.00549125 -1.49999L -0.00549125 1.49999L 91.0221 1.83323L 91.0331 -1.16675Z"/>
<path id="path22_stroke" d="M -1.5 0C -1.5 18.6989 13.5982 33.7971 32.2971 33.7971L 32.2971 30.7971C 15.2551 30.7971 1.5 17.042 1.5 0L -1.5 0ZM 32.2971 33.7971L 124.442 33.7971L 124.442 30.7971L 32.2971 30.7971L 32.2971 33.7971Z"/>
<path id="path23_stroke" d="M -1.5 0C -1.5 14.2423 10.1286 25.6996 24.3243 25.6996L 24.3243 22.6996C 11.7633 22.6996 1.5 12.5634 1.5 0L -1.5 0ZM 24.3243 25.6996L 116.344 25.6996L 116.344 22.6996L 24.3243 22.6996L 24.3243 25.6996Z"/>
<path id="path24_stroke" d="M -1.5 0C -1.5 9.76365 6.43145 17.6951 16.1951 17.6951L 16.1951 14.6951C 8.0883 14.6951 1.5 8.10679 1.5 0L -1.5 0ZM 16.1951 17.6951L 108.246 17.6951L 108.246 14.6951L 16.1951 14.6951L 16.1951 17.6951Z"/>
<path id="path25_fill" d="M 16.5621 16.5801L 33.1241 3.1004e-07L 25.8368 3.1004e-07L 5.6311 19.8311L 5.6311 3.1004e-07L 2.52717e-06 3.1004e-07L 2.52717e-06 37.7117L 5.6311 37.7117L 5.6311 27.6335L 12.5872 20.4813L 26.4993 37.7117L 33.7866 37.7117L 16.5621 16.5801Z"/>
<path id="path26_fill" d="M 5.6311 0L -5.05434e-06 0L -5.05434e-06 5.85181L 5.6311 5.85181L 5.6311 0Z"/>
<path id="path27_fill" d="M 5.6311 0L -5.05434e-06 0L -5.05434e-06 28.2837L 5.6311 28.2837L 5.6311 0Z"/>
<path id="path28_fill" d="M 22.1932 3.1004e-07L 17.2245 3.1004e-07L -2.52717e-06 37.7117L 5.96233 37.7117L 10.5997 27.9586L 12.2559 24.7076L 28.1555 24.7076L 29.8117 28.2837L 34.1178 37.7117L 40.4114 37.7117L 22.1932 3.1004e-07ZM 19.8745 7.47731L 25.1743 18.8558L 14.5746 18.8558L 19.8745 7.47731Z"/>
<path id="path29_fill" d="M 21.1994 22.4319C 22.1931 22.1068 23.1869 21.7817 24.1806 21.4566C 25.5056 20.8064 26.4993 20.1562 27.493 19.1809C 28.4867 18.2056 29.1492 17.2303 29.8117 15.9299C 30.4742 14.6295 30.4742 13.3291 30.4742 11.7036C 30.4742 10.0781 30.1429 8.77771 29.8117 7.47731C 29.1492 6.17691 28.4867 4.87651 27.493 3.90121C 26.168 2.6008 24.8431 1.6255 22.8556 0.975302C 20.8682 0.325101 18.8807 2.88747e-15 16.5621 2.88747e-15L 5.05434e-06 2.88747e-15L 5.05434e-06 37.3866L 5.63109 37.3866L 5.63109 23.4072L 14.9059 23.4072L 25.5056 37.3866L 32.4616 37.3866L 21.1994 22.4319ZM 24.1806 13.9793C 23.8494 14.6295 23.1869 15.6048 22.5244 15.9299C 21.8619 16.5801 20.8682 16.9052 19.8745 17.2303C 18.5495 17.8805 17.5558 17.8805 16.2308 17.8805L 5.63109 17.8805L 5.63109 4.87651L 16.2308 4.87651C 18.8807 4.87651 21.1994 5.52671 22.8556 6.50201C 24.1806 7.47731 25.1743 9.10281 25.1743 11.0534C 24.8431 12.3538 24.5118 13.3291 24.1806 13.9793Z"/>
<path id="path30_fill" d="M 5.96235 32.51L 5.96235 21.1315L 28.4867 21.1315L 28.4867 15.9299L 5.96235 15.9299L 5.96235 5.20161L 28.4867 5.20161L 28.4867 3.1004e-07L 0 3.1004e-07L 0 37.7117L 28.4867 37.7117L 28.4867 32.51L 5.96235 32.51Z"/>
<path id="path31_fill" d="M 21.8619 18.5307L 36.1053 3.1004e-07L 29.1492 3.1004e-07L 18.2183 14.3044L 7.2873 3.1004e-07L 0.331241 3.1004e-07L 14.5746 18.5307L 5.05434e-06 37.7117L 6.62483 37.7117L 18.2183 22.757L 29.4805 37.7117L 36.4365 37.7117L 21.8619 18.5307Z"/>
<path id="path32_fill" d="M 30.8054 12.5164L 18.5495 0.487651C 17.887 -0.16255 17.2245 -0.16255 16.5621 0.487651L 0.331241 16.4176C 0 16.7427 0 17.0678 0 17.3929L 0 41.4503C 0 42.4256 1.32496 43.0758 2.31869 42.4256L 14.2434 30.722L 31.1367 14.1419C 31.4679 13.8168 31.4679 12.8415 30.8054 12.5164Z"/>
<path id="path33_fill" d="M 13.7465 29.8459C 13.084 29.1957 13.084 28.5455 13.7465 27.8953L 31.3023 10.6649C 31.6335 10.3398 31.6335 10.0147 31.6335 9.68964C 31.6335 6.43864 31.6335 3.51273 31.6335 1.23703C 31.6335 0.261725 30.3086 -0.388475 29.3148 0.261726L 17.0589 12.6155L 0.496862 28.8706C -0.165621 29.5208 -0.165621 30.171 0.496862 30.8212L 12.7528 42.8499C 13.4153 43.5001 14.0777 43.5001 14.7402 42.8499L 31.3023 26.5949C 31.6335 26.2698 31.6335 25.9447 31.6335 25.6196C 31.6335 24.3192 31.6335 20.7431 31.6335 16.5168C 31.6335 15.5414 30.3086 15.2163 29.6461 15.8665L 15.4027 29.8459C 15.0715 30.4961 14.0777 30.4961 13.7465 29.8459Z"/>
<path id="path34_fill" d="M 12.5226 13.9793L 29.4159 30.5594C 30.0784 31.2096 30.7408 31.2096 31.4033 30.5594L 43.6593 18.5307C 44.3217 17.8805 44.3217 17.2303 43.6593 16.5801L 27.0972 0.325101C 26.766 0.325101 26.4347 0 26.1035 0C 24.7785 0 21.4661 0 17.4912 0C 16.4975 0 15.835 1.3004 16.4975 2.2757L 30.4096 15.9299C 31.0721 16.5801 31.0721 17.2303 30.4096 17.8805C 29.7471 18.5307 29.0846 18.5307 28.4222 17.8805L 10.8664 0.325101C 10.5351 0 10.2039 0 9.87266 0C 6.56025 0 3.57908 0 1.26039 0C 0.26667 0 -0.395813 1.3004 0.266669 2.2757L 12.5226 13.9793Z"/>
<path id="path35_fill" d="M 12.7528 0.243825L 0.496861 12.2725C -0.165621 12.9227 -0.165621 13.5729 0.496861 14.2231L 16.7277 30.1531C 17.0589 30.4782 17.3902 30.4782 17.7214 30.4782C 20.7026 30.4782 35.9397 30.4782 42.5645 30.4782C 43.5582 30.4782 44.2207 29.1778 43.5582 28.2025L 31.6335 16.4989L 14.409 0.243825C 14.0777 -0.0812751 13.084 -0.0812751 12.7528 0.243825Z"/>
</defs>
</svg>
