<?xml version="1.0" encoding="utf-8"?>
<!-- Generator: Adobe Illustrator 22.1.0, SVG Export Plug-In . SVG Version: 6.00 Build 0)  -->
<svg version="1.1" id="Layer_1" xmlns="http://www.w3.org/2000/svg" xmlns:xlink="http://www.w3.org/1999/xlink" x="0px" y="0px"
	 viewBox="0 0 143.5 143.5" style="enable-background:new 0 0 143.5 143.5;" xml:space="preserve">
<style type="text/css">
	.st0{enable-background:new    ;}
</style>
<g class="st0">
	<path d="M45.4,86.5h8.1V63.2c0-0.9,0-1.9,0.1-2.8l-5.7,4.8c-0.2,0.2-0.5,0.3-0.7,0.4c-0.2,0.1-0.5,0.1-0.7,0.1
		c-0.4,0-0.7-0.1-1-0.2s-0.5-0.3-0.7-0.5l-2.2-3l12.2-10.4h5.6v34.9h7.2v5.1H45.4V86.5z"/>
	<path d="M72,87.8c0-0.6,0.1-1.1,0.3-1.6c0.2-0.5,0.5-1,0.9-1.3c0.4-0.4,0.8-0.7,1.3-0.9c0.5-0.2,1.1-0.3,1.7-0.3
		c0.6,0,1.1,0.1,1.6,0.3s1,0.5,1.3,0.9s0.7,0.8,0.9,1.3s0.3,1.1,0.3,1.6c0,0.6-0.1,1.1-0.3,1.6c-0.2,0.5-0.5,0.9-0.9,1.3
		s-0.8,0.7-1.3,0.9c-0.5,0.2-1.1,0.3-1.6,0.3c-0.6,0-1.1-0.1-1.7-0.3c-0.5-0.2-1-0.5-1.3-0.9c-0.4-0.4-0.7-0.8-0.9-1.3
		C72.1,89,72,88.4,72,87.8z"/>
	<path d="M99,51.2c1.8,0,3.5,0.3,5.1,0.8c1.5,0.5,2.8,1.3,3.9,2.3s1.9,2.2,2.5,3.6c0.6,1.4,0.9,3,0.9,4.7c0,1.5-0.2,2.8-0.6,4.1
		c-0.4,1.3-1,2.4-1.7,3.6c-0.7,1.1-1.6,2.2-2.6,3.3c-1,1.1-2,2.2-3.1,3.3l-9,9.2c0.9-0.3,1.7-0.5,2.6-0.6c0.8-0.1,1.7-0.2,2.4-0.2
		h10.2c0.7,0,1.3,0.2,1.8,0.6c0.4,0.4,0.6,1,0.6,1.6v4.1H84.7v-2.3c0-0.5,0.1-0.9,0.3-1.4c0.2-0.5,0.5-1,0.9-1.4l12.1-12.1
		c1-1,1.9-2,2.7-3c0.8-0.9,1.5-1.9,2-2.8c0.5-0.9,1-1.9,1.2-2.8c0.3-0.9,0.4-1.9,0.4-3c0-1-0.1-1.8-0.4-2.5
		c-0.3-0.7-0.7-1.3-1.2-1.8c-0.5-0.5-1.1-0.9-1.8-1.1c-0.7-0.2-1.5-0.4-2.4-0.4c-1.6,0-3,0.4-4,1.2c-1.1,0.8-1.8,2-2.2,3.4
		c-0.2,0.7-0.5,1.2-0.9,1.5c-0.4,0.3-0.9,0.5-1.5,0.5c-0.3,0-0.6,0-0.9-0.1l-3.6-0.6c0.3-1.9,0.8-3.6,1.6-5s1.8-2.7,3-3.6
		s2.5-1.7,4.1-2.2C95.6,51.4,97.3,51.2,99,51.2z"/>
</g>
<path d="M113.9,28.6l18.4,4.7c7.1,11.1,11.2,24.3,11.2,38.5c0,9.6-1.9,18.8-5.3,27.1L122.1,50L113.9,28.6z M68.7,0.1l-12,13.8
	l43.7,8l28.1,5.9C115.3,10.9,94.8,0,71.8,0C70.7,0,69.7,0,68.7,0.1z M14.7,61l0.5-0.9L45.5,20l0,0L62,0.7
	C38.5,3.8,18.7,18.4,8.1,38.5L14.7,61z M129.7,87.3l-48.2,55.5c23.5-3.2,43.3-17.7,53.9-37.9L129.7,87.3z M13.3,70.3l-0.1-0.1
	L5.3,44.6C1.9,53,0,62.2,0,71.8C0,86,4.1,99.2,11.2,110.3l18.2,3.7L13.3,70.3z M74.8,143.4l12.9-14.5L15,115.7
	c13.1,16.9,33.6,27.8,56.7,27.8C72.8,143.5,73.8,143.5,74.8,143.4z"/>
</svg>
