<?xml version="1.0" encoding="utf-8"?>
<!-- Generator: Adobe Illustrator 22.1.0, SVG Export Plug-In . SVG Version: 6.00 Build 0)  -->
<svg version="1.1" id="Layer_1" xmlns="http://www.w3.org/2000/svg" xmlns:xlink="http://www.w3.org/1999/xlink" x="0px" y="0px"
	 viewBox="0 0 158.1 158.1" style="enable-background:new 0 0 158.1 158.1;" xml:space="preserve">
<style type="text/css">
	.st0{fill:#FFFFFF;stroke:#2D2D2D;stroke-width:1.4173;stroke-miterlimit:22.9256;}
	.st1{enable-background:new    ;}
</style>
<path class="st0" d="M78.3,134.2c30.4,0,55.2-24.8,55.2-55.2s-24.8-55.2-55.2-55.2C48,23.9,23.2,48.7,23.2,79
	C23.2,109.4,48,134.2,78.3,134.2z"/>
<g class="st1">
	<path d="M45.4,103.8h12.7v4.9H39.5V76.9h5.9V103.8z"/>
	<path d="M79.2,82.7c-0.2,0.3-0.3,0.5-0.6,0.7c-0.2,0.1-0.5,0.2-0.8,0.2c-0.3,0-0.6-0.1-1-0.3c-0.4-0.2-0.8-0.5-1.3-0.8
		s-1.1-0.5-1.7-0.8c-0.7-0.2-1.5-0.3-2.4-0.3c-0.8,0-1.5,0.1-2.1,0.3c-0.6,0.2-1.1,0.5-1.5,0.8c-0.4,0.4-0.7,0.8-0.9,1.3
		c-0.2,0.5-0.3,1-0.3,1.6c0,0.7,0.2,1.4,0.6,1.9c0.4,0.5,1,0.9,1.7,1.3c0.7,0.4,1.5,0.7,2.4,0.9c0.9,0.3,1.8,0.6,2.7,0.9
		c0.9,0.3,1.8,0.7,2.7,1.1s1.7,0.9,2.4,1.6s1.2,1.4,1.7,2.3s0.6,2,0.6,3.4c0,1.4-0.2,2.8-0.7,4s-1.2,2.3-2.2,3.3s-2.1,1.7-3.5,2.2
		c-1.4,0.5-2.9,0.8-4.7,0.8c-1,0-2-0.1-3-0.3c-1-0.2-1.9-0.5-2.8-0.8c-0.9-0.4-1.7-0.8-2.5-1.3c-0.8-0.5-1.5-1.1-2.1-1.7l1.7-2.8
		c0.2-0.2,0.4-0.4,0.6-0.5c0.2-0.1,0.5-0.2,0.8-0.2c0.4,0,0.8,0.2,1.2,0.5s0.9,0.6,1.5,1c0.6,0.4,1.3,0.7,2,1
		c0.8,0.3,1.7,0.5,2.8,0.5c1.7,0,3-0.4,3.9-1.2c0.9-0.8,1.4-1.9,1.4-3.4c0-0.8-0.2-1.5-0.6-2c-0.4-0.5-1-1-1.7-1.3s-1.5-0.7-2.4-0.9
		c-0.9-0.2-1.8-0.5-2.7-0.8c-0.9-0.3-1.8-0.6-2.7-1.1c-0.9-0.4-1.7-0.9-2.4-1.6c-0.7-0.7-1.2-1.5-1.7-2.5c-0.4-1-0.6-2.2-0.6-3.7
		c0-1.2,0.2-2.3,0.7-3.4s1.1-2.1,2-2.9c0.9-0.9,2-1.5,3.3-2c1.3-0.5,2.8-0.8,4.4-0.8c1.9,0,3.6,0.3,5.2,0.9c1.6,0.6,2.9,1.4,4,2.5
		L79.2,82.7z"/>
	<path d="M102.5,97c0.2,0.5,0.4,1,0.6,1.5c0.2-0.5,0.4-1,0.6-1.6c0.2-0.5,0.5-1,0.7-1.5l9.4-17.6c0.1-0.2,0.2-0.4,0.4-0.5
		c0.1-0.1,0.3-0.2,0.4-0.3s0.3-0.1,0.5-0.1c0.2,0,0.4,0,0.7,0h4.5v31.8h-5.2V88.2c0-0.4,0-0.8,0-1.3s0.1-0.9,0.1-1.4l-9.6,18
		c-0.2,0.4-0.5,0.7-0.9,1c-0.4,0.2-0.8,0.3-1.2,0.3h-0.8c-0.5,0-0.9-0.1-1.2-0.3c-0.4-0.2-0.6-0.5-0.9-1l-9.8-18.1
		c0.1,0.5,0.1,1,0.1,1.4c0,0.5,0,0.9,0,1.3v20.5h-5.2V76.9h4.5c0.3,0,0.5,0,0.7,0c0.2,0,0.4,0.1,0.5,0.1c0.2,0.1,0.3,0.2,0.4,0.3
		c0.1,0.1,0.3,0.3,0.4,0.5l9.5,17.7C102,96,102.2,96.5,102.5,97z"/>
</g>
<g class="st1">
	<path d="M66,54.5c0,1.6-0.3,3-0.8,4.3c-0.5,1.3-1.3,2.4-2.2,3.4s-2.1,1.7-3.4,2.2c-1.3,0.5-2.8,0.8-4.4,0.8h-8.2V43.7h8.2
		c1.6,0,3.1,0.3,4.4,0.8c1.3,0.5,2.5,1.3,3.4,2.2c0.9,0.9,1.7,2.1,2.2,3.4C65.7,51.5,66,52.9,66,54.5z M61.9,54.5
		c0-1.2-0.2-2.2-0.5-3.2c-0.3-0.9-0.8-1.7-1.4-2.4c-0.6-0.6-1.3-1.1-2.1-1.5c-0.8-0.3-1.8-0.5-2.8-0.5h-4.2V62h4.2
		c1,0,2-0.2,2.8-0.5c0.8-0.3,1.5-0.8,2.1-1.5c0.6-0.6,1-1.4,1.4-2.4C61.7,56.7,61.9,55.6,61.9,54.5z"/>
	<path d="M73.2,50v9.7c0,0.9,0.2,1.7,0.6,2.2c0.4,0.5,1.1,0.8,1.9,0.8c0.6,0,1.2-0.1,1.8-0.4s1.1-0.7,1.6-1.2V50h3.7v15.2h-2.2
		c-0.5,0-0.8-0.2-0.9-0.7l-0.3-1.2c-0.3,0.3-0.6,0.6-1,0.9c-0.3,0.3-0.7,0.5-1.1,0.7s-0.8,0.3-1.2,0.4c-0.4,0.1-0.9,0.2-1.4,0.2
		c-0.8,0-1.6-0.1-2.2-0.4s-1.2-0.7-1.6-1.2c-0.4-0.5-0.8-1.1-1-1.8s-0.3-1.5-0.3-2.3V50H73.2z"/>
	<path d="M99.7,65.2H98c-0.3,0-0.6-0.1-0.8-0.2c-0.2-0.1-0.3-0.3-0.4-0.6l-0.3-1.1c-0.4,0.3-0.8,0.7-1.1,0.9
		c-0.4,0.3-0.8,0.5-1.2,0.7c-0.4,0.2-0.8,0.3-1.3,0.4c-0.4,0.1-0.9,0.1-1.5,0.1c-0.6,0-1.2-0.1-1.8-0.3s-1-0.4-1.4-0.8
		c-0.4-0.3-0.7-0.8-0.9-1.3C87.1,62.6,87,62,87,61.3c0-0.6,0.2-1.1,0.5-1.7c0.3-0.6,0.8-1.1,1.5-1.5s1.6-0.8,2.8-1.1
		s2.6-0.5,4.3-0.5v-0.9c0-1-0.2-1.8-0.6-2.3c-0.4-0.5-1.1-0.7-1.9-0.7c-0.6,0-1.1,0.1-1.5,0.2c-0.4,0.1-0.7,0.3-1,0.5
		c-0.3,0.2-0.6,0.3-0.8,0.5c-0.2,0.1-0.5,0.2-0.8,0.2c-0.2,0-0.5-0.1-0.6-0.2c-0.2-0.1-0.3-0.3-0.4-0.5l-0.7-1.2
		c1.8-1.6,3.9-2.4,6.3-2.4c0.9,0,1.7,0.1,2.4,0.4s1.3,0.7,1.8,1.2s0.9,1.1,1.1,1.9c0.3,0.7,0.4,1.5,0.4,2.4V65.2z M92.5,62.9
		c0.4,0,0.7,0,1-0.1c0.3-0.1,0.6-0.2,0.9-0.3c0.3-0.1,0.6-0.3,0.8-0.5s0.5-0.4,0.8-0.7v-2.6c-1.1,0-2,0.1-2.7,0.3
		c-0.7,0.1-1.3,0.3-1.7,0.5s-0.7,0.5-0.9,0.7c-0.2,0.3-0.3,0.6-0.3,0.9c0,0.6,0.2,1.1,0.6,1.4C91.4,62.8,91.9,62.9,92.5,62.9z"/>
	<path d="M108.1,43.1v22.1h-3.7V43.1H108.1z"/>
</g>
<path d="M152.6,85c-4.2-1-7.4-8.1-7.6-10.6c-0.2-2.4,2.9-5.5,7-6.7s6-6.8,4.2-12.4c-1.7-5.6-6.4-9.1-10.5-7.9
	c-4.1,1.2-10.5-3.3-11.9-5.3s-0.2-6.2,2.7-9.3s1.8-8.9-2.5-12.9s-10.1-4.7-13-1.6s-7,4.6-9.1,3.4c-2.1-1.3-7.1-7.3-6.2-11.5
	c1-4.1-2.9-8.6-8.6-9.9S86,1.3,85,5.5c-0.9,4.2-8.1,7.4-10.6,7.6c-2.4,0.2-5.4-2.9-6.7-7c-1.2-4.1-6.8-6-12.4-4.3s-9.1,6.4-7.9,10.5
	c1.2,4.1-3.3,10.5-5.3,11.9c-2,1.4-6.2,0.2-9.3-2.7s-8.9-1.8-12.9,2.5s-4.7,10.1-1.6,13s2.3,10.8,1.3,13s-5.3,3.2-9.4,2.3
	c-4.1-1-8.6,2.9-9.9,8.6S1.3,72,5.5,73s7.4,8.1,7.6,10.6c0.2,2.4-2.9,5.4-7,6.7c-4.1,1.3-6,6.9-4.3,12.4c1.7,5.6,6.5,9.1,10.5,7.9
	c4.1-1.3,10.5,3.3,11.9,5.3c1.4,2,0.2,6.2-2.7,9.3c-2.9,3.1-1.8,8.9,2.5,12.9s10.2,4.7,13.1,1.6c2.9-3.1,10.8-2.3,13-1.3
	s3.2,5.2,2.3,9.4c-0.9,4.1,2.9,8.6,8.6,9.9c5.7,1.3,11.1-1,12.1-5.2c0.9-4.1,8.1-7.4,10.6-7.6c2.4-0.2,5.4,2.9,6.7,7
	c1.3,4.1,6.8,6,12.4,4.3s9.1-6.4,7.9-10.5s3.3-10.5,5.3-11.9s6.2-0.2,9.3,2.7c3.1,2.9,8.9,1.8,12.9-2.5s4.7-10.1,1.6-13
	c-3.1-2.9-2.3-10.8-1.3-13s5.2-3.2,9.4-2.3c4.1,1,8.6-2.9,9.9-8.6C159,91.4,156.7,85.9,152.6,85z M121.1,121.7
	c-23.4,23.5-61.5,23.5-85,0c-23.4-23.4-23.4-61.5,0-84.9c23.5-23.5,61.5-23.5,85,0C144.6,60.2,144.6,98.3,121.1,121.7z"/>
</svg>
