<?xml version="1.0" encoding="utf-8"?>
<!-- Generator: Adobe Illustrator 22.1.0, SVG Export Plug-In . SVG Version: 6.00 Build 0)  -->
<svg version="1.1" id="Layer_1" xmlns="http://www.w3.org/2000/svg" xmlns:xlink="http://www.w3.org/1999/xlink" x="0px" y="0px"
	 viewBox="0 0 157.8 157.8" style="enable-background:new 0 0 157.8 157.8;" xml:space="preserve">
<style type="text/css">
	.st0{fill:#231F20;}
	.st1{enable-background:new    ;}
</style>
<path class="st0" d="M78.9,0C35.3,0,0,35.3,0,78.9s35.3,78.9,78.9,78.9s78.9-35.3,78.9-78.9S122.5,0,78.9,0z M78.9,148.1
	c-38.2,0-69.2-31-69.2-69.2s31-69.2,69.2-69.2s69.2,31,69.2,69.2S117.1,148.1,78.9,148.1z"/>
<g>
	<path class="st0" d="M140.9,78.9c0,33.1-26.9,60-59.9,60c-3.1,0-5.7-2.5-5.7-5.7c0-3.1,2.5-5.7,5.7-5.7c26.8,0,48.6-21.8,48.6-48.6
		c0-3.1,2.5-5.7,5.7-5.7C138.4,73.2,140.9,75.8,140.9,78.9z"/>
</g>
<g class="st1">
	<path d="M96.9,49.8v8.7H70.9v16.3h20.6v8.4H70.9v16.6h26.1v8.7H59.8V49.8H96.9z"/>
</g>
</svg>
