<?xml version="1.0" encoding="utf-8"?>
<!-- Generator: Adobe Illustrator 22.1.0, SVG Export Plug-In . SVG Version: 6.00 Build 0)  -->
<svg version="1.1" id="Layer_1" xmlns="http://www.w3.org/2000/svg" xmlns:xlink="http://www.w3.org/1999/xlink" x="0px" y="0px"
	 viewBox="0 0 157.8 157.8" style="enable-background:new 0 0 157.8 157.8;" xml:space="preserve">
<style type="text/css">
	.st0{enable-background:new    ;}
</style>
<path d="M78.9,0C35.3,0,0,35.3,0,78.9s35.3,78.9,78.9,78.9s78.9-35.3,78.9-78.9S122.5,0,78.9,0z M78.9,148.1
	c-38.2,0-69.2-31-69.2-69.2s31-69.2,69.2-69.2s69.2,31,69.2,69.2S117.1,148.1,78.9,148.1z"/>
<g class="st0">
	<path d="M84.8,101.3H78c-0.8,0-1.4-0.2-1.9-0.6c-0.5-0.4-0.8-0.9-1.1-1.4l-3.5-9.6H52.1l-3.5,9.6c-0.2,0.5-0.5,1-1,1.4
		c-0.5,0.4-1.1,0.6-1.9,0.6h-6.8l18.5-47h8.9L84.8,101.3z M54.3,83.6h15l-5.7-15.6c-0.3-0.7-0.5-1.5-0.9-2.5c-0.3-0.9-0.6-2-0.9-3.1
		c-0.3,1.1-0.6,2.1-0.9,3.1c-0.3,1-0.6,1.8-0.9,2.5L54.3,83.6z"/>
	<path d="M116.3,54.3v7H95.4v13h16.4V81H95.4v13.3h20.8v7H86.6v-47H116.3z"/>
</g>
<path d="M116.7,40.2l16.5,4.2c6.3,10,10,21.8,10,34.5c0,8.6-1.7,16.8-4.8,24.3L124,59.3L116.7,40.2z M76.2,14.6L65.4,27l39.2,7.2
	l25.2,5.3c-11.8-15.2-30.2-25-50.9-25C78,14.5,77.1,14.6,76.2,14.6z M27.8,69.3l0.4-0.8l27.2-36l0,0l14.8-17.4
	c-21,2.9-38.9,15.9-48.3,34L27.8,69.3z M130.9,92.8l-43.2,49.8c21-2.9,38.8-15.9,48.3-34L130.9,92.8z M26.4,77.6l-0.1-0.1l-7.1-22.9
	c-3.1,7.5-4.8,15.7-4.8,24.3c0,12.7,3.7,24.5,10,34.5l16.3,3.3L26.4,77.6z M81.6,143.2l11.6-13L28,118.4
	c11.8,15.2,30.2,24.9,50.8,24.9C79.8,143.2,80.7,143.2,81.6,143.2z"/>
</svg>
