<?xml version="1.0" encoding="utf-8"?>
<!-- Generator: Adobe Illustrator 22.1.0, SVG Export Plug-In . SVG Version: 6.00 Build 0)  -->
<svg version="1.1" id="Layer_1" xmlns="http://www.w3.org/2000/svg" xmlns:xlink="http://www.w3.org/1999/xlink" x="0px" y="0px"
	 viewBox="0 0 157.8 157.8" style="enable-background:new 0 0 157.8 157.8;" xml:space="preserve">
<style type="text/css">
	.st0{fill:#231F20;}
	.st1{enable-background:new    ;}
</style>
<g>
	<path class="st0" d="M78.9,0C35.3,0,0,35.3,0,78.9s35.3,78.9,78.9,78.9s78.9-35.3,78.9-78.9S122.5,0,78.9,0z M78.9,148.1
		c-38.2,0-69.2-31-69.2-69.2s31-69.2,69.2-69.2s69.2,31,69.2,69.2S117.1,148.1,78.9,148.1z"/>
	<g>
		<path class="st0" d="M78.9,138.8c-33.1,0-60-26.9-60-59.9c0-3.1,2.5-5.7,5.7-5.7s5.7,2.5,5.7,5.7c0,26.8,21.8,48.6,48.6,48.6
			c3.1,0,5.7,2.5,5.7,5.7C84.6,136.3,82,138.8,78.9,138.8z"/>
	</g>
</g>
<g class="st1">
	<path d="M80.7,53.5V61H58.3v14h17.7v7.2H58.3v14.3h22.4v7.5H48.8V53.5H80.7z"/>
	<path d="M120.8,53.5V61H98.3v15h18.9v7.5H98.3v20.6h-9.5V53.5H120.8z"/>
</g>
</svg>
