<?xml version="1.0" encoding="utf-8"?>
<!-- Generator: Adobe Illustrator 22.1.0, SVG Export Plug-In . SVG Version: 6.00 Build 0)  -->
<svg version="1.1" id="Layer_1" xmlns="http://www.w3.org/2000/svg" xmlns:xlink="http://www.w3.org/1999/xlink" x="0px" y="0px"
	 viewBox="0 0 157.8 157.8" style="enable-background:new 0 0 157.8 157.8;" xml:space="preserve">
<style type="text/css">
	.st0{fill-rule:evenodd;clip-rule:evenodd;}
	.st1{fill:none;stroke:#000000;stroke-width:4;stroke-linejoin:round;stroke-miterlimit:10;}
	.st2{fill:none;stroke:#000000;stroke-width:4;stroke-linecap:round;stroke-linejoin:round;stroke-miterlimit:10;}
</style>
<path d="M78.9,0C35.3,0,0,35.3,0,78.9c0,43.6,35.3,78.9,78.9,78.9c43.6,0,78.9-35.3,78.9-78.9C157.8,35.3,122.5,0,78.9,0z
	 M78.9,148.1c-38.2,0-69.2-31-69.2-69.2c0-38.2,31-69.2,69.2-69.2s69.2,31,69.2,69.2C148.1,117.1,117.1,148.1,78.9,148.1z"/>
<g>
	<path class="st0" d="M77.4,14.3c31.9-0.5,60,22.6,64.9,55c0.6,4.2,0.8,8.4,0.7,12.4C135.7,47.8,109.6,22.2,77.4,14.3z"/>
	<path class="st0" d="M86.6,143.1c-31.3,4-60.4-15.1-69.8-44.4C30.7,124.2,57,141.3,86.6,143.1z"/>
</g>
<g>
	<path class="st1" d="M45.4,69.1c10-5,21.3-6.2,32.4-4.3c-0.9,3-3.8,5.6-4.7,6.5"/>
	<path class="st1" d="M64,90.4c1,2.6,1.3,4.8,1.5,7.2c-5-1.2-15.7-6.6-21.5-18.6"/>
	<path class="st1" d="M89,93c2.6,1.4,6,4.6,6.4,6.9c-2,1.8-17.2,1.4-30.9-5.6"/>
	<path class="st1" d="M75.4,69.1c25.5-5.1,18.2,6.1,45,16.2c-6.9,6.4-13.9,12.4-27.1,12.3"/>
	<path class="st2" d="M92.7,83.1C78.6,82.6,47.9,78.6,31,67.4"/>
</g>
</svg>
