<?xml version="1.0" encoding="utf-8"?>
<!-- Generator: Adobe Illustrator 22.1.0, SVG Export Plug-In . SVG Version: 6.00 Build 0)  -->
<svg version="1.1" id="Layer_1" xmlns="http://www.w3.org/2000/svg" xmlns:xlink="http://www.w3.org/1999/xlink" x="0px" y="0px"
	 viewBox="0 0 157.8 157.8" style="enable-background:new 0 0 157.8 157.8;" xml:space="preserve">
<style type="text/css">
	.st0{enable-background:new    ;}
</style>
<g class="st0">
	<path d="M36.2,60.1c0.2,0,0.4,0.1,0.6,0.2s0.3,0.2,0.5,0.3s0.3,0.4,0.5,0.6l20.3,25.8c-0.1-0.6-0.1-1.2-0.1-1.8c0-0.6,0-1.2,0-1.7
		V60.1h6.3v38.6h-3.7c-0.6,0-1-0.1-1.4-0.3s-0.7-0.5-1.1-1L37.8,71.8c0.1,0.6,0.1,1.1,0.1,1.7s0,1.1,0,1.5v23.7h-6.3V60.1h3.7
		C35.8,60.1,36,60.1,36.2,60.1z"/>
	<path d="M98.6,89.6c0.4,0,0.7,0.2,1,0.5l2.8,3.1c-1.6,1.9-3.5,3.4-5.8,4.5c-2.3,1-5,1.5-8.2,1.5c-2.9,0-5.4-0.5-7.7-1.5
		c-2.3-1-4.2-2.3-5.9-4.1c-1.6-1.7-2.9-3.8-3.7-6.2c-0.9-2.4-1.3-5.1-1.3-7.9c0-2.9,0.5-5.6,1.4-8c1-2.4,2.3-4.5,4.1-6.2
		c1.7-1.7,3.8-3.1,6.3-4.1s5.1-1.5,8-1.5c2.9,0,5.4,0.5,7.5,1.4c2.1,0.9,4,2.1,5.5,3.6l-2.4,3.3c-0.1,0.2-0.3,0.4-0.5,0.6
		s-0.5,0.2-0.9,0.2c-0.4,0-0.8-0.2-1.3-0.5s-1-0.7-1.6-1c-0.7-0.4-1.5-0.7-2.5-1c-1-0.3-2.3-0.5-3.8-0.5c-1.8,0-3.5,0.3-5,0.9
		c-1.5,0.6-2.8,1.5-3.9,2.7c-1.1,1.2-1.9,2.6-2.6,4.3s-0.9,3.6-0.9,5.7c0,2.2,0.3,4.1,0.9,5.8s1.4,3.1,2.5,4.3c1,1.2,2.3,2,3.7,2.7
		c1.4,0.6,3,0.9,4.6,0.9c1,0,1.9-0.1,2.7-0.2s1.5-0.3,2.2-0.5c0.7-0.2,1.3-0.5,1.9-0.9c0.6-0.4,1.2-0.8,1.8-1.3
		c0.2-0.2,0.4-0.3,0.6-0.4C98.1,89.6,98.3,89.6,98.6,89.6z"/>
	<path d="M128.5,67.1c-0.2,0.4-0.4,0.7-0.7,0.8s-0.6,0.2-0.9,0.2c-0.4,0-0.8-0.1-1.2-0.4c-0.4-0.3-1-0.6-1.6-0.9s-1.3-0.6-2.1-0.9
		c-0.8-0.3-1.8-0.4-2.9-0.4c-1,0-1.9,0.1-2.6,0.4s-1.4,0.6-1.9,1s-0.9,0.9-1.1,1.5c-0.2,0.6-0.4,1.3-0.4,2c0,0.9,0.3,1.7,0.8,2.3
		c0.5,0.6,1.2,1.1,2,1.5c0.8,0.4,1.8,0.8,2.9,1.1c1.1,0.3,2.2,0.7,3.3,1.1c1.1,0.4,2.2,0.8,3.3,1.3s2,1.1,2.9,1.9
		c0.8,0.8,1.5,1.7,2,2.8s0.8,2.5,0.8,4.1c0,1.7-0.3,3.4-0.9,4.9c-0.6,1.5-1.5,2.8-2.6,4s-2.5,2-4.2,2.7c-1.7,0.6-3.5,1-5.7,1
		c-1.2,0-2.4-0.1-3.6-0.4s-2.3-0.6-3.4-1c-1.1-0.4-2.1-1-3.1-1.6c-1-0.6-1.8-1.3-2.5-2.1l2.1-3.4c0.2-0.2,0.4-0.5,0.7-0.6
		c0.3-0.2,0.6-0.3,0.9-0.3c0.4,0,0.9,0.2,1.4,0.5c0.5,0.4,1.1,0.8,1.8,1.2c0.7,0.4,1.5,0.8,2.5,1.2c1,0.4,2.1,0.5,3.4,0.5
		c2,0,3.6-0.5,4.8-1.5c1.1-1,1.7-2.4,1.7-4.2c0-1-0.3-1.8-0.8-2.5c-0.5-0.6-1.2-1.2-2-1.6c-0.8-0.4-1.8-0.8-2.9-1.1s-2.2-0.6-3.3-1
		c-1.1-0.4-2.2-0.8-3.3-1.3s-2-1.1-2.9-1.9c-0.8-0.8-1.5-1.8-2-3c-0.5-1.2-0.8-2.7-0.8-4.4c0-1.4,0.3-2.8,0.8-4.1
		c0.6-1.3,1.4-2.5,2.5-3.5c1.1-1,2.4-1.9,4-2.5s3.4-0.9,5.4-0.9c2.3,0,4.4,0.4,6.3,1.1c1.9,0.7,3.6,1.7,4.9,3L128.5,67.1z"/>
</g>
<path d="M78.9,0C35.3,0,0,35.3,0,78.9s35.3,78.9,78.9,78.9s78.9-35.3,78.9-78.9S122.5,0,78.9,0z M78.9,148.1
	c-38.2,0-69.2-31-69.2-69.2s31-69.2,69.2-69.2s69.2,31,69.2,69.2S117.1,148.1,78.9,148.1z"/>
<g>
	<path d="M144.6,76.4c0.5,31.9-22.6,60-55,64.9c-4.2,0.6-8.4,0.8-12.4,0.7C111,134.7,136.7,108.6,144.6,76.4z"/>
	<path d="M15.8,85.6c-4-31.3,15.1-60.4,44.4-69.8C34.6,29.7,17.5,56,15.8,85.6z"/>
</g>
</svg>
