<?xml version="1.0" encoding="utf-8"?>
<!-- Generator: Adobe Illustrator 22.1.0, SVG Export Plug-In . SVG Version: 6.00 Build 0)  -->
<svg version="1.1" id="Layer_1" xmlns="http://www.w3.org/2000/svg" xmlns:xlink="http://www.w3.org/1999/xlink" x="0px" y="0px"
	 viewBox="0 0 157.8 157.8" style="enable-background:new 0 0 157.8 157.8;" xml:space="preserve">
<style type="text/css">
	.st0{fill-rule:evenodd;clip-rule:evenodd;}
	.st1{fill-rule:evenodd;clip-rule:evenodd;fill:#231F20;}
	.st2{fill-rule:evenodd;clip-rule:evenodd;fill:#FFFFFF;}
</style>
<path d="M78.9,0C35.3,0,0,35.3,0,78.9c0,43.6,35.3,78.9,78.9,78.9c43.6,0,78.9-35.3,78.9-78.9C157.8,35.3,122.5,0,78.9,0z
	 M78.9,148.1c-38.2,0-69.2-31-69.2-69.2c0-38.2,31-69.2,69.2-69.2s69.2,31,69.2,69.2C148.1,117.1,117.1,148.1,78.9,148.1z"/>
<path class="st0" d="M79.9,142.7c-17.4,0-33.1-7-44.5-18.4C24,112.9,16.9,97.2,16.9,79.8c0-17.4,7.1-33.1,18.4-44.5
	c11.4-11.4,27.1-18.4,44.5-18.4c17.4,0,33.1,7,44.5,18.4c11.4,11.4,18.4,27.1,18.4,44.5c0,17.4-7.1,33.1-18.4,44.5
	C113,135.7,97.3,142.7,79.9,142.7L79.9,142.7z M37.5,122.1L37.5,122.1c10.8,10.8,25.8,17.5,42.3,17.5c16.5,0,31.5-6.7,42.4-17.5
	c10.8-10.8,17.5-25.8,17.5-42.3c0-16.5-6.7-31.5-17.5-42.4c-10.8-10.8-25.8-17.5-42.4-17.5c-16.5,0-31.5,6.7-42.3,17.5
	C26.7,48.3,20,63.2,20,79.8C20,96.3,26.7,111.3,37.5,122.1z"/>
<path class="st0" d="M79.9,105.3c-14.1,0-25.5-11.4-25.5-25.5c0-14.1,11.4-25.5,25.5-25.5c14.1,0,25.5,11.4,25.5,25.5
	C105.4,93.9,94,105.3,79.9,105.3z"/>
<path class="st1" d="M123.7,65.3c-1.2-2.2-0.8-4.8,1-5.8c1.8-1,4.2,0.1,5.4,2.3c1.2,2.2,0.8,4.8-1,5.8
	C127.3,68.6,124.9,67.6,123.7,65.3z"/>
<path class="st0" d="M102.8,56.9c-7-5.3-9.8-13.4-6.3-18.1c3.5-4.7,12.1-4.1,19.1,1.2c7,5.3,9.8,13.4,6.3,18.1
	C118.4,62.7,109.8,62.2,102.8,56.9z"/>
<path class="st0" d="M79.9,131.1c-28.4,0-51.3-23-51.3-51.3c0-4.7,0.6-9.2,1.8-13.5c1.7,34.1,29.1,61.5,63.2,63
	C89.2,130.5,84.6,131.1,79.9,131.1z"/>
<path class="st2" d="M91.9,72.4c-1.2-2.2-0.8-4.8,1-5.8c1.8-1,4.2,0.1,5.4,2.3c1.2,2.2,0.8,4.8-1,5.8C95.5,75.7,93.1,74.6,91.9,72.4
	z"/>
</svg>
