<?xml version="1.0" encoding="utf-8"?>
<!-- Generator: Adobe Illustrator 22.1.0, SVG Export Plug-In . SVG Version: 6.00 Build 0)  -->
<svg version="1.1" id="Layer_1" xmlns="http://www.w3.org/2000/svg" xmlns:xlink="http://www.w3.org/1999/xlink" x="0px" y="0px"
	 viewBox="0 0 158.1 158.1" style="enable-background:new 0 0 158.1 158.1;" xml:space="preserve">
<style type="text/css">
	.st0{enable-background:new    ;}
</style>
<g class="st0">
	<path d="M37.8,92.9h15.5v5.9H30.6V60.3h7.2V92.9z"/>
	<path d="M78.9,67.3c-0.2,0.4-0.4,0.7-0.7,0.8s-0.6,0.2-0.9,0.2c-0.4,0-0.8-0.1-1.2-0.4c-0.4-0.3-1-0.6-1.6-0.9
		c-0.6-0.3-1.3-0.6-2.1-0.9c-0.8-0.3-1.8-0.4-2.9-0.4c-1,0-1.9,0.1-2.6,0.4c-0.7,0.2-1.4,0.6-1.9,1c-0.5,0.4-0.9,0.9-1.1,1.5
		c-0.2,0.6-0.4,1.3-0.4,2c0,0.9,0.3,1.7,0.8,2.3c0.5,0.6,1.2,1.1,2,1.5c0.8,0.4,1.8,0.8,2.9,1.1c1.1,0.3,2.2,0.7,3.3,1.1
		c1.1,0.4,2.2,0.8,3.3,1.3c1.1,0.5,2,1.1,2.9,1.9c0.8,0.8,1.5,1.7,2,2.8s0.8,2.5,0.8,4.1c0,1.7-0.3,3.4-0.9,4.9
		c-0.6,1.5-1.5,2.8-2.6,4c-1.1,1.1-2.5,2-4.2,2.7s-3.5,1-5.7,1c-1.2,0-2.4-0.1-3.6-0.4c-1.2-0.2-2.3-0.6-3.4-1
		c-1.1-0.4-2.1-1-3.1-1.6c-1-0.6-1.8-1.3-2.5-2.1l2.1-3.4c0.2-0.2,0.4-0.5,0.7-0.6c0.3-0.2,0.6-0.3,0.9-0.3c0.4,0,0.9,0.2,1.4,0.5
		c0.5,0.4,1.1,0.8,1.8,1.2c0.7,0.4,1.5,0.8,2.5,1.2c1,0.4,2.1,0.5,3.4,0.5c2,0,3.6-0.5,4.8-1.5c1.1-1,1.7-2.4,1.7-4.2
		c0-1-0.3-1.8-0.8-2.5c-0.5-0.6-1.2-1.2-2-1.6c-0.8-0.4-1.8-0.8-2.9-1.1s-2.2-0.6-3.3-1c-1.1-0.4-2.2-0.8-3.3-1.3
		c-1.1-0.5-2-1.1-2.9-1.9c-0.8-0.8-1.5-1.8-2-3c-0.5-1.2-0.8-2.7-0.8-4.4c0-1.4,0.3-2.8,0.8-4.1c0.6-1.3,1.4-2.5,2.5-3.5
		c1.1-1,2.4-1.9,4-2.5c1.6-0.6,3.4-0.9,5.4-0.9c2.3,0,4.4,0.4,6.3,1.1c1.9,0.7,3.6,1.7,4.9,3L78.9,67.3z"/>
	<path d="M107.1,84.6c0.3,0.6,0.5,1.2,0.8,1.9c0.2-0.6,0.5-1.3,0.8-1.9s0.6-1.2,0.9-1.8l11.4-21.4c0.1-0.3,0.3-0.5,0.4-0.6
		c0.2-0.2,0.3-0.3,0.5-0.3c0.2-0.1,0.4-0.1,0.6-0.1s0.5,0,0.8,0h5.4v38.6h-6.3V73.9c0-0.5,0-1,0-1.5c0-0.6,0.1-1.1,0.1-1.7
		l-11.7,21.9c-0.3,0.5-0.6,0.9-1,1.2c-0.4,0.3-0.9,0.4-1.5,0.4h-1c-0.6,0-1.1-0.1-1.5-0.4c-0.4-0.3-0.8-0.7-1-1.2L93,70.6
		c0.1,0.6,0.1,1.2,0.1,1.7c0,0.6,0,1.1,0,1.6v24.9h-6.3V60.3h5.4c0.3,0,0.6,0,0.8,0c0.2,0,0.4,0.1,0.6,0.1c0.2,0.1,0.4,0.2,0.5,0.3
		s0.3,0.4,0.5,0.6l11.5,21.4C106.6,83.4,106.8,84,107.1,84.6z"/>
</g>
<path d="M152.6,85c-4.2-1-7.4-8.1-7.6-10.6c-0.2-2.4,2.9-5.5,7-6.7s6-6.8,4.2-12.4c-1.7-5.6-6.4-9.1-10.5-7.9
	c-4.1,1.2-10.5-3.3-11.9-5.3s-0.2-6.2,2.7-9.3s1.8-8.9-2.5-12.9s-10.1-4.7-13-1.6s-7,4.6-9.1,3.4c-2.1-1.3-7.1-7.3-6.2-11.5
	c1-4.1-2.9-8.6-8.6-9.9S86,1.3,85,5.5c-0.9,4.2-8.1,7.4-10.6,7.6c-2.4,0.2-5.4-2.9-6.7-7c-1.2-4.1-6.8-6-12.4-4.3s-9.1,6.4-7.9,10.5
	c1.2,4.1-3.3,10.5-5.3,11.9c-2,1.4-6.2,0.2-9.3-2.7s-8.9-1.8-12.9,2.5s-4.7,10.1-1.6,13s2.3,10.8,1.3,13s-5.3,3.2-9.4,2.3
	c-4.1-1-8.6,2.9-9.9,8.6S1.3,72,5.5,73s7.4,8.1,7.6,10.6c0.2,2.4-2.9,5.4-7,6.7c-4.1,1.3-6,6.9-4.3,12.4c1.7,5.6,6.5,9.1,10.5,7.9
	c4.1-1.3,10.5,3.3,11.9,5.3c1.4,2,0.2,6.2-2.7,9.3c-2.9,3.1-1.8,8.9,2.5,12.9s10.2,4.7,13.1,1.6c2.9-3.1,10.8-2.3,13-1.3
	s3.2,5.2,2.3,9.4c-0.9,4.1,2.9,8.6,8.6,9.9c5.7,1.3,11.1-1,12.1-5.2c0.9-4.1,8.1-7.4,10.6-7.6c2.4-0.2,5.4,2.9,6.7,7
	c1.3,4.1,6.8,6,12.4,4.3s9.1-6.4,7.9-10.5s3.3-10.5,5.3-11.9s6.2-0.2,9.3,2.7c3.1,2.9,8.9,1.8,12.9-2.5s4.7-10.1,1.6-13
	c-3.1-2.9-2.3-10.8-1.3-13s5.2-3.2,9.4-2.3c4.1,1,8.6-2.9,9.9-8.6C159,91.4,156.7,85.9,152.6,85z M121.1,121.7
	c-23.4,23.5-61.5,23.5-85,0c-23.4-23.4-23.4-61.5,0-84.9c23.5-23.5,61.5-23.5,85,0C144.6,60.2,144.6,98.3,121.1,121.7z"/>
</svg>
