<?xml version="1.0" encoding="utf-8"?>
<!-- Generator: Adobe Illustrator 22.1.0, SVG Export Plug-In . SVG Version: 6.00 Build 0)  -->
<svg version="1.1" id="Layer_1" xmlns="http://www.w3.org/2000/svg" xmlns:xlink="http://www.w3.org/1999/xlink" x="0px" y="0px"
	 viewBox="0 0 157.8 157.8" style="enable-background:new 0 0 157.8 157.8;" xml:space="preserve">
<style type="text/css">
	.st0{enable-background:new    ;}
</style>
<g class="st0">
	<path d="M36.2,92.9c1.4,0,2.6-0.2,3.7-0.7s2-1.1,2.8-1.9s1.3-1.9,1.7-3c0.4-1.2,0.6-2.5,0.6-4V60.1h7.2v23.1c0,2.3-0.4,4.4-1.1,6.4
		s-1.8,3.6-3.2,5c-1.4,1.4-3.1,2.5-5,3.3c-2,0.8-4.2,1.2-6.7,1.2c-2.5,0-4.7-0.4-6.7-1.2c-2-0.8-3.7-1.9-5-3.3
		c-1.4-1.4-2.4-3.1-3.2-5s-1.1-4.1-1.1-6.4V60.1h7.2v23.1c0,1.5,0.2,2.8,0.6,4s1,2.2,1.7,3.1c0.7,0.8,1.7,1.5,2.8,2
		S34.8,92.9,36.2,92.9z"/>
	<path d="M77.8,84.5c0.3,0.6,0.5,1.2,0.8,1.9c0.2-0.6,0.5-1.3,0.8-1.9c0.3-0.6,0.6-1.2,0.9-1.8l11.4-21.4c0.1-0.3,0.3-0.5,0.4-0.6
		s0.3-0.3,0.5-0.3c0.2-0.1,0.4-0.1,0.6-0.1c0.2,0,0.5,0,0.8,0h5.4v38.6h-6.3V73.8c0-0.5,0-1,0-1.5c0-0.6,0.1-1.1,0.1-1.7L81.6,92.5
		c-0.3,0.5-0.6,0.9-1,1.2c-0.4,0.3-0.9,0.4-1.5,0.4h-1c-0.6,0-1.1-0.1-1.5-0.4c-0.4-0.3-0.8-0.7-1-1.2l-11.8-22
		c0.1,0.6,0.1,1.2,0.1,1.7s0,1.1,0,1.6v24.9h-6.3V60.1H63c0.3,0,0.6,0,0.8,0c0.2,0,0.4,0.1,0.6,0.1c0.2,0.1,0.4,0.2,0.5,0.3
		s0.3,0.4,0.5,0.6L77,82.7C77.3,83.3,77.5,83.8,77.8,84.5z"/>
	<path d="M131.8,89.6c0.4,0,0.7,0.2,1,0.5l2.8,3.1c-1.6,1.9-3.5,3.4-5.8,4.5c-2.3,1-5,1.5-8.2,1.5c-2.9,0-5.4-0.5-7.7-1.5
		s-4.2-2.3-5.9-4.1s-2.9-3.8-3.7-6.2c-0.9-2.4-1.3-5.1-1.3-7.9c0-2.9,0.5-5.6,1.4-8s2.3-4.5,4.1-6.2c1.7-1.7,3.8-3.1,6.3-4.1
		s5.1-1.5,8-1.5c2.9,0,5.4,0.5,7.5,1.4c2.1,0.9,4,2.1,5.5,3.6l-2.4,3.3c-0.1,0.2-0.3,0.4-0.5,0.6c-0.2,0.2-0.5,0.2-0.9,0.2
		c-0.4,0-0.8-0.2-1.3-0.5c-0.4-0.3-1-0.7-1.6-1c-0.7-0.4-1.5-0.7-2.5-1c-1-0.3-2.3-0.5-3.8-0.5c-1.8,0-3.5,0.3-5,0.9
		s-2.8,1.5-3.9,2.7c-1.1,1.2-1.9,2.6-2.6,4.3c-0.6,1.7-0.9,3.6-0.9,5.7c0,2.2,0.3,4.1,0.9,5.8c0.6,1.7,1.4,3.1,2.5,4.3
		c1,1.2,2.3,2,3.7,2.7c1.4,0.6,3,0.9,4.6,0.9c1,0,1.9-0.1,2.7-0.2c0.8-0.1,1.5-0.3,2.2-0.5s1.3-0.5,1.9-0.9c0.6-0.4,1.2-0.8,1.8-1.3
		c0.2-0.2,0.4-0.3,0.6-0.4C131.3,89.6,131.5,89.6,131.8,89.6z"/>
</g>
<path d="M78.9,0C35.3,0,0,35.3,0,78.9s35.3,78.9,78.9,78.9s78.9-35.3,78.9-78.9S122.5,0,78.9,0z M78.9,148.1
	c-38.2,0-69.2-31-69.2-69.2s31-69.2,69.2-69.2s69.2,31,69.2,69.2S117.1,148.1,78.9,148.1z"/>
<g>
	<path d="M77.4,14.3c31.9-0.5,60,22.6,64.9,55c0.6,4.2,0.8,8.4,0.7,12.4C135.7,47.8,109.6,22.2,77.4,14.3z"/>
	<path d="M86.6,143.1c-31.3,4-60.4-15.1-69.8-44.4C30.7,124.2,57,141.3,86.6,143.1z"/>
</g>
</svg>
