<?xml version="1.0" encoding="utf-8"?>
<!-- Generator: Adobe Illustrator 22.1.0, SVG Export Plug-In . SVG Version: 6.00 Build 0)  -->
<svg version="1.1" id="Layer_1" xmlns="http://www.w3.org/2000/svg" xmlns:xlink="http://www.w3.org/1999/xlink" x="0px" y="0px"
	 viewBox="0 0 157.8 157.8" style="enable-background:new 0 0 157.8 157.8;" xml:space="preserve">
<style type="text/css">
	.st0{fill:#231F20;}
	.st1{enable-background:new    ;}
</style>
<path class="st0" d="M78.9,0C35.3,0,0,35.3,0,78.9s35.3,78.9,78.9,78.9s78.9-35.3,78.9-78.9S122.5,0,78.9,0z M78.9,148.1
	c-38.2,0-69.2-31-69.2-69.2s31-69.2,69.2-69.2s69.2,31,69.2,69.2S117.1,148.1,78.9,148.1z"/>
<path class="st0" d="M97.9,139.8c0,9.1-7.4,16.4-16.4,16.4c-9.1,0-16.4-7.4-16.4-16.4c0-9.1,7.4-16.4,16.4-16.4
	S97.9,130.8,97.9,139.8z"/>
<g class="st1">
	<path d="M48.2,83.5c0.3,0.6,0.5,1.2,0.8,1.9c0.2-0.6,0.5-1.3,0.8-1.9c0.3-0.6,0.6-1.2,0.9-1.8L62,60.3c0.1-0.3,0.3-0.5,0.4-0.6
		c0.2-0.2,0.3-0.3,0.5-0.3c0.2-0.1,0.4-0.1,0.6-0.1c0.2,0,0.5,0,0.8,0h5.4v38.6h-6.3V72.8c0-0.5,0-1,0-1.5c0-0.6,0.1-1.1,0.1-1.7
		L52,91.4c-0.3,0.5-0.6,0.9-1,1.2c-0.4,0.3-0.9,0.4-1.5,0.4h-1c-0.6,0-1.1-0.1-1.5-0.4c-0.4-0.3-0.8-0.7-1-1.2l-11.8-22
		c0.1,0.6,0.1,1.2,0.1,1.7s0,1.1,0,1.6v24.9H28V59.1h5.4c0.3,0,0.6,0,0.8,0c0.2,0,0.4,0.1,0.6,0.1c0.2,0.1,0.4,0.2,0.5,0.3
		c0.2,0.2,0.3,0.4,0.5,0.6l11.5,21.4C47.7,82.2,48,82.8,48.2,83.5z"/>
	<path d="M102,59.1v5.7H84.9v11.4h14.4V82H84.9v15.7h-7.2V59.1H102z"/>
	<path d="M134.8,59.1V65h-11.6v32.7H116V65h-11.7v-5.9H134.8z"/>
</g>
</svg>
