<?xml version="1.0" encoding="utf-8"?>
<!-- Generator: Adobe Illustrator 22.1.0, SVG Export Plug-In . SVG Version: 6.00 Build 0)  -->
<svg version="1.1" id="Layer_1" xmlns="http://www.w3.org/2000/svg" xmlns:xlink="http://www.w3.org/1999/xlink" x="0px" y="0px"
	 viewBox="0 0 251.8 28.5" style="enable-background:new 0 0 251.8 28.5;" xml:space="preserve">
<style type="text/css">
	.st0{fill:#D7133F;}
	.st1{fill:#8C9091;}
</style>
<path class="st0" d="M157.3,14c0,8,6.5,14.5,14.6,14.5c7.8,0,13.6-5.2,13.8-12.4l0.1-2.6H172v5.1h7.9c-1.2,2.9-4.1,4.7-8,4.7
	c-5.2,0-9.4-4.2-9.4-9.3c0-5,4.1-8.9,9.4-8.9c3.7,0,5.9,1.5,8.1,3.6l3.7-3.6c-2.4-2.4-5.9-5.1-11.8-5.1
	C163.7-0.1,157.3,6.1,157.3,14"/>
<polygon class="st0" points="80.8,0.6 86.4,0.6 93.3,12.8 100.2,0.6 105.7,0.6 95.9,18.4 95.9,27.8 90.6,27.8 90.6,18.4 "/>
<path class="st0" d="M128.8,27.8L118.2,0.6h-5.3l-10.6,27.2h5.4l1.7-4.3c3.5-3.2,8.8-3.2,12.2,0l1.7,4.3H128.8z M111.9,17.2l3.7-9.3
	l3.6,9.3C116.8,16.5,114.3,16.5,111.9,17.2"/>
<path class="st0" d="M47.1,27.8L36.5,0.6h-5.3L20.6,27.8h5.4l1.7-4.3c3.5-3.2,8.8-3.2,12.2,0l1.7,4.3H47.1z M30.3,17.2l3.7-9.3
	l3.6,9.3C35.2,16.5,32.6,16.5,30.3,17.2"/>
<path class="st0" d="M15.6,6.5c-1.1-1.5-3-2.1-4.9-2.1c-2.3,0-4.6,1-4.6,3.5c0,5.4,13.2,2.3,13.2,12c0,5.8-4.7,8.7-10.2,8.7
	c-3.5,0-6.9-1-9.1-3.7l3.7-3.5C5,23.1,7,24.2,9.3,24.2c2.3,0,4.9-1.2,4.9-3.7c0-5.9-13.2-2.5-13.2-12.2C0.9,2.6,6,0,11.2,0
	c2.9,0,5.8,0.8,8,2.8L15.6,6.5z"/>
<path class="st0" d="M153.5,0.6h-5.2v17.9L137.5,2.2c-0.7-1-1.3-1.6-2.6-1.6h-3.5v27.2h5.2V10l11.8,17.8h5V0.6z"/>
<path class="st0" d="M76.6,0.6h-3c-1.4,0-2.2,0.4-2.6,1.6l-5.9,17.4L59.3,2.2c-0.4-1.2-1.2-1.6-2.6-1.6h-3l-4.8,27.2H54l3-17.2
	l5.8,17.2h4.6l5.8-17.2l2.9,17.2h5.1L76.6,0.6z"/>
<polygon class="st1" points="221.5,0.7 210.9,0.7 209.3,2.4 220,2.4 "/>
<polygon class="st1" points="211.8,10.9 201.1,10.9 199.5,12.5 210.2,12.5 "/>
<polygon class="st1" points="203.2,19.9 203.4,20.1 215.2,20.1 213.8,18.5 193.8,18.5 192.2,20.1 202.9,20.1 "/>
<polygon class="st1" points="211.5,15.9 196.2,15.9 194.6,17.6 212.9,17.6 "/>
<polygon class="st1" points="204.4,7.4 215.1,7.4 216.7,5.8 206,5.8 "/>
<polygon class="st1" points="205.7,22.7 217.5,22.7 216,21 204.2,21 "/>
<polygon class="st1" points="217.5,4.9 219.1,3.3 208.5,3.3 206.9,4.9 "/>
<polygon class="st1" points="184.9,27.7 195.6,27.7 197.2,26.1 186.4,26.1 "/>
<polygon class="st1" points="203.6,8.3 202,10 212.7,10 214.2,8.3 "/>
<polygon class="st1" points="206.5,23.5 208,25.2 219.8,25.2 218.3,23.5 "/>
<polygon class="st1" points="209.3,13.5 209.4,13.4 198.7,13.4 197.1,15 210.6,15 "/>
<polygon class="st1" points="202.1,21 191.3,21 189.8,22.7 200.5,22.7 "/>
<polygon class="st1" points="199.7,23.5 188.9,23.5 187.3,25.2 198.1,25.2 "/>
<polygon class="st1" points="210.3,27.7 222.1,27.7 220.6,26.1 208.8,26.1 "/>
<polygon class="st1" points="200.4,8.3 192.7,8.3 194.2,10 198.9,10 "/>
<polygon class="st1" points="200,3.3 188.1,3.3 189.6,4.9 201.5,4.9 "/>
<polygon class="st1" points="202.6,6.1 202.3,5.8 190.4,5.8 191.9,7.4 201.3,7.4 "/>
<polygon class="st1" points="197.7,0.7 185.8,0.7 187.3,2.4 199.2,2.4 "/>
<polygon class="st1" points="196.5,12.5 198,10.9 195,10.9 "/>
<path class="st1" d="M223,3.3v1.6h27.6c-0.4-0.6-0.9-1.2-1.5-1.6H223z"/>
<rect x="223" y="18.5" class="st1" width="9.2" height="1.6"/>
<path class="st1" d="M238.3,0.7H223v1.6h24.7C245.3,1.2,242.1,0.7,238.3,0.7"/>
<rect x="223" y="8.3" class="st1" width="9.2" height="1.6"/>
<rect x="223" y="10.9" class="st1" width="9.2" height="1.6"/>
<rect x="223" y="21" class="st1" width="9.2" height="1.6"/>
<rect x="223" y="26.1" class="st1" width="9.2" height="1.6"/>
<path class="st1" d="M239.4,12.5h11.9c0.2-0.5,0.3-1.1,0.4-1.6h-9.9C241.3,11.6,240.6,12.2,239.4,12.5"/>
<path class="st1" d="M242.1,9.4c0,0.2,0,0.4-0.1,0.6h9.7c0-0.2,0-0.4,0-0.6c0-0.4,0-0.7-0.1-1.1h-9.8C242,8.7,242.1,9,242.1,9.4"/>
<rect x="223" y="5.8" class="st1" width="9.2" height="1.6"/>
<path class="st1" d="M251.1,5.8h-14c2.2,0.1,3.5,0.8,4.3,1.6h10.2C251.5,6.8,251.3,6.3,251.1,5.8"/>
<rect x="223" y="23.5" class="st1" width="9.2" height="1.6"/>
<path class="st1" d="M218.2,15h31.4c0.5-0.5,0.9-1,1.2-1.6h-31.1L218.2,15z"/>
<path class="st1" d="M215.8,17.6h28.3c1.7-0.3,3.2-0.9,4.4-1.6h-31.1L215.8,17.6z"/>
</svg>
