<?xml version="1.0" encoding="utf-8"?>
<!-- Generator: Adobe Illustrator 22.1.0, SVG Export Plug-In . SVG Version: 6.00 Build 0)  -->
<svg version="1.1" id="Layer_1" xmlns="http://www.w3.org/2000/svg" xmlns:xlink="http://www.w3.org/1999/xlink" x="0px" y="0px"
	 viewBox="0 0 148.6 148.5" style="enable-background:new 0 0 148.6 148.5;" xml:space="preserve">
<g>
	<path d="M97.4,79.9l49.5-21.2c-3.4-15.8-11.8-29.8-23.5-40.1l-24,49.9L97.4,79.9z"/>
	<path d="M87.4,93.2l52.7,15.5c5.4-10.3,8.5-22,8.5-34.5c0-3.8-0.3-7.4-0.8-11L96.4,85.6L87.4,93.2z"/>
	<polygon points="65.6,96.9 65.6,96.9 65.7,97 	"/>
	<path d="M71.4,96.9l31.5,46c14.5-6,26.6-16.6,34.8-29.8L83,96.9H71.4z"/>
	<path d="M65.7,97.1l-0.2-0.2l-9.1-7.6l-4.3,55.9c7,2.2,14.4,3.4,22.1,3.4c8.3,0,16.2-1.4,23.7-3.9L65.7,97.1L65.7,97.1z"/>
	<polygon points="65.7,97 65.6,96.9 65.7,97.1 	"/>
	<path d="M50.3,74.7l-37.8,40.8c8.4,12.6,20.5,22.4,34.8,28l5-57.8L50.3,74.7z"/>
	<path d="M54.5,59.2l-54,6.8C0.2,68.7,0,71.4,0,74.2c0,12.9,3.3,25.1,9.1,35.7l40-41.5L54.5,59.2z"/>
	<path d="M96.6,63.6l22.2-48.8C106.8,5.8,92.1,0.4,76,0l14.7,53.3L96.6,63.6z"/>
	<path d="M85.9,51.6L71.4,0C54.9,0.6,39.8,6.6,27.8,16.3l46.5,31.1L85.9,51.6z"/>
	<path d="M67.7,49.8L23.6,19.9C12.5,30.4,4.5,44.2,1.4,59.7l56.5-6.4L67.7,49.8z"/>
</g>
</svg>
