<?xml version="1.0" encoding="utf-8"?>
<!-- Generator: Adobe Illustrator 22.1.0, SVG Export Plug-In . SVG Version: 6.00 Build 0)  -->
<svg version="1.1" id="Layer_1" xmlns="http://www.w3.org/2000/svg" xmlns:xlink="http://www.w3.org/1999/xlink" x="0px" y="0px"
	 viewBox="0 0 393.6 71.1" style="enable-background:new 0 0 393.6 71.1;" xml:space="preserve">
<style type="text/css">
	.st0{fill:#C40D3C;}
	.st1{clip-path:url(#SVGID_2_);fill:url(#SVGID_3_);}
</style>
<path class="st0" d="M297.7,26.8c0,15.2,12.4,27.6,27.6,27.6c14.7,0,25.7-10,26.1-23.7l0.1-5.1h-26v9.8h15
	c-2.2,5.6-7.8,9.1-15.2,9.1c-9.8,0-17.8-8-17.8-17.8c0-9.6,7.8-17.1,17.8-17.1c7,0,11.2,2.8,15.4,6.9l7-7
	c-4.6-4.6-11.2-9.8-22.4-9.8C309.8-0.1,297.7,11.7,297.7,26.8"/>
<polygon class="st0" points="152.9,1.2 163.5,1.2 176.6,24.4 189.6,1.2 200.1,1.2 181.5,35.2 181.5,53.2 171.5,53.2 171.5,35.2 "/>
<path class="st0" d="M243.7,53.2l-20-52h-10l-20,52h10.3l3.2-8.2c6.6-6.2,16.6-6.2,23.2,0.1l3.1,8.2H243.7z M211.9,32.8l6.9-17.8
	l6.9,17.8C221.1,31.5,216.4,31.4,211.9,32.8"/>
<path class="st0" d="M89.2,53.2l-20-52h-10l-20,52h10.3l3.2-8.2c6.6-6.2,16.6-6.2,23.2,0.1l3.1,8.2H89.2z M57.3,32.8L64.2,15
	l6.9,17.8C66.6,31.5,61.8,31.4,57.3,32.8"/>
<path class="st0" d="M29.4,12.4c-2-2.8-5.6-4.1-9.2-4.1c-4.3,0-8.6,1.9-8.6,6.7c0,10.4,25,4.5,25,22.9c0,11.1-8.9,16.6-19.3,16.6
	c-6.6,0-13-2-17.3-7l7.1-6.7c2.3,3.4,6.3,5.4,10.4,5.4c4.3,0,9.2-2.3,9.2-7.1c0-11.4-25-4.8-25-23.4C1.7,4.9,11.4,0,21.2,0
	c5.5,0,11,1.5,15.1,5.4L29.4,12.4z"/>
<path class="st0" d="M290.5,1.2h-9.9v34.2L260.3,4.2c-1.3-2-2.5-3.1-4.9-3.1h-6.5v52h9.9V19.1l22.3,34.1h9.4V1.2z"/>
<path class="st0" d="M145.1,1.2h-5.8c-2.6,0-4.2,0.8-4.9,3.1l-11.1,33.2l-11-33.2c-0.8-2.3-2.2-3.1-4.9-3.1h-5.7l-9,52h9.6l5.7-32.8
	l11,32.8h8.7l11-32.8l5.6,32.8h9.6L145.1,1.2z"/>
<g>
	<defs>
		<polygon id="SVGID_1_" points="373.6,25.7 347.4,71.1 367.3,71.1 393.6,25.7 		"/>
	</defs>
	<clipPath id="SVGID_2_">
		<use xlink:href="#SVGID_1_"  style="overflow:visible;"/>
	</clipPath>
	
		<linearGradient id="SVGID_3_" gradientUnits="userSpaceOnUse" x1="-60.2971" y1="285.4948" x2="-59.2972" y2="285.4948" gradientTransform="matrix(0 -45.1272 45.1272 0 -12513.1162 -2650.238)">
		<stop  offset="0" style="stop-color:#FEFEFE"/>
		<stop  offset="0.8" style="stop-color:#FF671D"/>
		<stop  offset="0.9725" style="stop-color:#FF671D"/>
		<stop  offset="1" style="stop-color:#FF671D"/>
	</linearGradient>
	<rect x="347.4" y="25.7" class="st1" width="46.2" height="45.4"/>
</g>
</svg>
