<?xml version="1.0" encoding="utf-8"?>
<!-- Generator: Adobe Illustrator 22.0.1, SVG Export Plug-In . SVG Version: 6.00 Build 0)  -->
<svg version="1.1" id="Layer_3" xmlns="http://www.w3.org/2000/svg" xmlns:xlink="http://www.w3.org/1999/xlink" x="0px" y="0px"
	 viewBox="0 0 132.8 53.7" style="enable-background:new 0 0 132.8 53.7;" xml:space="preserve">
<g>
	<g>
		<g>
			<polygon points="72.9,0 51.8,0 48.7,3.3 69.7,3.3 			"/>
			<polygon points="53.6,20.2 32.4,20.2 29.2,23.4 50.4,23.4 			"/>
			<polygon points="36.4,38 36.9,38.5 60.4,38.5 57.4,35.3 17.8,35.3 14.6,38.5 36,38.5 			"/>
			<polygon points="52.9,30.2 22.6,30.2 19.5,33.5 55.8,33.5 			"/>
			<polygon points="38.9,13.3 60.1,13.3 63.2,10.1 42.1,10.1 			"/>
			<polygon points="41.5,43.6 64.9,43.6 62,40.3 38.5,40.3 			"/>
			<polygon points="64.9,8.3 68,5 46.9,5 43.8,8.3 			"/>
			<polygon points="0.1,53.6 21.5,53.6 24.6,50.4 3.2,50.4 			"/>
			<polygon points="37.2,15.1 34.1,18.4 55.3,18.4 58.4,15.1 			"/>
			<polygon points="43.1,45.3 46,48.6 69.5,48.6 66.6,45.3 			"/>
			<polygon points="48.5,25.4 48.7,25.2 27.5,25.2 24.4,28.4 51.3,28.4 			"/>
			<polygon points="34.3,40.3 12.9,40.3 9.8,43.6 31.1,43.6 			"/>
			<polygon points="29.4,45.3 8.1,45.3 4.9,48.6 26.3,48.6 			"/>
			<polygon points="50.6,53.6 74.1,53.6 71.1,50.4 47.7,50.4 			"/>
			<polygon points="31,15.1 15.6,15.1 18.6,18.4 27.9,18.4 			"/>
			<polygon points="30.1,5 6.5,5 9.4,8.3 33,8.3 			"/>
			<polygon points="35.2,10.7 34.6,10.1 11,10.1 14,13.3 32.7,13.3 			"/>
			<polygon points="25.5,0 1.9,0 4.8,3.3 28.5,3.3 			"/>
			<polygon points="23.1,23.3 26.1,20.2 20.2,20.2 			"/>
		</g>
		<g>
			<path d="M75.7,5v3.3h54.9c-0.8-1.2-1.8-2.3-3-3.3H75.7z"/>
			<rect x="75.7" y="35.3" width="18.3" height="3.3"/>
			<path d="M106.1,0H75.7v3.3h49C120.1,0.9,113.7,0,106.1,0z"/>
			<rect x="75.7" y="15.1" width="18.3" height="3.3"/>
			<rect x="75.7" y="20.2" width="18.3" height="3.3"/>
			<rect x="75.7" y="40.3" width="18.3" height="3.3"/>
			<rect x="75.7" y="50.4" width="18.3" height="3.3"/>
			<path d="M108.3,23.4h23.7c0.4-1,0.6-2.1,0.8-3.3H113C112.2,21.6,110.7,22.7,108.3,23.4z"/>
			<path d="M113.7,17.2c0,0.4,0,0.8-0.1,1.1h19.3c0-0.4,0-0.7,0-1.1c0-0.7,0-1.4-0.1-2.1h-19.5C113.6,15.8,113.7,16.5,113.7,17.2z"
				/>
			<g>
				<rect x="75.7" y="10.1" width="18.3" height="3.3"/>
				<path d="M131.5,10.1h-27.8c4.3,0.2,7,1.6,8.5,3.3h20.3C132.3,12.2,132,11.1,131.5,10.1z"/>
			</g>
			<rect x="75.7" y="45.3" width="18.3" height="3.3"/>
			<path d="M66.3,28.4h62.4c1-1,1.8-2,2.5-3.3H69.4L66.3,28.4z"/>
			<path d="M61.5,33.5h56.3c3.4-0.7,6.3-1.7,8.7-3.3H64.6L61.5,33.5z"/>
		</g>
	</g>
</g>
</svg>
