<?xml version="1.0" encoding="utf-8"?>
<!-- Generator: Adobe Illustrator 22.1.0, SVG Export Plug-In . SVG Version: 6.00 Build 0)  -->
<svg version="1.1" id="Layer_1" xmlns="http://www.w3.org/2000/svg" xmlns:xlink="http://www.w3.org/1999/xlink" x="0px" y="0px"
	 viewBox="0 0 157.8 157.3" style="enable-background:new 0 0 157.8 157.3;" xml:space="preserve">
<style type="text/css">
	.st0{fill:#231F20;}
	.st1{enable-background:new    ;}
</style>
<path class="st0" d="M78.9-0.5C35.3-0.5,0,34.8,0,78.4s35.3,78.9,78.9,78.9s78.9-35.3,78.9-78.9S122.5-0.5,78.9-0.5z M78.9,147.6
	c-38.2,0-69.2-31-69.2-69.2s31-69.2,69.2-69.2s69.2,31,69.2,69.2S117.1,147.6,78.9,147.6z"/>
<g>
	<path class="st0" d="M80.7,15.9c33.1,0,60,26.9,60,59.9c0,3.1-2.5,5.7-5.7,5.7c-3.1,0-5.7-2.5-5.7-5.7c0-26.8-21.8-48.6-48.6-48.6
		c-3.1,0-5.7-2.5-5.7-5.7C75,18.5,77.6,15.9,80.7,15.9z"/>
</g>
<g class="st1">
	<path d="M99.1,50.9v8.7H73v17.4h22v8.7H73v24H62V50.9H99.1z"/>
</g>
</svg>
