<?xml version="1.0" encoding="utf-8"?>
<!-- Generator: Adobe Illustrator 22.0.1, SVG Export Plug-In . SVG Version: 6.00 Build 0)  -->
<svg version="1.1" id="Layer_1" xmlns="http://www.w3.org/2000/svg" xmlns:xlink="http://www.w3.org/1999/xlink" x="0px" y="0px"
	 viewBox="0 0 283.5 31.6" style="enable-background:new 0 0 283.5 31.6;" xml:space="preserve">
<rect x="248.3" y="12.1" width="9" height="1.8"/>
<polygon points="248.3,16.8 274.9,16.8 276,14.9 257.3,14.9 257.3,14.9 248.3,14.9 "/>
<rect x="248.3" y="9.3" width="9" height="1.8"/>
<polygon points="248.3,19.6 273.3,19.6 274.3,17.8 248.3,17.8 "/>
<rect x="248.3" y="26.2" width="9" height="1.8"/>
<rect x="248.3" y="23.4" width="9" height="1.8"/>
<polygon points="252.2,0.8 248.3,0.8 248.3,2.6 282.4,2.6 283.5,0.8 283,0.8 257.3,0.8 "/>
<rect x="248.3" y="20.6" width="9" height="1.8"/>
<polygon points="248.3,5.4 280.8,5.4 281.8,3.6 248.3,3.6 "/>
<rect x="248.3" y="6.4" width="9" height="1.8"/>
<rect x="248.3" y="29.1" width="9" height="1.8"/>
<polygon points="236.1,25.2 245,25.2 244,23.4 235.1,23.4 "/>
<polygon points="234.5,22.4 243.4,22.4 242.4,20.6 233.5,20.6 "/>
<polygon points="237.8,28.1 246.7,28.1 245.6,26.2 236.7,26.2 "/>
<polygon points="230.9,0.8 229.8,0.8 224.2,0.8 221,0.8 219.9,2.6 232,2.6 "/>
<polygon points="231.3,16.8 240.1,16.8 239.1,14.9 230.2,14.9 "/>
<polygon points="238.4,29.1 239.4,30.9 248.3,30.9 247.2,29.1 "/>
<polygon points="228,11.1 236.9,11.1 235.8,9.3 226.9,9.3 "/>
<polygon points="232.6,3.6 219.3,3.6 218.3,5.4 233.6,5.4 "/>
<polygon points="232.9,19.6 241.8,19.6 240.7,17.8 231.8,17.8 "/>
<polygon points="229.6,13.9 238.5,13.9 237.5,12.1 228.6,12.1 "/>
<polygon points="223.3,12.1 214.4,12.1 213.4,13.9 222.3,13.9 "/>
<polygon points="224.9,9.3 216.1,9.3 215,11.1 223.9,11.1 "/>
<polygon points="230.5,20.6 209.5,20.6 208.5,22.4 231.6,22.4 "/>
<polygon points="220.1,17.8 211.2,17.8 210.1,19.6 219,19.6 "/>
<polygon points="215.2,26.2 206.3,26.2 205.2,28.1 214.1,28.1 "/>
<polygon points="212.5,30.9 213.5,29.1 204.7,29.1 204.7,29 203.6,30.9 204.7,30.9 204.7,30.9 "/>
<polygon points="225.9,7.5 226.4,8.3 235.3,8.3 234.2,6.4 217.7,6.4 216.6,8.3 225.5,8.3 "/>
<polygon points="221.7,14.9 212.8,14.9 211.7,16.8 220.6,16.8 "/>
<polygon points="232.2,23.4 207.9,23.4 206.9,25.2 233.2,25.2 "/>
<path d="M173.8,15.6c0,8.8,7.2,16,16.1,16c8.6,0,15-5.8,15.2-13.7l0.1-2.9H190v5.7h8.8c-1.3,3.2-4.5,5.2-8.9,5.2
	c-5.7,0-10.4-4.6-10.4-10.3c0-5.5,4.6-9.9,10.4-9.9c4.1,0,6.6,1.6,9,4l4.1-4C200.3,3,196.4,0,189.9,0C180.9,0,173.8,6.8,173.8,15.6"
	/>
<polygon points="89.2,0.8 95.4,0.8 103.1,14.2 110.7,0.8 116.8,0.8 106,20.4 106,30.8 100.2,30.8 100.2,20.4 "/>
<path d="M142.3,30.8L130.6,0.8h-5.9l-11.7,30.1h6l1.9-4.8c3.8-3.6,9.7-3.6,13.5,0l1.8,4.7H142.3z M123.7,19l4-10.3l4,10.3
	C129.1,18.3,126.3,18.3,123.7,19"/>
<path d="M52.1,30.8L40.4,0.8h-5.9L22.8,30.8h6l1.9-4.8c3.8-3.6,9.7-3.6,13.5,0l1.8,4.7H52.1z M33.4,19l4-10.3l4,10.3
	C38.9,18.3,36.1,18.3,33.4,19"/>
<path d="M17.2,7.3c-1.2-1.6-3.3-2.4-5.4-2.4c-2.5,0-5,1.1-5,3.9c0,6,14.6,2.6,14.6,13.3c0,6.4-5.2,9.6-11.3,9.6
	c-3.8,0-7.6-1.1-10.1-4.1l4.1-3.9c1.3,2,3.7,3.1,6.1,3.1c2.5,0,5.4-1.4,5.4-4.1C15.6,16.1,1,19.9,1,9.1c0-6.2,5.7-9.1,11.4-9.1
	c3.2,0,6.4,0.9,8.8,3.1L17.2,7.3z"/>
<path d="M169.6,0.8h-5.8v19.8L152,2.5c-0.7-1.1-1.5-1.8-2.9-1.8h-3.8v30.1h5.8V11.1l13,19.7h5.5V0.8z"/>
<path d="M84.7,0.8h-3.4c-1.5,0-2.4,0.5-2.9,1.8L72,21.7L65.5,2.5c-0.5-1.4-1.3-1.8-2.9-1.8h-3.4l-5.3,30.1h5.6l3.3-19l6.4,19h5.1
	l6.5-19l3.3,19h5.6L84.7,0.8z"/>
</svg>
