<?xml version="1.0" encoding="utf-8"?>
<!-- Generator: Adobe Illustrator 22.1.0, SVG Export Plug-In . SVG Version: 6.00 Build 0)  -->
<svg version="1.1" id="Layer_1" xmlns="http://www.w3.org/2000/svg" xmlns:xlink="http://www.w3.org/1999/xlink" x="0px" y="0px"
	 viewBox="0 0 157.7 157.8" style="enable-background:new 0 0 157.7 157.8;" xml:space="preserve">
<style type="text/css">
	.st0{enable-background:new    ;}
</style>
<path d="M78.9,0C35.3,0,0,35.3,0,78.9s35.3,78.9,78.9,78.9s78.9-35.3,78.9-78.9S122.5,0,78.9,0z M78.9,148.1
	c-38.2,0-69.2-31-69.2-69.2s31-69.2,69.2-69.2s69.2,31,69.2,69.2S117.1,148.1,78.9,148.1z"/>
<g class="st0">
	<path d="M85.8,106.5h-7.4c-0.8,0-1.5-0.2-2-0.6s-0.9-0.9-1.2-1.5l-3.8-10.5H50l-3.8,10.5c-0.2,0.5-0.6,1-1.1,1.5
		c-0.6,0.5-1.2,0.7-2,0.7h-7.4l20.2-51.4h9.8L85.8,106.5z M52.5,87.1h16.4L62.6,70c-0.3-0.8-0.6-1.7-0.9-2.7s-0.7-2.2-1-3.4
		c-0.3,1.2-0.7,2.3-1,3.4c-0.3,1-0.6,2-0.9,2.7L52.5,87.1z"/>
	<path d="M120.5,55.1v7.6H97.7v15.2H117v7.6H97.7v20.9h-9.6V55.1H120.5z"/>
</g>
<g>
	<polygon points="48.8,34.8 34.6,40 29.4,57.6 29.4,34.8 	"/>
	<polygon points="106.9,34.8 120.8,39.9 125.9,57.2 125.9,34.8 	"/>
	<polygon points="48.8,123.8 34.6,118.5 29.4,100.9 29.4,123.8 	"/>
	<polygon points="106.7,123.8 120.9,118.5 126.1,100.9 126.1,123.8 	"/>
</g>
</svg>
