<?xml version="1.0" encoding="utf-8"?>
<!-- Generator: Adobe Illustrator 22.1.0, SVG Export Plug-In . SVG Version: 6.00 Build 0)  -->
<svg version="1.1" id="Layer_1" xmlns="http://www.w3.org/2000/svg" xmlns:xlink="http://www.w3.org/1999/xlink" x="0px" y="0px"
	 viewBox="0 0 166.2 120.5" style="enable-background:new 0 0 166.2 120.5;" xml:space="preserve">
<g>
	<path d="M161.7,120.5H4.4c-2.4,0-4.4-2-4.4-4.4V4.4C0,2,2,0,4.4,0h157.3c2.4,0,4.4,2,4.4,4.4V116
		C166.2,118.5,164.2,120.5,161.7,120.5z M8.9,111.6h148.5V8.9H8.9V111.6z"/>
</g>
<g>
	<g>
		<path d="M55.9,13.1c-1.2,0-2.2-1-2.2-2.2V4.4c0-1.2,1-2.2,2.2-2.2c1.2,0,2.2,1,2.2,2.2v6.4C58.1,12.1,57.1,13.1,55.9,13.1z"/>
	</g>
	<g>
		<path d="M55.9,30.6c-1.2,0-2.2-1-2.2-2.2V22c0-1.2,1-2.2,2.2-2.2c1.2,0,2.2,1,2.2,2.2v6.4C58.1,29.6,57.1,30.6,55.9,30.6z"/>
	</g>
	<g>
		<path d="M55.9,48.1c-1.2,0-2.2-1-2.2-2.2v-6.4c0-1.2,1-2.2,2.2-2.2c1.2,0,2.2,1,2.2,2.2v6.4C58.1,47.1,57.1,48.1,55.9,48.1z"/>
	</g>
	<g>
		<path d="M55.8,65.7c-1.2,0-2.2-1-2.2-2.2V57c0-1.2,1-2.2,2.2-2.2c1.2,0,2.2,1,2.2,2.2v6.4C58.1,64.7,57.1,65.7,55.8,65.7z"/>
	</g>
	<g>
		<path d="M55.9,83.2c-1.2,0-2.2-1-2.2-2.2v-6.4c0-1.2,1-2.2,2.2-2.2c1.2,0,2.2,1,2.2,2.2V81C58.1,82.2,57.1,83.2,55.9,83.2z"/>
	</g>
	<g>
		<path d="M55.9,100.7c-1.2,0-2.2-1-2.2-2.2v-6.4c0-1.2,1-2.2,2.2-2.2c1.2,0,2.2,1,2.2,2.2v6.4C58.1,99.7,57.1,100.7,55.9,100.7z"/>
	</g>
	<g>
		<path d="M55.9,118.2c-1.2,0-2.2-1-2.2-2.2v-6.4c0-1.2,1-2.2,2.2-2.2c1.2,0,2.2,1,2.2,2.2v6.4C58.1,117.3,57.1,118.2,55.9,118.2z"
			/>
	</g>
</g>
<g>
	<g>
		<path d="M80.7,13.1c-1.2,0-2.2-1-2.2-2.2V4.4c0-1.2,1-2.2,2.2-2.2c1.2,0,2.2,1,2.2,2.2v6.4C82.9,12.1,81.9,13.1,80.7,13.1z"/>
	</g>
	<g>
		<path d="M80.7,30.6c-1.2,0-2.2-1-2.2-2.2V22c0-1.2,1-2.2,2.2-2.2c1.2,0,2.2,1,2.2,2.2v6.4C82.9,29.6,81.9,30.6,80.7,30.6z"/>
	</g>
	<g>
		<path d="M80.7,48.1c-1.2,0-2.2-1-2.2-2.2v-6.4c0-1.2,1-2.2,2.2-2.2c1.2,0,2.2,1,2.2,2.2v6.4C82.9,47.1,81.9,48.1,80.7,48.1z"/>
	</g>
	<g>
		<path d="M80.7,65.7c-1.2,0-2.2-1-2.2-2.2V57c0-1.2,1-2.2,2.2-2.2c1.2,0,2.2,1,2.2,2.2v6.4C82.9,64.7,81.9,65.7,80.7,65.7z"/>
	</g>
	<g>
		<path d="M80.7,83.2c-1.2,0-2.2-1-2.2-2.2v-6.4c0-1.2,1-2.2,2.2-2.2c1.2,0,2.2,1,2.2,2.2V81C82.9,82.2,81.9,83.2,80.7,83.2z"/>
	</g>
	<g>
		<path d="M80.7,100.7c-1.2,0-2.2-1-2.2-2.2v-6.4c0-1.2,1-2.2,2.2-2.2c1.2,0,2.2,1,2.2,2.2v6.4C82.9,99.7,81.9,100.7,80.7,100.7z"/>
	</g>
	<g>
		<path d="M80.7,118.2c-1.2,0-2.2-1-2.2-2.2v-6.4c0-1.2,1-2.2,2.2-2.2c1.2,0,2.2,1,2.2,2.2v6.4C82.9,117.3,81.9,118.2,80.7,118.2z"
			/>
	</g>
</g>
<g>
	<g>
		<path d="M112.7,13.1c-1.2,0-2.2-1-2.2-2.2V4.4c0-1.2,1-2.2,2.2-2.2c1.2,0,2.2,1,2.2,2.2v6.4C114.9,12.1,113.9,13.1,112.7,13.1z"/>
	</g>
	<g>
		<path d="M112.7,30.6c-1.2,0-2.2-1-2.2-2.2V22c0-1.2,1-2.2,2.2-2.2c1.2,0,2.2,1,2.2,2.2v6.4C114.9,29.6,113.9,30.6,112.7,30.6z"/>
	</g>
	<g>
		<path d="M112.7,48.1c-1.2,0-2.2-1-2.2-2.2v-6.4c0-1.2,1-2.2,2.2-2.2c1.2,0,2.2,1,2.2,2.2v6.4C114.9,47.1,113.9,48.1,112.7,48.1z"
			/>
	</g>
	<g>
		<path d="M112.6,65.7c-1.2,0-2.2-1-2.2-2.2V57c0-1.2,1-2.2,2.2-2.2c1.2,0,2.2,1,2.2,2.2v6.4C114.9,64.7,113.9,65.7,112.6,65.7z"/>
	</g>
	<g>
		<path d="M112.7,83.2c-1.2,0-2.2-1-2.2-2.2v-6.4c0-1.2,1-2.2,2.2-2.2c1.2,0,2.2,1,2.2,2.2V81C114.9,82.2,113.9,83.2,112.7,83.2z"/>
	</g>
	<g>
		<path d="M112.7,100.7c-1.2,0-2.2-1-2.2-2.2v-6.4c0-1.2,1-2.2,2.2-2.2c1.2,0,2.2,1,2.2,2.2v6.4C114.9,99.7,113.9,100.7,112.7,100.7
			z"/>
	</g>
	<g>
		<path d="M112.7,118.2c-1.2,0-2.2-1-2.2-2.2v-6.4c0-1.2,1-2.2,2.2-2.2c1.2,0,2.2,1,2.2,2.2v6.4
			C114.9,117.3,113.9,118.2,112.7,118.2z"/>
	</g>
</g>
<g>
	<g>
		<path d="M13.9,13.1c-1.2,0-2.2-1-2.2-2.2V4.4c0-1.2,1-2.2,2.2-2.2c1.2,0,2.2,1,2.2,2.2v6.4C16.1,12.1,15.1,13.1,13.9,13.1z"/>
	</g>
	<g>
		<path d="M13.9,30.6c-1.2,0-2.2-1-2.2-2.2V22c0-1.2,1-2.2,2.2-2.2c1.2,0,2.2,1,2.2,2.2v6.4C16.1,29.6,15.1,30.6,13.9,30.6z"/>
	</g>
	<g>
		<path d="M13.9,48.1c-1.2,0-2.2-1-2.2-2.2v-6.4c0-1.2,1-2.2,2.2-2.2c1.2,0,2.2,1,2.2,2.2v6.4C16.1,47.1,15.1,48.1,13.9,48.1z"/>
	</g>
	<g>
		<path d="M13.9,65.7c-1.2,0-2.2-1-2.2-2.2V57c0-1.2,1-2.2,2.2-2.2c1.2,0,2.2,1,2.2,2.2v6.4C16.1,64.7,15.1,65.7,13.9,65.7z"/>
	</g>
	<g>
		<path d="M13.9,83.2c-1.2,0-2.2-1-2.2-2.2v-6.4c0-1.2,1-2.2,2.2-2.2c1.2,0,2.2,1,2.2,2.2V81C16.1,82.2,15.1,83.2,13.9,83.2z"/>
	</g>
	<g>
		<path d="M13.9,100.7c-1.2,0-2.2-1-2.2-2.2v-6.4c0-1.2,1-2.2,2.2-2.2c1.2,0,2.2,1,2.2,2.2v6.4C16.1,99.7,15.1,100.7,13.9,100.7z"/>
	</g>
	<g>
		<path d="M13.9,118.2c-1.2,0-2.2-1-2.2-2.2v-6.4c0-1.2,1-2.2,2.2-2.2c1.2,0,2.2,1,2.2,2.2v6.4C16.1,117.3,15.1,118.2,13.9,118.2z"
			/>
	</g>
</g>
<g>
	<g>
		<path d="M23.7,13.1c-1.2,0-2.2-1-2.2-2.2V4.4c0-1.2,1-2.2,2.2-2.2c1.2,0,2.2,1,2.2,2.2v6.4C25.9,12.1,24.9,13.1,23.7,13.1z"/>
	</g>
	<g>
		<path d="M23.7,30.6c-1.2,0-2.2-1-2.2-2.2V22c0-1.2,1-2.2,2.2-2.2c1.2,0,2.2,1,2.2,2.2v6.4C25.9,29.6,24.9,30.6,23.7,30.6z"/>
	</g>
	<g>
		<path d="M23.7,48.1c-1.2,0-2.2-1-2.2-2.2v-6.4c0-1.2,1-2.2,2.2-2.2c1.2,0,2.2,1,2.2,2.2v6.4C25.9,47.1,24.9,48.1,23.7,48.1z"/>
	</g>
	<g>
		<path d="M23.7,65.7c-1.2,0-2.2-1-2.2-2.2V57c0-1.2,1-2.2,2.2-2.2c1.2,0,2.2,1,2.2,2.2v6.4C25.9,64.7,24.9,65.7,23.7,65.7z"/>
	</g>
	<g>
		<path d="M23.7,83.2c-1.2,0-2.2-1-2.2-2.2v-6.4c0-1.2,1-2.2,2.2-2.2c1.2,0,2.2,1,2.2,2.2V81C25.9,82.2,24.9,83.2,23.7,83.2z"/>
	</g>
	<g>
		<path d="M23.7,100.7c-1.2,0-2.2-1-2.2-2.2v-6.4c0-1.2,1-2.2,2.2-2.2c1.2,0,2.2,1,2.2,2.2v6.4C25.9,99.7,24.9,100.7,23.7,100.7z"/>
	</g>
	<g>
		<path d="M23.7,118.2c-1.2,0-2.2-1-2.2-2.2v-6.4c0-1.2,1-2.2,2.2-2.2c1.2,0,2.2,1,2.2,2.2v6.4C25.9,117.3,24.9,118.2,23.7,118.2z"
			/>
	</g>
</g>
<g>
	<g>
		<path d="M37.4,13.1c-1.2,0-2.2-1-2.2-2.2V4.4c0-1.2,1-2.2,2.2-2.2c1.2,0,2.2,1,2.2,2.2v6.4C39.6,12.1,38.6,13.1,37.4,13.1z"/>
	</g>
	<g>
		<path d="M37.4,30.6c-1.2,0-2.2-1-2.2-2.2V22c0-1.2,1-2.2,2.2-2.2c1.2,0,2.2,1,2.2,2.2v6.4C39.6,29.6,38.6,30.6,37.4,30.6z"/>
	</g>
	<g>
		<path d="M37.4,48.1c-1.2,0-2.2-1-2.2-2.2v-6.4c0-1.2,1-2.2,2.2-2.2c1.2,0,2.2,1,2.2,2.2v6.4C39.6,47.1,38.6,48.1,37.4,48.1z"/>
	</g>
	<g>
		<path d="M37.4,65.7c-1.2,0-2.2-1-2.2-2.2V57c0-1.2,1-2.2,2.2-2.2c1.2,0,2.2,1,2.2,2.2v6.4C39.6,64.7,38.6,65.7,37.4,65.7z"/>
	</g>
	<g>
		<path d="M37.4,83.2c-1.2,0-2.2-1-2.2-2.2v-6.4c0-1.2,1-2.2,2.2-2.2c1.2,0,2.2,1,2.2,2.2V81C39.6,82.2,38.6,83.2,37.4,83.2z"/>
	</g>
	<g>
		<path d="M37.4,100.7c-1.2,0-2.2-1-2.2-2.2v-6.4c0-1.2,1-2.2,2.2-2.2c1.2,0,2.2,1,2.2,2.2v6.4C39.6,99.7,38.6,100.7,37.4,100.7z"/>
	</g>
	<g>
		<path d="M37.4,118.2c-1.2,0-2.2-1-2.2-2.2v-6.4c0-1.2,1-2.2,2.2-2.2c1.2,0,2.2,1,2.2,2.2v6.4C39.6,117.3,38.6,118.2,37.4,118.2z"
			/>
	</g>
</g>
</svg>
