<?xml version="1.0" encoding="utf-8"?>
<!-- Generator: Adobe Illustrator 22.0.1, SVG Export Plug-In . SVG Version: 6.00 Build 0)  -->
<svg version="1.1" id="Layer_1" xmlns="http://www.w3.org/2000/svg" xmlns:xlink="http://www.w3.org/1999/xlink" x="0px" y="0px"
	 viewBox="0 0 283.5 32.2" style="enable-background:new 0 0 283.5 32.2;" xml:space="preserve">
<style type="text/css">
	.st0{fill:#8C9091;}
</style>
<path d="M177.1,15.9c0,9,7.4,16.3,16.4,16.3c8.8,0,15.3-5.9,15.5-14l0.1-3h-15.5V21h8.9c-1.3,3.3-4.6,5.3-9.1,5.3
	c-5.8,0-10.6-4.7-10.6-10.5c0-5.6,4.6-10.1,10.6-10.1c4.2,0,6.7,1.6,9.2,4.1l4.1-4.1c-2.7-2.7-6.7-5.8-13.3-5.8
	C184.3,0,177.1,7,177.1,15.9"/>
<polygon points="90.9,0.8 97.2,0.8 105,14.5 112.8,0.8 119,0.8 108,20.8 108,31.4 102,31.4 102,20.8 "/>
<path d="M145,31.4L133.1,0.8h-6l-11.9,30.6h6.1l1.9-4.9c3.9-3.6,9.9-3.6,13.8,0l1.9,4.8H145z M126,19.4l4.1-10.5l4.1,10.5
	C131.5,18.6,128.7,18.6,126,19.4"/>
<path d="M53,31.4L41.1,0.8h-6L23.2,31.4h6.1l1.9-4.8c3.9-3.6,9.9-3.6,13.8,0l1.9,4.8H53z M34.1,19.4l4.1-10.5l4.1,10.5
	C39.6,18.6,36.7,18.6,34.1,19.4"/>
<path d="M17.5,7.4C16.3,5.8,14.2,5,12,5C9.4,5,6.9,6.1,6.9,8.9c0,6.1,14.9,2.6,14.9,13.5c0,6.6-5.3,9.8-11.5,9.8
	C6.4,32.2,2.6,31,0,28l4.2-4c1.4,2,3.7,3.2,6.2,3.2c2.6,0,5.5-1.4,5.5-4.2C15.9,16.4,1,20.2,1,9.3C1,3,6.8,0.1,12.6,0.1
	c3.3,0,6.6,0.9,9,3.2L17.5,7.4z"/>
<path d="M172.8,0.8h-5.9v20.1l-12-18.4c-0.8-1.1-1.5-1.8-2.9-1.8H148v30.6h5.9V11.3l13.3,20.1h5.6V0.8z"/>
<path d="M86.3,0.8h-3.4c-1.6,0-2.5,0.5-2.9,1.8l-6.6,19.6L66.8,2.6c-0.5-1.4-1.3-1.8-2.9-1.8h-3.4l-5.4,30.6h5.7l3.4-19.3l6.5,19.3
	h5.2l6.6-19.3l3.3,19.3h5.7L86.3,0.8z"/>
<polygon class="st0" points="249.4,0.9 237.5,0.9 235.7,2.7 247.6,2.7 "/>
<polygon class="st0" points="238.5,12.3 226.4,12.3 224.7,14.1 236.7,14.1 "/>
<polygon class="st0" points="228.7,22.4 229,22.7 242.3,22.7 240.6,20.9 218.2,20.9 216.4,22.7 228.5,22.7 "/>
<polygon class="st0" points="238.1,18 220.9,18 219.1,19.9 239.7,19.9 "/>
<polygon class="st0" points="230.2,8.4 242.2,8.4 243.9,6.6 231.9,6.6 "/>
<polygon class="st0" points="231.6,25.6 244.9,25.6 243.2,23.7 229.9,23.7 "/>
<polygon class="st0" points="244.9,5.6 246.7,3.7 234.7,3.7 232.9,5.6 "/>
<polygon class="st0" points="208.1,31.3 220.3,31.3 222,29.4 209.9,29.4 "/>
<polygon class="st0" points="229.2,9.4 227.4,11.3 239.4,11.3 241.2,9.4 "/>
<polygon class="st0" points="232.5,26.6 234.2,28.4 247.5,28.4 245.8,26.6 "/>
<polygon class="st0" points="235.6,15.3 235.7,15.1 223.7,15.1 221.9,17 237.2,17 "/>
<polygon class="st0" points="227.5,23.7 215.4,23.7 213.6,25.6 225.7,25.6 "/>
<polygon class="st0" points="224.8,26.6 212.7,26.6 210.9,28.4 223,28.4 "/>
<polygon class="st0" points="236.8,31.3 250.1,31.3 248.4,29.4 235.1,29.4 "/>
<polygon class="st0" points="225.7,9.4 216.9,9.4 218.6,11.3 223.9,11.3 "/>
<polygon class="st0" points="225.1,3.7 211.8,3.7 213.4,5.6 226.8,5.6 "/>
<polygon class="st0" points="228.1,7 227.7,6.6 214.3,6.6 216,8.4 226.6,8.4 "/>
<polygon class="st0" points="222.6,0.9 209.2,0.9 210.8,2.7 224.2,2.7 "/>
<polygon class="st0" points="221.2,14.1 222.9,12.3 219.5,12.3 "/>
<path class="st0" d="M251,3.7v1.8h31.1c-0.5-0.7-1-1.3-1.7-1.8H251z"/>
<rect x="251" y="20.9" class="st0" width="10.4" height="1.8"/>
<path class="st0" d="M268.3,0.9H251v1.8h27.8C276.2,1.4,272.6,0.9,268.3,0.9"/>
<rect x="251" y="9.4" class="st0" width="10.4" height="1.8"/>
<rect x="251" y="12.3" class="st0" width="10.4" height="1.8"/>
<rect x="251" y="23.7" class="st0" width="10.4" height="1.8"/>
<rect x="251" y="29.4" class="st0" width="10.4" height="1.8"/>
<path class="st0" d="M269.5,14.1h13.4c0.2-0.6,0.4-1.2,0.5-1.8h-11.2C271.7,13.1,270.8,13.8,269.5,14.1"/>
<path class="st0" d="M272.6,10.6c0,0.2,0,0.4-0.1,0.6h10.9c0-0.2,0-0.4,0-0.6c0-0.4,0-0.8-0.1-1.2h-11
	C272.5,9.8,272.6,10.2,272.6,10.6"/>
<rect x="251" y="6.6" class="st0" width="10.4" height="1.8"/>
<path class="st0" d="M282.7,6.6h-15.7c2.4,0.1,4,0.9,4.8,1.8h11.5C283.1,7.8,282.9,7.1,282.7,6.6"/>
<rect x="251" y="26.6" class="st0" width="10.4" height="1.8"/>
<path class="st0" d="M245.7,17H281c0.6-0.5,1-1.2,1.4-1.8h-35L245.7,17z"/>
<path class="st0" d="M242.9,19.9h31.9c1.9-0.4,3.6-1,4.9-1.8h-35.1L242.9,19.9z"/>
</svg>
